<?xml version="1.0" encoding="UTF-8" standalone="no"?><svg xmlns="http://www.w3.org/2000/svg" xmlns:xlink="http://www.w3.org/1999/xlink" contentScriptType="application/ecmascript" contentStyleType="text/css" height="773px" preserveAspectRatio="none" style="width:1457px;height:773px;" version="1.1" viewBox="0 0 1457 773" width="1457px" zoomAndPan="magnify"><defs><filter height="300%" id="f5uu0vnrg3u2" width="300%" x="-1" y="-1"><feGaussianBlur result="blurOut" stdDeviation="2.0"/><feColorMatrix in="blurOut" result="blurOut2" type="matrix" values="0 0 0 0 0 0 0 0 0 0 0 0 0 0 0 0 0 0 .4 0"/><feOffset dx="4.0" dy="4.0" in="blurOut2" result="blurOut3"/><feBlend in="SourceGraphic" in2="blurOut3" mode="normal"/></filter></defs><g><text fill="#000000" font-family="sans-serif" font-size="18" lengthAdjust="spacingAndGlyphs" textLength="476" x="488.25" y="30.6855">UC02 - Definir Área de Actividade - Diagrama de Sequência</text><rect fill="#FFFFFF" filter="url(#f5uu0vnrg3u2)" height="519.9219" style="stroke:#A80036;stroke-width:1.0;" width="10" x="47" y="158.6016"/><rect fill="#FFFFFF" filter="url(#f5uu0vnrg3u2)" height="30.3516" style="stroke:#A80036;stroke-width:1.0;" width="10" x="451" y="158.6016"/><rect fill="#FFFFFF" filter="url(#f5uu0vnrg3u2)" height="242.1094" style="stroke:#A80036;stroke-width:1.0;" width="10" x="451" y="219.3047"/><rect fill="#FFFFFF" filter="url(#f5uu0vnrg3u2)" height="186.7578" style="stroke:#A80036;stroke-width:1.0;" width="10" x="451" y="491.7656"/><rect fill="#FFFFFF" filter="url(#f5uu0vnrg3u2)" height="181.4063" style="stroke:#A80036;stroke-width:1.0;" width="10" x="753" y="249.6563"/><rect fill="#FFFFFF" filter="url(#f5uu0vnrg3u2)" height="186.7578" style="stroke:#A80036;stroke-width:1.0;" width="10" x="753" y="491.7656"/><rect fill="#FFFFFF" filter="url(#f5uu0vnrg3u2)" height="30" style="stroke:#A80036;stroke-width:1.0;" width="10" x="984" y="280.0078"/><rect fill="#FFFFFF" filter="url(#f5uu0vnrg3u2)" height="30.3516" style="stroke:#A80036;stroke-width:1.0;" width="10" x="1140" y="340.3594"/><rect fill="#FFFFFF" filter="url(#f5uu0vnrg3u2)" height="30" style="stroke:#A80036;stroke-width:1.0;" width="10" x="1140" y="401.0625"/><rect fill="#FFFFFF" filter="url(#f5uu0vnrg3u2)" height="79.7031" style="stroke:#A80036;stroke-width:1.0;" width="10" x="1140" y="552.4688"/><line style="stroke:#A80036;stroke-width:1.0;stroke-dasharray:5.0,5.0;" x1="52" x2="52" y1="126.25" y2="687.5234"/><line style="stroke:#A80036;stroke-width:1.0;stroke-dasharray:5.0,5.0;" x1="455.5" x2="455.5" y1="126.25" y2="687.5234"/><line style="stroke:#A80036;stroke-width:1.0;stroke-dasharray:5.0,5.0;" x1="758" x2="758" y1="126.25" y2="687.5234"/><line style="stroke:#A80036;stroke-width:1.0;stroke-dasharray:5.0,5.0;" x1="988.5" x2="988.5" y1="126.25" y2="687.5234"/><line style="stroke:#A80036;stroke-width:1.0;stroke-dasharray:5.0,5.0;" x1="1144.5" x2="1144.5" y1="126.25" y2="687.5234"/><line style="stroke:#A80036;stroke-width:1.0;stroke-dasharray:5.0,5.0;" x1="1377.5" x2="1377.5" y1="126.25" y2="687.5234"/><text fill="#000000" font-family="sans-serif" font-size="14" lengthAdjust="spacingAndGlyphs" textLength="88" x="5" y="123.1738">Administrativo</text><ellipse cx="52" cy="51.6406" fill="#FEFECE" filter="url(#f5uu0vnrg3u2)" rx="8" ry="8" style="stroke:#A80036;stroke-width:2.0;"/><path d="M52,59.6406 L52,86.6406 M39,67.6406 L65,67.6406 M52,86.6406 L39,101.6406 M52,86.6406 L65,101.6406 " fill="none" filter="url(#f5uu0vnrg3u2)" style="stroke:#A80036;stroke-width:2.0;"/><text fill="#000000" font-family="sans-serif" font-size="14" lengthAdjust="spacingAndGlyphs" textLength="88" x="5" y="701.0566">Administrativo</text><ellipse cx="52" cy="714.1328" fill="#FEFECE" filter="url(#f5uu0vnrg3u2)" rx="8" ry="8" style="stroke:#A80036;stroke-width:2.0;"/><path d="M52,722.1328 L52,749.1328 M39,730.1328 L65,730.1328 M52,749.1328 L39,764.1328 M52,749.1328 L65,764.1328 " fill="none" filter="url(#f5uu0vnrg3u2)" style="stroke:#A80036;stroke-width:2.0;"/><rect fill="#FEFECE" filter="url(#f5uu0vnrg3u2)" height="31.6094" style="stroke:#A80036;stroke-width:1.5;" width="97" x="405.5" y="89.6406"/><text fill="#000000" font-family="sans-serif" font-size="14" lengthAdjust="spacingAndGlyphs" textLength="83" x="412.5" y="111.1738">DefinirAreaUI</text><rect fill="#FEFECE" filter="url(#f5uu0vnrg3u2)" height="31.6094" style="stroke:#A80036;stroke-width:1.5;" width="97" x="405.5" y="686.5234"/><text fill="#000000" font-family="sans-serif" font-size="14" lengthAdjust="spacingAndGlyphs" textLength="83" x="412.5" y="708.0566">DefinirAreaUI</text><rect fill="#FEFECE" filter="url(#f5uu0vnrg3u2)" height="31.6094" style="stroke:#A80036;stroke-width:1.5;" width="122" x="695" y="89.6406"/><text fill="#000000" font-family="sans-serif" font-size="14" lengthAdjust="spacingAndGlyphs" textLength="108" x="702" y="111.1738">DefinirAreaCTRL</text><rect fill="#FEFECE" filter="url(#f5uu0vnrg3u2)" height="31.6094" style="stroke:#A80036;stroke-width:1.5;" width="122" x="695" y="686.5234"/><text fill="#000000" font-family="sans-serif" font-size="14" lengthAdjust="spacingAndGlyphs" textLength="108" x="702" y="708.0566">DefinirAreaCTRL</text><rect fill="#FEFECE" filter="url(#f5uu0vnrg3u2)" height="49.2188" style="stroke:#A80036;stroke-width:1.5;" width="89" x="942.5" y="72.0313"/><text fill="#000000" font-family="sans-serif" font-size="14" font-style="italic" lengthAdjust="spacingAndGlyphs" textLength="75" x="949.5" y="93.5645">«Singleton»</text><text fill="#000000" font-family="sans-serif" font-size="14" lengthAdjust="spacingAndGlyphs" textLength="68" x="953" y="111.1738">Plataforma</text><rect fill="#FEFECE" filter="url(#f5uu0vnrg3u2)" height="49.2188" style="stroke:#A80036;stroke-width:1.5;" width="89" x="942.5" y="686.5234"/><text fill="#000000" font-family="sans-serif" font-size="14" font-style="italic" lengthAdjust="spacingAndGlyphs" textLength="75" x="949.5" y="708.0566">«Singleton»</text><text fill="#000000" font-family="sans-serif" font-size="14" lengthAdjust="spacingAndGlyphs" textLength="68" x="953" y="725.666">Plataforma</text><rect fill="#FEFECE" filter="url(#f5uu0vnrg3u2)" height="31.6094" style="stroke:#A80036;stroke-width:1.5;" width="195" x="1045.5" y="89.6406"/><text fill="#000000" font-family="sans-serif" font-size="14" lengthAdjust="spacingAndGlyphs" textLength="181" x="1052.5" y="111.1738">rat:RepositorioAreaAtividade</text><rect fill="#FEFECE" filter="url(#f5uu0vnrg3u2)" height="31.6094" style="stroke:#A80036;stroke-width:1.5;" width="195" x="1045.5" y="686.5234"/><text fill="#000000" font-family="sans-serif" font-size="14" lengthAdjust="spacingAndGlyphs" textLength="181" x="1052.5" y="708.0566">rat:RepositorioAreaAtividade</text><rect fill="#FEFECE" filter="url(#f5uu0vnrg3u2)" height="31.6094" style="stroke:#A80036;stroke-width:1.5;" width="135" x="1308.5" y="89.6406"/><text fill="#000000" font-family="sans-serif" font-size="14" lengthAdjust="spacingAndGlyphs" textLength="121" x="1315.5" y="111.1738">area:AreaAtividade</text><rect fill="#FEFECE" filter="url(#f5uu0vnrg3u2)" height="31.6094" style="stroke:#A80036;stroke-width:1.5;" width="135" x="1308.5" y="686.5234"/><text fill="#000000" font-family="sans-serif" font-size="14" lengthAdjust="spacingAndGlyphs" textLength="121" x="1315.5" y="708.0566">area:AreaAtividade</text><rect fill="#FFFFFF" filter="url(#f5uu0vnrg3u2)" height="519.9219" style="stroke:#A80036;stroke-width:1.0;" width="10" x="47" y="158.6016"/><rect fill="#FFFFFF" filter="url(#f5uu0vnrg3u2)" height="30.3516" style="stroke:#A80036;stroke-width:1.0;" width="10" x="451" y="158.6016"/><rect fill="#FFFFFF" filter="url(#f5uu0vnrg3u2)" height="242.1094" style="stroke:#A80036;stroke-width:1.0;" width="10" x="451" y="219.3047"/><rect fill="#FFFFFF" filter="url(#f5uu0vnrg3u2)" height="186.7578" style="stroke:#A80036;stroke-width:1.0;" width="10" x="451" y="491.7656"/><rect fill="#FFFFFF" filter="url(#f5uu0vnrg3u2)" height="181.4063" style="stroke:#A80036;stroke-width:1.0;" width="10" x="753" y="249.6563"/><rect fill="#FFFFFF" filter="url(#f5uu0vnrg3u2)" height="186.7578" style="stroke:#A80036;stroke-width:1.0;" width="10" x="753" y="491.7656"/><rect fill="#FFFFFF" filter="url(#f5uu0vnrg3u2)" height="30" style="stroke:#A80036;stroke-width:1.0;" width="10" x="984" y="280.0078"/><rect fill="#FFFFFF" filter="url(#f5uu0vnrg3u2)" height="30.3516" style="stroke:#A80036;stroke-width:1.0;" width="10" x="1140" y="340.3594"/><rect fill="#FFFFFF" filter="url(#f5uu0vnrg3u2)" height="30" style="stroke:#A80036;stroke-width:1.0;" width="10" x="1140" y="401.0625"/><rect fill="#FFFFFF" filter="url(#f5uu0vnrg3u2)" height="79.7031" style="stroke:#A80036;stroke-width:1.0;" width="10" x="1140" y="552.4688"/><polygon fill="#A80036" points="439,154.6016,449,158.6016,439,162.6016,443,158.6016" style="stroke:#A80036;stroke-width:1.0;"/><line style="stroke:#A80036;stroke-width:1.0;" x1="57" x2="445" y1="158.6016" y2="158.6016"/><text fill="#000000" font-family="sans-serif" font-size="13" lengthAdjust="spacingAndGlyphs" textLength="142" x="64" y="153.7451">1. nova área de atividade</text><polygon fill="#A80036" points="68,184.9531,58,188.9531,68,192.9531,64,188.9531" style="stroke:#A80036;stroke-width:1.0;"/><line style="stroke:#A80036;stroke-width:1.0;stroke-dasharray:2.0,2.0;" x1="62" x2="455" y1="188.9531" y2="188.9531"/><text fill="#000000" font-family="sans-serif" font-size="13" lengthAdjust="spacingAndGlyphs" textLength="370" x="74" y="184.0967">2. solicita dados(código, descrição breve e descrição detalhada)</text><polygon fill="#A80036" points="439,215.3047,449,219.3047,439,223.3047,443,219.3047" style="stroke:#A80036;stroke-width:1.0;"/><line style="stroke:#A80036;stroke-width:1.0;" x1="57" x2="445" y1="219.3047" y2="219.3047"/><text fill="#000000" font-family="sans-serif" font-size="13" lengthAdjust="spacingAndGlyphs" textLength="184" x="64" y="214.4482">3. introduz os dados solicitados</text><polygon fill="#A80036" points="741,245.6563,751,249.6563,741,253.6563,745,249.6563" style="stroke:#A80036;stroke-width:1.0;"/><line style="stroke:#A80036;stroke-width:1.0;" x1="461" x2="747" y1="249.6563" y2="249.6563"/><text fill="#000000" font-family="sans-serif" font-size="13" lengthAdjust="spacingAndGlyphs" textLength="273" x="468" y="244.7998">4. novaAreaAtividade(cod, descBreve, descDet)</text><polygon fill="#A80036" points="972,276.0078,982,280.0078,972,284.0078,976,280.0078" style="stroke:#A80036;stroke-width:1.0;"/><line style="stroke:#A80036;stroke-width:1.0;" x1="763" x2="978" y1="280.0078" y2="280.0078"/><text fill="#000000" font-family="sans-serif" font-size="13" lengthAdjust="spacingAndGlyphs" textLength="202" x="770" y="275.1514">5. rat = getRegistoAreasAtividade()</text><polygon fill="#A80036" points="1128,336.3594,1138,340.3594,1128,344.3594,1132,340.3594" style="stroke:#A80036;stroke-width:1.0;"/><line style="stroke:#A80036;stroke-width:1.0;" x1="763" x2="1134" y1="340.3594" y2="340.3594"/><text fill="#000000" font-family="sans-serif" font-size="13" lengthAdjust="spacingAndGlyphs" textLength="314" x="770" y="335.5029">6. area = novaAreaAtividade(cod, descBreve, descDet)</text><polygon fill="#A80036" points="1366,366.7109,1376,370.7109,1366,374.7109,1370,370.7109" style="stroke:#A80036;stroke-width:1.0;"/><line style="stroke:#A80036;stroke-width:1.0;stroke-dasharray:2.0,2.0;" x1="1145" x2="1372" y1="370.7109" y2="370.7109"/><text fill="#000000" font-family="sans-serif" font-size="13" lengthAdjust="spacingAndGlyphs" textLength="204" x="1152" y="365.8545">7. create(cod, descBreve, descDet)</text><polygon fill="#A80036" points="1128,397.0625,1138,401.0625,1128,405.0625,1132,401.0625" style="stroke:#A80036;stroke-width:1.0;"/><line style="stroke:#A80036;stroke-width:1.0;" x1="763" x2="1134" y1="401.0625" y2="401.0625"/><text fill="#000000" font-family="sans-serif" font-size="13" lengthAdjust="spacingAndGlyphs" textLength="159" x="770" y="396.2061">8. validaAreaAtividade(area)</text><polygon fill="#A80036" points="68,457.4141,58,461.4141,68,465.4141,64,461.4141" style="stroke:#A80036;stroke-width:1.0;"/><line style="stroke:#A80036;stroke-width:1.0;stroke-dasharray:2.0,2.0;" x1="62" x2="455" y1="461.4141" y2="461.4141"/><text fill="#000000" font-family="sans-serif" font-size="13" lengthAdjust="spacingAndGlyphs" textLength="241" x="74" y="456.5576">9. apresenta dados e solicita confirmação</text><polygon fill="#A80036" points="439,487.7656,449,491.7656,439,495.7656,443,491.7656" style="stroke:#A80036;stroke-width:1.0;"/><line style="stroke:#A80036;stroke-width:1.0;" x1="57" x2="445" y1="491.7656" y2="491.7656"/><text fill="#000000" font-family="sans-serif" font-size="13" lengthAdjust="spacingAndGlyphs" textLength="71" x="64" y="486.9092">10. confirma</text><polygon fill="#A80036" points="741,518.1172,751,522.1172,741,526.1172,745,522.1172" style="stroke:#A80036;stroke-width:1.0;"/><line style="stroke:#A80036;stroke-width:1.0;" x1="461" x2="747" y1="522.1172" y2="522.1172"/><text fill="#000000" font-family="sans-serif" font-size="13" lengthAdjust="spacingAndGlyphs" textLength="148" x="468" y="517.2607">11. registaAreaAtividade()</text><polygon fill="#A80036" points="1128,548.4688,1138,552.4688,1128,556.4688,1132,552.4688" style="stroke:#A80036;stroke-width:1.0;"/><line style="stroke:#A80036;stroke-width:1.0;" x1="763" x2="1134" y1="552.4688" y2="552.4688"/><text fill="#000000" font-family="sans-serif" font-size="13" lengthAdjust="spacingAndGlyphs" textLength="173" x="770" y="547.6123">12. registaAreaAtividade(area)</text><line style="stroke:#A80036;stroke-width:1.0;" x1="1150" x2="1192" y1="582.8203" y2="582.8203"/><line style="stroke:#A80036;stroke-width:1.0;" x1="1192" x2="1192" y1="582.8203" y2="595.8203"/><line style="stroke:#A80036;stroke-width:1.0;" x1="1151" x2="1192" y1="595.8203" y2="595.8203"/><polygon fill="#A80036" points="1161,591.8203,1151,595.8203,1161,599.8203,1157,595.8203" style="stroke:#A80036;stroke-width:1.0;"/><text fill="#000000" font-family="sans-serif" font-size="13" lengthAdjust="spacingAndGlyphs" textLength="166" x="1157" y="577.9639">13. validaAreaAtividade(area)</text><line style="stroke:#A80036;stroke-width:1.0;" x1="1150" x2="1192" y1="631.1719" y2="631.1719"/><line style="stroke:#A80036;stroke-width:1.0;" x1="1192" x2="1192" y1="631.1719" y2="644.1719"/><line style="stroke:#A80036;stroke-width:1.0;" x1="1145" x2="1192" y1="644.1719" y2="644.1719"/><polygon fill="#A80036" points="1155,640.1719,1145,644.1719,1155,648.1719,1151,644.1719" style="stroke:#A80036;stroke-width:1.0;"/><text fill="#000000" font-family="sans-serif" font-size="13" lengthAdjust="spacingAndGlyphs" textLength="155" x="1157" y="626.3154">14. addAreaAtividade(area)</text><polygon fill="#A80036" points="68,665.5234,58,669.5234,68,673.5234,64,669.5234" style="stroke:#A80036;stroke-width:1.0;"/><line style="stroke:#A80036;stroke-width:1.0;stroke-dasharray:2.0,2.0;" x1="62" x2="450" y1="669.5234" y2="669.5234"/><text fill="#000000" font-family="sans-serif" font-size="13" lengthAdjust="spacingAndGlyphs" textLength="160" x="74" y="664.667">15. operação bem sucedida</text><!--MD5=[b295ee2fce22e340fa52d21b245bc8b3]
@startuml
title UC02 - Definir Área de Actividade - Diagrama de Sequência

actor Administrativo
participant Administrativo
participant DefinirAreaUI
participant DefinirAreaCTRL
participant Plataforma <<Singleton>>
participant "rat:RepositorioAreaAtividade" as RepositorioAreaAtividade
participant "area:AreaAtividade" as AreaAtividade

Administrativo -> DefinirAreaUI: 1. nova área de atividade
activate Administrativo
activate DefinirAreaUI
DefinirAreaUI - -> Administrativo: 2. solicita dados(código, descrição breve e descrição detalhada)
deactivate DefinirAreaUI

Administrativo -> DefinirAreaUI: 3. introduz os dados solicitados
activate DefinirAreaUI
DefinirAreaUI -> DefinirAreaCTRL: 4. novaAreaAtividade(cod, descBreve, descDet)
activate DefinirAreaCTRL
DefinirAreaCTRL -> Plataforma: 5. rat = getRegistoAreasAtividade()
activate Plataforma
deactivate Plataforma
DefinirAreaCTRL -> RepositorioAreaAtividade: 6. area = novaAreaAtividade(cod, descBreve, descDet)
activate RepositorioAreaAtividade
RepositorioAreaAtividade - -> AreaAtividade: 7. create(cod, descBreve, descDet)

deactivate RepositorioAreaAtividade
DefinirAreaCTRL -> RepositorioAreaAtividade: 8. validaAreaAtividade(area)

activate RepositorioAreaAtividade
deactivate RepositorioAreaAtividade
deactivate DefinirAreaCTRL
DefinirAreaUI - -> Administrativo: 9. apresenta dados e solicita confirmação
deactivate DefinirAreaUI
Administrativo -> DefinirAreaUI: 10. confirma
activate DefinirAreaUI
activate DefinirAreaCTRL
DefinirAreaUI -> DefinirAreaCTRL: 11. registaAreaAtividade()
DefinirAreaCTRL -> RepositorioAreaAtividade: 12. registaAreaAtividade(area)
activate RepositorioAreaAtividade
RepositorioAreaAtividade -> RepositorioAreaAtividade: 13. validaAreaAtividade(area)
RepositorioAreaAtividade -> RepositorioAreaAtividade: 14. addAreaAtividade(area)
deactivate RepositorioAreaAtividade
DefinirAreaUI - -> Administrativo: 15. operação bem sucedida

@enduml

PlantUML version 1.2020.22(Sun Dec 06 09:36:27 GMT 2020)
(GPL source distribution)
Java Runtime: Java(TM) SE Runtime Environment
JVM: Java HotSpot(TM) 64-Bit Server VM
Default Encoding: Cp1252
Language: en
Country: US
--></g></svg>