<?xml version="1.0" encoding="UTF-8" standalone="no"?><svg xmlns="http://www.w3.org/2000/svg" xmlns:xlink="http://www.w3.org/1999/xlink" contentScriptType="application/ecmascript" contentStyleType="text/css" height="712px" preserveAspectRatio="none" style="width:613px;height:712px;" version="1.1" viewBox="0 0 613 712" width="613px" zoomAndPan="magnify"><defs><filter height="300%" id="f1bad3hd7rdiun" width="300%" x="-1" y="-1"><feGaussianBlur result="blurOut" stdDeviation="2.0"/><feColorMatrix in="blurOut" result="blurOut2" type="matrix" values="0 0 0 0 0 0 0 0 0 0 0 0 0 0 0 0 0 0 .4 0"/><feOffset dx="4.0" dy="4.0" in="blurOut2" result="blurOut3"/><feBlend in="SourceGraphic" in2="blurOut3" mode="normal"/></filter></defs><g><text fill="#000000" font-family="sans-serif" font-size="18" lengthAdjust="spacing" textLength="510" x="45.25" y="16.708">UC02 - Definir Área de Atividade - Diagrama de Classes</text><!--MD5=[a73238f1d13e652ec4ebc941dc1ac63d]
class DefinirAreaUI--><rect codeLine="5" fill="#FEFECE" filter="url(#f1bad3hd7rdiun)" height="48" id="DefinirAreaUI" style="stroke:#A80036;stroke-width:1.5;" width="111" x="249" y="27.9531"/><ellipse cx="264" cy="43.9531" fill="#ADD1B2" rx="11" ry="11" style="stroke:#A80036;stroke-width:1.0;"/><path d="M266.3438,39.625 C265.4063,39.1875 264.8125,39.0469 263.9375,39.0469 C261.3125,39.0469 259.3125,41.125 259.3125,43.8438 L259.3125,44.9688 C259.3125,47.5469 261.4219,49.4375 264.3125,49.4375 C265.5313,49.4375 266.6875,49.1406 267.4375,48.5938 C268.0156,48.1875 268.3438,47.7344 268.3438,47.3438 C268.3438,46.8906 267.9531,46.5 267.4844,46.5 C267.2656,46.5 267.0625,46.5781 266.875,46.7656 C266.4219,47.25 266.4219,47.25 266.2344,47.3438 C265.8125,47.6094 265.125,47.7344 264.3594,47.7344 C262.3125,47.7344 261.0156,46.6406 261.0156,44.9375 L261.0156,43.8438 C261.0156,42.0625 262.2656,40.75 264,40.75 C264.5781,40.75 265.1875,40.9063 265.6563,41.1563 C266.1406,41.4375 266.3125,41.6563 266.4063,42.0625 C266.4688,42.4688 266.5,42.5938 266.6406,42.7188 C266.7813,42.8594 267.0156,42.9688 267.2344,42.9688 C267.5,42.9688 267.7656,42.8281 267.9375,42.6094 C268.0469,42.4531 268.0781,42.2656 268.0781,41.8438 L268.0781,40.4219 C268.0781,39.9844 268.0625,39.8594 267.9688,39.7031 C267.8125,39.4375 267.5313,39.2969 267.2344,39.2969 C266.9375,39.2969 266.7344,39.3906 266.5156,39.7031 L266.3438,39.625 Z " fill="#000000"/><text fill="#000000" font-family="sans-serif" font-size="12" lengthAdjust="spacing" textLength="79" x="278" y="48.1074">DefinirAreaUI</text><line style="stroke:#A80036;stroke-width:1.5;" x1="250" x2="359" y1="59.9531" y2="59.9531"/><line style="stroke:#A80036;stroke-width:1.5;" x1="250" x2="359" y1="67.9531" y2="67.9531"/><!--MD5=[52e4e871a42a73946b148d098b3e0767]
class DefinirAreaController--><rect codeLine="8" fill="#FEFECE" filter="url(#f1bad3hd7rdiun)" height="73.6094" id="DefinirAreaController" style="stroke:#A80036;stroke-width:1.5;" width="370" x="119.5" y="136.9531"/><ellipse cx="237.25" cy="152.9531" fill="#ADD1B2" rx="11" ry="11" style="stroke:#A80036;stroke-width:1.0;"/><path d="M239.5938,148.625 C238.6563,148.1875 238.0625,148.0469 237.1875,148.0469 C234.5625,148.0469 232.5625,150.125 232.5625,152.8438 L232.5625,153.9688 C232.5625,156.5469 234.6719,158.4375 237.5625,158.4375 C238.7813,158.4375 239.9375,158.1406 240.6875,157.5938 C241.2656,157.1875 241.5938,156.7344 241.5938,156.3438 C241.5938,155.8906 241.2031,155.5 240.7344,155.5 C240.5156,155.5 240.3125,155.5781 240.125,155.7656 C239.6719,156.25 239.6719,156.25 239.4844,156.3438 C239.0625,156.6094 238.375,156.7344 237.6094,156.7344 C235.5625,156.7344 234.2656,155.6406 234.2656,153.9375 L234.2656,152.8438 C234.2656,151.0625 235.5156,149.75 237.25,149.75 C237.8281,149.75 238.4375,149.9063 238.9063,150.1563 C239.3906,150.4375 239.5625,150.6563 239.6563,151.0625 C239.7188,151.4688 239.75,151.5938 239.8906,151.7188 C240.0313,151.8594 240.2656,151.9688 240.4844,151.9688 C240.75,151.9688 241.0156,151.8281 241.1875,151.6094 C241.2969,151.4531 241.3281,151.2656 241.3281,150.8438 L241.3281,149.4219 C241.3281,148.9844 241.3125,148.8594 241.2188,148.7031 C241.0625,148.4375 240.7813,148.2969 240.4844,148.2969 C240.1875,148.2969 239.9844,148.3906 239.7656,148.7031 L239.5938,148.625 Z " fill="#000000"/><text fill="#000000" font-family="sans-serif" font-size="12" lengthAdjust="spacing" textLength="126" x="257.75" y="157.1074">DefinirAreaController</text><line style="stroke:#A80036;stroke-width:1.5;" x1="120.5" x2="488.5" y1="168.9531" y2="168.9531"/><line style="stroke:#A80036;stroke-width:1.5;" x1="120.5" x2="488.5" y1="176.9531" y2="176.9531"/><ellipse cx="130.5" cy="187.9531" fill="#84BE84" rx="3" ry="3" style="stroke:#038048;stroke-width:1.0;"/><text fill="#000000" font-family="sans-serif" font-size="11" lengthAdjust="spacing" textLength="344" x="139.5" y="191.1636">novaAreaAtividade(String cod, String dsBreve, String dsDet)</text><ellipse cx="130.5" cy="200.7578" fill="#84BE84" rx="3" ry="3" style="stroke:#038048;stroke-width:1.0;"/><text fill="#000000" font-family="sans-serif" font-size="11" lengthAdjust="spacing" textLength="128" x="139.5" y="203.9683">registaAreaAtividade()</text><!--MD5=[13ace1d44b5c68581d5429ed2c7901cf]
class RegistoAreasAtividade--><rect codeLine="13" fill="#FEFECE" filter="url(#f1bad3hd7rdiun)" height="99.2188" id="RegistoAreasAtividade" style="stroke:#A80036;stroke-width:1.5;" width="455" x="7" y="422.9531"/><ellipse cx="162.25" cy="438.9531" fill="#ADD1B2" rx="11" ry="11" style="stroke:#A80036;stroke-width:1.0;"/><path d="M164.5938,434.625 C163.6563,434.1875 163.0625,434.0469 162.1875,434.0469 C159.5625,434.0469 157.5625,436.125 157.5625,438.8438 L157.5625,439.9688 C157.5625,442.5469 159.6719,444.4375 162.5625,444.4375 C163.7813,444.4375 164.9375,444.1406 165.6875,443.5938 C166.2656,443.1875 166.5938,442.7344 166.5938,442.3438 C166.5938,441.8906 166.2031,441.5 165.7344,441.5 C165.5156,441.5 165.3125,441.5781 165.125,441.7656 C164.6719,442.25 164.6719,442.25 164.4844,442.3438 C164.0625,442.6094 163.375,442.7344 162.6094,442.7344 C160.5625,442.7344 159.2656,441.6406 159.2656,439.9375 L159.2656,438.8438 C159.2656,437.0625 160.5156,435.75 162.25,435.75 C162.8281,435.75 163.4375,435.9063 163.9063,436.1563 C164.3906,436.4375 164.5625,436.6563 164.6563,437.0625 C164.7188,437.4688 164.75,437.5938 164.8906,437.7188 C165.0313,437.8594 165.2656,437.9688 165.4844,437.9688 C165.75,437.9688 166.0156,437.8281 166.1875,437.6094 C166.2969,437.4531 166.3281,437.2656 166.3281,436.8438 L166.3281,435.4219 C166.3281,434.9844 166.3125,434.8594 166.2188,434.7031 C166.0625,434.4375 165.7813,434.2969 165.4844,434.2969 C165.1875,434.2969 164.9844,434.3906 164.7656,434.7031 L164.5938,434.625 Z " fill="#000000"/><text fill="#000000" font-family="sans-serif" font-size="12" lengthAdjust="spacing" textLength="136" x="182.75" y="443.1074">RegistoAreasAtividade</text><line style="stroke:#A80036;stroke-width:1.5;" x1="8" x2="461" y1="454.9531" y2="454.9531"/><line style="stroke:#A80036;stroke-width:1.5;" x1="8" x2="461" y1="462.9531" y2="462.9531"/><ellipse cx="18" cy="473.9531" fill="#84BE84" rx="3" ry="3" style="stroke:#038048;stroke-width:1.0;"/><text fill="#000000" font-family="sans-serif" font-size="11" lengthAdjust="spacing" textLength="429" x="27" y="477.1636">AreaAtividade novaAreaAtividade(String cod, String dsBreve, String dsDet)</text><ellipse cx="18" cy="486.7578" fill="#84BE84" rx="3" ry="3" style="stroke:#038048;stroke-width:1.0;"/><text fill="#000000" font-family="sans-serif" font-size="11" lengthAdjust="spacing" textLength="234" x="27" y="489.9683">validaAreaAtividade(AreaAtividade area)</text><ellipse cx="18" cy="499.5625" fill="#84BE84" rx="3" ry="3" style="stroke:#038048;stroke-width:1.0;"/><text fill="#000000" font-family="sans-serif" font-size="11" lengthAdjust="spacing" textLength="239" x="27" y="502.7729">registaAreaAtividade(AreaAtividade area)</text><rect fill="#F24D5C" height="6" style="stroke:#C82930;stroke-width:1.0;" width="6" x="15" y="509.3672"/><text fill="#000000" font-family="sans-serif" font-size="11" lengthAdjust="spacing" textLength="221" x="27" y="515.5776">addAreaAtividade(AreaAtividade area)</text><!--MD5=[ecaed46f78f8cfe1e9ce18477649be18]
class Plataforma--><rect codeLine="20" fill="#FEFECE" filter="url(#f1bad3hd7rdiun)" height="73.6094" id="Plataforma" style="stroke:#A80036;stroke-width:1.5;" width="315" x="147" y="271.9531"/><ellipse cx="269.25" cy="287.9531" fill="#ADD1B2" rx="11" ry="11" style="stroke:#A80036;stroke-width:1.0;"/><path d="M271.5938,283.625 C270.6563,283.1875 270.0625,283.0469 269.1875,283.0469 C266.5625,283.0469 264.5625,285.125 264.5625,287.8438 L264.5625,288.9688 C264.5625,291.5469 266.6719,293.4375 269.5625,293.4375 C270.7813,293.4375 271.9375,293.1406 272.6875,292.5938 C273.2656,292.1875 273.5938,291.7344 273.5938,291.3438 C273.5938,290.8906 273.2031,290.5 272.7344,290.5 C272.5156,290.5 272.3125,290.5781 272.125,290.7656 C271.6719,291.25 271.6719,291.25 271.4844,291.3438 C271.0625,291.6094 270.375,291.7344 269.6094,291.7344 C267.5625,291.7344 266.2656,290.6406 266.2656,288.9375 L266.2656,287.8438 C266.2656,286.0625 267.5156,284.75 269.25,284.75 C269.8281,284.75 270.4375,284.9063 270.9063,285.1563 C271.3906,285.4375 271.5625,285.6563 271.6563,286.0625 C271.7188,286.4688 271.75,286.5938 271.8906,286.7188 C272.0313,286.8594 272.2656,286.9688 272.4844,286.9688 C272.75,286.9688 273.0156,286.8281 273.1875,286.6094 C273.2969,286.4531 273.3281,286.2656 273.3281,285.8438 L273.3281,284.4219 C273.3281,283.9844 273.3125,283.8594 273.2188,283.7031 C273.0625,283.4375 272.7813,283.2969 272.4844,283.2969 C272.1875,283.2969 271.9844,283.3906 271.7656,283.7031 L271.5938,283.625 Z " fill="#000000"/><text fill="#000000" font-family="sans-serif" font-size="12" lengthAdjust="spacing" textLength="62" x="289.75" y="292.1074">Plataforma</text><line style="stroke:#A80036;stroke-width:1.5;" x1="148" x2="461" y1="303.9531" y2="303.9531"/><rect fill="none" height="6" style="stroke:#C82930;stroke-width:1.0;" width="6" x="155" y="311.9531"/><text fill="#000000" font-family="sans-serif" font-size="11" lengthAdjust="spacing" textLength="102" x="167" y="318.1636">String designacao</text><line style="stroke:#A80036;stroke-width:1.5;" x1="148" x2="461" y1="324.7578" y2="324.7578"/><ellipse cx="158" cy="335.7578" fill="#84BE84" rx="3" ry="3" style="stroke:#038048;stroke-width:1.0;"/><text fill="#000000" font-family="sans-serif" font-size="11" lengthAdjust="spacing" textLength="289" x="167" y="338.9683">RegistoAreasAtividade getRegistoAreasAtividade()</text><!--MD5=[02456e6632d968d6f68141e5893c6991]
class AreaAtividade--><rect codeLine="25" fill="#FEFECE" filter="url(#f1bad3hd7rdiun)" height="99.2188" id="AreaAtividade" style="stroke:#A80036;stroke-width:1.5;" width="342" x="257.5" y="598.9531"/><ellipse cx="382.25" cy="614.9531" fill="#ADD1B2" rx="11" ry="11" style="stroke:#A80036;stroke-width:1.0;"/><path d="M384.5938,610.625 C383.6563,610.1875 383.0625,610.0469 382.1875,610.0469 C379.5625,610.0469 377.5625,612.125 377.5625,614.8438 L377.5625,615.9688 C377.5625,618.5469 379.6719,620.4375 382.5625,620.4375 C383.7813,620.4375 384.9375,620.1406 385.6875,619.5938 C386.2656,619.1875 386.5938,618.7344 386.5938,618.3438 C386.5938,617.8906 386.2031,617.5 385.7344,617.5 C385.5156,617.5 385.3125,617.5781 385.125,617.7656 C384.6719,618.25 384.6719,618.25 384.4844,618.3438 C384.0625,618.6094 383.375,618.7344 382.6094,618.7344 C380.5625,618.7344 379.2656,617.6406 379.2656,615.9375 L379.2656,614.8438 C379.2656,613.0625 380.5156,611.75 382.25,611.75 C382.8281,611.75 383.4375,611.9063 383.9063,612.1563 C384.3906,612.4375 384.5625,612.6563 384.6563,613.0625 C384.7188,613.4688 384.75,613.5938 384.8906,613.7188 C385.0313,613.8594 385.2656,613.9688 385.4844,613.9688 C385.75,613.9688 386.0156,613.8281 386.1875,613.6094 C386.2969,613.4531 386.3281,613.2656 386.3281,612.8438 L386.3281,611.4219 C386.3281,610.9844 386.3125,610.8594 386.2188,610.7031 C386.0625,610.4375 385.7813,610.2969 385.4844,610.2969 C385.1875,610.2969 384.9844,610.3906 384.7656,610.7031 L384.5938,610.625 Z " fill="#000000"/><text fill="#000000" font-family="sans-serif" font-size="12" lengthAdjust="spacing" textLength="84" x="402.75" y="619.1074">AreaAtividade</text><line style="stroke:#A80036;stroke-width:1.5;" x1="258.5" x2="598.5" y1="630.9531" y2="630.9531"/><rect fill="none" height="6" style="stroke:#C82930;stroke-width:1.0;" width="6" x="265.5" y="638.9531"/><text fill="#000000" font-family="sans-serif" font-size="11" lengthAdjust="spacing" textLength="74" x="277.5" y="645.1636">String codigo</text><rect fill="none" height="6" style="stroke:#C82930;stroke-width:1.0;" width="6" x="265.5" y="651.7578"/><text fill="#000000" font-family="sans-serif" font-size="11" lengthAdjust="spacing" textLength="85" x="277.5" y="657.9683">String dsBreve</text><rect fill="none" height="6" style="stroke:#C82930;stroke-width:1.0;" width="6" x="265.5" y="664.5625"/><text fill="#000000" font-family="sans-serif" font-size="11" lengthAdjust="spacing" textLength="109" x="277.5" y="670.7729">String dsDetalhada</text><line style="stroke:#A80036;stroke-width:1.5;" x1="258.5" x2="598.5" y1="677.3672" y2="677.3672"/><ellipse cx="268.5" cy="688.3672" fill="#84BE84" rx="3" ry="3" style="stroke:#038048;stroke-width:1.0;"/><text fill="#000000" font-family="sans-serif" font-size="11" lengthAdjust="spacing" textLength="316" x="277.5" y="691.5776">AreaAtividade(String cod, String dsBreve, String dsDet)</text><!--MD5=[6b612a1e5e59cc8b145cfd6c9f06b931]
link DefinirAreaUI to DefinirAreaController--><path codeLine="32" d="M304.5,76.0901 C304.5,91.7781 304.5,112.9561 304.5,131.5081 " fill="none" id="DefinirAreaUI-to-DefinirAreaController" style="stroke:#A80036;stroke-width:1.0;stroke-dasharray:7.0,7.0;"/><polygon fill="#A80036" points="304.5,136.6641,308.5,127.6641,304.5,131.6641,300.5,127.6641,304.5,136.6641" style="stroke:#A80036;stroke-width:1.0;"/><!--MD5=[8cc80a894aa07068b56dc5450933edc8]
link DefinirAreaController to AreaAtividade--><path codeLine="33" d="M411.178,211.1711 C438.168,225.6981 463.897,245.4651 479.5,271.9531 C539.375,373.5981 490.35,517.0771 455.606,593.9171 " fill="none" id="DefinirAreaController-to-AreaAtividade" style="stroke:#A80036;stroke-width:1.0;stroke-dasharray:7.0,7.0;"/><polygon fill="#A80036" points="453.34,598.8811,460.7171,592.3559,455.417,594.3329,453.44,589.0328,453.34,598.8811" style="stroke:#A80036;stroke-width:1.0;"/><!--MD5=[d44f1c5ec820c81f12ff3f79e1965be9]
link DefinirAreaController to Plataforma--><path codeLine="34" d="M304.5,211.2961 C304.5,228.3031 304.5,248.6491 304.5,266.2771 " fill="none" id="DefinirAreaController-to-Plataforma" style="stroke:#A80036;stroke-width:1.0;stroke-dasharray:7.0,7.0;"/><polygon fill="#A80036" points="304.5,271.6541,308.5,262.6541,304.5,266.6541,300.5,262.6541,304.5,271.6541" style="stroke:#A80036;stroke-width:1.0;"/><!--MD5=[a85cf8503d1f9c8c824a34920c5a5086]
link DefinirAreaController to RegistoAreasAtividade--><path codeLine="35" d="M197.822,211.1711 C170.832,225.6981 145.103,245.4651 129.5,271.9531 C100.7296,320.7941 138.118,378.2241 176.016,418.8931 " fill="none" id="DefinirAreaController-to-RegistoAreasAtividade" style="stroke:#A80036;stroke-width:1.0;stroke-dasharray:7.0,7.0;"/><polygon fill="#A80036" points="179.683,422.7761,176.4126,413.4861,176.2503,419.1406,170.5958,418.9783,179.683,422.7761" style="stroke:#A80036;stroke-width:1.0;"/><!--MD5=[727f7e9b0d39f0a1e7c7e190346316ff]
link Plataforma to RegistoAreasAtividade--><path codeLine="36" d="M288.791,346.1971 C279.608,367.3831 267.848,394.5141 257.623,418.1051 " fill="none" id="Plataforma-to-RegistoAreasAtividade" style="stroke:#A80036;stroke-width:1.0;"/><polygon fill="#A80036" points="255.6,422.7731,262.8497,416.1066,257.5887,418.1856,255.5097,412.9247,255.6,422.7731" style="stroke:#A80036;stroke-width:1.0;"/><text fill="#000000" font-family="sans-serif" font-size="13" lengthAdjust="spacing" textLength="26" x="277.5" y="389.02">tem</text><text fill="#000000" font-family="sans-serif" font-size="13" lengthAdjust="spacing" textLength="8" x="277.5267" y="365.7181">1</text><text fill="#000000" font-family="sans-serif" font-size="13" lengthAdjust="spacing" textLength="8" x="250.0047" y="411.793">1</text><!--MD5=[f832e5114c0a2f3b6fd1ddd795993084]
link RegistoAreasAtividade to AreaAtividade--><path codeLine="37" d="M288.798,522.1531 C314.226,544.9591 344.545,572.1531 370.43,595.3691 " fill="none" id="RegistoAreasAtividade-to-AreaAtividade" style="stroke:#A80036;stroke-width:1.0;"/><polygon fill="#A80036" points="374.215,598.7648,370.1852,589.7781,370.4926,595.4266,364.8441,595.734,374.215,598.7648" style="stroke:#A80036;stroke-width:1.0;"/><text fill="#000000" font-family="sans-serif" font-size="13" lengthAdjust="spacing" textLength="41" x="338.5" y="565.02">possui</text><text fill="#000000" font-family="sans-serif" font-size="13" lengthAdjust="spacing" textLength="8" x="287.8712" y="542.2577">1</text><text fill="#000000" font-family="sans-serif" font-size="13" lengthAdjust="spacing" textLength="7" x="359.089" y="587.7839">*</text><!--MD5=[3cd347f609254e9858ef48d686ac70f7]
@startuml
title UC02 - Definir Área de Atividade - Diagrama de Classes

top to bottom direction

class DefinirAreaUI {
}

class DefinirAreaController {
+novaAreaAtividade(String cod, String dsBreve, String dsDet)
+registaAreaAtividade()
}

class RegistoAreasAtividade {
+AreaAtividade novaAreaAtividade(String cod, String dsBreve, String dsDet)
+validaAreaAtividade(AreaAtividade area)
+registaAreaAtividade(AreaAtividade area)
-addAreaAtividade(AreaAtividade area)
}

class Plataforma {
-String designacao
+RegistoAreasAtividade getRegistoAreasAtividade()
}

class AreaAtividade {
-String codigo
-String dsBreve
-String dsDetalhada
+AreaAtividade(String cod, String dsBreve, String dsDet)
}

DefinirAreaUI ..> DefinirAreaController
DefinirAreaController ..> AreaAtividade
DefinirAreaController ..> Plataforma
DefinirAreaController ..> RegistoAreasAtividade
Plataforma "1"- ->"1" RegistoAreasAtividade : tem
RegistoAreasAtividade "1"- ->"*" AreaAtividade : possui
@enduml

PlantUML version 1.2021.01beta3(Unknown compile time)
(GPL source distribution)
Java Runtime: Java(TM) SE Runtime Environment
JVM: Java HotSpot(TM) 64-Bit Server VM
Default Encoding: UTF-8
Language: en
Country: US
--></g></svg>