<?xml version="1.0" encoding="UTF-8" standalone="no"?><svg xmlns="http://www.w3.org/2000/svg" xmlns:xlink="http://www.w3.org/1999/xlink" contentScriptType="application/ecmascript" contentStyleType="text/css" height="402px" preserveAspectRatio="none" style="width:668px;height:402px;" version="1.1" viewBox="0 0 668 402" width="668px" zoomAndPan="magnify"><defs><filter height="300%" id="f1hddk6pa58h51" width="300%" x="-1" y="-1"><feGaussianBlur result="blurOut" stdDeviation="2.0"/><feColorMatrix in="blurOut" result="blurOut2" type="matrix" values="0 0 0 0 0 0 0 0 0 0 0 0 0 0 0 0 0 0 .4 0"/><feOffset dx="4.0" dy="4.0" in="blurOut2" result="blurOut3"/><feBlend in="SourceGraphic" in2="blurOut3" mode="normal"/></filter></defs><g><text fill="#000000" font-family="sans-serif" font-size="18" lengthAdjust="spacing" textLength="643" x="9" y="28.708">UC02 - Definir Área de Atividade - Diagrama de Sequência de Sistema</text><line style="stroke:#A80036;stroke-width:1.0;stroke-dasharray:5.0,5.0;" x1="152.5" x2="152.5" y1="123.25" y2="318.0469"/><line style="stroke:#A80036;stroke-width:1.0;stroke-dasharray:5.0,5.0;" x1="526.5" x2="526.5" y1="123.25" y2="318.0469"/><text fill="#000000" font-family="sans-serif" font-size="14" lengthAdjust="spacing" textLength="106" x="96.5" y="119.9482">Administrativo</text><ellipse cx="152.5" cy="49.9531" fill="#FEFECE" filter="url(#f1hddk6pa58h51)" rx="8" ry="8" style="stroke:#A80036;stroke-width:2.0;"/><path d="M152.5,57.9531 L152.5,84.9531 M139.5,65.9531 L165.5,65.9531 M152.5,84.9531 L139.5,99.9531 M152.5,84.9531 L165.5,99.9531 " fill="none" filter="url(#f1hddk6pa58h51)" style="stroke:#A80036;stroke-width:2.0;"/><text fill="#000000" font-family="sans-serif" font-size="14" lengthAdjust="spacing" textLength="106" x="96.5" y="330.042">Administrativo</text><ellipse cx="152.5" cy="343.3438" fill="#FEFECE" filter="url(#f1hddk6pa58h51)" rx="8" ry="8" style="stroke:#A80036;stroke-width:2.0;"/><path d="M152.5,351.3438 L152.5,378.3438 M139.5,359.3438 L165.5,359.3438 M152.5,378.3438 L139.5,393.3438 M152.5,378.3438 L165.5,393.3438 " fill="none" filter="url(#f1hddk6pa58h51)" style="stroke:#A80036;stroke-width:2.0;"/><rect fill="#FEFECE" filter="url(#f1hddk6pa58h51)" height="30.2969" style="stroke:#A80036;stroke-width:1.5;" width="72" x="488.5" y="87.9531"/><text fill="#000000" font-family="sans-serif" font-size="14" lengthAdjust="spacing" textLength="58" x="495.5" y="107.9482">Sistema</text><rect fill="#FEFECE" filter="url(#f1hddk6pa58h51)" height="30.2969" style="stroke:#A80036;stroke-width:1.5;" width="72" x="488.5" y="317.0469"/><text fill="#000000" font-family="sans-serif" font-size="14" lengthAdjust="spacing" textLength="58" x="495.5" y="337.042">Sistema</text><polygon fill="#A80036" points="514.5,150.3828,524.5,154.3828,514.5,158.3828,518.5,154.3828" style="stroke:#A80036;stroke-width:1.0;"/><line style="stroke:#A80036;stroke-width:1.0;" x1="152.5" x2="520.5" y1="154.3828" y2="154.3828"/><text fill="#000000" font-family="sans-serif" font-size="13" lengthAdjust="spacing" textLength="165" x="159.5" y="149.3169">1. Nova área de atividade</text><polygon fill="#A80036" points="163.5,179.5156,153.5,183.5156,163.5,187.5156,159.5,183.5156" style="stroke:#A80036;stroke-width:1.0;"/><line style="stroke:#A80036;stroke-width:1.0;stroke-dasharray:2.0,2.0;" x1="157.5" x2="525.5" y1="183.5156" y2="183.5156"/><text fill="#000000" font-family="sans-serif" font-size="13" lengthAdjust="spacing" textLength="350" x="169.5" y="178.4497">2. Solicita dados (código, descrição breve e detalhada)</text><polygon fill="#A80036" points="514.5,208.6484,524.5,212.6484,514.5,216.6484,518.5,212.6484" style="stroke:#A80036;stroke-width:1.0;"/><line style="stroke:#A80036;stroke-width:1.0;" x1="152.5" x2="520.5" y1="212.6484" y2="212.6484"/><text fill="#000000" font-family="sans-serif" font-size="13" lengthAdjust="spacing" textLength="201" x="159.5" y="207.5825">3. Introduz os dados solicitados</text><polygon fill="#A80036" points="163.5,237.7813,153.5,241.7813,163.5,245.7813,159.5,241.7813" style="stroke:#A80036;stroke-width:1.0;"/><line style="stroke:#A80036;stroke-width:1.0;stroke-dasharray:2.0,2.0;" x1="157.5" x2="525.5" y1="241.7813" y2="241.7813"/><text fill="#000000" font-family="sans-serif" font-size="13" lengthAdjust="spacing" textLength="288" x="169.5" y="236.7153">4. Apresenta os dados e solicita confirmação</text><polygon fill="#A80036" points="514.5,266.9141,524.5,270.9141,514.5,274.9141,518.5,270.9141" style="stroke:#A80036;stroke-width:1.0;"/><line style="stroke:#A80036;stroke-width:1.0;" x1="152.5" x2="520.5" y1="270.9141" y2="270.9141"/><text fill="#000000" font-family="sans-serif" font-size="13" lengthAdjust="spacing" textLength="219" x="159.5" y="265.8481">5. Confirma os dados introduzidos</text><polygon fill="#A80036" points="163.5,296.0469,153.5,300.0469,163.5,304.0469,159.5,300.0469" style="stroke:#A80036;stroke-width:1.0;"/><line style="stroke:#A80036;stroke-width:1.0;stroke-dasharray:2.0,2.0;" x1="157.5" x2="525.5" y1="300.0469" y2="300.0469"/><text fill="#000000" font-family="sans-serif" font-size="13" lengthAdjust="spacing" textLength="172" x="169.5" y="294.981">6. Operação bem sucedida</text><!--MD5=[faf7b4b441d8a6b115c727785cabe4f5]
@startuml
title UC02 - Definir Área de Atividade - Diagrama de Sequência de Sistema

Actor Administrativo

Administrativo -> Sistema: 1. Nova área de atividade
Sistema - -> Administrativo: 2. Solicita dados (código, descrição breve e detalhada)

Administrativo -> Sistema: 3. Introduz os dados solicitados
Sistema - -> Administrativo: 4. Apresenta os dados e solicita confirmação

Administrativo -> Sistema: 5. Confirma os dados introduzidos
Sistema - -> Administrativo: 6. Operação bem sucedida
@enduml

PlantUML version 1.2021.01beta3(Unknown compile time)
(GPL source distribution)
Java Runtime: Java(TM) SE Runtime Environment
JVM: Java HotSpot(TM) 64-Bit Server VM
Default Encoding: UTF-8
Language: en
Country: US
--></g></svg>