<?xml version="1.0" encoding="UTF-8" standalone="no"?><svg xmlns="http://www.w3.org/2000/svg" xmlns:xlink="http://www.w3.org/1999/xlink" contentScriptType="application/ecmascript" contentStyleType="text/css" height="1187px" preserveAspectRatio="none" style="width:718px;height:1187px;" version="1.1" viewBox="0 0 718 1187" width="718px" zoomAndPan="magnify"><defs><filter height="300%" id="f85w7y3yob5tw" width="300%" x="-1" y="-1"><feGaussianBlur result="blurOut" stdDeviation="2.0"/><feColorMatrix in="blurOut" result="blurOut2" type="matrix" values="0 0 0 0 0 0 0 0 0 0 0 0 0 0 0 0 0 0 .4 0"/><feOffset dx="4.0" dy="4.0" in="blurOut2" result="blurOut3"/><feBlend in="SourceGraphic" in2="blurOut3" mode="normal"/></filter></defs><g><text fill="#000000" font-family="sans-serif" font-size="18" lengthAdjust="spacing" textLength="251" x="227" y="16.708">UC07 - Registar Freelancer</text><!--MD5=[ecaed46f78f8cfe1e9ce18477649be18]
class Plataforma--><rect codeLine="5" fill="#FEFECE" filter="url(#f85w7y3yob5tw)" height="79.5469" id="Plataforma" style="stroke:#A80036;stroke-width:1.5;" width="173" x="296" y="334.9531"/><ellipse cx="344.75" cy="353.9219" fill="#ADD1B2" rx="11" ry="11" style="stroke:#A80036;stroke-width:1.0;"/><path d="M347.0938,349.5938 C346.1563,349.1563 345.5625,349.0156 344.6875,349.0156 C342.0625,349.0156 340.0625,351.0938 340.0625,353.8125 L340.0625,354.9375 C340.0625,357.5156 342.1719,359.4063 345.0625,359.4063 C346.2813,359.4063 347.4375,359.1094 348.1875,358.5625 C348.7656,358.1563 349.0938,357.7031 349.0938,357.3125 C349.0938,356.8594 348.7031,356.4688 348.2344,356.4688 C348.0156,356.4688 347.8125,356.5469 347.625,356.7344 C347.1719,357.2188 347.1719,357.2188 346.9844,357.3125 C346.5625,357.5781 345.875,357.7031 345.1094,357.7031 C343.0625,357.7031 341.7656,356.6094 341.7656,354.9063 L341.7656,353.8125 C341.7656,352.0313 343.0156,350.7188 344.75,350.7188 C345.3281,350.7188 345.9375,350.875 346.4063,351.125 C346.8906,351.4063 347.0625,351.625 347.1563,352.0313 C347.2188,352.4375 347.25,352.5625 347.3906,352.6875 C347.5313,352.8281 347.7656,352.9375 347.9844,352.9375 C348.25,352.9375 348.5156,352.7969 348.6875,352.5781 C348.7969,352.4219 348.8281,352.2344 348.8281,351.8125 L348.8281,350.3906 C348.8281,349.9531 348.8125,349.8281 348.7188,349.6719 C348.5625,349.4063 348.2813,349.2656 347.9844,349.2656 C347.6875,349.2656 347.4844,349.3594 347.2656,349.6719 L347.0938,349.5938 Z " fill="#000000"/><text fill="#000000" font-family="sans-serif" font-size="12" font-style="italic" lengthAdjust="spacing" textLength="71" x="363.25" y="351.0918">«Singleton»</text><text fill="#000000" font-family="sans-serif" font-size="12" lengthAdjust="spacing" textLength="62" x="367.75" y="365.0605">Plataforma</text><line style="stroke:#A80036;stroke-width:1.5;" x1="297" x2="468" y1="372.8906" y2="372.8906"/><rect fill="none" height="6" style="stroke:#C82930;stroke-width:1.0;" width="6" x="304" y="380.8906"/><text fill="#000000" font-family="sans-serif" font-size="11" lengthAdjust="spacing" textLength="102" x="316" y="387.1011">String designacao</text><line style="stroke:#A80036;stroke-width:1.0;" x1="297" x2="468" y1="393.6953" y2="393.6953"/><text fill="#000000" font-family="sans-serif" font-size="11" lengthAdjust="spacing" textLength="161" x="302" y="407.9058">getRepositorioOrganizacao()</text><!--MD5=[656b504e23380194a42f986724fc4125]
class RegistarFreelancerUI--><rect codeLine="11" fill="#FEFECE" filter="url(#f85w7y3yob5tw)" height="86.4141" id="RegistarFreelancerUI" style="stroke:#A80036;stroke-width:1.5;" width="375" x="195" y="27.9531"/><ellipse cx="315.25" cy="43.9531" fill="#ADD1B2" rx="11" ry="11" style="stroke:#A80036;stroke-width:1.0;"/><path d="M317.5938,39.625 C316.6563,39.1875 316.0625,39.0469 315.1875,39.0469 C312.5625,39.0469 310.5625,41.125 310.5625,43.8438 L310.5625,44.9688 C310.5625,47.5469 312.6719,49.4375 315.5625,49.4375 C316.7813,49.4375 317.9375,49.1406 318.6875,48.5938 C319.2656,48.1875 319.5938,47.7344 319.5938,47.3438 C319.5938,46.8906 319.2031,46.5 318.7344,46.5 C318.5156,46.5 318.3125,46.5781 318.125,46.7656 C317.6719,47.25 317.6719,47.25 317.4844,47.3438 C317.0625,47.6094 316.375,47.7344 315.6094,47.7344 C313.5625,47.7344 312.2656,46.6406 312.2656,44.9375 L312.2656,43.8438 C312.2656,42.0625 313.5156,40.75 315.25,40.75 C315.8281,40.75 316.4375,40.9063 316.9063,41.1563 C317.3906,41.4375 317.5625,41.6563 317.6563,42.0625 C317.7188,42.4688 317.75,42.5938 317.8906,42.7188 C318.0313,42.8594 318.2656,42.9688 318.4844,42.9688 C318.75,42.9688 319.0156,42.8281 319.1875,42.6094 C319.2969,42.4531 319.3281,42.2656 319.3281,41.8438 L319.3281,40.4219 C319.3281,39.9844 319.3125,39.8594 319.2188,39.7031 C319.0625,39.4375 318.7813,39.2969 318.4844,39.2969 C318.1875,39.2969 317.9844,39.3906 317.7656,39.7031 L317.5938,39.625 Z " fill="#000000"/><text fill="#000000" font-family="sans-serif" font-size="12" lengthAdjust="spacing" textLength="126" x="335.75" y="48.1074">RegistarFreelancerUI</text><line style="stroke:#A80036;stroke-width:1.5;" x1="196" x2="569" y1="59.9531" y2="59.9531"/><line style="stroke:#A80036;stroke-width:1.0;" x1="196" x2="569" y1="67.9531" y2="67.9531"/><rect fill="#F24D5C" height="6" style="stroke:#C82930;stroke-width:1.0;" width="6" x="203" y="75.9531"/><text fill="#000000" font-family="sans-serif" font-size="11" lengthAdjust="spacing" textLength="349" x="215" y="82.1636">novoFreelancer(nome, NIF, endereço postal, telefone, email)</text><rect fill="#F24D5C" height="6" style="stroke:#C82930;stroke-width:1.0;" width="6" x="203" y="88.7578"/><text fill="#000000" font-family="sans-serif" font-size="11" lengthAdjust="spacing" textLength="108" x="215" y="94.9683">registaFreelancer()</text><text fill="#000000" font-family="sans-serif" font-size="11" lengthAdjust="spacing" textLength="0" x="219" y="107.7729"/><!--MD5=[32c5f543cbb67cb9941cc985f78b5435]
class RegistarFreelancerController--><rect codeLine="18" fill="#FEFECE" filter="url(#f85w7y3yob5tw)" height="99.2188" id="RegistarFreelancerController" style="stroke:#A80036;stroke-width:1.5;" width="377" x="194" y="174.9531"/><ellipse cx="291.75" cy="190.9531" fill="#ADD1B2" rx="11" ry="11" style="stroke:#A80036;stroke-width:1.0;"/><path d="M294.0938,186.625 C293.1563,186.1875 292.5625,186.0469 291.6875,186.0469 C289.0625,186.0469 287.0625,188.125 287.0625,190.8438 L287.0625,191.9688 C287.0625,194.5469 289.1719,196.4375 292.0625,196.4375 C293.2813,196.4375 294.4375,196.1406 295.1875,195.5938 C295.7656,195.1875 296.0938,194.7344 296.0938,194.3438 C296.0938,193.8906 295.7031,193.5 295.2344,193.5 C295.0156,193.5 294.8125,193.5781 294.625,193.7656 C294.1719,194.25 294.1719,194.25 293.9844,194.3438 C293.5625,194.6094 292.875,194.7344 292.1094,194.7344 C290.0625,194.7344 288.7656,193.6406 288.7656,191.9375 L288.7656,190.8438 C288.7656,189.0625 290.0156,187.75 291.75,187.75 C292.3281,187.75 292.9375,187.9063 293.4063,188.1563 C293.8906,188.4375 294.0625,188.6563 294.1563,189.0625 C294.2188,189.4688 294.25,189.5938 294.3906,189.7188 C294.5313,189.8594 294.7656,189.9688 294.9844,189.9688 C295.25,189.9688 295.5156,189.8281 295.6875,189.6094 C295.7969,189.4531 295.8281,189.2656 295.8281,188.8438 L295.8281,187.4219 C295.8281,186.9844 295.8125,186.8594 295.7188,186.7031 C295.5625,186.4375 295.2813,186.2969 294.9844,186.2969 C294.6875,186.2969 294.4844,186.3906 294.2656,186.7031 L294.0938,186.625 Z " fill="#000000"/><text fill="#000000" font-family="sans-serif" font-size="12" lengthAdjust="spacing" textLength="173" x="312.25" y="195.1074">RegistarFreelancerController</text><line style="stroke:#A80036;stroke-width:1.5;" x1="195" x2="570" y1="206.9531" y2="206.9531"/><line style="stroke:#A80036;stroke-width:1.0;" x1="195" x2="570" y1="214.9531" y2="214.9531"/><text fill="#000000" font-family="sans-serif" font-size="11" lengthAdjust="spacing" textLength="170" x="200" y="229.1636">novoFreelancer(NIF, telefone)</text><text fill="#000000" font-family="sans-serif" font-size="11" lengthAdjust="spacing" textLength="109" x="200" y="241.9683">validaFreelancer(c)</text><text fill="#000000" font-family="sans-serif" font-size="11" lengthAdjust="spacing" textLength="114" x="200" y="254.7729">registaFreelancer(c)</text><text fill="#000000" font-family="sans-serif" font-size="11" lengthAdjust="spacing" textLength="365" x="200" y="267.5776">registaUtilizadorComPapel(nome, email, password, "freelancer")</text><!--MD5=[1f687b5315377fe49fca59b457947463]
class Freelancer--><rect codeLine="26" fill="#FEFECE" filter="url(#f85w7y3yob5tw)" height="99.2188" id="Freelancer" style="stroke:#A80036;stroke-width:1.5;" width="112" x="326.5" y="584.9531"/><ellipse cx="348.25" cy="600.9531" fill="#ADD1B2" rx="11" ry="11" style="stroke:#A80036;stroke-width:1.0;"/><path d="M350.5938,596.625 C349.6563,596.1875 349.0625,596.0469 348.1875,596.0469 C345.5625,596.0469 343.5625,598.125 343.5625,600.8438 L343.5625,601.9688 C343.5625,604.5469 345.6719,606.4375 348.5625,606.4375 C349.7813,606.4375 350.9375,606.1406 351.6875,605.5938 C352.2656,605.1875 352.5938,604.7344 352.5938,604.3438 C352.5938,603.8906 352.2031,603.5 351.7344,603.5 C351.5156,603.5 351.3125,603.5781 351.125,603.7656 C350.6719,604.25 350.6719,604.25 350.4844,604.3438 C350.0625,604.6094 349.375,604.7344 348.6094,604.7344 C346.5625,604.7344 345.2656,603.6406 345.2656,601.9375 L345.2656,600.8438 C345.2656,599.0625 346.5156,597.75 348.25,597.75 C348.8281,597.75 349.4375,597.9063 349.9063,598.1563 C350.3906,598.4375 350.5625,598.6563 350.6563,599.0625 C350.7188,599.4688 350.75,599.5938 350.8906,599.7188 C351.0313,599.8594 351.2656,599.9688 351.4844,599.9688 C351.75,599.9688 352.0156,599.8281 352.1875,599.6094 C352.2969,599.4531 352.3281,599.2656 352.3281,598.8438 L352.3281,597.4219 C352.3281,596.9844 352.3125,596.8594 352.2188,596.7031 C352.0625,596.4375 351.7813,596.2969 351.4844,596.2969 C351.1875,596.2969 350.9844,596.3906 350.7656,596.7031 L350.5938,596.625 Z " fill="#000000"/><text fill="#000000" font-family="sans-serif" font-size="12" lengthAdjust="spacing" textLength="65" x="363.75" y="605.1074">Freelancer</text><line style="stroke:#A80036;stroke-width:1.5;" x1="327.5" x2="437.5" y1="616.9531" y2="616.9531"/><rect fill="none" height="6" style="stroke:#C82930;stroke-width:1.0;" width="6" x="334.5" y="624.9531"/><text fill="#000000" font-family="sans-serif" font-size="11" lengthAdjust="spacing" textLength="70" x="346.5" y="631.1636">String nome</text><rect fill="none" height="6" style="stroke:#C82930;stroke-width:1.0;" width="6" x="334.5" y="637.7578"/><text fill="#000000" font-family="sans-serif" font-size="11" lengthAdjust="spacing" textLength="54" x="346.5" y="643.9683">String NIF</text><rect fill="none" height="6" style="stroke:#C82930;stroke-width:1.0;" width="6" x="334.5" y="650.5625"/><text fill="#000000" font-family="sans-serif" font-size="11" lengthAdjust="spacing" textLength="86" x="346.5" y="656.7729">String telefone</text><rect fill="none" height="6" style="stroke:#C82930;stroke-width:1.0;" width="6" x="334.5" y="663.3672"/><text fill="#000000" font-family="sans-serif" font-size="11" lengthAdjust="spacing" textLength="67" x="346.5" y="669.5776">Email email</text><line style="stroke:#A80036;stroke-width:1.5;" x1="327.5" x2="437.5" y1="676.1719" y2="676.1719"/><!--MD5=[dcda844062f930f807532403427d3023]
class EnderecoPostal--><rect codeLine="33" fill="#FEFECE" filter="url(#f85w7y3yob5tw)" height="86.4141" id="EnderecoPostal" style="stroke:#A80036;stroke-width:1.5;" width="125" x="7" y="767.4531"/><ellipse cx="22" cy="783.4531" fill="#ADD1B2" rx="11" ry="11" style="stroke:#A80036;stroke-width:1.0;"/><path d="M24.3438,779.125 C23.4063,778.6875 22.8125,778.5469 21.9375,778.5469 C19.3125,778.5469 17.3125,780.625 17.3125,783.3438 L17.3125,784.4688 C17.3125,787.0469 19.4219,788.9375 22.3125,788.9375 C23.5313,788.9375 24.6875,788.6406 25.4375,788.0938 C26.0156,787.6875 26.3438,787.2344 26.3438,786.8438 C26.3438,786.3906 25.9531,786 25.4844,786 C25.2656,786 25.0625,786.0781 24.875,786.2656 C24.4219,786.75 24.4219,786.75 24.2344,786.8438 C23.8125,787.1094 23.125,787.2344 22.3594,787.2344 C20.3125,787.2344 19.0156,786.1406 19.0156,784.4375 L19.0156,783.3438 C19.0156,781.5625 20.2656,780.25 22,780.25 C22.5781,780.25 23.1875,780.4063 23.6563,780.6563 C24.1406,780.9375 24.3125,781.1563 24.4063,781.5625 C24.4688,781.9688 24.5,782.0938 24.6406,782.2188 C24.7813,782.3594 25.0156,782.4688 25.2344,782.4688 C25.5,782.4688 25.7656,782.3281 25.9375,782.1094 C26.0469,781.9531 26.0781,781.7656 26.0781,781.3438 L26.0781,779.9219 C26.0781,779.4844 26.0625,779.3594 25.9688,779.2031 C25.8125,778.9375 25.5313,778.7969 25.2344,778.7969 C24.9375,778.7969 24.7344,778.8906 24.5156,779.2031 L24.3438,779.125 Z " fill="#000000"/><text fill="#000000" font-family="sans-serif" font-size="12" lengthAdjust="spacing" textLength="93" x="36" y="787.6074">EnderecoPostal</text><line style="stroke:#A80036;stroke-width:1.5;" x1="8" x2="131" y1="799.4531" y2="799.4531"/><rect fill="none" height="6" style="stroke:#C82930;stroke-width:1.0;" width="6" x="15" y="807.4531"/><text fill="#000000" font-family="sans-serif" font-size="11" lengthAdjust="spacing" textLength="63" x="27" y="813.6636">String local</text><rect fill="none" height="6" style="stroke:#C82930;stroke-width:1.0;" width="6" x="15" y="820.2578"/><text fill="#000000" font-family="sans-serif" font-size="11" lengthAdjust="spacing" textLength="90" x="27" y="826.4683">String codPostal</text><rect fill="none" height="6" style="stroke:#C82930;stroke-width:1.0;" width="6" x="15" y="833.0625"/><text fill="#000000" font-family="sans-serif" font-size="11" lengthAdjust="spacing" textLength="95" x="27" y="839.2729">String localidade</text><line style="stroke:#A80036;stroke-width:1.5;" x1="8" x2="131" y1="845.8672" y2="845.8672"/><!--MD5=[112bf5ceef39644c34614051359fde27]
class ReconhecimentoGT--><rect codeLine="39" fill="#FEFECE" filter="url(#f85w7y3yob5tw)" height="60.8047" id="ReconhecimentoGT" style="stroke:#A80036;stroke-width:1.5;" width="179" x="167" y="779.9531"/><ellipse cx="195.95" cy="795.9531" fill="#ADD1B2" rx="11" ry="11" style="stroke:#A80036;stroke-width:1.0;"/><path d="M198.2938,791.625 C197.3563,791.1875 196.7625,791.0469 195.8875,791.0469 C193.2625,791.0469 191.2625,793.125 191.2625,795.8438 L191.2625,796.9688 C191.2625,799.5469 193.3719,801.4375 196.2625,801.4375 C197.4813,801.4375 198.6375,801.1406 199.3875,800.5938 C199.9656,800.1875 200.2938,799.7344 200.2938,799.3438 C200.2938,798.8906 199.9031,798.5 199.4344,798.5 C199.2156,798.5 199.0125,798.5781 198.825,798.7656 C198.3719,799.25 198.3719,799.25 198.1844,799.3438 C197.7625,799.6094 197.075,799.7344 196.3094,799.7344 C194.2625,799.7344 192.9656,798.6406 192.9656,796.9375 L192.9656,795.8438 C192.9656,794.0625 194.2156,792.75 195.95,792.75 C196.5281,792.75 197.1375,792.9063 197.6063,793.1563 C198.0906,793.4375 198.2625,793.6563 198.3563,794.0625 C198.4188,794.4688 198.45,794.5938 198.5906,794.7188 C198.7313,794.8594 198.9656,794.9688 199.1844,794.9688 C199.45,794.9688 199.7156,794.8281 199.8875,794.6094 C199.9969,794.4531 200.0281,794.2656 200.0281,793.8438 L200.0281,792.4219 C200.0281,791.9844 200.0125,791.8594 199.9188,791.7031 C199.7625,791.4375 199.4813,791.2969 199.1844,791.2969 C198.8875,791.2969 198.6844,791.3906 198.4656,791.7031 L198.2938,791.625 Z " fill="#000000"/><text fill="#000000" font-family="sans-serif" font-size="12" lengthAdjust="spacing" textLength="116" x="213.05" y="800.1074">ReconhecimentoGT</text><line style="stroke:#A80036;stroke-width:1.5;" x1="168" x2="345" y1="811.9531" y2="811.9531"/><rect fill="none" height="6" style="stroke:#C82930;stroke-width:1.0;" width="6" x="175" y="819.9531"/><text fill="#000000" font-family="sans-serif" font-size="11" lengthAdjust="spacing" textLength="153" x="187" y="826.1636">Date dataReconhecimento</text><line style="stroke:#A80036;stroke-width:1.5;" x1="168" x2="345" y1="832.7578" y2="832.7578"/><!--MD5=[87602f047bdeda361e6d6669da197818]
class HabilitacaoAcademica--><rect codeLine="43" fill="#FEFECE" filter="url(#f85w7y3yob5tw)" height="99.2188" id="HabilitacaoAcademica" style="stroke:#A80036;stroke-width:1.5;" width="164" x="381.5" y="760.9531"/><ellipse cx="396.5" cy="776.9531" fill="#ADD1B2" rx="11" ry="11" style="stroke:#A80036;stroke-width:1.0;"/><path d="M398.8438,772.625 C397.9063,772.1875 397.3125,772.0469 396.4375,772.0469 C393.8125,772.0469 391.8125,774.125 391.8125,776.8438 L391.8125,777.9688 C391.8125,780.5469 393.9219,782.4375 396.8125,782.4375 C398.0313,782.4375 399.1875,782.1406 399.9375,781.5938 C400.5156,781.1875 400.8438,780.7344 400.8438,780.3438 C400.8438,779.8906 400.4531,779.5 399.9844,779.5 C399.7656,779.5 399.5625,779.5781 399.375,779.7656 C398.9219,780.25 398.9219,780.25 398.7344,780.3438 C398.3125,780.6094 397.625,780.7344 396.8594,780.7344 C394.8125,780.7344 393.5156,779.6406 393.5156,777.9375 L393.5156,776.8438 C393.5156,775.0625 394.7656,773.75 396.5,773.75 C397.0781,773.75 397.6875,773.9063 398.1563,774.1563 C398.6406,774.4375 398.8125,774.6563 398.9063,775.0625 C398.9688,775.4688 399,775.5938 399.1406,775.7188 C399.2813,775.8594 399.5156,775.9688 399.7344,775.9688 C400,775.9688 400.2656,775.8281 400.4375,775.6094 C400.5469,775.4531 400.5781,775.2656 400.5781,774.8438 L400.5781,773.4219 C400.5781,772.9844 400.5625,772.8594 400.4688,772.7031 C400.3125,772.4375 400.0313,772.2969 399.7344,772.2969 C399.4375,772.2969 399.2344,772.3906 399.0156,772.7031 L398.8438,772.625 Z " fill="#000000"/><text fill="#000000" font-family="sans-serif" font-size="12" lengthAdjust="spacing" textLength="132" x="410.5" y="781.1074">HabilitacaoAcademica</text><line style="stroke:#A80036;stroke-width:1.5;" x1="382.5" x2="544.5" y1="792.9531" y2="792.9531"/><rect fill="none" height="6" style="stroke:#C82930;stroke-width:1.0;" width="6" x="389.5" y="800.9531"/><text fill="#000000" font-family="sans-serif" font-size="11" lengthAdjust="spacing" textLength="62" x="401.5" y="807.1636">String grau</text><rect fill="none" height="6" style="stroke:#C82930;stroke-width:1.0;" width="6" x="389.5" y="813.7578"/><text fill="#000000" font-family="sans-serif" font-size="11" lengthAdjust="spacing" textLength="134" x="401.5" y="819.9683">String designacaoCurso</text><rect fill="none" height="6" style="stroke:#C82930;stroke-width:1.0;" width="6" x="389.5" y="826.5625"/><text fill="#000000" font-family="sans-serif" font-size="11" lengthAdjust="spacing" textLength="127" x="401.5" y="832.7729">String nomeInstituicao</text><rect fill="none" height="6" style="stroke:#C82930;stroke-width:1.0;" width="6" x="389.5" y="839.3672"/><text fill="#000000" font-family="sans-serif" font-size="11" lengthAdjust="spacing" textLength="113" x="401.5" y="845.5776">Double mediaCurso</text><line style="stroke:#A80036;stroke-width:1.5;" x1="382.5" x2="544.5" y1="852.1719" y2="852.1719"/><!--MD5=[a322db5a7ec64d2ff8f2d6cf1831dcec]
class CompetenciaTecnica--><rect codeLine="50" fill="#FEFECE" filter="url(#f85w7y3yob5tw)" height="86.4141" id="CompetenciaTecnica" style="stroke:#A80036;stroke-width:1.5;" width="157" x="178" y="936.9531"/><ellipse cx="193" cy="952.9531" fill="#ADD1B2" rx="11" ry="11" style="stroke:#A80036;stroke-width:1.0;"/><path d="M195.3438,948.625 C194.4063,948.1875 193.8125,948.0469 192.9375,948.0469 C190.3125,948.0469 188.3125,950.125 188.3125,952.8438 L188.3125,953.9688 C188.3125,956.5469 190.4219,958.4375 193.3125,958.4375 C194.5313,958.4375 195.6875,958.1406 196.4375,957.5938 C197.0156,957.1875 197.3438,956.7344 197.3438,956.3438 C197.3438,955.8906 196.9531,955.5 196.4844,955.5 C196.2656,955.5 196.0625,955.5781 195.875,955.7656 C195.4219,956.25 195.4219,956.25 195.2344,956.3438 C194.8125,956.6094 194.125,956.7344 193.3594,956.7344 C191.3125,956.7344 190.0156,955.6406 190.0156,953.9375 L190.0156,952.8438 C190.0156,951.0625 191.2656,949.75 193,949.75 C193.5781,949.75 194.1875,949.9063 194.6563,950.1563 C195.1406,950.4375 195.3125,950.6563 195.4063,951.0625 C195.4688,951.4688 195.5,951.5938 195.6406,951.7188 C195.7813,951.8594 196.0156,951.9688 196.2344,951.9688 C196.5,951.9688 196.7656,951.8281 196.9375,951.6094 C197.0469,951.4531 197.0781,951.2656 197.0781,950.8438 L197.0781,949.4219 C197.0781,948.9844 197.0625,948.8594 196.9688,948.7031 C196.8125,948.4375 196.5313,948.2969 196.2344,948.2969 C195.9375,948.2969 195.7344,948.3906 195.5156,948.7031 L195.3438,948.625 Z " fill="#000000"/><text fill="#000000" font-family="sans-serif" font-size="12" lengthAdjust="spacing" textLength="125" x="207" y="957.1074">CompetenciaTecnica</text><line style="stroke:#A80036;stroke-width:1.5;" x1="179" x2="334" y1="968.9531" y2="968.9531"/><rect fill="none" height="6" style="stroke:#C82930;stroke-width:1.0;" width="6" x="186" y="976.9531"/><text fill="#000000" font-family="sans-serif" font-size="11" lengthAdjust="spacing" textLength="74" x="198" y="983.1636">String codigo</text><rect fill="none" height="6" style="stroke:#C82930;stroke-width:1.0;" width="6" x="186" y="989.7578"/><text fill="#000000" font-family="sans-serif" font-size="11" lengthAdjust="spacing" textLength="99" x="198" y="995.9683">String descBreve</text><rect fill="none" height="6" style="stroke:#C82930;stroke-width:1.0;" width="6" x="186" y="1002.5625"/><text fill="#000000" font-family="sans-serif" font-size="11" lengthAdjust="spacing" textLength="123" x="198" y="1008.7729">String descDetalhada</text><line style="stroke:#A80036;stroke-width:1.5;" x1="179" x2="334" y1="1015.3672" y2="1015.3672"/><!--MD5=[0d4fe674cc1d46ec0fc990086e50801a]
class GrauProficiencia--><rect codeLine="56" fill="#FEFECE" filter="url(#f85w7y3yob5tw)" height="73.6094" id="GrauProficiencia" style="stroke:#A80036;stroke-width:1.5;" width="128" x="192.5" y="1099.9531"/><ellipse cx="207.5" cy="1115.9531" fill="#ADD1B2" rx="11" ry="11" style="stroke:#A80036;stroke-width:1.0;"/><path d="M209.8438,1111.625 C208.9063,1111.1875 208.3125,1111.0469 207.4375,1111.0469 C204.8125,1111.0469 202.8125,1113.125 202.8125,1115.8438 L202.8125,1116.9688 C202.8125,1119.5469 204.9219,1121.4375 207.8125,1121.4375 C209.0313,1121.4375 210.1875,1121.1406 210.9375,1120.5938 C211.5156,1120.1875 211.8438,1119.7344 211.8438,1119.3438 C211.8438,1118.8906 211.4531,1118.5 210.9844,1118.5 C210.7656,1118.5 210.5625,1118.5781 210.375,1118.7656 C209.9219,1119.25 209.9219,1119.25 209.7344,1119.3438 C209.3125,1119.6094 208.625,1119.7344 207.8594,1119.7344 C205.8125,1119.7344 204.5156,1118.6406 204.5156,1116.9375 L204.5156,1115.8438 C204.5156,1114.0625 205.7656,1112.75 207.5,1112.75 C208.0781,1112.75 208.6875,1112.9063 209.1563,1113.1563 C209.6406,1113.4375 209.8125,1113.6563 209.9063,1114.0625 C209.9688,1114.4688 210,1114.5938 210.1406,1114.7188 C210.2813,1114.8594 210.5156,1114.9688 210.7344,1114.9688 C211,1114.9688 211.2656,1114.8281 211.4375,1114.6094 C211.5469,1114.4531 211.5781,1114.2656 211.5781,1113.8438 L211.5781,1112.4219 C211.5781,1111.9844 211.5625,1111.8594 211.4688,1111.7031 C211.3125,1111.4375 211.0313,1111.2969 210.7344,1111.2969 C210.4375,1111.2969 210.2344,1111.3906 210.0156,1111.7031 L209.8438,1111.625 Z " fill="#000000"/><text fill="#000000" font-family="sans-serif" font-size="12" lengthAdjust="spacing" textLength="96" x="221.5" y="1120.1074">GrauProficiencia</text><line style="stroke:#A80036;stroke-width:1.5;" x1="193.5" x2="319.5" y1="1131.9531" y2="1131.9531"/><rect fill="none" height="6" style="stroke:#C82930;stroke-width:1.0;" width="6" x="200.5" y="1139.9531"/><text fill="#000000" font-family="sans-serif" font-size="11" lengthAdjust="spacing" textLength="73" x="212.5" y="1146.1636">Integer valor</text><rect fill="none" height="6" style="stroke:#C82930;stroke-width:1.0;" width="6" x="200.5" y="1152.7578"/><text fill="#000000" font-family="sans-serif" font-size="11" lengthAdjust="spacing" textLength="102" x="212.5" y="1158.9683">String designacao</text><line style="stroke:#A80036;stroke-width:1.5;" x1="193.5" x2="319.5" y1="1165.5625" y2="1165.5625"/><!--MD5=[0e2ee6793f4fe11e2fee8b2dd24df530]
class RepositorioFreelancer--><rect codeLine="61" fill="#FEFECE" filter="url(#f85w7y3yob5tw)" height="48" id="RepositorioFreelancer" style="stroke:#A80036;stroke-width:1.5;" width="166" x="299.5" y="475.9531"/><ellipse cx="314.5" cy="491.9531" fill="#ADD1B2" rx="11" ry="11" style="stroke:#A80036;stroke-width:1.0;"/><path d="M316.8438,487.625 C315.9063,487.1875 315.3125,487.0469 314.4375,487.0469 C311.8125,487.0469 309.8125,489.125 309.8125,491.8438 L309.8125,492.9688 C309.8125,495.5469 311.9219,497.4375 314.8125,497.4375 C316.0313,497.4375 317.1875,497.1406 317.9375,496.5938 C318.5156,496.1875 318.8438,495.7344 318.8438,495.3438 C318.8438,494.8906 318.4531,494.5 317.9844,494.5 C317.7656,494.5 317.5625,494.5781 317.375,494.7656 C316.9219,495.25 316.9219,495.25 316.7344,495.3438 C316.3125,495.6094 315.625,495.7344 314.8594,495.7344 C312.8125,495.7344 311.5156,494.6406 311.5156,492.9375 L311.5156,491.8438 C311.5156,490.0625 312.7656,488.75 314.5,488.75 C315.0781,488.75 315.6875,488.9063 316.1563,489.1563 C316.6406,489.4375 316.8125,489.6563 316.9063,490.0625 C316.9688,490.4688 317,490.5938 317.1406,490.7188 C317.2813,490.8594 317.5156,490.9688 317.7344,490.9688 C318,490.9688 318.2656,490.8281 318.4375,490.6094 C318.5469,490.4531 318.5781,490.2656 318.5781,489.8438 L318.5781,488.4219 C318.5781,487.9844 318.5625,487.8594 318.4688,487.7031 C318.3125,487.4375 318.0313,487.2969 317.7344,487.2969 C317.4375,487.2969 317.2344,487.3906 317.0156,487.7031 L316.8438,487.625 Z " fill="#000000"/><text fill="#000000" font-family="sans-serif" font-size="12" lengthAdjust="spacing" textLength="134" x="328.5" y="496.1074">RepositorioFreelancer</text><line style="stroke:#A80036;stroke-width:1.5;" x1="300.5" x2="464.5" y1="507.9531" y2="507.9531"/><line style="stroke:#A80036;stroke-width:1.5;" x1="300.5" x2="464.5" y1="515.9531" y2="515.9531"/><!--MD5=[78bec0fde86ad92ec1dc3fb343b83709]
class Email--><rect codeLine="65" fill="#FEFECE" filter="url(#f85w7y3yob5tw)" height="73.6094" id="Email" style="stroke:#A80036;stroke-width:1.5;" width="123" x="581" y="773.4531"/><ellipse cx="623" cy="789.4531" fill="#ADD1B2" rx="11" ry="11" style="stroke:#A80036;stroke-width:1.0;"/><path d="M625.3438,785.125 C624.4063,784.6875 623.8125,784.5469 622.9375,784.5469 C620.3125,784.5469 618.3125,786.625 618.3125,789.3438 L618.3125,790.4688 C618.3125,793.0469 620.4219,794.9375 623.3125,794.9375 C624.5313,794.9375 625.6875,794.6406 626.4375,794.0938 C627.0156,793.6875 627.3438,793.2344 627.3438,792.8438 C627.3438,792.3906 626.9531,792 626.4844,792 C626.2656,792 626.0625,792.0781 625.875,792.2656 C625.4219,792.75 625.4219,792.75 625.2344,792.8438 C624.8125,793.1094 624.125,793.2344 623.3594,793.2344 C621.3125,793.2344 620.0156,792.1406 620.0156,790.4375 L620.0156,789.3438 C620.0156,787.5625 621.2656,786.25 623,786.25 C623.5781,786.25 624.1875,786.4063 624.6563,786.6563 C625.1406,786.9375 625.3125,787.1563 625.4063,787.5625 C625.4688,787.9688 625.5,788.0938 625.6406,788.2188 C625.7813,788.3594 626.0156,788.4688 626.2344,788.4688 C626.5,788.4688 626.7656,788.3281 626.9375,788.1094 C627.0469,787.9531 627.0781,787.7656 627.0781,787.3438 L627.0781,785.9219 C627.0781,785.4844 627.0625,785.3594 626.9688,785.2031 C626.8125,784.9375 626.5313,784.7969 626.2344,784.7969 C625.9375,784.7969 625.7344,784.8906 625.5156,785.2031 L625.3438,785.125 Z " fill="#000000"/><text fill="#000000" font-family="sans-serif" font-size="12" lengthAdjust="spacing" textLength="31" x="643" y="793.6074">Email</text><line style="stroke:#A80036;stroke-width:1.5;" x1="582" x2="703" y1="805.4531" y2="805.4531"/><rect fill="none" height="6" style="stroke:#C82930;stroke-width:1.0;" width="6" x="589" y="813.4531"/><text fill="#000000" font-family="sans-serif" font-size="11" lengthAdjust="spacing" textLength="69" x="601" y="819.6636">String email</text><line style="stroke:#A80036;stroke-width:1.0;" x1="582" x2="703" y1="826.2578" y2="826.2578"/><text fill="#000000" font-family="sans-serif" font-size="11" lengthAdjust="spacing" textLength="111" x="587" y="840.4683">getEmailUtilizador()</text><!--MD5=[95722b6f9a6b3365849ad4075c1dbfec]
link RegistarFreelancerUI to RegistarFreelancerController--><path codeLine="71" d="M382.5,114.1531 C382.5,131.3631 382.5,151.4631 382.5,169.7031 " fill="none" id="RegistarFreelancerUI-to-RegistarFreelancerController" style="stroke:#A80036;stroke-width:1.0;stroke-dasharray:7.0,7.0;"/><polygon fill="#A80036" points="382.5,174.7901,386.5,165.7901,382.5,169.7901,378.5,165.7901,382.5,174.7901" style="stroke:#A80036;stroke-width:1.0;"/><!--MD5=[2e555ae67bb8df3432c2357bb816a845]
link RegistarFreelancerController to Plataforma--><path codeLine="72" d="M382.5,274.0771 C382.5,291.8621 382.5,311.8821 382.5,329.3031 " fill="none" id="RegistarFreelancerController-to-Plataforma" style="stroke:#A80036;stroke-width:1.0;stroke-dasharray:7.0,7.0;"/><polygon fill="#A80036" points="382.5,334.6211,386.5,325.6211,382.5,329.6211,378.5,325.6211,382.5,334.6211" style="stroke:#A80036;stroke-width:1.0;"/><!--MD5=[47c639fcf7f723c8d8f42f0e8aecbaf5]
link Freelancer to ReconhecimentoGT--><path codeLine="73" d="M347.067,684.3851 C325.924,713.5811 299.623,749.9021 280.82,775.8681 " fill="none" id="Freelancer-to-ReconhecimentoGT" style="stroke:#A80036;stroke-width:1.0;"/><polygon fill="#A80036" points="277.869,779.9441,286.3874,775.0008,280.8016,775.8945,279.908,770.3086,277.869,779.9441" style="stroke:#A80036;stroke-width:1.0;"/><polygon fill="#000000" points="325.5674,726.5692,333.2528,720.967,328.4921,717.5195,325.5674,726.5692" style="stroke:#000000;stroke-width:1.0;"/><text fill="#000000" font-family="sans-serif" font-size="13" lengthAdjust="spacing" textLength="62" x="337.5" y="727.02">recebe(u)</text><!--MD5=[2b09988e5678c4e4216784c77bee253d]
link ReconhecimentoGT to CompetenciaTecnica--><path codeLine="74" d="M256.5,841.0131 C256.5,866.0341 256.5,902.3651 256.5,931.4611 " fill="none" id="ReconhecimentoGT-to-CompetenciaTecnica" style="stroke:#A80036;stroke-width:1.0;"/><polygon fill="#A80036" points="256.5,936.8051,260.5,927.8051,256.5,931.8051,252.5,927.8051,256.5,936.8051" style="stroke:#A80036;stroke-width:1.0;"/><polygon fill="#000000" points="261.5,903.5195,264.4389,894.4744,258.5611,894.4744,261.5,903.5195" style="stroke:#000000;stroke-width:1.0;"/><text fill="#000000" font-family="sans-serif" font-size="13" lengthAdjust="spacing" textLength="60" x="270.5" y="903.02">relativa a</text><!--MD5=[0d731ff285a62a08178b23be6cceb109]
link CompetenciaTecnica to GrauProficiencia--><path codeLine="75" d="M256.5,1023.3071 C256.5,1045.4641 256.5,1072.4821 256.5,1094.5032 " fill="none" id="CompetenciaTecnica-to-GrauProficiencia" style="stroke:#A80036;stroke-width:1.0;"/><polygon fill="#A80036" points="256.5,1099.6981,260.5,1090.6981,256.5,1094.6981,252.5,1090.6981,256.5,1099.6981" style="stroke:#A80036;stroke-width:1.0;"/><polygon fill="#000000" points="261.5,1066.5195,264.4389,1057.4744,258.5611,1057.4744,261.5,1066.5195" style="stroke:#000000;stroke-width:1.0;"/><text fill="#000000" font-family="sans-serif" font-size="13" lengthAdjust="spacing" textLength="37" x="270.5" y="1066.02">aplica</text><!--MD5=[7a59ad2cb29ff6e914b8672ce881fef8]
link Freelancer to HabilitacaoAcademica--><path codeLine="76" d="M405.279,684.3851 C415.676,706.7191 428.014,733.2231 438.65,756.0711 " fill="none" id="Freelancer-to-HabilitacaoAcademica" style="stroke:#A80036;stroke-width:1.0;"/><polygon fill="#A80036" points="440.892,760.8891,440.7203,751.0418,438.782,756.3562,433.4676,754.4178,440.892,760.8891" style="stroke:#A80036;stroke-width:1.0;"/><polygon fill="#000000" points="432.6101,727.0524,431.4572,717.612,426.1285,720.0926,432.6101,727.0524" style="stroke:#000000;stroke-width:1.0;"/><text fill="#000000" font-family="sans-serif" font-size="13" lengthAdjust="spacing" textLength="26" x="439.5" y="727.02">tem</text><!--MD5=[b8422db8e85907663c841d4c41f19cc1]
link Freelancer to EnderecoPostal--><path codeLine="77" d="M326.035,664.8351 C278.572,689.7781 209.126,726.8501 149.5,760.9531 C145.27,763.3721 140.933,765.8901 136.572,768.4511 " fill="none" id="Freelancer-to-EnderecoPostal" style="stroke:#A80036;stroke-width:1.0;"/><polygon fill="#A80036" points="132.206,771.0241,141.9905,769.9003,136.5135,768.4853,137.9285,763.0083,132.206,771.0241" style="stroke:#A80036;stroke-width:1.0;"/><polygon fill="#000000" points="233.1132,724.9187,242.4592,723.1571,239.6388,718.0001,233.1132,724.9187" style="stroke:#000000;stroke-width:1.0;"/><text fill="#000000" font-family="sans-serif" font-size="13" lengthAdjust="spacing" textLength="26" x="246.5" y="727.02">tem</text><!--MD5=[e6a13c50077e90bc88a3dac84d6eff31]
link Freelancer to Email--><path codeLine="78" d="M438.596,672.9941 C481.548,701.7391 540.616,741.2691 584.125,770.3861 " fill="none" id="Freelancer-to-Email" style="stroke:#A80036;stroke-width:1.0;"/><polygon fill="#A80036" points="588.285,773.1711,583.0299,764.8414,584.1296,770.3904,578.5807,771.4901,588.285,773.1711" style="stroke:#A80036;stroke-width:1.0;"/><polygon fill="#000000" points="529.6553,725.3004,523.7728,717.8273,520.5037,722.7122,529.6553,725.3004" style="stroke:#000000;stroke-width:1.0;"/><text fill="#000000" font-family="sans-serif" font-size="13" lengthAdjust="spacing" textLength="26" x="534.5" y="727.02">tem</text><!--MD5=[0c84feddd5cb1ba2d31b6903df1ea1cd]
link Plataforma to RepositorioFreelancer--><path codeLine="79" d="M382.5,415.2091 C382.5,433.1481 382.5,454.0061 382.5,470.4171 " fill="none" id="Plataforma-to-RepositorioFreelancer" style="stroke:#A80036;stroke-width:1.0;stroke-dasharray:7.0,7.0;"/><polygon fill="#A80036" points="382.5,475.8021,386.5,466.8021,382.5,470.8021,378.5,466.8021,382.5,475.8021" style="stroke:#A80036;stroke-width:1.0;"/><!--MD5=[0d2719f921880957326d80824ccc854d]
link RepositorioFreelancer to Freelancer--><path codeLine="80" d="M382.5,524.0331 C382.5,540.7891 382.5,564.0731 382.5,584.8561 " fill="none" id="RepositorioFreelancer-Freelancer" style="stroke:#A80036;stroke-width:1.0;"/><!--MD5=[3b7fdb2d26d3101b70ffab54d725fa7c]
@startuml
title UC07 - Registar Freelancer

top to bottom direction

class Plataforma <<Singleton>> {
    -String designacao
    - -
    getRepositorioOrganizacao()
}

class RegistarFreelancerUI{
    - -
    -novoFreelancer(nome, NIF, endereço postal, telefone, email)
    -registaFreelancer()

}

class RegistarFreelancerController{
    - -
    novoFreelancer(NIF, telefone)
    validaFreelancer(c)
    registaFreelancer(c)
    registaUtilizadorComPapel(nome, email, password, "freelancer")
}

class Freelancer {
    -String nome
    -String NIF
    -String telefone
    -Email email
}

class EnderecoPostal {
    -String local
    -String codPostal
    -String localidade
}

class ReconhecimentoGT {
    -Date dataReconhecimento
}

class HabilitacaoAcademica {
    -String grau
    -String designacaoCurso
    -String nomeInstituicao
    -Double mediaCurso
}

class CompetenciaTecnica {
    -String codigo
    -String descBreve
    -String descDetalhada
}

class GrauProficiencia {
    -Integer valor
    -String designacao
}

class RepositorioFreelancer{

}

class Email {
    -String email
    - -
    getEmailUtilizador()
}

RegistarFreelancerUI ..> RegistarFreelancerController
RegistarFreelancerController ..> Plataforma
Freelancer - -> ReconhecimentoGT: recebe(u) >
ReconhecimentoGT - -> CompetenciaTecnica: relativa a >
CompetenciaTecnica - -> GrauProficiencia: aplica >
Freelancer - -> HabilitacaoAcademica: tem >
Freelancer - -> EnderecoPostal: tem >
Freelancer - -> Email: tem >
Plataforma ..> RepositorioFreelancer
RepositorioFreelancer - - Freelancer
@enduml

PlantUML version 1.2021.2beta8(Unknown compile time)
(GPL source distribution)
Java Runtime: Java(TM) SE Runtime Environment
JVM: Java HotSpot(TM) 64-Bit Server VM
Default Encoding: UTF-8
Language: en
Country: US
--></g></svg>