<?xml version="1.0" encoding="UTF-8" standalone="no"?><svg xmlns="http://www.w3.org/2000/svg" xmlns:xlink="http://www.w3.org/1999/xlink" contentScriptType="application/ecmascript" contentStyleType="text/css" height="573px" preserveAspectRatio="none" style="width:1348px;height:573px;" version="1.1" viewBox="0 0 1348 573" width="1348px" zoomAndPan="magnify"><defs><filter height="300%" id="f1hone77igqobq" width="300%" x="-1" y="-1"><feGaussianBlur result="blurOut" stdDeviation="2.0"/><feColorMatrix in="blurOut" result="blurOut2" type="matrix" values="0 0 0 0 0 0 0 0 0 0 0 0 0 0 0 0 0 0 .4 0"/><feOffset dx="4.0" dy="4.0" in="blurOut2" result="blurOut3"/><feBlend in="SourceGraphic" in2="blurOut3" mode="normal"/></filter></defs><g><text fill="#000000" font-family="sans-serif" font-size="18" lengthAdjust="spacing" textLength="251" x="542" y="16.708">UC07 - Registar Freelancer</text><!--MD5=[ecaed46f78f8cfe1e9ce18477649be18]
class Plataforma--><rect codeLine="5" fill="#FEFECE" filter="url(#f1hone77igqobq)" height="60.8047" id="Plataforma" style="stroke:#A80036;stroke-width:1.5;" width="118" x="7" y="300.4531"/><ellipse cx="32.8" cy="316.4531" fill="#ADD1B2" rx="11" ry="11" style="stroke:#A80036;stroke-width:1.0;"/><path d="M35.1438,312.125 C34.2063,311.6875 33.6125,311.5469 32.7375,311.5469 C30.1125,311.5469 28.1125,313.625 28.1125,316.3438 L28.1125,317.4688 C28.1125,320.0469 30.2219,321.9375 33.1125,321.9375 C34.3313,321.9375 35.4875,321.6406 36.2375,321.0938 C36.8156,320.6875 37.1438,320.2344 37.1438,319.8438 C37.1438,319.3906 36.7531,319 36.2844,319 C36.0656,319 35.8625,319.0781 35.675,319.2656 C35.2219,319.75 35.2219,319.75 35.0344,319.8438 C34.6125,320.1094 33.925,320.2344 33.1594,320.2344 C31.1125,320.2344 29.8156,319.1406 29.8156,317.4375 L29.8156,316.3438 C29.8156,314.5625 31.0656,313.25 32.8,313.25 C33.3781,313.25 33.9875,313.4063 34.4563,313.6563 C34.9406,313.9375 35.1125,314.1563 35.2063,314.5625 C35.2688,314.9688 35.3,315.0938 35.4406,315.2188 C35.5813,315.3594 35.8156,315.4688 36.0344,315.4688 C36.3,315.4688 36.5656,315.3281 36.7375,315.1094 C36.8469,314.9531 36.8781,314.7656 36.8781,314.3438 L36.8781,312.9219 C36.8781,312.4844 36.8625,312.3594 36.7688,312.2031 C36.6125,311.9375 36.3313,311.7969 36.0344,311.7969 C35.7375,311.7969 35.5344,311.8906 35.3156,312.2031 L35.1438,312.125 Z " fill="#000000"/><text fill="#000000" font-family="sans-serif" font-size="12" lengthAdjust="spacing" textLength="62" x="49.2" y="320.6074">Plataforma</text><line style="stroke:#A80036;stroke-width:1.5;" x1="8" x2="124" y1="332.4531" y2="332.4531"/><text fill="#000000" font-family="sans-serif" font-size="11" lengthAdjust="spacing" textLength="106" x="13" y="346.6636">-String designacao</text><line style="stroke:#A80036;stroke-width:1.5;" x1="8" x2="124" y1="353.2578" y2="353.2578"/><!--MD5=[1f687b5315377fe49fca59b457947463]
class Freelancer--><rect codeLine="9" fill="#FEFECE" filter="url(#f1hone77igqobq)" height="99.2188" id="Freelancer" style="stroke:#A80036;stroke-width:1.5;" width="102" x="309.5" y="281.4531"/><ellipse cx="326.75" cy="297.4531" fill="#ADD1B2" rx="11" ry="11" style="stroke:#A80036;stroke-width:1.0;"/><path d="M329.0938,293.125 C328.1563,292.6875 327.5625,292.5469 326.6875,292.5469 C324.0625,292.5469 322.0625,294.625 322.0625,297.3438 L322.0625,298.4688 C322.0625,301.0469 324.1719,302.9375 327.0625,302.9375 C328.2813,302.9375 329.4375,302.6406 330.1875,302.0938 C330.7656,301.6875 331.0938,301.2344 331.0938,300.8438 C331.0938,300.3906 330.7031,300 330.2344,300 C330.0156,300 329.8125,300.0781 329.625,300.2656 C329.1719,300.75 329.1719,300.75 328.9844,300.8438 C328.5625,301.1094 327.875,301.2344 327.1094,301.2344 C325.0625,301.2344 323.7656,300.1406 323.7656,298.4375 L323.7656,297.3438 C323.7656,295.5625 325.0156,294.25 326.75,294.25 C327.3281,294.25 327.9375,294.4063 328.4063,294.6563 C328.8906,294.9375 329.0625,295.1563 329.1563,295.5625 C329.2188,295.9688 329.25,296.0938 329.3906,296.2188 C329.5313,296.3594 329.7656,296.4688 329.9844,296.4688 C330.25,296.4688 330.5156,296.3281 330.6875,296.1094 C330.7969,295.9531 330.8281,295.7656 330.8281,295.3438 L330.8281,293.9219 C330.8281,293.4844 330.8125,293.3594 330.7188,293.2031 C330.5625,292.9375 330.2813,292.7969 329.9844,292.7969 C329.6875,292.7969 329.4844,292.8906 329.2656,293.2031 L329.0938,293.125 Z " fill="#000000"/><text fill="#000000" font-family="sans-serif" font-size="12" lengthAdjust="spacing" textLength="65" x="341.25" y="301.6074">Freelancer</text><line style="stroke:#A80036;stroke-width:1.5;" x1="310.5" x2="410.5" y1="313.4531" y2="313.4531"/><text fill="#000000" font-family="sans-serif" font-size="11" lengthAdjust="spacing" textLength="74" x="315.5" y="327.6636">-String nome</text><text fill="#000000" font-family="sans-serif" font-size="11" lengthAdjust="spacing" textLength="58" x="315.5" y="340.4683">-String NIF</text><text fill="#000000" font-family="sans-serif" font-size="11" lengthAdjust="spacing" textLength="90" x="315.5" y="353.2729">-String telefone</text><text fill="#000000" font-family="sans-serif" font-size="11" lengthAdjust="spacing" textLength="73" x="315.5" y="366.0776">-String email</text><line style="stroke:#A80036;stroke-width:1.5;" x1="310.5" x2="410.5" y1="372.6719" y2="372.6719"/><!--MD5=[dcda844062f930f807532403427d3023]
class EnderecoPostal--><rect codeLine="16" fill="#FEFECE" filter="url(#f1hone77igqobq)" height="86.4141" id="EnderecoPostal" style="stroke:#A80036;stroke-width:1.5;" width="125" x="655" y="351.9531"/><ellipse cx="670" cy="367.9531" fill="#ADD1B2" rx="11" ry="11" style="stroke:#A80036;stroke-width:1.0;"/><path d="M672.3438,363.625 C671.4063,363.1875 670.8125,363.0469 669.9375,363.0469 C667.3125,363.0469 665.3125,365.125 665.3125,367.8438 L665.3125,368.9688 C665.3125,371.5469 667.4219,373.4375 670.3125,373.4375 C671.5313,373.4375 672.6875,373.1406 673.4375,372.5938 C674.0156,372.1875 674.3438,371.7344 674.3438,371.3438 C674.3438,370.8906 673.9531,370.5 673.4844,370.5 C673.2656,370.5 673.0625,370.5781 672.875,370.7656 C672.4219,371.25 672.4219,371.25 672.2344,371.3438 C671.8125,371.6094 671.125,371.7344 670.3594,371.7344 C668.3125,371.7344 667.0156,370.6406 667.0156,368.9375 L667.0156,367.8438 C667.0156,366.0625 668.2656,364.75 670,364.75 C670.5781,364.75 671.1875,364.9063 671.6563,365.1563 C672.1406,365.4375 672.3125,365.6563 672.4063,366.0625 C672.4688,366.4688 672.5,366.5938 672.6406,366.7188 C672.7813,366.8594 673.0156,366.9688 673.2344,366.9688 C673.5,366.9688 673.7656,366.8281 673.9375,366.6094 C674.0469,366.4531 674.0781,366.2656 674.0781,365.8438 L674.0781,364.4219 C674.0781,363.9844 674.0625,363.8594 673.9688,363.7031 C673.8125,363.4375 673.5313,363.2969 673.2344,363.2969 C672.9375,363.2969 672.7344,363.3906 672.5156,363.7031 L672.3438,363.625 Z " fill="#000000"/><text fill="#000000" font-family="sans-serif" font-size="12" lengthAdjust="spacing" textLength="93" x="684" y="372.1074">EnderecoPostal</text><line style="stroke:#A80036;stroke-width:1.5;" x1="656" x2="779" y1="383.9531" y2="383.9531"/><text fill="#000000" font-family="sans-serif" font-size="11" lengthAdjust="spacing" textLength="67" x="661" y="398.1636">-String local</text><text fill="#000000" font-family="sans-serif" font-size="11" lengthAdjust="spacing" textLength="94" x="661" y="410.9683">-String codPostal</text><text fill="#000000" font-family="sans-serif" font-size="11" lengthAdjust="spacing" textLength="99" x="661" y="423.7729">-String localidade</text><line style="stroke:#A80036;stroke-width:1.5;" x1="656" x2="779" y1="430.3672" y2="430.3672"/><!--MD5=[df9f144f4e207f6ab4cd6fad6014a9df]
class ReconhecimentoCT--><rect codeLine="22" fill="#FEFECE" filter="url(#f1hone77igqobq)" height="60.8047" id="ReconhecimentoCT" style="stroke:#A80036;stroke-width:1.5;" width="169" x="633" y="121.4531"/><ellipse cx="657.9" cy="137.4531" fill="#ADD1B2" rx="11" ry="11" style="stroke:#A80036;stroke-width:1.0;"/><path d="M660.2438,133.125 C659.3063,132.6875 658.7125,132.5469 657.8375,132.5469 C655.2125,132.5469 653.2125,134.625 653.2125,137.3438 L653.2125,138.4688 C653.2125,141.0469 655.3219,142.9375 658.2125,142.9375 C659.4313,142.9375 660.5875,142.6406 661.3375,142.0938 C661.9156,141.6875 662.2438,141.2344 662.2438,140.8438 C662.2438,140.3906 661.8531,140 661.3844,140 C661.1656,140 660.9625,140.0781 660.775,140.2656 C660.3219,140.75 660.3219,140.75 660.1344,140.8438 C659.7125,141.1094 659.025,141.2344 658.2594,141.2344 C656.2125,141.2344 654.9156,140.1406 654.9156,138.4375 L654.9156,137.3438 C654.9156,135.5625 656.1656,134.25 657.9,134.25 C658.4781,134.25 659.0875,134.4063 659.5563,134.6563 C660.0406,134.9375 660.2125,135.1563 660.3063,135.5625 C660.3688,135.9688 660.4,136.0938 660.5406,136.2188 C660.6813,136.3594 660.9156,136.4688 661.1344,136.4688 C661.4,136.4688 661.6656,136.3281 661.8375,136.1094 C661.9469,135.9531 661.9781,135.7656 661.9781,135.3438 L661.9781,133.9219 C661.9781,133.4844 661.9625,133.3594 661.8688,133.2031 C661.7125,132.9375 661.4313,132.7969 661.1344,132.7969 C660.8375,132.7969 660.6344,132.8906 660.4156,133.2031 L660.2438,133.125 Z " fill="#000000"/><text fill="#000000" font-family="sans-serif" font-size="12" lengthAdjust="spacing" textLength="115" x="674.1" y="141.6074">ReconhecimentoCT</text><line style="stroke:#A80036;stroke-width:1.5;" x1="634" x2="801" y1="153.4531" y2="153.4531"/><text fill="#000000" font-family="sans-serif" font-size="11" lengthAdjust="spacing" textLength="157" x="639" y="167.6636">-Date dataReconhecimento</text><line style="stroke:#A80036;stroke-width:1.5;" x1="634" x2="801" y1="174.2578" y2="174.2578"/><!--MD5=[37bf6c08f758502d5d1a5531d651ab43]
class AlgoritmoGeradorPasswords--><rect codeLine="26" fill="#FEFECE" filter="url(#f1hone77igqobq)" height="48" id="AlgoritmoGeradorPasswords" style="stroke:#A80036;stroke-width:1.5;" width="205" x="258" y="417.9531"/><ellipse cx="273" cy="433.9531" fill="#ADD1B2" rx="11" ry="11" style="stroke:#A80036;stroke-width:1.0;"/><path d="M275.3438,429.625 C274.4063,429.1875 273.8125,429.0469 272.9375,429.0469 C270.3125,429.0469 268.3125,431.125 268.3125,433.8438 L268.3125,434.9688 C268.3125,437.5469 270.4219,439.4375 273.3125,439.4375 C274.5313,439.4375 275.6875,439.1406 276.4375,438.5938 C277.0156,438.1875 277.3438,437.7344 277.3438,437.3438 C277.3438,436.8906 276.9531,436.5 276.4844,436.5 C276.2656,436.5 276.0625,436.5781 275.875,436.7656 C275.4219,437.25 275.4219,437.25 275.2344,437.3438 C274.8125,437.6094 274.125,437.7344 273.3594,437.7344 C271.3125,437.7344 270.0156,436.6406 270.0156,434.9375 L270.0156,433.8438 C270.0156,432.0625 271.2656,430.75 273,430.75 C273.5781,430.75 274.1875,430.9063 274.6563,431.1563 C275.1406,431.4375 275.3125,431.6563 275.4063,432.0625 C275.4688,432.4688 275.5,432.5938 275.6406,432.7188 C275.7813,432.8594 276.0156,432.9688 276.2344,432.9688 C276.5,432.9688 276.7656,432.8281 276.9375,432.6094 C277.0469,432.4531 277.0781,432.2656 277.0781,431.8438 L277.0781,430.4219 C277.0781,429.9844 277.0625,429.8594 276.9688,429.7031 C276.8125,429.4375 276.5313,429.2969 276.2344,429.2969 C275.9375,429.2969 275.7344,429.3906 275.5156,429.7031 L275.3438,429.625 Z " fill="#000000"/><text fill="#000000" font-family="sans-serif" font-size="12" lengthAdjust="spacing" textLength="173" x="287" y="438.1074">AlgoritmoGeradorPasswords</text><line style="stroke:#A80036;stroke-width:1.5;" x1="259" x2="462" y1="449.9531" y2="449.9531"/><line style="stroke:#A80036;stroke-width:1.5;" x1="259" x2="462" y1="457.9531" y2="457.9531"/><!--MD5=[87602f047bdeda361e6d6669da197818]
class HabilitacaoAcademica--><rect codeLine="30" fill="#FEFECE" filter="url(#f1hone77igqobq)" height="99.2188" id="HabilitacaoAcademica" style="stroke:#A80036;stroke-width:1.5;" width="164" x="635.5" y="217.4531"/><ellipse cx="650.5" cy="233.4531" fill="#ADD1B2" rx="11" ry="11" style="stroke:#A80036;stroke-width:1.0;"/><path d="M652.8438,229.125 C651.9063,228.6875 651.3125,228.5469 650.4375,228.5469 C647.8125,228.5469 645.8125,230.625 645.8125,233.3438 L645.8125,234.4688 C645.8125,237.0469 647.9219,238.9375 650.8125,238.9375 C652.0313,238.9375 653.1875,238.6406 653.9375,238.0938 C654.5156,237.6875 654.8438,237.2344 654.8438,236.8438 C654.8438,236.3906 654.4531,236 653.9844,236 C653.7656,236 653.5625,236.0781 653.375,236.2656 C652.9219,236.75 652.9219,236.75 652.7344,236.8438 C652.3125,237.1094 651.625,237.2344 650.8594,237.2344 C648.8125,237.2344 647.5156,236.1406 647.5156,234.4375 L647.5156,233.3438 C647.5156,231.5625 648.7656,230.25 650.5,230.25 C651.0781,230.25 651.6875,230.4063 652.1563,230.6563 C652.6406,230.9375 652.8125,231.1563 652.9063,231.5625 C652.9688,231.9688 653,232.0938 653.1406,232.2188 C653.2813,232.3594 653.5156,232.4688 653.7344,232.4688 C654,232.4688 654.2656,232.3281 654.4375,232.1094 C654.5469,231.9531 654.5781,231.7656 654.5781,231.3438 L654.5781,229.9219 C654.5781,229.4844 654.5625,229.3594 654.4688,229.2031 C654.3125,228.9375 654.0313,228.7969 653.7344,228.7969 C653.4375,228.7969 653.2344,228.8906 653.0156,229.2031 L652.8438,229.125 Z " fill="#000000"/><text fill="#000000" font-family="sans-serif" font-size="12" lengthAdjust="spacing" textLength="132" x="664.5" y="237.6074">HabilitacaoAcademica</text><line style="stroke:#A80036;stroke-width:1.5;" x1="636.5" x2="798.5" y1="249.4531" y2="249.4531"/><text fill="#000000" font-family="sans-serif" font-size="11" lengthAdjust="spacing" textLength="66" x="641.5" y="263.6636">-String grau</text><text fill="#000000" font-family="sans-serif" font-size="11" lengthAdjust="spacing" textLength="138" x="641.5" y="276.4683">-String designacaoCurso</text><text fill="#000000" font-family="sans-serif" font-size="11" lengthAdjust="spacing" textLength="131" x="641.5" y="289.2729">-String nomeInstituicao</text><text fill="#000000" font-family="sans-serif" font-size="11" lengthAdjust="spacing" textLength="117" x="641.5" y="302.0776">-Double mediaCurso</text><line style="stroke:#A80036;stroke-width:1.5;" x1="636.5" x2="798.5" y1="308.6719" y2="308.6719"/><!--MD5=[a322db5a7ec64d2ff8f2d6cf1831dcec]
class CompetenciaTecnica--><rect codeLine="38" fill="#FEFECE" filter="url(#f1hone77igqobq)" height="86.4141" id="CompetenciaTecnica" style="stroke:#A80036;stroke-width:1.5;" width="157" x="937" y="27.9531"/><ellipse cx="952" cy="43.9531" fill="#ADD1B2" rx="11" ry="11" style="stroke:#A80036;stroke-width:1.0;"/><path d="M954.3438,39.625 C953.4063,39.1875 952.8125,39.0469 951.9375,39.0469 C949.3125,39.0469 947.3125,41.125 947.3125,43.8438 L947.3125,44.9688 C947.3125,47.5469 949.4219,49.4375 952.3125,49.4375 C953.5313,49.4375 954.6875,49.1406 955.4375,48.5938 C956.0156,48.1875 956.3438,47.7344 956.3438,47.3438 C956.3438,46.8906 955.9531,46.5 955.4844,46.5 C955.2656,46.5 955.0625,46.5781 954.875,46.7656 C954.4219,47.25 954.4219,47.25 954.2344,47.3438 C953.8125,47.6094 953.125,47.7344 952.3594,47.7344 C950.3125,47.7344 949.0156,46.6406 949.0156,44.9375 L949.0156,43.8438 C949.0156,42.0625 950.2656,40.75 952,40.75 C952.5781,40.75 953.1875,40.9063 953.6563,41.1563 C954.1406,41.4375 954.3125,41.6563 954.4063,42.0625 C954.4688,42.4688 954.5,42.5938 954.6406,42.7188 C954.7813,42.8594 955.0156,42.9688 955.2344,42.9688 C955.5,42.9688 955.7656,42.8281 955.9375,42.6094 C956.0469,42.4531 956.0781,42.2656 956.0781,41.8438 L956.0781,40.4219 C956.0781,39.9844 956.0625,39.8594 955.9688,39.7031 C955.8125,39.4375 955.5313,39.2969 955.2344,39.2969 C954.9375,39.2969 954.7344,39.3906 954.5156,39.7031 L954.3438,39.625 Z " fill="#000000"/><text fill="#000000" font-family="sans-serif" font-size="12" lengthAdjust="spacing" textLength="125" x="966" y="48.1074">CompetenciaTecnica</text><line style="stroke:#A80036;stroke-width:1.5;" x1="938" x2="1093" y1="59.9531" y2="59.9531"/><text fill="#000000" font-family="sans-serif" font-size="11" lengthAdjust="spacing" textLength="78" x="943" y="74.1636">-String codigo</text><text fill="#000000" font-family="sans-serif" font-size="11" lengthAdjust="spacing" textLength="103" x="943" y="86.9683">-String descBreve</text><text fill="#000000" font-family="sans-serif" font-size="11" lengthAdjust="spacing" textLength="127" x="943" y="99.7729">-String descDetalhada</text><line style="stroke:#A80036;stroke-width:1.5;" x1="938" x2="1093" y1="106.3672" y2="106.3672"/><!--MD5=[0d4fe674cc1d46ec0fc990086e50801a]
class GrauProficiencia--><rect codeLine="44" fill="#FEFECE" filter="url(#f1hone77igqobq)" height="73.6094" id="GrauProficiencia" style="stroke:#A80036;stroke-width:1.5;" width="128" x="1206" y="90.9531"/><ellipse cx="1221" cy="106.9531" fill="#ADD1B2" rx="11" ry="11" style="stroke:#A80036;stroke-width:1.0;"/><path d="M1223.3438,102.625 C1222.4063,102.1875 1221.8125,102.0469 1220.9375,102.0469 C1218.3125,102.0469 1216.3125,104.125 1216.3125,106.8438 L1216.3125,107.9688 C1216.3125,110.5469 1218.4219,112.4375 1221.3125,112.4375 C1222.5313,112.4375 1223.6875,112.1406 1224.4375,111.5938 C1225.0156,111.1875 1225.3438,110.7344 1225.3438,110.3438 C1225.3438,109.8906 1224.9531,109.5 1224.4844,109.5 C1224.2656,109.5 1224.0625,109.5781 1223.875,109.7656 C1223.4219,110.25 1223.4219,110.25 1223.2344,110.3438 C1222.8125,110.6094 1222.125,110.7344 1221.3594,110.7344 C1219.3125,110.7344 1218.0156,109.6406 1218.0156,107.9375 L1218.0156,106.8438 C1218.0156,105.0625 1219.2656,103.75 1221,103.75 C1221.5781,103.75 1222.1875,103.9063 1222.6563,104.1563 C1223.1406,104.4375 1223.3125,104.6563 1223.4063,105.0625 C1223.4688,105.4688 1223.5,105.5938 1223.6406,105.7188 C1223.7813,105.8594 1224.0156,105.9688 1224.2344,105.9688 C1224.5,105.9688 1224.7656,105.8281 1224.9375,105.6094 C1225.0469,105.4531 1225.0781,105.2656 1225.0781,104.8438 L1225.0781,103.4219 C1225.0781,102.9844 1225.0625,102.8594 1224.9688,102.7031 C1224.8125,102.4375 1224.5313,102.2969 1224.2344,102.2969 C1223.9375,102.2969 1223.7344,102.3906 1223.5156,102.7031 L1223.3438,102.625 Z " fill="#000000"/><text fill="#000000" font-family="sans-serif" font-size="12" lengthAdjust="spacing" textLength="96" x="1235" y="111.1074">GrauProficiencia</text><line style="stroke:#A80036;stroke-width:1.5;" x1="1207" x2="1333" y1="122.9531" y2="122.9531"/><text fill="#000000" font-family="sans-serif" font-size="11" lengthAdjust="spacing" textLength="77" x="1212" y="137.1636">-Integer valor</text><text fill="#000000" font-family="sans-serif" font-size="11" lengthAdjust="spacing" textLength="106" x="1212" y="149.9683">-String designacao</text><line style="stroke:#A80036;stroke-width:1.5;" x1="1207" x2="1333" y1="156.5625" y2="156.5625"/><!--MD5=[5dd1d6732c071e710b9290b531f2fa3b]
class Utilizador--><rect codeLine="49" fill="#FEFECE" filter="url(#f1hone77igqobq)" height="86.4141" id="Utilizador" style="stroke:#A80036;stroke-width:1.5;" width="106" x="664.5" y="472.9531"/><ellipse cx="687.15" cy="488.9531" fill="#ADD1B2" rx="11" ry="11" style="stroke:#A80036;stroke-width:1.0;"/><path d="M689.4938,484.625 C688.5563,484.1875 687.9625,484.0469 687.0875,484.0469 C684.4625,484.0469 682.4625,486.125 682.4625,488.8438 L682.4625,489.9688 C682.4625,492.5469 684.5719,494.4375 687.4625,494.4375 C688.6813,494.4375 689.8375,494.1406 690.5875,493.5938 C691.1656,493.1875 691.4938,492.7344 691.4938,492.3438 C691.4938,491.8906 691.1031,491.5 690.6344,491.5 C690.4156,491.5 690.2125,491.5781 690.025,491.7656 C689.5719,492.25 689.5719,492.25 689.3844,492.3438 C688.9625,492.6094 688.275,492.7344 687.5094,492.7344 C685.4625,492.7344 684.1656,491.6406 684.1656,489.9375 L684.1656,488.8438 C684.1656,487.0625 685.4156,485.75 687.15,485.75 C687.7281,485.75 688.3375,485.9063 688.8063,486.1563 C689.2906,486.4375 689.4625,486.6563 689.5563,487.0625 C689.6188,487.4688 689.65,487.5938 689.7906,487.7188 C689.9313,487.8594 690.1656,487.9688 690.3844,487.9688 C690.65,487.9688 690.9156,487.8281 691.0875,487.6094 C691.1969,487.4531 691.2281,487.2656 691.2281,486.8438 L691.2281,485.4219 C691.2281,484.9844 691.2125,484.8594 691.1188,484.7031 C690.9625,484.4375 690.6813,484.2969 690.3844,484.2969 C690.0875,484.2969 689.8844,484.3906 689.6656,484.7031 L689.4938,484.625 Z " fill="#000000"/><text fill="#000000" font-family="sans-serif" font-size="12" lengthAdjust="spacing" textLength="57" x="702.85" y="493.1074">Utilizador</text><line style="stroke:#A80036;stroke-width:1.5;" x1="665.5" x2="769.5" y1="504.9531" y2="504.9531"/><text fill="#000000" font-family="sans-serif" font-size="11" lengthAdjust="spacing" textLength="74" x="670.5" y="519.1636">-String nome</text><text fill="#000000" font-family="sans-serif" font-size="11" lengthAdjust="spacing" textLength="73" x="670.5" y="531.9683">-String email</text><text fill="#000000" font-family="sans-serif" font-size="11" lengthAdjust="spacing" textLength="94" x="670.5" y="544.7729">-String password</text><line style="stroke:#A80036;stroke-width:1.5;" x1="665.5" x2="769.5" y1="551.3672" y2="551.3672"/><!--MD5=[a77d152358ce76c19672aacd9fb0ada1]
link Plataforma to CompetenciaTecnica--><path codeLine="55" d="M125.006,300.9751 C225.461,250.6101 439.635,150.0151 633,103.9531 C736.149,79.3821 858.858,72.6181 936.713,71.0111 " fill="none" id="Plataforma-CompetenciaTecnica" style="stroke:#A80036;stroke-width:1.0;"/><polygon fill="#000000" points="529.8107,101.1566,520.307,100.7945,521.9092,106.4498,529.8107,101.1566" style="stroke:#000000;stroke-width:1.0;"/><text fill="#000000" font-family="sans-serif" font-size="13" lengthAdjust="spacing" textLength="41" x="534" y="107.02">possui</text><text fill="#000000" font-family="sans-serif" font-size="13" lengthAdjust="spacing" textLength="8" x="133.0786" y="310.183">1</text><text fill="#000000" font-family="sans-serif" font-size="13" lengthAdjust="spacing" textLength="7" x="922.1272" y="83.7618">*</text><!--MD5=[39c0de7668d8063a4eb96c23050b3de2]
link Plataforma to Freelancer--><path codeLine="56" d="M125.138,330.9531 C178.952,330.9531 258.14,330.9531 309.27,330.9531 " fill="none" id="Plataforma-Freelancer" style="stroke:#A80036;stroke-width:1.0;"/><polygon fill="#000000" points="167.5,322.5195,158.4549,319.5806,158.4549,325.4585,167.5,322.5195" style="stroke:#000000;stroke-width:1.0;"/><text fill="#000000" font-family="sans-serif" font-size="13" lengthAdjust="spacing" textLength="53" x="171.5" y="327.02">tem/usa</text><text fill="#000000" font-family="sans-serif" font-size="13" lengthAdjust="spacing" textLength="8" x="132.8329" y="343.9541">1</text><text fill="#000000" font-family="sans-serif" font-size="13" lengthAdjust="spacing" textLength="7" x="294.5736" y="344.0687">*</text><!--MD5=[49996cf4319f45f78007483382b2a228]
link Plataforma to AlgoritmoGeradorPasswords--><path codeLine="57" d="M125.138,353.0161 C174.537,371.7621 245.317,398.6221 296.148,417.9121 " fill="none" id="Plataforma-AlgoritmoGeradorPasswords" style="stroke:#A80036;stroke-width:1.0;"/><polygon fill="#000000" points="164.6747,359.2935,157.2608,353.3366,155.1754,358.8321,164.6747,359.2935" style="stroke:#000000;stroke-width:1.0;"/><text fill="#000000" font-family="sans-serif" font-size="13" lengthAdjust="spacing" textLength="58" x="169" y="362.02">recorre a</text><text fill="#000000" font-family="sans-serif" font-size="13" lengthAdjust="spacing" textLength="8" x="132.8329" y="368.706">1</text><text fill="#000000" font-family="sans-serif" font-size="13" lengthAdjust="spacing" textLength="8" x="270.6328" y="406.9137">1</text><!--MD5=[b8422db8e85907663c841d4c41f19cc1]
link Freelancer to EnderecoPostal--><path codeLine="58" d="M411.61,339.9871 C475.446,351.4951 585.742,371.3801 654.718,383.8151 " fill="none" id="Freelancer-EnderecoPostal" style="stroke:#A80036;stroke-width:1.0;"/><polygon fill="#000000" points="537.4207,347.4066,529.0405,342.9095,527.9977,348.6941,537.4207,347.4066" style="stroke:#000000;stroke-width:1.0;"/><text fill="#000000" font-family="sans-serif" font-size="13" lengthAdjust="spacing" textLength="26" x="541.5" y="351.02">tem</text><text fill="#000000" font-family="sans-serif" font-size="13" lengthAdjust="spacing" textLength="24" x="419.696" y="354.1669">0..1</text><text fill="#000000" font-family="sans-serif" font-size="13" lengthAdjust="spacing" textLength="8" x="638.9963" y="395.4451">1</text><!--MD5=[d8cdfe47acc319ba7387450f2c7628f2]
link Freelancer to ReconhecimentoCT--><path codeLine="59" d="M411.609,304.2711 C436.077,291.3431 465.995,275.6811 493,261.9531 C546.78,234.6151 608.314,204.4081 653.182,182.5761 " fill="none" id="Freelancer-ReconhecimentoCT" style="stroke:#A80036;stroke-width:1.0;"/><polygon fill="#000000" points="518.9654,196.27,509.5652,197.7147,512.2096,202.9641,518.9654,196.27" style="stroke:#000000;stroke-width:1.0;"/><text fill="#000000" font-family="sans-serif" font-size="13" lengthAdjust="spacing" textLength="62" x="523.5" y="203.02">recebe(u)</text><text fill="#000000" font-family="sans-serif" font-size="13" lengthAdjust="spacing" textLength="8" x="419.3587" y="313.6345">1</text><text fill="#000000" font-family="sans-serif" font-size="13" lengthAdjust="spacing" textLength="7" x="632.1945" y="202.5397">*</text><!--MD5=[7a59ad2cb29ff6e914b8672ce881fef8]
link Freelancer to HabilitacaoAcademica--><path codeLine="60" d="M411.61,321.9191 C469.712,311.4441 566.303,294.0311 635.195,281.6111 " fill="none" id="Freelancer-HabilitacaoAcademica" style="stroke:#A80036;stroke-width:1.0;"/><polygon fill="#000000" points="537.4207,277.6324,527.9977,276.3449,529.0405,282.1295,537.4207,277.6324" style="stroke:#000000;stroke-width:1.0;"/><text fill="#000000" font-family="sans-serif" font-size="13" lengthAdjust="spacing" textLength="26" x="541.5" y="283.02">tem</text><text fill="#000000" font-family="sans-serif" font-size="13" lengthAdjust="spacing" textLength="8" x="419.3598" y="333.7643">1</text><text fill="#000000" font-family="sans-serif" font-size="13" lengthAdjust="spacing" textLength="7" x="620.553" y="295.6476">*</text><!--MD5=[6a7c57800a31452a20aa2f5037e36afb]
link Freelancer to Utilizador--><path codeLine="61" d="M411.61,357.0671 C478.504,391.9271 596.416,453.3741 664.336,488.7691 " fill="none" id="Freelancer-Utilizador" style="stroke:#A80036;stroke-width:1.0;"/><polygon fill="#000000" points="515.434,394.8302,508.771,388.0439,506.0546,393.2564,515.434,394.8302" style="stroke:#000000;stroke-width:1.0;"/><text fill="#000000" font-family="sans-serif" font-size="13" lengthAdjust="spacing" textLength="69" x="520" y="397.02">atua como</text><text fill="#000000" font-family="sans-serif" font-size="13" lengthAdjust="spacing" textLength="24" x="419.696" y="373.4353">0..1</text><text fill="#000000" font-family="sans-serif" font-size="13" lengthAdjust="spacing" textLength="8" x="648.6546" y="498.1721">1</text><!--MD5=[4aa6a936df4ad7b844bdcf1457a2ad73]
link AlgoritmoGeradorPasswords to Utilizador--><path codeLine="62" d="M394.426,465.9888 C419.915,483.051 456.857,504.5337 493,513.9531 C550.075,528.8278 618.166,526.7439 664.07,522.5958 " fill="none" id="AlgoritmoGeradorPasswords-Utilizador" style="stroke:#A80036;stroke-width:1.0;"/><polygon fill="#000000" points="502.8933,506.5468,494.645,501.8122,493.4374,507.5647,502.8933,506.5468" style="stroke:#000000;stroke-width:1.0;"/><text fill="#000000" font-family="sans-serif" font-size="13" lengthAdjust="spacing" textLength="95" x="507" y="510.02">gera password</text><text fill="#000000" font-family="sans-serif" font-size="13" lengthAdjust="spacing" textLength="8" x="394.0945" y="486.1538">1</text><text fill="#000000" font-family="sans-serif" font-size="13" lengthAdjust="spacing" textLength="7" x="649.42" y="536.5442">*</text><!--MD5=[f49a2ed7e599b0b3feae4bc7e03654d4]
link ReconhecimentoCT to CompetenciaTecnica--><path codeLine="63" d="M802.19,136.4101 C835.121,129.6041 873.094,120.8941 907,110.9531 C916.746,108.0961 926.875,104.7891 936.848,101.3261 " fill="none" id="ReconhecimentoCT-CompetenciaTecnica" style="stroke:#A80036;stroke-width:1.0;"/><polygon fill="#000000" points="841.8385,101.2589,832.3446,100.6954,833.8266,106.3834,841.8385,101.2589" style="stroke:#000000;stroke-width:1.0;"/><text fill="#000000" font-family="sans-serif" font-size="13" lengthAdjust="spacing" textLength="60" x="846" y="107.02">relativa a</text><text fill="#000000" font-family="sans-serif" font-size="13" lengthAdjust="spacing" textLength="7" x="810.0444" y="147.7753">*</text><text fill="#000000" font-family="sans-serif" font-size="13" lengthAdjust="spacing" textLength="8" x="920.9702" y="116.9894">1</text><!--MD5=[4c83f560ef7c82f9519d7b4f6acd253e]
link ReconhecimentoCT to GrauProficiencia--><path codeLine="64" d="M802.114,153.9481 C878.273,155.1321 993.806,155.3451 1094,148.9531 C1131.26,146.5761 1172.75,141.6951 1205.98,137.2371 " fill="none" id="ReconhecimentoCT-GrauProficiencia" style="stroke:#A80036;stroke-width:1.0;"/><polygon fill="#000000" points="984.4957,140.3128,975.3369,137.7504,975.5799,143.6232,984.4957,140.3128" style="stroke:#000000;stroke-width:1.0;"/><text fill="#000000" font-family="sans-serif" font-size="13" lengthAdjust="spacing" textLength="67" x="988.5" y="145.02">reconhece</text><text fill="#000000" font-family="sans-serif" font-size="13" lengthAdjust="spacing" textLength="7" x="809.9617" y="166.8753">*</text><text fill="#000000" font-family="sans-serif" font-size="13" lengthAdjust="spacing" textLength="8" x="1190.1152" y="151.2749">1</text><!--MD5=[0d731ff285a62a08178b23be6cceb109]
link CompetenciaTecnica to GrauProficiencia--><path codeLine="65" d="M1094.32,88.5201 C1130.11,96.6001 1172.02,106.0611 1205.82,113.6901 " fill="none" id="CompetenciaTecnica-GrauProficiencia" style="stroke:#A80036;stroke-width:1.0;"/><polygon fill="#000000" points="1133.8773,88.6205,1125.7014,83.762,1124.4071,89.4956,1133.8773,88.6205" style="stroke:#000000;stroke-width:1.0;"/><text fill="#000000" font-family="sans-serif" font-size="13" lengthAdjust="spacing" textLength="37" x="1138" y="92.02">aplica</text><text fill="#000000" font-family="sans-serif" font-size="13" lengthAdjust="spacing" textLength="8" x="1101.955" y="102.8849">1</text><text fill="#000000" font-family="sans-serif" font-size="13" lengthAdjust="spacing" textLength="7" x="1190.9945" y="125.0053">*</text><!--MD5=[e5951d6d63577214a7279cc8d96ca737]
@startuml
left to right direction
skinparam classAttributeIconSize 0

title UC07 - Registar Freelancer
class Plataforma {
  -String designacao
}

class Freelancer {
  -String nome
  -String NIF
  -String telefone
  -String email
}

class EnderecoPostal {
    -String local
    -String codPostal
    -String localidade
}

class ReconhecimentoCT{
    -Date dataReconhecimento
}

class AlgoritmoGeradorPasswords {

}

class HabilitacaoAcademica{
-String grau
-String designacaoCurso
-String nomeInstituicao
-Double mediaCurso

}

class CompetenciaTecnica {
  -String codigo
  -String descBreve
  -String descDetalhada
}

class GrauProficiencia {
    -Integer valor
    -String designacao
}

class Utilizador {
  -String nome
  -String email
  -String password
}

Plataforma "1" - - "*" CompetenciaTecnica : possui >
Plataforma "1" - - "*" Freelancer : tem/usa >
Plataforma "1" - - "1" AlgoritmoGeradorPasswords : recorre a >
Freelancer "0..1" - - "1" EnderecoPostal : tem >
Freelancer "1" - - "*" ReconhecimentoCT : recebe(u) >
Freelancer "1" - - "*" HabilitacaoAcademica : tem >
Freelancer "0..1" - - "1" Utilizador : atua como >
AlgoritmoGeradorPasswords "1" - - "*" Utilizador : gera password >
ReconhecimentoCT "*" - - "1" CompetenciaTecnica : relativa a >
ReconhecimentoCT "*" - - "1" GrauProficiencia : reconhece >
CompetenciaTecnica "1" - - "*" GrauProficiencia : aplica >
@enduml

PlantUML version 1.2021.2beta6(Unknown compile time)
(GPL source distribution)
Java Runtime: Java(TM) SE Runtime Environment
JVM: Java HotSpot(TM) 64-Bit Server VM
Default Encoding: UTF-8
Language: en
Country: US
--></g></svg>