<?xml version="1.0" encoding="UTF-8" standalone="no"?><svg xmlns="http://www.w3.org/2000/svg" xmlns:xlink="http://www.w3.org/1999/xlink" contentScriptType="application/ecmascript" contentStyleType="text/css" height="634px" preserveAspectRatio="none" style="width:1037px;height:634px;" version="1.1" viewBox="0 0 1037 634" width="1037px" zoomAndPan="magnify"><defs><filter height="300%" id="f7n4ufxb092q7" width="300%" x="-1" y="-1"><feGaussianBlur result="blurOut" stdDeviation="2.0"/><feColorMatrix in="blurOut" result="blurOut2" type="matrix" values="0 0 0 0 0 0 0 0 0 0 0 0 0 0 0 0 0 0 .4 0"/><feOffset dx="4.0" dy="4.0" in="blurOut2" result="blurOut3"/><feBlend in="SourceGraphic" in2="blurOut3" mode="normal"/></filter></defs><g><text fill="#000000" font-family="sans-serif" font-size="18" lengthAdjust="spacing" textLength="251" x="391" y="28.708">UC07 - Registar Freelancer</text><rect fill="#FFFFFF" filter="url(#f7n4ufxb092q7)" height="480.9297" style="stroke:#A80036;stroke-width:1.0;" width="10" x="39.5" y="85.25"/><rect fill="#FFFFFF" filter="url(#f7n4ufxb092q7)" height="87.3984" style="stroke:#A80036;stroke-width:1.0;" width="10" x="368.5" y="106.3828"/><rect fill="#FFFFFF" filter="url(#f7n4ufxb092q7)" height="29.1328" style="stroke:#A80036;stroke-width:1.0;" width="10" x="368.5" y="537.0469"/><rect fill="#FFFFFF" filter="url(#f7n4ufxb092q7)" height="343.2656" style="stroke:#A80036;stroke-width:1.0;" width="10" x="587.5" y="193.7813"/><rect fill="#FFFFFF" filter="url(#f7n4ufxb092q7)" height="111.5313" style="stroke:#A80036;stroke-width:1.0;" width="10" x="764.5" y="222.9141"/><rect fill="#FFFFFF" filter="url(#f7n4ufxb092q7)" height="71.2656" style="stroke:#A80036;stroke-width:1.0;" width="10" x="764.5" y="436.6484"/><rect fill="#FFFFFF" filter="url(#f7n4ufxb092q7)" height="29.1328" style="stroke:#A80036;stroke-width:1.0;" width="10" x="915.5" y="378.3828"/><rect fill="#FFFFFF" filter="url(#f7n4ufxb092q7)" height="307.1328" style="stroke:#000000;stroke-width:2.0;" width="1013" x="10" y="267.0469"/><rect fill="#FFFFFF" height="231.7344" style="stroke:none;stroke-width:1.0;" width="1013" x="10" y="342.4453"/><line style="stroke:#A80036;stroke-width:1.0;stroke-dasharray:5.0,5.0;" x1="44" x2="44" y1="75.25" y2="591.1797"/><line style="stroke:#A80036;stroke-width:1.0;stroke-dasharray:5.0,5.0;" x1="373" x2="373" y1="75.25" y2="591.1797"/><line style="stroke:#A80036;stroke-width:1.0;stroke-dasharray:5.0,5.0;" x1="592" x2="592" y1="75.25" y2="591.1797"/><line style="stroke:#A80036;stroke-width:1.0;stroke-dasharray:5.0,5.0;" x1="769" x2="769" y1="75.25" y2="591.1797"/><line style="stroke:#A80036;stroke-width:1.0;stroke-dasharray:5.0,5.0;" x1="920" x2="920" y1="75.25" y2="591.1797"/><rect fill="#FEFECE" filter="url(#f7n4ufxb092q7)" height="30.2969" style="stroke:#A80036;stroke-width:1.5;" width="45" x="20" y="39.9531"/><text fill="#000000" font-family="sans-serif" font-size="14" lengthAdjust="spacing" textLength="31" x="27" y="59.9482">User</text><rect fill="#FEFECE" filter="url(#f7n4ufxb092q7)" height="30.2969" style="stroke:#A80036;stroke-width:1.5;" width="45" x="20" y="590.1797"/><text fill="#000000" font-family="sans-serif" font-size="14" lengthAdjust="spacing" textLength="31" x="27" y="610.1748">User</text><rect fill="#FEFECE" filter="url(#f7n4ufxb092q7)" height="30.2969" style="stroke:#A80036;stroke-width:1.5;" width="71" x="336" y="39.9531"/><text fill="#000000" font-family="sans-serif" font-size="14" lengthAdjust="spacing" textLength="57" x="343" y="59.9482">UC07_UI</text><rect fill="#FEFECE" filter="url(#f7n4ufxb092q7)" height="30.2969" style="stroke:#A80036;stroke-width:1.5;" width="71" x="336" y="590.1797"/><text fill="#000000" font-family="sans-serif" font-size="14" lengthAdjust="spacing" textLength="57" x="343" y="610.1748">UC07_UI</text><rect fill="#FEFECE" filter="url(#f7n4ufxb092q7)" height="30.2969" style="stroke:#A80036;stroke-width:1.5;" width="131" x="525" y="39.9531"/><text fill="#000000" font-family="sans-serif" font-size="14" lengthAdjust="spacing" textLength="117" x="532" y="59.9482">UC07_Controller</text><rect fill="#FEFECE" filter="url(#f7n4ufxb092q7)" height="30.2969" style="stroke:#A80036;stroke-width:1.5;" width="131" x="525" y="590.1797"/><text fill="#000000" font-family="sans-serif" font-size="14" lengthAdjust="spacing" textLength="117" x="532" y="610.1748">UC07_Controller</text><rect fill="#FEFECE" filter="url(#f7n4ufxb092q7)" height="30.2969" style="stroke:#A80036;stroke-width:1.5;" width="93" x="721" y="39.9531"/><text fill="#000000" font-family="sans-serif" font-size="14" lengthAdjust="spacing" textLength="79" x="728" y="59.9482">Plataforma</text><rect fill="#FEFECE" filter="url(#f7n4ufxb092q7)" height="30.2969" style="stroke:#A80036;stroke-width:1.5;" width="93" x="721" y="590.1797"/><text fill="#000000" font-family="sans-serif" font-size="14" lengthAdjust="spacing" textLength="79" x="728" y="610.1748">Plataforma</text><rect fill="#FEFECE" filter="url(#f7n4ufxb092q7)" height="30.2969" style="stroke:#A80036;stroke-width:1.5;" width="181" x="828" y="39.9531"/><text fill="#000000" font-family="sans-serif" font-size="14" lengthAdjust="spacing" textLength="167" x="835" y="59.9482">Repositorio_Freelancer</text><rect fill="#FEFECE" filter="url(#f7n4ufxb092q7)" height="30.2969" style="stroke:#A80036;stroke-width:1.5;" width="181" x="828" y="590.1797"/><text fill="#000000" font-family="sans-serif" font-size="14" lengthAdjust="spacing" textLength="167" x="835" y="610.1748">Repositorio_Freelancer</text><rect fill="#FFFFFF" filter="url(#f7n4ufxb092q7)" height="480.9297" style="stroke:#A80036;stroke-width:1.0;" width="10" x="39.5" y="85.25"/><rect fill="#FFFFFF" filter="url(#f7n4ufxb092q7)" height="87.3984" style="stroke:#A80036;stroke-width:1.0;" width="10" x="368.5" y="106.3828"/><rect fill="#FFFFFF" filter="url(#f7n4ufxb092q7)" height="29.1328" style="stroke:#A80036;stroke-width:1.0;" width="10" x="368.5" y="537.0469"/><rect fill="#FFFFFF" filter="url(#f7n4ufxb092q7)" height="343.2656" style="stroke:#A80036;stroke-width:1.0;" width="10" x="587.5" y="193.7813"/><rect fill="#FFFFFF" filter="url(#f7n4ufxb092q7)" height="111.5313" style="stroke:#A80036;stroke-width:1.0;" width="10" x="764.5" y="222.9141"/><rect fill="#FFFFFF" filter="url(#f7n4ufxb092q7)" height="71.2656" style="stroke:#A80036;stroke-width:1.0;" width="10" x="764.5" y="436.6484"/><rect fill="#FFFFFF" filter="url(#f7n4ufxb092q7)" height="29.1328" style="stroke:#A80036;stroke-width:1.0;" width="10" x="915.5" y="378.3828"/><polygon fill="#A80036" points="356.5,102.3828,366.5,106.3828,356.5,110.3828,360.5,106.3828" style="stroke:#A80036;stroke-width:1.0;"/><line style="stroke:#A80036;stroke-width:1.0;" x1="49.5" x2="362.5" y1="106.3828" y2="106.3828"/><text fill="#000000" font-family="sans-serif" font-size="13" lengthAdjust="spacing" textLength="41" x="56.5" y="101.3169">create</text><polygon fill="#A80036" points="60.5,131.5156,50.5,135.5156,60.5,139.5156,56.5,135.5156" style="stroke:#A80036;stroke-width:1.0;"/><line style="stroke:#A80036;stroke-width:1.0;stroke-dasharray:2.0,2.0;" x1="54.5" x2="367.5" y1="135.5156" y2="135.5156"/><text fill="#000000" font-family="sans-serif" font-size="13" lengthAdjust="spacing" textLength="122" x="66.5" y="130.4497">Introduza os dados</text><polygon fill="#A80036" points="356.5,160.6484,366.5,164.6484,356.5,168.6484,360.5,164.6484" style="stroke:#A80036;stroke-width:1.0;"/><line style="stroke:#A80036;stroke-width:1.0;" x1="49.5" x2="362.5" y1="164.6484" y2="164.6484"/><text fill="#000000" font-family="sans-serif" font-size="13" lengthAdjust="spacing" textLength="295" x="56.5" y="159.5825">introduz nome, NIF, endPostal, telefone, email</text><polygon fill="#A80036" points="575.5,189.7813,585.5,193.7813,575.5,197.7813,579.5,193.7813" style="stroke:#A80036;stroke-width:1.0;"/><line style="stroke:#A80036;stroke-width:1.0;" x1="373.5" x2="581.5" y1="193.7813" y2="193.7813"/><text fill="#000000" font-family="sans-serif" font-size="13" lengthAdjust="spacing" textLength="190" x="380.5" y="188.7153">registarFreelancer(nome, NIF)</text><polygon fill="#A80036" points="752.5,218.9141,762.5,222.9141,752.5,226.9141,756.5,222.9141" style="stroke:#A80036;stroke-width:1.0;"/><line style="stroke:#A80036;stroke-width:1.0;stroke-dasharray:2.0,2.0;" x1="597.5" x2="758.5" y1="222.9141" y2="222.9141"/><text fill="#000000" font-family="sans-serif" font-size="13" lengthAdjust="spacing" textLength="120" x="604.5" y="217.8481">findFreelancer(NIF)</text><polygon fill="#A80036" points="608.5,248.0469,598.5,252.0469,608.5,256.0469,604.5,252.0469" style="stroke:#A80036;stroke-width:1.0;"/><line style="stroke:#A80036;stroke-width:1.0;stroke-dasharray:2.0,2.0;" x1="602.5" x2="763.5" y1="252.0469" y2="252.0469"/><text fill="#000000" font-family="sans-serif" font-size="13" lengthAdjust="spacing" textLength="54" x="614.5" y="246.981">já existe</text><path d="M10,267.0469 L76,267.0469 L76,274.0469 L66,284.0469 L10,284.0469 L10,267.0469 " fill="#EEEEEE" style="stroke:#000000;stroke-width:1.0;"/><rect fill="none" height="307.1328" style="stroke:#000000;stroke-width:2.0;" width="1013" x="10" y="267.0469"/><text fill="#000000" font-family="sans-serif" font-size="13" font-weight="bold" lengthAdjust="spacing" textLength="21" x="25" y="280.1138">alt</text><text fill="#000000" font-family="sans-serif" font-size="11" font-weight="bold" lengthAdjust="spacing" textLength="76" x="91" y="279.2573">[exist true]</text><polygon fill="#A80036" points="384.5,301.3125,374.5,305.3125,384.5,309.3125,380.5,305.3125" style="stroke:#A80036;stroke-width:1.0;"/><line style="stroke:#A80036;stroke-width:1.0;stroke-dasharray:2.0,2.0;" x1="378.5" x2="586.5" y1="305.3125" y2="305.3125"/><text fill="#000000" font-family="sans-serif" font-size="13" lengthAdjust="spacing" textLength="123" x="390.5" y="300.2466">freelancer já existe</text><polygon fill="#A80036" points="60.5,330.4453,50.5,334.4453,60.5,338.4453,56.5,334.4453" style="stroke:#A80036;stroke-width:1.0;"/><line style="stroke:#A80036;stroke-width:1.0;stroke-dasharray:2.0,2.0;" x1="54.5" x2="372.5" y1="334.4453" y2="334.4453"/><text fill="#000000" font-family="sans-serif" font-size="13" lengthAdjust="spacing" textLength="123" x="66.5" y="329.3794">freelancer já existe</text><line style="stroke:#000000;stroke-width:1.0;stroke-dasharray:2.0,2.0;" x1="10" x2="1023" y1="343.4453" y2="343.4453"/><text fill="#000000" font-family="sans-serif" font-size="11" font-weight="bold" lengthAdjust="spacing" textLength="81" x="15" y="353.6558">[exist false]</text><polygon fill="#A80036" points="903.5,374.3828,913.5,378.3828,903.5,382.3828,907.5,378.3828" style="stroke:#A80036;stroke-width:1.0;"/><line style="stroke:#A80036;stroke-width:1.0;" x1="597.5" x2="909.5" y1="378.3828" y2="378.3828"/><text fill="#000000" font-family="sans-serif" font-size="13" lengthAdjust="spacing" textLength="115" x="604.5" y="373.3169">create(nome, NIF)</text><polygon fill="#A80036" points="608.5,403.5156,598.5,407.5156,608.5,411.5156,604.5,407.5156" style="stroke:#A80036;stroke-width:1.0;"/><line style="stroke:#A80036;stroke-width:1.0;stroke-dasharray:2.0,2.0;" x1="602.5" x2="919.5" y1="407.5156" y2="407.5156"/><text fill="#000000" font-family="sans-serif" font-size="13" lengthAdjust="spacing" textLength="13" x="614.5" y="402.4497">f1</text><polygon fill="#A80036" points="752.5,432.6484,762.5,436.6484,752.5,440.6484,756.5,436.6484" style="stroke:#A80036;stroke-width:1.0;"/><line style="stroke:#A80036;stroke-width:1.0;" x1="597.5" x2="758.5" y1="436.6484" y2="436.6484"/><text fill="#000000" font-family="sans-serif" font-size="13" lengthAdjust="spacing" textLength="148" x="604.5" y="431.5825">adicionarFreelancer(f1)</text><line style="stroke:#A80036;stroke-width:1.0;" x1="774.5" x2="816.5" y1="465.7813" y2="465.7813"/><line style="stroke:#A80036;stroke-width:1.0;" x1="816.5" x2="816.5" y1="465.7813" y2="478.7813"/><line style="stroke:#A80036;stroke-width:1.0;" x1="775.5" x2="816.5" y1="478.7813" y2="478.7813"/><polygon fill="#A80036" points="785.5,474.7813,775.5,478.7813,785.5,482.7813,781.5,478.7813" style="stroke:#A80036;stroke-width:1.0;"/><text fill="#000000" font-family="sans-serif" font-size="13" lengthAdjust="spacing" textLength="81" x="781.5" y="460.7153">adicionar(f1)</text><polygon fill="#A80036" points="608.5,503.9141,598.5,507.9141,608.5,511.9141,604.5,507.9141" style="stroke:#A80036;stroke-width:1.0;"/><line style="stroke:#A80036;stroke-width:1.0;stroke-dasharray:2.0,2.0;" x1="602.5" x2="768.5" y1="507.9141" y2="507.9141"/><text fill="#000000" font-family="sans-serif" font-size="13" lengthAdjust="spacing" textLength="52" x="614.5" y="502.8481">sucesso</text><polygon fill="#A80036" points="389.5,533.0469,379.5,537.0469,389.5,541.0469,385.5,537.0469" style="stroke:#A80036;stroke-width:1.0;"/><line style="stroke:#A80036;stroke-width:1.0;stroke-dasharray:2.0,2.0;" x1="383.5" x2="591.5" y1="537.0469" y2="537.0469"/><text fill="#000000" font-family="sans-serif" font-size="13" lengthAdjust="spacing" textLength="52" x="395.5" y="531.981">sucesso</text><polygon fill="#A80036" points="55.5,562.1797,45.5,566.1797,55.5,570.1797,51.5,566.1797" style="stroke:#A80036;stroke-width:1.0;"/><line style="stroke:#A80036;stroke-width:1.0;stroke-dasharray:2.0,2.0;" x1="49.5" x2="372.5" y1="566.1797" y2="566.1797"/><text fill="#000000" font-family="sans-serif" font-size="13" lengthAdjust="spacing" textLength="219" x="61.5" y="561.1138">Freelancer registado com sucesso</text><!--MD5=[541b5cdd4fe1b18e82e1c3bc3b44f000]
@startuml
title UC07 - Registar Freelancer
activate User
User->UC07_UI:create
activate UC07_UI
UC07_UI- ->User:Introduza os dados
User->UC07_UI:introduz nome, NIF, endPostal, telefone, email
UC07_UI->UC07_Controller:registarFreelancer(nome, NIF)
deactivate UC07_UI
activate UC07_Controller
UC07_Controller- ->Plataforma:findFreelancer(NIF)
activate Plataforma
Plataforma- ->UC07_Controller: já existe
alt exist true
UC07_Controller- -> UC07_UI: freelancer já existe
UC07_UI - ->User: freelancer já existe
else exist false
deactivate Plataforma
UC07_Controller->Repositorio_Freelancer: create(nome, NIF)
activate Repositorio_Freelancer
Repositorio_Freelancer- ->UC07_Controller:f1
deactivate Repositorio_Freelancer
UC07_Controller ->Plataforma:adicionarFreelancer(f1)
activate Plataforma
Plataforma->Plataforma:adicionar(f1)
Plataforma- ->UC07_Controller:sucesso
deactivate Plataforma
UC07_Controller - ->UC07_UI:sucesso
deactivate UC07_Controller
activate UC07_UI
UC07_UI- ->User:Freelancer registado com sucesso
deactivate UC07_UI
deactivate User
end
@enduml

PlantUML version 1.2021.2beta9(Unknown compile time)
(GPL source distribution)
Java Runtime: Java(TM) SE Runtime Environment
JVM: Java HotSpot(TM) 64-Bit Server VM
Default Encoding: UTF-8
Language: en
Country: US
--></g></svg>