<?xml version="1.0" encoding="UTF-8" standalone="no"?><svg xmlns="http://www.w3.org/2000/svg" xmlns:xlink="http://www.w3.org/1999/xlink" contentScriptType="application/ecmascript" contentStyleType="text/css" height="128px" preserveAspectRatio="none" style="width:607px;height:128px;" version="1.1" viewBox="0 0 607 128" width="607px" zoomAndPan="magnify"><defs><filter height="300%" id="fxc1pfqxxh5jr" width="300%" x="-1" y="-1"><feGaussianBlur result="blurOut" stdDeviation="2.0"/><feColorMatrix in="blurOut" result="blurOut2" type="matrix" values="0 0 0 0 0 0 0 0 0 0 0 0 0 0 0 0 0 0 .4 0"/><feOffset dx="4.0" dy="4.0" in="blurOut2" result="blurOut3"/><feBlend in="SourceGraphic" in2="blurOut3" mode="normal"/></filter></defs><g><text fill="#000000" font-family="sans-serif" font-size="18" lengthAdjust="spacing" textLength="598" x="2" y="16.708">UC02 - Definir Área de Atividade - Excerto do Modelo de Domínio</text><!--MD5=[ecaed46f78f8cfe1e9ce18477649be18]
class Plataforma--><rect codeLine="5" fill="#FEFECE" filter="url(#fxc1pfqxxh5jr)" height="60.8047" id="Plataforma" style="stroke:#A80036;stroke-width:1.5;" width="128" x="107.5" y="40.4531"/><ellipse cx="137.8" cy="56.4531" fill="#ADD1B2" rx="11" ry="11" style="stroke:#A80036;stroke-width:1.0;"/><path d="M140.1438,52.125 C139.2063,51.6875 138.6125,51.5469 137.7375,51.5469 C135.1125,51.5469 133.1125,53.625 133.1125,56.3438 L133.1125,57.4688 C133.1125,60.0469 135.2219,61.9375 138.1125,61.9375 C139.3313,61.9375 140.4875,61.6406 141.2375,61.0938 C141.8156,60.6875 142.1438,60.2344 142.1438,59.8438 C142.1438,59.3906 141.7531,59 141.2844,59 C141.0656,59 140.8625,59.0781 140.675,59.2656 C140.2219,59.75 140.2219,59.75 140.0344,59.8438 C139.6125,60.1094 138.925,60.2344 138.1594,60.2344 C136.1125,60.2344 134.8156,59.1406 134.8156,57.4375 L134.8156,56.3438 C134.8156,54.5625 136.0656,53.25 137.8,53.25 C138.3781,53.25 138.9875,53.4063 139.4563,53.6563 C139.9406,53.9375 140.1125,54.1563 140.2063,54.5625 C140.2688,54.9688 140.3,55.0938 140.4406,55.2188 C140.5813,55.3594 140.8156,55.4688 141.0344,55.4688 C141.3,55.4688 141.5656,55.3281 141.7375,55.1094 C141.8469,54.9531 141.8781,54.7656 141.8781,54.3438 L141.8781,52.9219 C141.8781,52.4844 141.8625,52.3594 141.7688,52.2031 C141.6125,51.9375 141.3313,51.7969 141.0344,51.7969 C140.7375,51.7969 140.5344,51.8906 140.3156,52.2031 L140.1438,52.125 Z " fill="#000000"/><text fill="#000000" font-family="sans-serif" font-size="12" lengthAdjust="spacing" textLength="62" x="155.2" y="60.6074">Plataforma</text><line style="stroke:#A80036;stroke-width:1.5;" x1="108.5" x2="234.5" y1="72.4531" y2="72.4531"/><rect fill="none" height="6" style="stroke:#C82930;stroke-width:1.0;" width="6" x="115.5" y="80.4531"/><text fill="#000000" font-family="sans-serif" font-size="11" lengthAdjust="spacing" textLength="102" x="127.5" y="86.6636">String designacao</text><line style="stroke:#A80036;stroke-width:1.5;" x1="108.5" x2="234.5" y1="93.2578" y2="93.2578"/><!--MD5=[02456e6632d968d6f68141e5893c6991]
class AreaAtividade--><rect codeLine="9" fill="#FEFECE" filter="url(#fxc1pfqxxh5jr)" height="86.4141" id="AreaAtividade" style="stroke:#A80036;stroke-width:1.5;" width="149" x="351.5" y="27.9531"/><ellipse cx="381.35" cy="43.9531" fill="#ADD1B2" rx="11" ry="11" style="stroke:#A80036;stroke-width:1.0;"/><path d="M383.6938,39.625 C382.7563,39.1875 382.1625,39.0469 381.2875,39.0469 C378.6625,39.0469 376.6625,41.125 376.6625,43.8438 L376.6625,44.9688 C376.6625,47.5469 378.7719,49.4375 381.6625,49.4375 C382.8813,49.4375 384.0375,49.1406 384.7875,48.5938 C385.3656,48.1875 385.6938,47.7344 385.6938,47.3438 C385.6938,46.8906 385.3031,46.5 384.8344,46.5 C384.6156,46.5 384.4125,46.5781 384.225,46.7656 C383.7719,47.25 383.7719,47.25 383.5844,47.3438 C383.1625,47.6094 382.475,47.7344 381.7094,47.7344 C379.6625,47.7344 378.3656,46.6406 378.3656,44.9375 L378.3656,43.8438 C378.3656,42.0625 379.6156,40.75 381.35,40.75 C381.9281,40.75 382.5375,40.9063 383.0063,41.1563 C383.4906,41.4375 383.6625,41.6563 383.7563,42.0625 C383.8188,42.4688 383.85,42.5938 383.9906,42.7188 C384.1313,42.8594 384.3656,42.9688 384.5844,42.9688 C384.85,42.9688 385.1156,42.8281 385.2875,42.6094 C385.3969,42.4531 385.4281,42.2656 385.4281,41.8438 L385.4281,40.4219 C385.4281,39.9844 385.4125,39.8594 385.3188,39.7031 C385.1625,39.4375 384.8813,39.2969 384.5844,39.2969 C384.2875,39.2969 384.0844,39.3906 383.8656,39.7031 L383.6938,39.625 Z " fill="#000000"/><text fill="#000000" font-family="sans-serif" font-size="12" lengthAdjust="spacing" textLength="84" x="398.65" y="48.1074">AreaAtividade</text><line style="stroke:#A80036;stroke-width:1.5;" x1="352.5" x2="499.5" y1="59.9531" y2="59.9531"/><rect fill="none" height="6" style="stroke:#C82930;stroke-width:1.0;" width="6" x="359.5" y="67.9531"/><text fill="#000000" font-family="sans-serif" font-size="11" lengthAdjust="spacing" textLength="74" x="371.5" y="74.1636">String codigo</text><rect fill="none" height="6" style="stroke:#C82930;stroke-width:1.0;" width="6" x="359.5" y="80.7578"/><text fill="#000000" font-family="sans-serif" font-size="11" lengthAdjust="spacing" textLength="93" x="371.5" y="86.9683">String desBreve</text><rect fill="none" height="6" style="stroke:#C82930;stroke-width:1.0;" width="6" x="359.5" y="93.5625"/><text fill="#000000" font-family="sans-serif" font-size="11" lengthAdjust="spacing" textLength="123" x="371.5" y="99.7729">String descDetalhada</text><line style="stroke:#A80036;stroke-width:1.5;" x1="352.5" x2="499.5" y1="106.3672" y2="106.3672"/><!--MD5=[718b46c9a1975c175f4073d63ce5ccba]
link Plataforma to AreaAtividade--><path codeLine="15" d="M235.565,70.9531 C270.622,70.9531 314.437,70.9531 351.097,70.9531 " fill="none" id="Plataforma-AreaAtividade" style="stroke:#A80036;stroke-width:1.0;"/><polygon fill="#000000" points="275.5,62.5195,266.4549,59.5806,266.4549,65.4585,275.5,62.5195" style="stroke:#000000;stroke-width:1.0;"/><text fill="#000000" font-family="sans-serif" font-size="13" lengthAdjust="spacing" textLength="41" x="279.5" y="67.02">possui</text><text fill="#000000" font-family="sans-serif" font-size="13" lengthAdjust="spacing" textLength="8" x="243.435" y="83.9062">1</text><text fill="#000000" font-family="sans-serif" font-size="13" lengthAdjust="spacing" textLength="7" x="336.3792" y="83.7445">*</text><!--MD5=[6df8db41fb36e17119d0db11a941c794]
@startuml
title UC02 - Definir Área de Atividade - Excerto do Modelo de Domínio

left to right direction

class Plataforma {
    -String designacao
}

class AreaAtividade {
-String codigo
-String desBreve
-String descDetalhada
}

Plataforma "1"- -"*" AreaAtividade : possui >
@enduml

PlantUML version 1.2021.01beta3(Unknown compile time)
(GPL source distribution)
Java Runtime: Java(TM) SE Runtime Environment
JVM: Java HotSpot(TM) 64-Bit Server VM
Default Encoding: UTF-8
Language: en
Country: US
--></g></svg>