<?xml version="1.0" encoding="UTF-8" standalone="no"?><svg xmlns="http://www.w3.org/2000/svg" xmlns:xlink="http://www.w3.org/1999/xlink" contentScriptType="application/ecmascript" contentStyleType="text/css" height="750px" preserveAspectRatio="none" style="width:1469px;height:750px;" version="1.1" viewBox="0 0 1469 750" width="1469px" zoomAndPan="magnify"><defs><filter height="300%" id="f109y84p64sieb" width="300%" x="-1" y="-1"><feGaussianBlur result="blurOut" stdDeviation="2.0"/><feColorMatrix in="blurOut" result="blurOut2" type="matrix" values="0 0 0 0 0 0 0 0 0 0 0 0 0 0 0 0 0 0 .4 0"/><feOffset dx="4.0" dy="4.0" in="blurOut2" result="blurOut3"/><feBlend in="SourceGraphic" in2="blurOut3" mode="normal"/></filter></defs><g><text fill="#000000" font-family="sans-serif" font-size="18" lengthAdjust="spacing" textLength="545" x="459.75" y="28.708">UC02 - Definir Área de Actividade - Diagrama de Sequência</text><rect fill="#FFFFFF" filter="url(#f109y84p64sieb)" height="502.8594" style="stroke:#A80036;stroke-width:1.0;" width="10" x="56" y="154.3828"/><rect fill="#FFFFFF" filter="url(#f109y84p64sieb)" height="29.1328" style="stroke:#A80036;stroke-width:1.0;" width="10" x="435" y="154.3828"/><rect fill="#FFFFFF" filter="url(#f109y84p64sieb)" height="234.7969" style="stroke:#A80036;stroke-width:1.0;" width="10" x="435" y="212.6484"/><rect fill="#FFFFFF" filter="url(#f109y84p64sieb)" height="180.6641" style="stroke:#A80036;stroke-width:1.0;" width="10" x="435" y="476.5781"/><rect fill="#FFFFFF" filter="url(#f109y84p64sieb)" height="176.5313" style="stroke:#A80036;stroke-width:1.0;" width="10" x="741" y="241.7813"/><rect fill="#FFFFFF" filter="url(#f109y84p64sieb)" height="180.6641" style="stroke:#A80036;stroke-width:1.0;" width="10" x="741" y="476.5781"/><rect fill="#FFFFFF" filter="url(#f109y84p64sieb)" height="30" style="stroke:#A80036;stroke-width:1.0;" width="10" x="990" y="270.9141"/><rect fill="#FFFFFF" filter="url(#f109y84p64sieb)" height="29.1328" style="stroke:#A80036;stroke-width:1.0;" width="10" x="1152" y="330.0469"/><rect fill="#FFFFFF" filter="url(#f109y84p64sieb)" height="30" style="stroke:#A80036;stroke-width:1.0;" width="10" x="1152" y="388.3125"/><rect fill="#FFFFFF" filter="url(#f109y84p64sieb)" height="77.2656" style="stroke:#A80036;stroke-width:1.0;" width="10" x="1152" y="534.8438"/><line style="stroke:#A80036;stroke-width:1.0;stroke-dasharray:5.0,5.0;" x1="61" x2="61" y1="123.25" y2="666.2422"/><line style="stroke:#A80036;stroke-width:1.0;stroke-dasharray:5.0,5.0;" x1="439.5" x2="439.5" y1="123.25" y2="666.2422"/><line style="stroke:#A80036;stroke-width:1.0;stroke-dasharray:5.0,5.0;" x1="745.5" x2="745.5" y1="123.25" y2="666.2422"/><line style="stroke:#A80036;stroke-width:1.0;stroke-dasharray:5.0,5.0;" x1="994.5" x2="994.5" y1="123.25" y2="666.2422"/><line style="stroke:#A80036;stroke-width:1.0;stroke-dasharray:5.0,5.0;" x1="1156.5" x2="1156.5" y1="123.25" y2="666.2422"/><line style="stroke:#A80036;stroke-width:1.0;stroke-dasharray:5.0,5.0;" x1="1381.5" x2="1381.5" y1="123.25" y2="666.2422"/><text fill="#000000" font-family="sans-serif" font-size="14" lengthAdjust="spacing" textLength="106" x="5" y="119.9482">Administrativo</text><ellipse cx="61" cy="49.9531" fill="#FEFECE" filter="url(#f109y84p64sieb)" rx="8" ry="8" style="stroke:#A80036;stroke-width:2.0;"/><path d="M61,57.9531 L61,84.9531 M48,65.9531 L74,65.9531 M61,84.9531 L48,99.9531 M61,84.9531 L74,99.9531 " fill="none" filter="url(#f109y84p64sieb)" style="stroke:#A80036;stroke-width:2.0;"/><text fill="#000000" font-family="sans-serif" font-size="14" lengthAdjust="spacing" textLength="106" x="5" y="678.2373">Administrativo</text><ellipse cx="61" cy="691.5391" fill="#FEFECE" filter="url(#f109y84p64sieb)" rx="8" ry="8" style="stroke:#A80036;stroke-width:2.0;"/><path d="M61,699.5391 L61,726.5391 M48,707.5391 L74,707.5391 M61,726.5391 L48,741.5391 M61,726.5391 L74,741.5391 " fill="none" filter="url(#f109y84p64sieb)" style="stroke:#A80036;stroke-width:2.0;"/><rect fill="#FEFECE" filter="url(#f109y84p64sieb)" height="30.2969" style="stroke:#A80036;stroke-width:1.5;" width="109" x="383.5" y="87.9531"/><text fill="#000000" font-family="sans-serif" font-size="14" lengthAdjust="spacing" textLength="95" x="390.5" y="107.9482">DefinirAreaUI</text><rect fill="#FEFECE" filter="url(#f109y84p64sieb)" height="30.2969" style="stroke:#A80036;stroke-width:1.5;" width="109" x="383.5" y="665.2422"/><text fill="#000000" font-family="sans-serif" font-size="14" lengthAdjust="spacing" textLength="95" x="390.5" y="685.2373">DefinirAreaUI</text><rect fill="#FEFECE" filter="url(#f109y84p64sieb)" height="30.2969" style="stroke:#A80036;stroke-width:1.5;" width="169" x="659.5" y="87.9531"/><text fill="#000000" font-family="sans-serif" font-size="14" lengthAdjust="spacing" textLength="155" x="666.5" y="107.9482">DefinirAreaController</text><rect fill="#FEFECE" filter="url(#f109y84p64sieb)" height="30.2969" style="stroke:#A80036;stroke-width:1.5;" width="169" x="659.5" y="665.2422"/><text fill="#000000" font-family="sans-serif" font-size="14" lengthAdjust="spacing" textLength="155" x="666.5" y="685.2373">DefinirAreaController</text><rect fill="#FEFECE" filter="url(#f109y84p64sieb)" height="30.2969" style="stroke:#A80036;stroke-width:1.5;" width="93" x="946.5" y="87.9531"/><text fill="#000000" font-family="sans-serif" font-size="14" lengthAdjust="spacing" textLength="79" x="953.5" y="107.9482">Plataforma</text><rect fill="#FEFECE" filter="url(#f109y84p64sieb)" height="30.2969" style="stroke:#A80036;stroke-width:1.5;" width="93" x="946.5" y="665.2422"/><text fill="#000000" font-family="sans-serif" font-size="14" lengthAdjust="spacing" textLength="79" x="953.5" y="685.2373">Plataforma</text><rect fill="#FEFECE" filter="url(#f109y84p64sieb)" height="30.2969" style="stroke:#A80036;stroke-width:1.5;" width="203" x="1053.5" y="87.9531"/><text fill="#000000" font-family="sans-serif" font-size="14" lengthAdjust="spacing" textLength="189" x="1060.5" y="107.9482">rat:RegistoAreasAtividade</text><rect fill="#FEFECE" filter="url(#f109y84p64sieb)" height="30.2969" style="stroke:#A80036;stroke-width:1.5;" width="203" x="1053.5" y="665.2422"/><text fill="#000000" font-family="sans-serif" font-size="14" lengthAdjust="spacing" textLength="189" x="1060.5" y="685.2373">rat:RegistoAreasAtividade</text><rect fill="#FEFECE" filter="url(#f109y84p64sieb)" height="30.2969" style="stroke:#A80036;stroke-width:1.5;" width="151" x="1304.5" y="87.9531"/><text fill="#000000" font-family="sans-serif" font-size="14" lengthAdjust="spacing" textLength="137" x="1311.5" y="107.9482">area:AreaAtividade</text><rect fill="#FEFECE" filter="url(#f109y84p64sieb)" height="30.2969" style="stroke:#A80036;stroke-width:1.5;" width="151" x="1304.5" y="665.2422"/><text fill="#000000" font-family="sans-serif" font-size="14" lengthAdjust="spacing" textLength="137" x="1311.5" y="685.2373">area:AreaAtividade</text><rect fill="#FFFFFF" filter="url(#f109y84p64sieb)" height="502.8594" style="stroke:#A80036;stroke-width:1.0;" width="10" x="56" y="154.3828"/><rect fill="#FFFFFF" filter="url(#f109y84p64sieb)" height="29.1328" style="stroke:#A80036;stroke-width:1.0;" width="10" x="435" y="154.3828"/><rect fill="#FFFFFF" filter="url(#f109y84p64sieb)" height="234.7969" style="stroke:#A80036;stroke-width:1.0;" width="10" x="435" y="212.6484"/><rect fill="#FFFFFF" filter="url(#f109y84p64sieb)" height="180.6641" style="stroke:#A80036;stroke-width:1.0;" width="10" x="435" y="476.5781"/><rect fill="#FFFFFF" filter="url(#f109y84p64sieb)" height="176.5313" style="stroke:#A80036;stroke-width:1.0;" width="10" x="741" y="241.7813"/><rect fill="#FFFFFF" filter="url(#f109y84p64sieb)" height="180.6641" style="stroke:#A80036;stroke-width:1.0;" width="10" x="741" y="476.5781"/><rect fill="#FFFFFF" filter="url(#f109y84p64sieb)" height="30" style="stroke:#A80036;stroke-width:1.0;" width="10" x="990" y="270.9141"/><rect fill="#FFFFFF" filter="url(#f109y84p64sieb)" height="29.1328" style="stroke:#A80036;stroke-width:1.0;" width="10" x="1152" y="330.0469"/><rect fill="#FFFFFF" filter="url(#f109y84p64sieb)" height="30" style="stroke:#A80036;stroke-width:1.0;" width="10" x="1152" y="388.3125"/><rect fill="#FFFFFF" filter="url(#f109y84p64sieb)" height="77.2656" style="stroke:#A80036;stroke-width:1.0;" width="10" x="1152" y="534.8438"/><polygon fill="#A80036" points="423,150.3828,433,154.3828,423,158.3828,427,154.3828" style="stroke:#A80036;stroke-width:1.0;"/><line style="stroke:#A80036;stroke-width:1.0;" x1="66" x2="429" y1="154.3828" y2="154.3828"/><text fill="#000000" font-family="sans-serif" font-size="13" lengthAdjust="spacing" textLength="164" x="73" y="149.3169">1. nova área de atividade</text><polygon fill="#A80036" points="77,179.5156,67,183.5156,77,187.5156,73,183.5156" style="stroke:#A80036;stroke-width:1.0;"/><line style="stroke:#A80036;stroke-width:1.0;stroke-dasharray:2.0,2.0;" x1="71" x2="439" y1="183.5156" y2="183.5156"/><text fill="#000000" font-family="sans-serif" font-size="13" lengthAdjust="spacing" textLength="345" x="83" y="178.4497">2. solicita dados(código, descrição breve e detalhada)</text><polygon fill="#A80036" points="423,208.6484,433,212.6484,423,216.6484,427,212.6484" style="stroke:#A80036;stroke-width:1.0;"/><line style="stroke:#A80036;stroke-width:1.0;" x1="66" x2="429" y1="212.6484" y2="212.6484"/><text fill="#000000" font-family="sans-serif" font-size="13" lengthAdjust="spacing" textLength="201" x="73" y="207.5825">3. introduz os dados solicitados</text><polygon fill="#A80036" points="729,237.7813,739,241.7813,729,245.7813,733,241.7813" style="stroke:#A80036;stroke-width:1.0;"/><line style="stroke:#A80036;stroke-width:1.0;" x1="445" x2="735" y1="241.7813" y2="241.7813"/><text fill="#000000" font-family="sans-serif" font-size="13" lengthAdjust="spacing" textLength="277" x="452" y="236.7153">4. novaAreaAtividade(cod, dsBreve, dsDet)</text><polygon fill="#A80036" points="978,266.9141,988,270.9141,978,274.9141,982,270.9141" style="stroke:#A80036;stroke-width:1.0;"/><line style="stroke:#A80036;stroke-width:1.0;" x1="751" x2="984" y1="270.9141" y2="270.9141"/><text fill="#000000" font-family="sans-serif" font-size="13" lengthAdjust="spacing" textLength="220" x="758" y="265.8481">5. rat=getRegistoAreasAtividade()</text><polygon fill="#A80036" points="1140,326.0469,1150,330.0469,1140,334.0469,1144,330.0469" style="stroke:#A80036;stroke-width:1.0;"/><line style="stroke:#A80036;stroke-width:1.0;" x1="751" x2="1146" y1="330.0469" y2="330.0469"/><text fill="#000000" font-family="sans-serif" font-size="13" lengthAdjust="spacing" textLength="316" x="758" y="324.981">6. area=novaAreaAtividade(cod, dsBreve, dsDet)</text><polygon fill="#A80036" points="1370,355.1797,1380,359.1797,1370,363.1797,1374,359.1797" style="stroke:#A80036;stroke-width:1.0;"/><line style="stroke:#A80036;stroke-width:1.0;stroke-dasharray:2.0,2.0;" x1="1157" x2="1376" y1="359.1797" y2="359.1797"/><text fill="#000000" font-family="sans-serif" font-size="13" lengthAdjust="spacing" textLength="196" x="1164" y="354.1138">7. create(cod, dsBreve, dsDet)</text><polygon fill="#A80036" points="1140,384.3125,1150,388.3125,1140,392.3125,1144,388.3125" style="stroke:#A80036;stroke-width:1.0;"/><line style="stroke:#A80036;stroke-width:1.0;" x1="751" x2="1146" y1="388.3125" y2="388.3125"/><text fill="#000000" font-family="sans-serif" font-size="13" lengthAdjust="spacing" textLength="183" x="758" y="383.2466">8. validaAreaAtividade(area)</text><polygon fill="#A80036" points="77,443.4453,67,447.4453,77,451.4453,73,447.4453" style="stroke:#A80036;stroke-width:1.0;"/><line style="stroke:#A80036;stroke-width:1.0;stroke-dasharray:2.0,2.0;" x1="71" x2="439" y1="447.4453" y2="447.4453"/><text fill="#000000" font-family="sans-serif" font-size="13" lengthAdjust="spacing" textLength="268" x="83" y="442.3794">9. apresenta dados e solicita confirmação</text><polygon fill="#A80036" points="423,472.5781,433,476.5781,423,480.5781,427,476.5781" style="stroke:#A80036;stroke-width:1.0;"/><line style="stroke:#A80036;stroke-width:1.0;" x1="66" x2="429" y1="476.5781" y2="476.5781"/><text fill="#000000" font-family="sans-serif" font-size="13" lengthAdjust="spacing" textLength="81" x="73" y="471.5122">10. confirma</text><polygon fill="#A80036" points="729,501.7109,739,505.7109,729,509.7109,733,505.7109" style="stroke:#A80036;stroke-width:1.0;"/><line style="stroke:#A80036;stroke-width:1.0;" x1="445" x2="735" y1="505.7109" y2="505.7109"/><text fill="#000000" font-family="sans-serif" font-size="13" lengthAdjust="spacing" textLength="168" x="452" y="500.645">11. registaAreaAtividade()</text><polygon fill="#A80036" points="1140,530.8438,1150,534.8438,1140,538.8438,1144,534.8438" style="stroke:#A80036;stroke-width:1.0;"/><line style="stroke:#A80036;stroke-width:1.0;" x1="751" x2="1146" y1="534.8438" y2="534.8438"/><text fill="#000000" font-family="sans-serif" font-size="13" lengthAdjust="spacing" textLength="197" x="758" y="529.7778">12. registaAreaAtividade(area)</text><line style="stroke:#A80036;stroke-width:1.0;" x1="1162" x2="1204" y1="563.9766" y2="563.9766"/><line style="stroke:#A80036;stroke-width:1.0;" x1="1204" x2="1204" y1="563.9766" y2="576.9766"/><line style="stroke:#A80036;stroke-width:1.0;" x1="1163" x2="1204" y1="576.9766" y2="576.9766"/><polygon fill="#A80036" points="1173,572.9766,1163,576.9766,1173,580.9766,1169,576.9766" style="stroke:#A80036;stroke-width:1.0;"/><text fill="#000000" font-family="sans-serif" font-size="13" lengthAdjust="spacing" textLength="191" x="1169" y="558.9106">13. validaAreaAtividade(area)</text><line style="stroke:#A80036;stroke-width:1.0;" x1="1162" x2="1204" y1="611.1094" y2="611.1094"/><line style="stroke:#A80036;stroke-width:1.0;" x1="1204" x2="1204" y1="611.1094" y2="624.1094"/><line style="stroke:#A80036;stroke-width:1.0;" x1="1157" x2="1204" y1="624.1094" y2="624.1094"/><polygon fill="#A80036" points="1167,620.1094,1157,624.1094,1167,628.1094,1163,624.1094" style="stroke:#A80036;stroke-width:1.0;"/><text fill="#000000" font-family="sans-serif" font-size="13" lengthAdjust="spacing" textLength="177" x="1169" y="606.0435">14. addAreaAtividade(area)</text><polygon fill="#A80036" points="77,644.2422,67,648.2422,77,652.2422,73,648.2422" style="stroke:#A80036;stroke-width:1.0;"/><line style="stroke:#A80036;stroke-width:1.0;stroke-dasharray:2.0,2.0;" x1="71" x2="434" y1="648.2422" y2="648.2422"/><text fill="#000000" font-family="sans-serif" font-size="13" lengthAdjust="spacing" textLength="178" x="83" y="643.1763">15. operação bem sucedida</text><!--MD5=[e73623685e0357ca93a9f37d058dd60b]
@startuml
title UC02 - Definir Área de Actividade - Diagrama de Sequência

Actor Administrativo

Administrativo -> DefinirAreaUI: 1. nova área de atividade
activate Administrativo
activate DefinirAreaUI
DefinirAreaUI - -> Administrativo: 2. solicita dados(código, descrição breve e detalhada)
deactivate DefinirAreaUI

Administrativo -> DefinirAreaUI: 3. introduz os dados solicitados
activate DefinirAreaUI
DefinirAreaUI -> DefinirAreaController: 4. novaAreaAtividade(cod, dsBreve, dsDet)
activate DefinirAreaController
DefinirAreaController -> Plataforma: 5. rat=getRegistoAreasAtividade()
activate Plataforma
deactivate Plataforma
DefinirAreaController -> "rat:RegistoAreasAtividade": 6. area=novaAreaAtividade(cod, dsBreve, dsDet)
activate "rat:RegistoAreasAtividade"
"rat:RegistoAreasAtividade" - -> "area:AreaAtividade": 7. create(cod, dsBreve, dsDet)

deactivate "rat:RegistoAreasAtividade"
DefinirAreaController -> "rat:RegistoAreasAtividade": 8. validaAreaAtividade(area)

activate "rat:RegistoAreasAtividade"
deactivate "rat:RegistoAreasAtividade"
deactivate DefinirAreaController
DefinirAreaUI - -> Administrativo: 9. apresenta dados e solicita confirmação
deactivate DefinirAreaUI
Administrativo -> DefinirAreaUI: 10. confirma
activate DefinirAreaUI
activate DefinirAreaController
DefinirAreaUI -> DefinirAreaController: 11. registaAreaAtividade()
DefinirAreaController -> "rat:RegistoAreasAtividade": 12. registaAreaAtividade(area)
activate "rat:RegistoAreasAtividade"
"rat:RegistoAreasAtividade" -> "rat:RegistoAreasAtividade": 13. validaAreaAtividade(area)
"rat:RegistoAreasAtividade" -> "rat:RegistoAreasAtividade": 14. addAreaAtividade(area)
deactivate "rat:RegistoAreasAtividade"
DefinirAreaUI - -> Administrativo: 15. operação bem sucedida
@enduml

PlantUML version 1.2021.01beta3(Unknown compile time)
(GPL source distribution)
Java Runtime: Java(TM) SE Runtime Environment
JVM: Java HotSpot(TM) 64-Bit Server VM
Default Encoding: UTF-8
Language: en
Country: US
--></g></svg>