<?xml version="1.0" encoding="UTF-8" standalone="no"?><svg xmlns="http://www.w3.org/2000/svg" xmlns:xlink="http://www.w3.org/1999/xlink" contentScriptType="application/ecmascript" contentStyleType="text/css" height="992px" preserveAspectRatio="none" style="width:2437px;height:992px;" version="1.1" viewBox="0 0 2437 992" width="2437px" zoomAndPan="magnify"><defs><filter height="300%" id="fbantwytszxw1" width="300%" x="-1" y="-1"><feGaussianBlur result="blurOut" stdDeviation="2.0"/><feColorMatrix in="blurOut" result="blurOut2" type="matrix" values="0 0 0 0 0 0 0 0 0 0 0 0 0 0 0 0 0 0 .4 0"/><feOffset dx="4.0" dy="4.0" in="blurOut2" result="blurOut3"/><feBlend in="SourceGraphic" in2="blurOut3" mode="normal"/></filter></defs><g><text fill="#000000" font-family="sans-serif" font-size="18" lengthAdjust="spacing" textLength="504" x="964.25" y="28.708">UC01 - Registar Organização - Diagrama de Sequência</text><rect fill="#FFFFFF" filter="url(#fbantwytszxw1)" height="490.0859" style="stroke:#A80036;stroke-width:1.0;" width="10" x="391.5" y="154.3828"/><rect fill="#FFFFFF" filter="url(#fbantwytszxw1)" height="216.9297" style="stroke:#A80036;stroke-width:1.0;" width="10" x="391.5" y="673.6016"/><rect fill="#FFFFFF" filter="url(#fbantwytszxw1)" height="416.6875" style="stroke:#A80036;stroke-width:1.0;" width="10" x="779.5" y="198.6484"/><rect fill="#FFFFFF" filter="url(#fbantwytszxw1)" height="151.6641" style="stroke:#A80036;stroke-width:1.0;" width="10" x="779.5" y="702.7344"/><rect fill="#FFFFFF" filter="url(#fbantwytszxw1)" height="30" style="stroke:#A80036;stroke-width:1.0;" width="10" x="1020.5" y="227.7813"/><rect fill="#FFFFFF" filter="url(#fbantwytszxw1)" height="237.9922" style="stroke:#A80036;stroke-width:1.0;" width="10" x="1189.5" y="302.0469"/><rect fill="#FFFFFF" filter="url(#fbantwytszxw1)" height="30" style="stroke:#A80036;stroke-width:1.0;" width="10" x="1189.5" y="585.3359"/><rect fill="#FFFFFF" filter="url(#fbantwytszxw1)" height="122.5313" style="stroke:#A80036;stroke-width:1.0;" width="10" x="1189.5" y="731.8672"/><rect fill="#FFFFFF" filter="url(#fbantwytszxw1)" height="30" style="stroke:#A80036;stroke-width:1.0;" width="10" x="1619.5" y="331.1797"/><rect fill="#FFFFFF" filter="url(#fbantwytszxw1)" height="30" style="stroke:#A80036;stroke-width:1.0;" width="10" x="1619.5" y="435.6094"/><line style="stroke:#A80036;stroke-width:1.0;stroke-dasharray:5.0,5.0;" x1="95" x2="95" y1="123.25" y2="908.5313"/><line style="stroke:#A80036;stroke-width:1.0;stroke-dasharray:5.0,5.0;" x1="396.5" x2="396.5" y1="123.25" y2="908.5313"/><line style="stroke:#A80036;stroke-width:1.0;stroke-dasharray:5.0,5.0;" x1="784.5" x2="784.5" y1="123.25" y2="908.5313"/><line style="stroke:#A80036;stroke-width:1.0;stroke-dasharray:5.0,5.0;" x1="1025.5" x2="1025.5" y1="123.25" y2="908.5313"/><line style="stroke:#A80036;stroke-width:1.0;stroke-dasharray:5.0,5.0;" x1="1194" x2="1194" y1="123.25" y2="908.5313"/><line style="stroke:#A80036;stroke-width:1.0;stroke-dasharray:5.0,5.0;" x1="1624.5" x2="1624.5" y1="123.25" y2="908.5313"/><line style="stroke:#A80036;stroke-width:1.0;stroke-dasharray:5.0,5.0;" x1="2041.5" x2="2041.5" y1="401.8281" y2="908.5313"/><line style="stroke:#A80036;stroke-width:1.0;stroke-dasharray:5.0,5.0;" x1="2207.5" x2="2207.5" y1="506.2578" y2="908.5313"/><line style="stroke:#A80036;stroke-width:1.0;stroke-dasharray:5.0,5.0;" x1="2359.5" x2="2359.5" y1="551.5547" y2="908.5313"/><text fill="#000000" font-family="sans-serif" font-size="14" lengthAdjust="spacing" textLength="175" x="5" y="119.9482">Utilizador Não Registado</text><ellipse cx="95.5" cy="49.9531" fill="#FEFECE" filter="url(#fbantwytszxw1)" rx="8" ry="8" style="stroke:#A80036;stroke-width:2.0;"/><path d="M95.5,57.9531 L95.5,84.9531 M82.5,65.9531 L108.5,65.9531 M95.5,84.9531 L82.5,99.9531 M95.5,84.9531 L108.5,99.9531 " fill="none" filter="url(#fbantwytszxw1)" style="stroke:#A80036;stroke-width:2.0;"/><text fill="#000000" font-family="sans-serif" font-size="14" lengthAdjust="spacing" textLength="175" x="5" y="920.5264">Utilizador Não Registado</text><ellipse cx="95.5" cy="933.8281" fill="#FEFECE" filter="url(#fbantwytszxw1)" rx="8" ry="8" style="stroke:#A80036;stroke-width:2.0;"/><path d="M95.5,941.8281 L95.5,968.8281 M82.5,949.8281 L108.5,949.8281 M95.5,968.8281 L82.5,983.8281 M95.5,968.8281 L108.5,983.8281 " fill="none" filter="url(#fbantwytszxw1)" style="stroke:#A80036;stroke-width:2.0;"/><rect fill="#FEFECE" filter="url(#fbantwytszxw1)" height="30.2969" style="stroke:#A80036;stroke-width:1.5;" width="180" x="304.5" y="87.9531"/><text fill="#000000" font-family="sans-serif" font-size="14" lengthAdjust="spacing" textLength="166" x="311.5" y="107.9482">:RegistarOrganizacaoUI</text><rect fill="#FEFECE" filter="url(#fbantwytszxw1)" height="30.2969" style="stroke:#A80036;stroke-width:1.5;" width="180" x="304.5" y="907.5313"/><text fill="#000000" font-family="sans-serif" font-size="14" lengthAdjust="spacing" textLength="166" x="311.5" y="927.5264">:RegistarOrganizacaoUI</text><rect fill="#FEFECE" filter="url(#fbantwytszxw1)" height="30.2969" style="stroke:#A80036;stroke-width:1.5;" width="240" x="662.5" y="87.9531"/><text fill="#000000" font-family="sans-serif" font-size="14" lengthAdjust="spacing" textLength="226" x="669.5" y="107.9482">:RegistarOrganizacaoController</text><rect fill="#FEFECE" filter="url(#fbantwytszxw1)" height="30.2969" style="stroke:#A80036;stroke-width:1.5;" width="240" x="662.5" y="907.5313"/><text fill="#000000" font-family="sans-serif" font-size="14" lengthAdjust="spacing" textLength="226" x="669.5" y="927.5264">:RegistarOrganizacaoController</text><rect fill="#FEFECE" filter="url(#fbantwytszxw1)" height="30.2969" style="stroke:#A80036;stroke-width:1.5;" width="98" x="974.5" y="87.9531"/><text fill="#000000" font-family="sans-serif" font-size="14" lengthAdjust="spacing" textLength="84" x="981.5" y="107.9482">:Plataforma</text><rect fill="#FEFECE" filter="url(#fbantwytszxw1)" height="30.2969" style="stroke:#A80036;stroke-width:1.5;" width="98" x="974.5" y="907.5313"/><text fill="#000000" font-family="sans-serif" font-size="14" lengthAdjust="spacing" textLength="84" x="981.5" y="927.5264">:Plataforma</text><rect fill="#FEFECE" filter="url(#fbantwytszxw1)" height="30.2969" style="stroke:#A80036;stroke-width:1.5;" width="185" x="1100" y="87.9531"/><text fill="#000000" font-family="sans-serif" font-size="14" lengthAdjust="spacing" textLength="171" x="1107" y="107.9482">ro:RegistoOrganizacoes</text><rect fill="#FEFECE" filter="url(#fbantwytszxw1)" height="30.2969" style="stroke:#A80036;stroke-width:1.5;" width="185" x="1100" y="907.5313"/><text fill="#000000" font-family="sans-serif" font-size="14" lengthAdjust="spacing" textLength="171" x="1107" y="927.5264">ro:RegistoOrganizacoes</text><rect fill="#FEFECE" filter="url(#fbantwytszxw1)" height="30.2969" style="stroke:#A80036;stroke-width:1.5;" width="102" x="1571.5" y="87.9531"/><text fill="#000000" font-family="sans-serif" font-size="14" lengthAdjust="spacing" textLength="88" x="1578.5" y="107.9482">Organizacao</text><rect fill="#FEFECE" filter="url(#fbantwytszxw1)" height="30.2969" style="stroke:#A80036;stroke-width:1.5;" width="102" x="1571.5" y="907.5313"/><text fill="#000000" font-family="sans-serif" font-size="14" lengthAdjust="spacing" textLength="88" x="1578.5" y="927.5264">Organizacao</text><rect fill="#FEFECE" filter="url(#fbantwytszxw1)" height="30.2969" style="stroke:#A80036;stroke-width:1.5;" width="158" x="1960.5" y="907.5313"/><text fill="#000000" font-family="sans-serif" font-size="14" lengthAdjust="spacing" textLength="144" x="1967.5" y="927.5264">end:EnderecoPostal</text><rect fill="#FEFECE" filter="url(#fbantwytszxw1)" height="30.2969" style="stroke:#A80036;stroke-width:1.5;" width="146" x="2132.5" y="907.5313"/><text fill="#000000" font-family="sans-serif" font-size="14" lengthAdjust="spacing" textLength="132" x="2139.5" y="927.5264">colab:Colaborador</text><rect fill="#FEFECE" filter="url(#fbantwytszxw1)" height="30.2969" style="stroke:#A80036;stroke-width:1.5;" width="131" x="2292.5" y="907.5313"/><text fill="#000000" font-family="sans-serif" font-size="14" lengthAdjust="spacing" textLength="117" x="2299.5" y="927.5264">org:Organizacao</text><rect fill="#FFFFFF" filter="url(#fbantwytszxw1)" height="490.0859" style="stroke:#A80036;stroke-width:1.0;" width="10" x="391.5" y="154.3828"/><rect fill="#FFFFFF" filter="url(#fbantwytszxw1)" height="216.9297" style="stroke:#A80036;stroke-width:1.0;" width="10" x="391.5" y="673.6016"/><rect fill="#FFFFFF" filter="url(#fbantwytszxw1)" height="416.6875" style="stroke:#A80036;stroke-width:1.0;" width="10" x="779.5" y="198.6484"/><rect fill="#FFFFFF" filter="url(#fbantwytszxw1)" height="151.6641" style="stroke:#A80036;stroke-width:1.0;" width="10" x="779.5" y="702.7344"/><rect fill="#FFFFFF" filter="url(#fbantwytszxw1)" height="30" style="stroke:#A80036;stroke-width:1.0;" width="10" x="1020.5" y="227.7813"/><rect fill="#FFFFFF" filter="url(#fbantwytszxw1)" height="237.9922" style="stroke:#A80036;stroke-width:1.0;" width="10" x="1189.5" y="302.0469"/><rect fill="#FFFFFF" filter="url(#fbantwytszxw1)" height="30" style="stroke:#A80036;stroke-width:1.0;" width="10" x="1189.5" y="585.3359"/><rect fill="#FFFFFF" filter="url(#fbantwytszxw1)" height="122.5313" style="stroke:#A80036;stroke-width:1.0;" width="10" x="1189.5" y="731.8672"/><rect fill="#FFFFFF" filter="url(#fbantwytszxw1)" height="30" style="stroke:#A80036;stroke-width:1.0;" width="10" x="1619.5" y="331.1797"/><rect fill="#FFFFFF" filter="url(#fbantwytszxw1)" height="30" style="stroke:#A80036;stroke-width:1.0;" width="10" x="1619.5" y="435.6094"/><polygon fill="#A80036" points="379.5,150.3828,389.5,154.3828,379.5,158.3828,383.5,154.3828" style="stroke:#A80036;stroke-width:1.0;"/><line style="stroke:#A80036;stroke-width:1.0;" x1="95.5" x2="385.5" y1="154.3828" y2="154.3828"/><text fill="#000000" font-family="sans-serif" font-size="13" lengthAdjust="spacing" textLength="197" x="102.5" y="149.3169">1 Introduz os dados solicitados</text><polygon fill="#A80036" points="767.5,194.6484,777.5,198.6484,767.5,202.6484,771.5,198.6484" style="stroke:#A80036;stroke-width:1.0;"/><line style="stroke:#A80036;stroke-width:1.0;" x1="401.5" x2="773.5" y1="198.6484" y2="198.6484"/><text fill="#000000" font-family="sans-serif" font-size="13" lengthAdjust="spacing" textLength="346" x="408.5" y="178.4497">2 novaOrganizacao(nome,NIF,endLocal,endCodPostal,</text><text fill="#000000" font-family="sans-serif" font-size="13" lengthAdjust="spacing" textLength="359" x="408.5" y="193.5825">endLocalidade,tlf,site,email,nomeG,função,tlfG, emailG)</text><polygon fill="#A80036" points="1008.5,223.7813,1018.5,227.7813,1008.5,231.7813,1012.5,227.7813" style="stroke:#A80036;stroke-width:1.0;"/><line style="stroke:#A80036;stroke-width:1.0;" x1="789.5" x2="1014.5" y1="227.7813" y2="227.7813"/><text fill="#000000" font-family="sans-serif" font-size="13" lengthAdjust="spacing" textLength="212" x="796.5" y="222.7153">3 no = getRegistoOrganizacoes()</text><polygon fill="#A80036" points="1177.5,298.0469,1187.5,302.0469,1177.5,306.0469,1181.5,302.0469" style="stroke:#A80036;stroke-width:1.0;"/><line style="stroke:#A80036;stroke-width:1.0;" x1="789.5" x2="1183.5" y1="302.0469" y2="302.0469"/><text fill="#000000" font-family="sans-serif" font-size="13" lengthAdjust="spacing" textLength="381" x="796.5" y="281.8481">4 org= novaOrganizacao(nome,NIF,endLocal,endCodPostal,</text><text fill="#000000" font-family="sans-serif" font-size="13" lengthAdjust="spacing" textLength="359" x="796.5" y="296.981">endLocalidade,tlf,site,email,nomeG,função,tlfG, emailG)</text><polygon fill="#A80036" points="1607.5,327.1797,1617.5,331.1797,1607.5,335.1797,1611.5,331.1797" style="stroke:#A80036;stroke-width:1.0;"/><line style="stroke:#A80036;stroke-width:1.0;" x1="1199.5" x2="1613.5" y1="331.1797" y2="331.1797"/><text fill="#000000" font-family="sans-serif" font-size="13" lengthAdjust="spacing" textLength="401" x="1206.5" y="326.1138">5 end = novoEndereco(endLocal,endCodPostal,endLocalidade)</text><polygon fill="#A80036" points="1948.5,386.3125,1958.5,390.3125,1948.5,394.3125,1952.5,390.3125" style="stroke:#A80036;stroke-width:1.0;"/><line style="stroke:#A80036;stroke-width:1.0;" x1="1624.5" x2="1954.5" y1="390.3125" y2="390.3125"/><text fill="#000000" font-family="sans-serif" font-size="13" lengthAdjust="spacing" textLength="312" x="1631.5" y="385.2466">6  create(endLocal,endCodPostal,endLocalidade)</text><rect fill="#FEFECE" filter="url(#fbantwytszxw1)" height="30.2969" style="stroke:#A80036;stroke-width:1.5;" width="158" x="1960.5" y="369.1797"/><text fill="#000000" font-family="sans-serif" font-size="14" lengthAdjust="spacing" textLength="144" x="1967.5" y="389.1748">end:EnderecoPostal</text><polygon fill="#A80036" points="1607.5,431.6094,1617.5,435.6094,1607.5,439.6094,1611.5,435.6094" style="stroke:#A80036;stroke-width:1.0;"/><line style="stroke:#A80036;stroke-width:1.0;" x1="1199.5" x2="1613.5" y1="435.6094" y2="435.6094"/><text fill="#000000" font-family="sans-serif" font-size="13" lengthAdjust="spacing" textLength="288" x="1206.5" y="430.5435">7 gestor=registarGestor(nomeG,tlfG,emailG)</text><polygon fill="#A80036" points="2120.5,490.7422,2130.5,494.7422,2120.5,498.7422,2124.5,494.7422" style="stroke:#A80036;stroke-width:1.0;"/><line style="stroke:#A80036;stroke-width:1.0;stroke-dasharray:2.0,2.0;" x1="1624.5" x2="2126.5" y1="494.7422" y2="494.7422"/><text fill="#000000" font-family="sans-serif" font-size="13" lengthAdjust="spacing" textLength="234" x="1631.5" y="489.6763">8 create(nomeG,função,tlfG,emailG)</text><rect fill="#FEFECE" filter="url(#fbantwytszxw1)" height="30.2969" style="stroke:#A80036;stroke-width:1.5;" width="146" x="2132.5" y="473.6094"/><text fill="#000000" font-family="sans-serif" font-size="14" lengthAdjust="spacing" textLength="132" x="2139.5" y="493.6045">colab:Colaborador</text><polygon fill="#A80036" points="2280.5,536.0391,2290.5,540.0391,2280.5,544.0391,2284.5,540.0391" style="stroke:#A80036;stroke-width:1.0;"/><line style="stroke:#A80036;stroke-width:1.0;stroke-dasharray:2.0,2.0;" x1="1194.5" x2="2286.5" y1="540.0391" y2="540.0391"/><text fill="#000000" font-family="sans-serif" font-size="13" lengthAdjust="spacing" textLength="272" x="1201.5" y="534.9731">9 create(nome,NIF,end,tlf,site,email,colab)</text><rect fill="#FEFECE" filter="url(#fbantwytszxw1)" height="30.2969" style="stroke:#A80036;stroke-width:1.5;" width="131" x="2292.5" y="518.9063"/><text fill="#000000" font-family="sans-serif" font-size="14" lengthAdjust="spacing" textLength="117" x="2299.5" y="538.9014">org:Organizacao</text><polygon fill="#A80036" points="1177.5,581.3359,1187.5,585.3359,1177.5,589.3359,1181.5,585.3359" style="stroke:#A80036;stroke-width:1.0;"/><line style="stroke:#A80036;stroke-width:1.0;" x1="789.5" x2="1183.5" y1="585.3359" y2="585.3359"/><text fill="#000000" font-family="sans-serif" font-size="13" lengthAdjust="spacing" textLength="169" x="796.5" y="580.27">10 validaOrganizacao(org)</text><polygon fill="#A80036" points="106.5,640.4688,96.5,644.4688,106.5,648.4688,102.5,644.4688" style="stroke:#A80036;stroke-width:1.0;"/><line style="stroke:#A80036;stroke-width:1.0;stroke-dasharray:2.0,2.0;" x1="100.5" x2="395.5" y1="644.4688" y2="644.4688"/><text fill="#000000" font-family="sans-serif" font-size="13" lengthAdjust="spacing" textLength="272" x="112.5" y="639.4028">11 apresenta dados e solicita confirmação</text><polygon fill="#A80036" points="379.5,669.6016,389.5,673.6016,379.5,677.6016,383.5,673.6016" style="stroke:#A80036;stroke-width:1.0;"/><line style="stroke:#A80036;stroke-width:1.0;" x1="95.5" x2="385.5" y1="673.6016" y2="673.6016"/><text fill="#000000" font-family="sans-serif" font-size="13" lengthAdjust="spacing" textLength="77" x="102.5" y="668.5356">12 confirma</text><polygon fill="#A80036" points="767.5,698.7344,777.5,702.7344,767.5,706.7344,771.5,702.7344" style="stroke:#A80036;stroke-width:1.0;"/><line style="stroke:#A80036;stroke-width:1.0;" x1="401.5" x2="773.5" y1="702.7344" y2="702.7344"/><text fill="#000000" font-family="sans-serif" font-size="13" lengthAdjust="spacing" textLength="154" x="408.5" y="697.6685">13 registaOrganizacao()</text><polygon fill="#A80036" points="1177.5,727.8672,1187.5,731.8672,1177.5,735.8672,1181.5,731.8672" style="stroke:#A80036;stroke-width:1.0;"/><line style="stroke:#A80036;stroke-width:1.0;" x1="789.5" x2="1183.5" y1="731.8672" y2="731.8672"/><text fill="#000000" font-family="sans-serif" font-size="13" lengthAdjust="spacing" textLength="175" x="796.5" y="726.8013">14 registaOrganizacao(org)</text><line style="stroke:#A80036;stroke-width:1.0;" x1="1199.5" x2="1241.5" y1="761" y2="761"/><line style="stroke:#A80036;stroke-width:1.0;" x1="1241.5" x2="1241.5" y1="761" y2="774"/><line style="stroke:#A80036;stroke-width:1.0;" x1="1200.5" x2="1241.5" y1="774" y2="774"/><polygon fill="#A80036" points="1210.5,770,1200.5,774,1210.5,778,1206.5,774" style="stroke:#A80036;stroke-width:1.0;"/><text fill="#000000" font-family="sans-serif" font-size="13" lengthAdjust="spacing" textLength="169" x="1206.5" y="755.9341">15 validaOrganizacao(org)</text><rect fill="#FFFFFF" filter="url(#fbantwytszxw1)" height="40.2656" style="stroke:#000000;stroke-width:2.0;" width="1455" x="971.5" y="782"/><polygon fill="#EEEEEE" points="971.5,782,1039.5,782,1039.5,789,1029.5,799,971.5,799,971.5,782" style="stroke:#000000;stroke-width:2.0;"/><text fill="#000000" font-family="sans-serif" font-size="13" font-weight="bold" lengthAdjust="spacing" textLength="23" x="984.5" y="796.0669">ref</text><text fill="#000000" font-family="sans-serif" font-size="13" lengthAdjust="spacing" textLength="251" x="1575.5" y="815.0669">UC1_SD_RegistarGestorComoUtilizador</text><line style="stroke:#A80036;stroke-width:1.0;" x1="1199.5" x2="1241.5" y1="853.3984" y2="853.3984"/><line style="stroke:#A80036;stroke-width:1.0;" x1="1241.5" x2="1241.5" y1="853.3984" y2="866.3984"/><line style="stroke:#A80036;stroke-width:1.0;" x1="1194.5" x2="1241.5" y1="866.3984" y2="866.3984"/><polygon fill="#A80036" points="1204.5,862.3984,1194.5,866.3984,1204.5,870.3984,1200.5,866.3984" style="stroke:#A80036;stroke-width:1.0;"/><text fill="#000000" font-family="sans-serif" font-size="13" lengthAdjust="spacing" textLength="155" x="1206.5" y="848.3325">16 addOrganizacao(org)</text><polygon fill="#A80036" points="106.5,886.5313,96.5,890.5313,106.5,894.5313,102.5,890.5313" style="stroke:#A80036;stroke-width:1.0;"/><line style="stroke:#A80036;stroke-width:1.0;stroke-dasharray:2.0,2.0;" x1="100.5" x2="395.5" y1="890.5313" y2="890.5313"/><text fill="#000000" font-family="sans-serif" font-size="13" lengthAdjust="spacing" textLength="174" x="112.5" y="885.4653">17 operação bem sucedida</text><!--MD5=[0ba3b363646c603895979db8833cf80b]
@startuml
title UC01 - Registar Organização - Diagrama de Sequência

actor "Utilizador Não Registado"
"Utilizador Não Registado" -> ":RegistarOrganizacaoUI" : 1 Introduz os dados solicitados
activate ":RegistarOrganizacaoUI"
":RegistarOrganizacaoUI" -> ":RegistarOrganizacaoController" : 2 novaOrganizacao(nome,NIF,endLocal,endCodPostal,\nendLocalidade,tlf,site,email,nomeG,função,tlfG, emailG)
activate ":RegistarOrganizacaoController"
":RegistarOrganizacaoController" -> ":Plataforma" : 3 no = getRegistoOrganizacoes()
activate ":Plataforma"
deactivate ":Plataforma"
":RegistarOrganizacaoController" -> "ro:RegistoOrganizacoes" : 4 org= novaOrganizacao(nome,NIF,endLocal,endCodPostal,\nendLocalidade,tlf,site,email,nomeG,função,tlfG, emailG)
activate "ro:RegistoOrganizacoes"
"ro:RegistoOrganizacoes" -> Organizacao : 5 end = novoEndereco(endLocal,endCodPostal,endLocalidade)
activate Organizacao
deactivate Organizacao
Organizacao -> "end:EnderecoPostal" ** : 6  create(endLocal,endCodPostal,endLocalidade)
"ro:RegistoOrganizacoes" -> Organizacao : 7 gestor=registarGestor(nomeG,tlfG,emailG)
activate Organizacao
deactivate Organizacao
Organizacao - -> "colab:Colaborador" ** : 8 create(nomeG,função,tlfG,emailG)
"ro:RegistoOrganizacoes" - -> "org:Organizacao" ** : 9 create(nome,NIF,end,tlf,site,email,colab)
deactivate "ro:RegistoOrganizacoes"
":RegistarOrganizacaoController" -> "ro:RegistoOrganizacoes" : 10 validaOrganizacao(org)
activate "ro:RegistoOrganizacoes"
deactivate "ro:RegistoOrganizacoes"
deactivate ":RegistarOrganizacaoController"
":RegistarOrganizacaoUI" - -> "Utilizador Não Registado" : 11 apresenta dados e solicita confirmação
deactivate ":RegistarOrganizacaoUI"
"Utilizador Não Registado" -> ":RegistarOrganizacaoUI" : 12 confirma
activate ":RegistarOrganizacaoUI"
":RegistarOrganizacaoUI" -> ":RegistarOrganizacaoController" : 13 registaOrganizacao()
activate ":RegistarOrganizacaoController"
":RegistarOrganizacaoController" -> "ro:RegistoOrganizacoes" : 14 registaOrganizacao(org)
activate "ro:RegistoOrganizacoes"
"ro:RegistoOrganizacoes" -> "ro:RegistoOrganizacoes" : 15 validaOrganizacao(org)
ref over ":Plataforma", "org:Organizacao" : UC1_SD_RegistarGestorComoUtilizador
"ro:RegistoOrganizacoes" -> "ro:RegistoOrganizacoes" : 16 addOrganizacao(org)
deactivate "ro:RegistoOrganizacoes"
deactivate ":RegistarOrganizacaoController"
":RegistarOrganizacaoUI" - -> "Utilizador Não Registado" : 17 operação bem sucedida
deactivate ":RegistarOrganizacaoUI"
@enduml

PlantUML version 1.2021.01beta3(Unknown compile time)
(GPL source distribution)
Java Runtime: Java(TM) SE Runtime Environment
JVM: Java HotSpot(TM) 64-Bit Server VM
Default Encoding: UTF-8
Language: en
Country: US
--></g></svg>