<?xml version="1.0" encoding="UTF-8" standalone="no"?><svg xmlns="http://www.w3.org/2000/svg" xmlns:xlink="http://www.w3.org/1999/xlink" contentScriptType="application/ecmascript" contentStyleType="text/css" height="362px" preserveAspectRatio="none" style="width:1037px;height:362px;" version="1.1" viewBox="0 0 1037 362" width="1037px" zoomAndPan="magnify"><defs><filter height="300%" id="f1aw8zvj8b3uau" width="300%" x="-1" y="-1"><feGaussianBlur result="blurOut" stdDeviation="2.0"/><feColorMatrix in="blurOut" result="blurOut2" type="matrix" values="0 0 0 0 0 0 0 0 0 0 0 0 0 0 0 0 0 0 .4 0"/><feOffset dx="4.0" dy="4.0" in="blurOut2" result="blurOut3"/><feBlend in="SourceGraphic" in2="blurOut3" mode="normal"/></filter></defs><g><!--MD5=[37bf6c08f758502d5d1a5531d651ab43]
class AlgoritmoGeradorPasswords--><rect codeLine="3" fill="#FEFECE" filter="url(#f1aw8zvj8b3uau)" height="60.8047" id="AlgoritmoGeradorPasswords" style="stroke:#A80036;stroke-width:1.5;" width="313" x="464" y="7"/><ellipse cx="532.25" cy="23" fill="#B4A7E5" rx="11" ry="11" style="stroke:#A80036;stroke-width:1.0;"/><path d="M533.2031,19.7813 L534.9219,19.7813 C535.3125,19.7813 535.5,19.75 535.625,19.6719 C535.8906,19.5156 536.0313,19.2344 536.0313,18.9375 C536.0313,18.6719 535.9219,18.4063 535.6875,18.2344 C535.5156,18.125 535.375,18.0938 534.9219,18.0938 L529.7813,18.0938 C529.3438,18.0938 529.2188,18.1094 529.0625,18.2031 C528.8125,18.3594 528.6563,18.6563 528.6563,18.9375 C528.6563,19.2188 528.7969,19.4688 529.0156,19.6406 C529.1719,19.75 529.3594,19.7813 529.7813,19.7813 L531.5,19.7813 L531.5,26.2969 L529.7813,26.2969 C529.3438,26.2969 529.2188,26.3125 529.0625,26.4219 C528.8125,26.5781 528.6563,26.8594 528.6563,27.1563 C528.6563,27.4063 528.7969,27.6719 529.0156,27.8281 C529.1719,27.9531 529.375,28 529.7813,28 L534.9219,28 C535.6719,28 536.0313,27.7188 536.0313,27.1563 C536.0313,26.875 535.9219,26.625 535.6875,26.4531 C535.5156,26.3281 535.375,26.2969 534.9219,26.2969 L533.2031,26.2969 L533.2031,19.7813 Z " fill="#000000"/><text fill="#000000" font-family="sans-serif" font-size="12" font-style="italic" lengthAdjust="spacing" textLength="168" x="552.75" y="27.1543">AlgoritmoGeradorPasswords</text><line style="stroke:#A80036;stroke-width:1.5;" x1="465" x2="776" y1="39" y2="39"/><line style="stroke:#A80036;stroke-width:1.5;" x1="465" x2="776" y1="47" y2="47"/><ellipse cx="475" cy="58" fill="#84BE84" rx="3" ry="3" style="stroke:#038048;stroke-width:1.0;"/><text fill="#000000" font-family="sans-serif" font-size="11" lengthAdjust="spacing" textLength="287" x="484" y="61.2104">String geraPassword(String nomeG, String emailG)</text><path d="M6,17.5 L6,57.7656 A0,0 0 0 0 6,57.7656 L429,57.7656 A0,0 0 0 0 429,57.7656 L429,41.5 L463.974,37.5 L429,33.5 L429,27.5 L419,17.5 L6,17.5 A0,0 0 0 0 6,17.5 " fill="#FBFB77" filter="url(#f1aw8zvj8b3uau)" style="stroke:#A80036;stroke-width:1.0;"/><path d="M419,17.5 L419,27.5 L429,27.5 L419,17.5 " fill="#FBFB77" style="stroke:#A80036;stroke-width:1.0;"/><text fill="#000000" font-family="sans-serif" font-size="13" lengthAdjust="spacing" textLength="349" x="12" y="34.5669">Esta interface será alvo de múltiplas implementações,</text><text fill="#000000" font-family="sans-serif" font-size="13" lengthAdjust="spacing" textLength="402" x="12" y="49.6997">uma por cada algoritmo externo que tenha que ser suportado.</text><!--MD5=[6e5ff9fcfeb9f23a1698ee53d76f3e0c]
class AlgoritmoGeradorPasswordsAdapter1--><rect codeLine="12" fill="#FEFECE" filter="url(#f1aw8zvj8b3uau)" height="60.8047" id="AlgoritmoGeradorPasswordsAdapter1" style="stroke:#A80036;stroke-width:1.5;" width="295" x="286" y="128"/><ellipse cx="316.75" cy="144" fill="#ADD1B2" rx="11" ry="11" style="stroke:#A80036;stroke-width:1.0;"/><path d="M319.0938,139.6719 C318.1563,139.2344 317.5625,139.0938 316.6875,139.0938 C314.0625,139.0938 312.0625,141.1719 312.0625,143.8906 L312.0625,145.0156 C312.0625,147.5938 314.1719,149.4844 317.0625,149.4844 C318.2813,149.4844 319.4375,149.1875 320.1875,148.6406 C320.7656,148.2344 321.0938,147.7813 321.0938,147.3906 C321.0938,146.9375 320.7031,146.5469 320.2344,146.5469 C320.0156,146.5469 319.8125,146.625 319.625,146.8125 C319.1719,147.2969 319.1719,147.2969 318.9844,147.3906 C318.5625,147.6563 317.875,147.7813 317.1094,147.7813 C315.0625,147.7813 313.7656,146.6875 313.7656,144.9844 L313.7656,143.8906 C313.7656,142.1094 315.0156,140.7969 316.75,140.7969 C317.3281,140.7969 317.9375,140.9531 318.4063,141.2031 C318.8906,141.4844 319.0625,141.7031 319.1563,142.1094 C319.2188,142.5156 319.25,142.6406 319.3906,142.7656 C319.5313,142.9063 319.7656,143.0156 319.9844,143.0156 C320.25,143.0156 320.5156,142.875 320.6875,142.6563 C320.7969,142.5 320.8281,142.3125 320.8281,141.8906 L320.8281,140.4688 C320.8281,140.0313 320.8125,139.9063 320.7188,139.75 C320.5625,139.4844 320.2813,139.3438 319.9844,139.3438 C319.6875,139.3438 319.4844,139.4375 319.2656,139.75 L319.0938,139.6719 Z " fill="#000000"/><text fill="#000000" font-family="sans-serif" font-size="12" lengthAdjust="spacing" textLength="228" x="334.25" y="148.1543">AlgoritmoGeradorPasswordsAdapter1</text><line style="stroke:#A80036;stroke-width:1.5;" x1="287" x2="580" y1="160" y2="160"/><line style="stroke:#A80036;stroke-width:1.5;" x1="287" x2="580" y1="168" y2="168"/><ellipse cx="297" cy="179" fill="#84BE84" rx="3" ry="3" style="stroke:#038048;stroke-width:1.0;"/><text fill="#000000" font-family="sans-serif" font-size="11" lengthAdjust="spacing" textLength="269" x="306" y="182.2104">String geraPassword(String nome, String email)</text><!--MD5=[98fff984016099dc1d2cdb7554a63110]
class AlgoritmoGeradorPasswordsAdapter2--><rect codeLine="16" fill="#FEFECE" filter="url(#f1aw8zvj8b3uau)" height="60.8047" id="AlgoritmoGeradorPasswordsAdapter2" style="stroke:#A80036;stroke-width:1.5;" width="295" x="659" y="128"/><ellipse cx="689.3" cy="144" fill="#ADD1B2" rx="11" ry="11" style="stroke:#A80036;stroke-width:1.0;"/><path d="M691.6438,139.6719 C690.7063,139.2344 690.1125,139.0938 689.2375,139.0938 C686.6125,139.0938 684.6125,141.1719 684.6125,143.8906 L684.6125,145.0156 C684.6125,147.5938 686.7219,149.4844 689.6125,149.4844 C690.8313,149.4844 691.9875,149.1875 692.7375,148.6406 C693.3156,148.2344 693.6438,147.7813 693.6438,147.3906 C693.6438,146.9375 693.2531,146.5469 692.7844,146.5469 C692.5656,146.5469 692.3625,146.625 692.175,146.8125 C691.7219,147.2969 691.7219,147.2969 691.5344,147.3906 C691.1125,147.6563 690.425,147.7813 689.6594,147.7813 C687.6125,147.7813 686.3156,146.6875 686.3156,144.9844 L686.3156,143.8906 C686.3156,142.1094 687.5656,140.7969 689.3,140.7969 C689.8781,140.7969 690.4875,140.9531 690.9563,141.2031 C691.4406,141.4844 691.6125,141.7031 691.7063,142.1094 C691.7688,142.5156 691.8,142.6406 691.9406,142.7656 C692.0813,142.9063 692.3156,143.0156 692.5344,143.0156 C692.8,143.0156 693.0656,142.875 693.2375,142.6563 C693.3469,142.5 693.3781,142.3125 693.3781,141.8906 L693.3781,140.4688 C693.3781,140.0313 693.3625,139.9063 693.2688,139.75 C693.1125,139.4844 692.8313,139.3438 692.5344,139.3438 C692.2375,139.3438 692.0344,139.4375 691.8156,139.75 L691.6438,139.6719 Z " fill="#000000"/><text fill="#000000" font-family="sans-serif" font-size="12" lengthAdjust="spacing" textLength="229" x="706.7" y="148.1543">AlgoritmoGeradorPasswordsAdapter2</text><line style="stroke:#A80036;stroke-width:1.5;" x1="660" x2="953" y1="160" y2="160"/><line style="stroke:#A80036;stroke-width:1.5;" x1="660" x2="953" y1="168" y2="168"/><ellipse cx="670" cy="179" fill="#84BE84" rx="3" ry="3" style="stroke:#038048;stroke-width:1.0;"/><text fill="#000000" font-family="sans-serif" font-size="11" lengthAdjust="spacing" textLength="269" x="679" y="182.2104">String geraPassword(String nome, String email)</text><!--MD5=[9615d04c2893a05b5bb041ad0e724e2b]
class AlgoritmoExterno1API--><rect codeLine="20" fill="#FEFECE" filter="url(#f1aw8zvj8b3uau)" height="73.6094" id="AlgoritmoExterno1API" style="stroke:#A80036;stroke-width:1.5;" width="373" x="225" y="261.5"/><ellipse cx="343.25" cy="277.5" fill="#ADD1B2" rx="11" ry="11" style="stroke:#A80036;stroke-width:1.0;"/><path d="M345.5938,273.1719 C344.6563,272.7344 344.0625,272.5938 343.1875,272.5938 C340.5625,272.5938 338.5625,274.6719 338.5625,277.3906 L338.5625,278.5156 C338.5625,281.0938 340.6719,282.9844 343.5625,282.9844 C344.7813,282.9844 345.9375,282.6875 346.6875,282.1406 C347.2656,281.7344 347.5938,281.2813 347.5938,280.8906 C347.5938,280.4375 347.2031,280.0469 346.7344,280.0469 C346.5156,280.0469 346.3125,280.125 346.125,280.3125 C345.6719,280.7969 345.6719,280.7969 345.4844,280.8906 C345.0625,281.1563 344.375,281.2813 343.6094,281.2813 C341.5625,281.2813 340.2656,280.1875 340.2656,278.4844 L340.2656,277.3906 C340.2656,275.6094 341.5156,274.2969 343.25,274.2969 C343.8281,274.2969 344.4375,274.4531 344.9063,274.7031 C345.3906,274.9844 345.5625,275.2031 345.6563,275.6094 C345.7188,276.0156 345.75,276.1406 345.8906,276.2656 C346.0313,276.4063 346.2656,276.5156 346.4844,276.5156 C346.75,276.5156 347.0156,276.375 347.1875,276.1563 C347.2969,276 347.3281,275.8125 347.3281,275.3906 L347.3281,273.9688 C347.3281,273.5313 347.3125,273.4063 347.2188,273.25 C347.0625,272.9844 346.7813,272.8438 346.4844,272.8438 C346.1875,272.8438 345.9844,272.9375 345.7656,273.25 L345.5938,273.1719 Z " fill="#000000"/><text fill="#000000" font-family="sans-serif" font-size="12" lengthAdjust="spacing" textLength="128" x="363.75" y="281.6543">AlgoritmoExterno1API</text><line style="stroke:#A80036;stroke-width:1.5;" x1="226" x2="597" y1="293.5" y2="293.5"/><line style="stroke:#A80036;stroke-width:1.5;" x1="226" x2="597" y1="301.5" y2="301.5"/><ellipse cx="236" cy="312.5" fill="#84BE84" rx="3" ry="3" style="stroke:#038048;stroke-width:1.0;"/><text fill="#000000" font-family="sans-serif" font-size="11" lengthAdjust="spacing" textLength="140" x="245" y="315.7104">String randomPassword()</text><ellipse cx="236" cy="325.3047" fill="#84BE84" rx="3" ry="3" style="stroke:#038048;stroke-width:1.0;"/><text fill="#000000" font-family="sans-serif" font-size="11" lengthAdjust="spacing" textLength="347" x="245" y="328.5151">String randomPassword(Integer minChars, Integer maxChars)</text><!--MD5=[c78e3215a40d9e9433c5db1a316bbc7c]
class AlgoritmoExterno2API--><rect codeLine="25" fill="#FEFECE" filter="url(#f1aw8zvj8b3uau)" height="99.2188" id="AlgoritmoExterno2API" style="stroke:#A80036;stroke-width:1.5;" width="390" x="633.5" y="249"/><ellipse cx="759.75" cy="265" fill="#ADD1B2" rx="11" ry="11" style="stroke:#A80036;stroke-width:1.0;"/><path d="M762.0938,260.6719 C761.1563,260.2344 760.5625,260.0938 759.6875,260.0938 C757.0625,260.0938 755.0625,262.1719 755.0625,264.8906 L755.0625,266.0156 C755.0625,268.5938 757.1719,270.4844 760.0625,270.4844 C761.2813,270.4844 762.4375,270.1875 763.1875,269.6406 C763.7656,269.2344 764.0938,268.7813 764.0938,268.3906 C764.0938,267.9375 763.7031,267.5469 763.2344,267.5469 C763.0156,267.5469 762.8125,267.625 762.625,267.8125 C762.1719,268.2969 762.1719,268.2969 761.9844,268.3906 C761.5625,268.6563 760.875,268.7813 760.1094,268.7813 C758.0625,268.7813 756.7656,267.6875 756.7656,265.9844 L756.7656,264.8906 C756.7656,263.1094 758.0156,261.7969 759.75,261.7969 C760.3281,261.7969 760.9375,261.9531 761.4063,262.2031 C761.8906,262.4844 762.0625,262.7031 762.1563,263.1094 C762.2188,263.5156 762.25,263.6406 762.3906,263.7656 C762.5313,263.9063 762.7656,264.0156 762.9844,264.0156 C763.25,264.0156 763.5156,263.875 763.6875,263.6563 C763.7969,263.5 763.8281,263.3125 763.8281,262.8906 L763.8281,261.4688 C763.8281,261.0313 763.8125,260.9063 763.7188,260.75 C763.5625,260.4844 763.2813,260.3438 762.9844,260.3438 C762.6875,260.3438 762.4844,260.4375 762.2656,260.75 L762.0938,260.6719 Z " fill="#000000"/><text fill="#000000" font-family="sans-serif" font-size="12" lengthAdjust="spacing" textLength="129" x="780.25" y="269.1543">AlgoritmoExterno2API</text><line style="stroke:#A80036;stroke-width:1.5;" x1="634.5" x2="1022.5" y1="281" y2="281"/><line style="stroke:#A80036;stroke-width:1.5;" x1="634.5" x2="1022.5" y1="289" y2="289"/><ellipse cx="644.5" cy="300" fill="#84BE84" rx="3" ry="3" style="stroke:#038048;stroke-width:1.0;"/><text fill="#000000" font-family="sans-serif" font-size="11" lengthAdjust="spacing" textLength="169" x="653.5" y="303.2104">Password generatePassword()</text><ellipse cx="644.5" cy="312.8047" fill="#84BE84" rx="3" ry="3" style="stroke:#038048;stroke-width:1.0;"/><text fill="#000000" font-family="sans-serif" font-size="11" lengthAdjust="spacing" textLength="265" x="653.5" y="316.0151">Password generatePassword(String feedChars)</text><ellipse cx="644.5" cy="325.6094" fill="#84BE84" rx="3" ry="3" style="stroke:#038048;stroke-width:1.0;"/><text fill="#000000" font-family="sans-serif" font-size="11" lengthAdjust="spacing" textLength="261" x="653.5" y="328.8198">Password generatePassword(Integer strength)</text><ellipse cx="644.5" cy="338.4141" fill="#84BE84" rx="3" ry="3" style="stroke:#038048;stroke-width:1.0;"/><text fill="#000000" font-family="sans-serif" font-size="11" lengthAdjust="spacing" textLength="364" x="653.5" y="341.6245">Password generatePassword(Integer strength, String feedChars)</text><!--MD5=[3b4c874dbb4796ab835c6ebf706faa50]
reverse link AlgoritmoGeradorPasswords to AlgoritmoGeradorPasswordsAdapter1--><path codeLine="32" d="M556.575,79.18 C531.417,95.189 503.074,113.226 479.934,127.951 " fill="none" id="AlgoritmoGeradorPasswords-backto-AlgoritmoGeradorPasswordsAdapter1" style="stroke:#A80036;stroke-width:1.0;stroke-dasharray:7.0,7.0;"/><polygon fill="none" points="553.163,73.054,573.794,68.222,560.679,84.865,553.163,73.054" style="stroke:#A80036;stroke-width:1.0;"/><!--MD5=[864624d3236818d5e14622be9624e107]
link AlgoritmoGeradorPasswordsAdapter1 to AlgoritmoExterno1API--><path codeLine="33" d="M428.78,189.104 C425.66,208.681 421.524,234.619 418.082,256.2144 " fill="none" id="AlgoritmoGeradorPasswordsAdapter1-to-AlgoritmoExterno1API" style="stroke:#A80036;stroke-width:1.0;"/><polygon fill="#A80036" points="417.268,261.3189,422.6353,253.0611,418.0554,256.3813,414.7352,251.8013,417.268,261.3189" style="stroke:#A80036;stroke-width:1.0;"/><!--MD5=[aea5d5f858740067ee7f45dfccd9fbdf]
reverse link AlgoritmoGeradorPasswords to AlgoritmoGeradorPasswordsAdapter2--><path codeLine="34" d="M684.083,79.18 C709.107,95.189 737.298,113.226 760.314,127.951 " fill="none" id="AlgoritmoGeradorPasswords-backto-AlgoritmoGeradorPasswordsAdapter2" style="stroke:#A80036;stroke-width:1.0;stroke-dasharray:7.0,7.0;"/><polygon fill="none" points="680.03,84.897,666.956,68.222,687.575,73.104,680.03,84.897" style="stroke:#A80036;stroke-width:1.0;"/><!--MD5=[46349dc8cff6f25e516fc073b0e7ddd9]
link AlgoritmoGeradorPasswordsAdapter2 to AlgoritmoExterno2API--><path codeLine="35" d="M811.22,189.104 C813.758,205.031 816.969,225.168 819.931,243.751 " fill="none" id="AlgoritmoGeradorPasswordsAdapter2-to-AlgoritmoExterno2API" style="stroke:#A80036;stroke-width:1.0;"/><polygon fill="#A80036" points="820.76,248.9464,823.2935,239.429,819.973,244.0087,815.3933,240.6882,820.76,248.9464" style="stroke:#A80036;stroke-width:1.0;"/><!--MD5=[dd4ebbc76d8aa33baa960941a85b18f2]
@startuml
top to bottom direction

interface AlgoritmoGeradorPasswords {
+String geraPassword(String nomeG, String emailG)
}

note left
Esta interface será alvo de múltiplas implementações,
uma por cada algoritmo externo que tenha que ser suportado.
end note

class AlgoritmoGeradorPasswordsAdapter1 {
+String geraPassword(String nome, String email)
}

class AlgoritmoGeradorPasswordsAdapter2 {
+String geraPassword(String nome, String email)
}

class AlgoritmoExterno1API {
+String randomPassword()
+String randomPassword(Integer minChars, Integer maxChars)
}

class AlgoritmoExterno2API {
+Password generatePassword()
+Password generatePassword(String feedChars)
+Password generatePassword(Integer strength)
+Password generatePassword(Integer strength, String feedChars)
}

AlgoritmoGeradorPasswords <|.. AlgoritmoGeradorPasswordsAdapter1
AlgoritmoGeradorPasswordsAdapter1 - -> AlgoritmoExterno1API
AlgoritmoGeradorPasswords <|.. AlgoritmoGeradorPasswordsAdapter2
AlgoritmoGeradorPasswordsAdapter2 - -> AlgoritmoExterno2API
@enduml

PlantUML version 1.2021.01beta3(Unknown compile time)
(GPL source distribution)
Java Runtime: Java(TM) SE Runtime Environment
JVM: Java HotSpot(TM) 64-Bit Server VM
Default Encoding: UTF-8
Language: en
Country: US
--></g></svg>