<?xml version="1.0" encoding="UTF-8" standalone="no"?><svg xmlns="http://www.w3.org/2000/svg" xmlns:xlink="http://www.w3.org/1999/xlink" contentScriptType="application/ecmascript" contentStyleType="text/css" height="368px" preserveAspectRatio="none" style="width:913px;height:368px;" version="1.1" viewBox="0 0 913 368" width="913px" zoomAndPan="magnify"><defs><filter height="300%" id="f16" width="300%" x="-1" y="-1"><feGaussianBlur result="blurOut" stdDeviation="2.0"/><feColorMatrix in="blurOut" result="blurOut2" type="matrix" values="0 0 0 0 0 0 0 0 0 0 0 0 0 0 0 0 0 0 .4 0"/><feOffset dx="4.0" dy="4.0" in="blurOut2" result="blurOut3"/><feBlend in="SourceGraphic" in2="blurOut3" mode="normal"/></filter></defs><g><!--MD5=[37bf6c08f758502d5d1a5531d651ab43]
class AlgoritmoGeradorPasswords--><rect codeLine="86" fill="#FEFECE" filter="url(#f16)" height="61.8359" id="AlgoritmoGeradorPasswords" style="stroke:#A80036;stroke-width:1.5;" width="271" x="418" y="7"/><ellipse cx="470.75" cy="23" fill="#B4A7E5" rx="11" ry="11" style="stroke:#A80036;stroke-width:1.0;"/><path d="M471.7031,19.6406 L471.7031,26.2969 L473.4219,26.2969 Q474.0313,26.2969 474.2969,26.5313 Q474.5625,26.7656 474.5625,27.1563 Q474.5625,27.5313 474.2969,27.7656 Q474.0313,28 473.4219,28 L468.2813,28 Q467.6719,28 467.4063,27.7656 Q467.1406,27.5313 467.1406,27.1406 Q467.1406,26.7656 467.4063,26.5313 Q467.6719,26.2969 468.2813,26.2969 L470,26.2969 L470,19.6406 L468.2813,19.6406 Q467.6719,19.6406 467.4063,19.4063 Q467.1406,19.1719 467.1406,18.7813 Q467.1406,18.4063 467.4063,18.1719 Q467.6719,17.9375 468.2813,17.9375 L473.4219,17.9375 Q474.0313,17.9375 474.2969,18.1719 Q474.5625,18.4063 474.5625,18.7813 Q474.5625,19.1719 474.2969,19.4063 Q474.0313,19.6406 473.4219,19.6406 L471.7031,19.6406 Z " fill="#000000"/><text fill="#000000" font-family="sans-serif" font-size="12" font-style="italic" lengthAdjust="spacingAndGlyphs" textLength="157" x="491.25" y="27.9102">AlgoritmoGeradorPasswords</text><line style="stroke:#A80036;stroke-width:1.5;" x1="419" x2="688" y1="39" y2="39"/><line style="stroke:#A80036;stroke-width:1.0;" x1="419" x2="688" y1="47" y2="47"/><ellipse cx="429" cy="58" fill="#84BE84" rx="3" ry="3" style="stroke:#038048;stroke-width:1.0;"/><text fill="#000000" font-family="sans-serif" font-size="11" lengthAdjust="spacingAndGlyphs" textLength="245" x="438" y="62.4189">String geraPassword(String nomeG, String emailG)</text><path d="M6,16.5 L6,59.2031 A0,0 0 0 0 6,59.2031 L383,59.2031 A0,0 0 0 0 383,59.2031 L383,42 L417.72,38 L383,34 L383,26.5 L373,16.5 L6,16.5 A0,0 0 0 0 6,16.5 " fill="#FBFB77" filter="url(#f16)" style="stroke:#A80036;stroke-width:1.0;"/><path d="M373,16.5 L373,26.5 L383,26.5 L373,16.5 " fill="#FBFB77" style="stroke:#A80036;stroke-width:1.0;"/><text fill="#000000" font-family="sans-serif" font-size="13" lengthAdjust="spacingAndGlyphs" textLength="312" x="12" y="34.9951">Esta interface será alvo de múltiplas implementações,</text><text fill="#000000" font-family="sans-serif" font-size="13" lengthAdjust="spacingAndGlyphs" textLength="356" x="12" y="51.3467">uma por cada algoritmo externo que tenha que ser suportado.</text><!--MD5=[6e5ff9fcfeb9f23a1698ee53d76f3e0c]
class AlgoritmoGeradorPasswordsAdapter1--><rect codeLine="96" fill="#FEFECE" filter="url(#f16)" height="61.8359" id="AlgoritmoGeradorPasswordsAdapter1" style="stroke:#A80036;stroke-width:1.5;" width="251" x="274" y="129"/><ellipse cx="293.5" cy="145" fill="#ADD1B2" rx="11" ry="11" style="stroke:#A80036;stroke-width:1.0;"/><path d="M296.2656,140.875 Q296.4219,140.6563 296.6094,140.5469 Q296.7969,140.4375 297.0156,140.4375 Q297.3906,140.4375 297.625,140.6953 Q297.8594,140.9531 297.8594,141.5625 L297.8594,143.0156 Q297.8594,143.625 297.625,143.8906 Q297.3906,144.1563 297.0156,144.1563 Q296.6719,144.1563 296.4688,143.9531 Q296.2656,143.7656 296.1563,143.25 Q296.1094,142.8906 295.9219,142.7031 Q295.5938,142.3281 294.9844,142.1094 Q294.375,141.8906 293.75,141.8906 Q292.9844,141.8906 292.3516,142.2188 Q291.7188,142.5469 291.2266,143.2969 Q290.7344,144.0469 290.7344,145.0781 L290.7344,146.1719 Q290.7344,147.4063 291.625,148.2266 Q292.5156,149.0469 294.1094,149.0469 Q295.0469,149.0469 295.7031,148.7969 Q296.0938,148.6406 296.5156,148.2031 Q296.7813,147.9375 296.9297,147.8594 Q297.0781,147.7813 297.2813,147.7813 Q297.6094,147.7813 297.8672,148.0391 Q298.125,148.2969 298.125,148.6406 Q298.125,148.9844 297.7813,149.3906 Q297.2813,149.9688 296.4844,150.2969 Q295.4063,150.75 294.1094,150.75 Q292.5938,150.75 291.3906,150.125 Q290.4063,149.625 289.7188,148.5547 Q289.0313,147.4844 289.0313,146.2031 L289.0313,145.0469 Q289.0313,143.7188 289.6484,142.5703 Q290.2656,141.4219 291.3594,140.8047 Q292.4531,140.1875 293.6875,140.1875 Q294.4219,140.1875 295.0703,140.3516 Q295.7188,140.5156 296.2656,140.875 Z " fill="#000000"/><text fill="#000000" font-family="sans-serif" font-size="12" lengthAdjust="spacingAndGlyphs" textLength="209" x="308.5" y="149.9102">AlgoritmoGeradorPasswordsAdapter1</text><line style="stroke:#A80036;stroke-width:1.5;" x1="275" x2="524" y1="161" y2="161"/><line style="stroke:#A80036;stroke-width:1.0;" x1="275" x2="524" y1="169" y2="169"/><ellipse cx="285" cy="180" fill="#84BE84" rx="3" ry="3" style="stroke:#038048;stroke-width:1.0;"/><text fill="#000000" font-family="sans-serif" font-size="11" lengthAdjust="spacingAndGlyphs" textLength="225" x="294" y="184.4189">String geraPassword(String nome, Email email)</text><!--MD5=[98fff984016099dc1d2cdb7554a63110]
class AlgoritmoGeradorPasswordsAdapter2--><rect codeLine="101" fill="#FEFECE" filter="url(#f16)" height="61.8359" id="AlgoritmoGeradorPasswordsAdapter2" style="stroke:#A80036;stroke-width:1.5;" width="251" x="581" y="129"/><ellipse cx="600.5" cy="145" fill="#ADD1B2" rx="11" ry="11" style="stroke:#A80036;stroke-width:1.0;"/><path d="M603.2656,140.875 Q603.4219,140.6563 603.6094,140.5469 Q603.7969,140.4375 604.0156,140.4375 Q604.3906,140.4375 604.625,140.6953 Q604.8594,140.9531 604.8594,141.5625 L604.8594,143.0156 Q604.8594,143.625 604.625,143.8906 Q604.3906,144.1563 604.0156,144.1563 Q603.6719,144.1563 603.4688,143.9531 Q603.2656,143.7656 603.1563,143.25 Q603.1094,142.8906 602.9219,142.7031 Q602.5938,142.3281 601.9844,142.1094 Q601.375,141.8906 600.75,141.8906 Q599.9844,141.8906 599.3516,142.2188 Q598.7188,142.5469 598.2266,143.2969 Q597.7344,144.0469 597.7344,145.0781 L597.7344,146.1719 Q597.7344,147.4063 598.625,148.2266 Q599.5156,149.0469 601.1094,149.0469 Q602.0469,149.0469 602.7031,148.7969 Q603.0938,148.6406 603.5156,148.2031 Q603.7813,147.9375 603.9297,147.8594 Q604.0781,147.7813 604.2813,147.7813 Q604.6094,147.7813 604.8672,148.0391 Q605.125,148.2969 605.125,148.6406 Q605.125,148.9844 604.7813,149.3906 Q604.2813,149.9688 603.4844,150.2969 Q602.4063,150.75 601.1094,150.75 Q599.5938,150.75 598.3906,150.125 Q597.4063,149.625 596.7188,148.5547 Q596.0313,147.4844 596.0313,146.2031 L596.0313,145.0469 Q596.0313,143.7188 596.6484,142.5703 Q597.2656,141.4219 598.3594,140.8047 Q599.4531,140.1875 600.6875,140.1875 Q601.4219,140.1875 602.0703,140.3516 Q602.7188,140.5156 603.2656,140.875 Z " fill="#000000"/><text fill="#000000" font-family="sans-serif" font-size="12" lengthAdjust="spacingAndGlyphs" textLength="209" x="615.5" y="149.9102">AlgoritmoGeradorPasswordsAdapter2</text><line style="stroke:#A80036;stroke-width:1.5;" x1="582" x2="831" y1="161" y2="161"/><line style="stroke:#A80036;stroke-width:1.0;" x1="582" x2="831" y1="169" y2="169"/><ellipse cx="592" cy="180" fill="#84BE84" rx="3" ry="3" style="stroke:#038048;stroke-width:1.0;"/><text fill="#000000" font-family="sans-serif" font-size="11" lengthAdjust="spacingAndGlyphs" textLength="225" x="601" y="184.4189">String geraPassword(String nome, Email email)</text><!--MD5=[9615d04c2893a05b5bb041ad0e724e2b]
class AlgoritmoExterno1API--><rect codeLine="106" fill="#FEFECE" filter="url(#f16)" height="75.6719" id="AlgoritmoExterno1API" style="stroke:#A80036;stroke-width:1.5;" width="323" x="197" y="264.5"/><ellipse cx="295.25" cy="280.5" fill="#ADD1B2" rx="11" ry="11" style="stroke:#A80036;stroke-width:1.0;"/><path d="M298.0156,276.375 Q298.1719,276.1563 298.3594,276.0469 Q298.5469,275.9375 298.7656,275.9375 Q299.1406,275.9375 299.375,276.1953 Q299.6094,276.4531 299.6094,277.0625 L299.6094,278.5156 Q299.6094,279.125 299.375,279.3906 Q299.1406,279.6563 298.7656,279.6563 Q298.4219,279.6563 298.2188,279.4531 Q298.0156,279.2656 297.9063,278.75 Q297.8594,278.3906 297.6719,278.2031 Q297.3438,277.8281 296.7344,277.6094 Q296.125,277.3906 295.5,277.3906 Q294.7344,277.3906 294.1016,277.7188 Q293.4688,278.0469 292.9766,278.7969 Q292.4844,279.5469 292.4844,280.5781 L292.4844,281.6719 Q292.4844,282.9063 293.375,283.7266 Q294.2656,284.5469 295.8594,284.5469 Q296.7969,284.5469 297.4531,284.2969 Q297.8438,284.1406 298.2656,283.7031 Q298.5313,283.4375 298.6797,283.3594 Q298.8281,283.2813 299.0313,283.2813 Q299.3594,283.2813 299.6172,283.5391 Q299.875,283.7969 299.875,284.1406 Q299.875,284.4844 299.5313,284.8906 Q299.0313,285.4688 298.2344,285.7969 Q297.1563,286.25 295.8594,286.25 Q294.3438,286.25 293.1406,285.625 Q292.1563,285.125 291.4688,284.0547 Q290.7813,282.9844 290.7813,281.7031 L290.7813,280.5469 Q290.7813,279.2188 291.3984,278.0703 Q292.0156,276.9219 293.1094,276.3047 Q294.2031,275.6875 295.4375,275.6875 Q296.1719,275.6875 296.8203,275.8516 Q297.4688,276.0156 298.0156,276.375 Z " fill="#000000"/><text fill="#000000" font-family="sans-serif" font-size="12" lengthAdjust="spacingAndGlyphs" textLength="118" x="315.75" y="285.4102">AlgoritmoExterno1API</text><line style="stroke:#A80036;stroke-width:1.5;" x1="198" x2="519" y1="296.5" y2="296.5"/><line style="stroke:#A80036;stroke-width:1.5;" x1="198" x2="519" y1="304.5" y2="304.5"/><ellipse cx="208" cy="315.5" fill="#84BE84" rx="3" ry="3" style="stroke:#038048;stroke-width:1.0;"/><text fill="#000000" font-family="sans-serif" font-size="11" lengthAdjust="spacingAndGlyphs" textLength="125" x="217" y="319.9189">String randomPassword()</text><ellipse cx="208" cy="329.3359" fill="#84BE84" rx="3" ry="3" style="stroke:#038048;stroke-width:1.0;"/><text fill="#000000" font-family="sans-serif" font-size="11" lengthAdjust="spacingAndGlyphs" textLength="297" x="217" y="333.7549">String randomPassword(Integer minChars, Integer maxChars)</text><!--MD5=[c78e3215a40d9e9433c5db1a316bbc7c]
class AlgoritmoExterno2API--><rect codeLine="111" fill="#FEFECE" filter="url(#f16)" height="103.3438" id="AlgoritmoExterno2API" style="stroke:#A80036;stroke-width:1.5;" width="344" x="555.5" y="251"/><ellipse cx="664.25" cy="267" fill="#ADD1B2" rx="11" ry="11" style="stroke:#A80036;stroke-width:1.0;"/><path d="M667.0156,262.875 Q667.1719,262.6563 667.3594,262.5469 Q667.5469,262.4375 667.7656,262.4375 Q668.1406,262.4375 668.375,262.6953 Q668.6094,262.9531 668.6094,263.5625 L668.6094,265.0156 Q668.6094,265.625 668.375,265.8906 Q668.1406,266.1563 667.7656,266.1563 Q667.4219,266.1563 667.2188,265.9531 Q667.0156,265.7656 666.9063,265.25 Q666.8594,264.8906 666.6719,264.7031 Q666.3438,264.3281 665.7344,264.1094 Q665.125,263.8906 664.5,263.8906 Q663.7344,263.8906 663.1016,264.2188 Q662.4688,264.5469 661.9766,265.2969 Q661.4844,266.0469 661.4844,267.0781 L661.4844,268.1719 Q661.4844,269.4063 662.375,270.2266 Q663.2656,271.0469 664.8594,271.0469 Q665.7969,271.0469 666.4531,270.7969 Q666.8438,270.6406 667.2656,270.2031 Q667.5313,269.9375 667.6797,269.8594 Q667.8281,269.7813 668.0313,269.7813 Q668.3594,269.7813 668.6172,270.0391 Q668.875,270.2969 668.875,270.6406 Q668.875,270.9844 668.5313,271.3906 Q668.0313,271.9688 667.2344,272.2969 Q666.1563,272.75 664.8594,272.75 Q663.3438,272.75 662.1406,272.125 Q661.1563,271.625 660.4688,270.5547 Q659.7813,269.4844 659.7813,268.2031 L659.7813,267.0469 Q659.7813,265.7188 660.3984,264.5703 Q661.0156,263.4219 662.1094,262.8047 Q663.2031,262.1875 664.4375,262.1875 Q665.1719,262.1875 665.8203,262.3516 Q666.4688,262.5156 667.0156,262.875 Z " fill="#000000"/><text fill="#000000" font-family="sans-serif" font-size="12" lengthAdjust="spacingAndGlyphs" textLength="118" x="684.75" y="271.9102">AlgoritmoExterno2API</text><line style="stroke:#A80036;stroke-width:1.5;" x1="556.5" x2="898.5" y1="283" y2="283"/><line style="stroke:#A80036;stroke-width:1.5;" x1="556.5" x2="898.5" y1="291" y2="291"/><ellipse cx="566.5" cy="302" fill="#84BE84" rx="3" ry="3" style="stroke:#038048;stroke-width:1.0;"/><text fill="#000000" font-family="sans-serif" font-size="11" lengthAdjust="spacingAndGlyphs" textLength="154" x="575.5" y="306.4189">Password generatePassword()</text><ellipse cx="566.5" cy="315.8359" fill="#84BE84" rx="3" ry="3" style="stroke:#038048;stroke-width:1.0;"/><text fill="#000000" font-family="sans-serif" font-size="11" lengthAdjust="spacingAndGlyphs" textLength="236" x="575.5" y="320.2549">Password generatePassword(String feedChars)</text><ellipse cx="566.5" cy="329.6719" fill="#84BE84" rx="3" ry="3" style="stroke:#038048;stroke-width:1.0;"/><text fill="#000000" font-family="sans-serif" font-size="11" lengthAdjust="spacingAndGlyphs" textLength="230" x="575.5" y="334.0908">Password generatePassword(Integer strength)</text><ellipse cx="566.5" cy="343.5078" fill="#84BE84" rx="3" ry="3" style="stroke:#038048;stroke-width:1.0;"/><text fill="#000000" font-family="sans-serif" font-size="11" lengthAdjust="spacingAndGlyphs" textLength="318" x="575.5" y="347.9268">Password generatePassword(Integer strength, String feedChars)</text><!--MD5=[3b4c874dbb4796ab835c6ebf706faa50]
reverse link AlgoritmoGeradorPasswords to AlgoritmoGeradorPasswordsAdapter1--><path codeLine="118" d="M498.79,81.63 C478.72,97.27 456.44,114.63 438.08,128.94 " fill="none" id="AlgoritmoGeradorPasswords-backto-AlgoritmoGeradorPasswordsAdapter1" style="stroke:#A80036;stroke-width:1.0;stroke-dasharray:7.0,7.0;"/><polygon fill="none" points="494.56,76.05,514.64,69.28,503.17,87.1,494.56,76.05" style="stroke:#A80036;stroke-width:1.0;"/><!--MD5=[864624d3236818d5e14622be9624e107]
link AlgoritmoGeradorPasswordsAdapter1 to AlgoritmoExterno1API--><path codeLine="119" d="M390.7,191.14 C384.89,211.08 377.17,237.5 370.76,259.5 " fill="none" id="AlgoritmoGeradorPasswordsAdapter1-to-AlgoritmoExterno1API" style="stroke:#A80036;stroke-width:1.0;"/><polygon fill="#A80036" points="369.32,264.41,375.68,256.89,370.72,259.61,368,254.65,369.32,264.41" style="stroke:#A80036;stroke-width:1.0;"/><!--MD5=[aea5d5f858740067ee7f45dfccd9fbdf]
reverse link AlgoritmoGeradorPasswords to AlgoritmoGeradorPasswordsAdapter2--><path codeLine="120" d="M607.86,81.63 C627.79,97.27 649.93,114.63 668.17,128.94 " fill="none" id="AlgoritmoGeradorPasswords-backto-AlgoritmoGeradorPasswordsAdapter2" style="stroke:#A80036;stroke-width:1.0;stroke-dasharray:7.0,7.0;"/><polygon fill="none" points="603.53,87.13,592.11,69.28,612.17,76.12,603.53,87.13" style="stroke:#A80036;stroke-width:1.0;"/><!--MD5=[46349dc8cff6f25e516fc073b0e7ddd9]
link AlgoritmoGeradorPasswordsAdapter2 to AlgoritmoExterno2API--><path codeLine="121" d="M711.01,191.14 C713.38,207.06 716.38,227.11 719.17,245.74 " fill="none" id="AlgoritmoGeradorPasswordsAdapter2-to-AlgoritmoExterno2API" style="stroke:#A80036;stroke-width:1.0;"/><polygon fill="#A80036" points="719.95,250.96,722.568,241.4655,719.2069,246.0155,714.6568,242.6544,719.95,250.96" style="stroke:#A80036;stroke-width:1.0;"/><!--MD5=[8c6904594d459f8ce3ed104d2d0c51af]
PlantUML version 1.2020.22(Sun Dec 06 09:36:27 GMT 2020)
(GPL source distribution)
Java Runtime: Java(TM) SE Runtime Environment
JVM: Java HotSpot(TM) 64-Bit Server VM
Default Encoding: Cp1252
Language: en
Country: US
--></g></svg>