<?xml version="1.0" encoding="UTF-8" standalone="no"?><svg xmlns="http://www.w3.org/2000/svg" xmlns:xlink="http://www.w3.org/1999/xlink" contentScriptType="application/ecmascript" contentStyleType="text/css" height="327px" preserveAspectRatio="none" style="width:1043px;height:327px;" version="1.1" viewBox="0 0 1043 327" width="1043px" zoomAndPan="magnify"><defs><filter height="300%" id="fe0aus8ycf3ep" width="300%" x="-1" y="-1"><feGaussianBlur result="blurOut" stdDeviation="2.0"/><feColorMatrix in="blurOut" result="blurOut2" type="matrix" values="0 0 0 0 0 0 0 0 0 0 0 0 0 0 0 0 0 0 .4 0"/><feOffset dx="4.0" dy="4.0" in="blurOut2" result="blurOut3"/><feBlend in="SourceGraphic" in2="blurOut3" mode="normal"/></filter></defs><g><text fill="#000000" font-family="sans-serif" font-size="18" lengthAdjust="spacing" textLength="497" x="266.5" y="18.6855">UC01 - Registar Organização - Excerto do Modelo de Domínio</text><!--MD5=[ecaed46f78f8cfe1e9ce18477649be18]
class Plataforma--><rect codeLine="6" fill="#FEFECE" filter="url(#fe0aus8ycf3ep)" height="70.0234" id="Plataforma" style="stroke:#A80036;stroke-width:1.5;" width="113" x="7" y="207.6406"/><ellipse cx="30.55" cy="227.7344" fill="#ADD1B2" rx="11" ry="11" style="stroke:#A80036;stroke-width:1.0;"/><path d="M33.3156,223.6094 Q33.4719,223.3906 33.6594,223.2813 Q33.8469,223.1719 34.0656,223.1719 Q34.4406,223.1719 34.675,223.4297 Q34.9094,223.6875 34.9094,224.2969 L34.9094,225.75 Q34.9094,226.3594 34.675,226.625 Q34.4406,226.8906 34.0656,226.8906 Q33.7219,226.8906 33.5188,226.6875 Q33.3156,226.5 33.2063,225.9844 Q33.1594,225.625 32.9719,225.4375 Q32.6438,225.0625 32.0344,224.8438 Q31.425,224.625 30.8,224.625 Q30.0344,224.625 29.4016,224.9531 Q28.7688,225.2813 28.2766,226.0313 Q27.7844,226.7813 27.7844,227.8125 L27.7844,228.9063 Q27.7844,230.1406 28.675,230.9609 Q29.5656,231.7813 31.1594,231.7813 Q32.0969,231.7813 32.7531,231.5313 Q33.1438,231.375 33.5656,230.9375 Q33.8313,230.6719 33.9797,230.5938 Q34.1281,230.5156 34.3313,230.5156 Q34.6594,230.5156 34.9172,230.7734 Q35.175,231.0313 35.175,231.375 Q35.175,231.7188 34.8313,232.125 Q34.3313,232.7031 33.5344,233.0313 Q32.4563,233.4844 31.1594,233.4844 Q29.6438,233.4844 28.4406,232.8594 Q27.4563,232.3594 26.7688,231.2891 Q26.0813,230.2188 26.0813,228.9375 L26.0813,227.7813 Q26.0813,226.4531 26.6984,225.3047 Q27.3156,224.1563 28.4094,223.5391 Q29.5031,222.9219 30.7375,222.9219 Q31.4719,222.9219 32.1203,223.0859 Q32.7688,223.25 33.3156,223.6094 Z " fill="#000000"/><text fill="#000000" font-family="sans-serif" font-size="12" font-style="italic" lengthAdjust="spacing" textLength="66" x="44.45" y="225.0977">«Singleton»</text><text fill="#000000" font-family="sans-serif" font-size="12" lengthAdjust="spacing" textLength="60" x="47.45" y="240.1914">Plataforma</text><line style="stroke:#A80036;stroke-width:1.5;" x1="8" x2="119" y1="247.8281" y2="247.8281"/><rect fill="none" height="6" style="stroke:#C82930;stroke-width:1.0;" width="6" x="15" y="255.8281"/><text fill="#000000" font-family="sans-serif" font-size="11" lengthAdjust="spacing" textLength="87" x="27" y="263.2471">String designacao</text><line style="stroke:#A80036;stroke-width:1.5;" x1="8" x2="119" y1="269.6641" y2="269.6641"/><!--MD5=[6559d866213c6b3fd003379aeba85775]
class Organização--><rect codeLine="10" fill="#FEFECE" filter="url(#fe0aus8ycf3ep)" height="117.1797" id="Organização" style="stroke:#A80036;stroke-width:1.5;" width="107" x="281" y="87.1406"/><ellipse cx="298.7" cy="103.1406" fill="#ADD1B2" rx="11" ry="11" style="stroke:#A80036;stroke-width:1.0;"/><path d="M301.4656,99.0156 Q301.6219,98.7969 301.8094,98.6875 Q301.9969,98.5781 302.2156,98.5781 Q302.5906,98.5781 302.825,98.8359 Q303.0594,99.0938 303.0594,99.7031 L303.0594,101.1563 Q303.0594,101.7656 302.825,102.0313 Q302.5906,102.2969 302.2156,102.2969 Q301.8719,102.2969 301.6688,102.0938 Q301.4656,101.9063 301.3563,101.3906 Q301.3094,101.0313 301.1219,100.8438 Q300.7938,100.4688 300.1844,100.25 Q299.575,100.0313 298.95,100.0313 Q298.1844,100.0313 297.5516,100.3594 Q296.9188,100.6875 296.4266,101.4375 Q295.9344,102.1875 295.9344,103.2188 L295.9344,104.3125 Q295.9344,105.5469 296.825,106.3672 Q297.7156,107.1875 299.3094,107.1875 Q300.2469,107.1875 300.9031,106.9375 Q301.2938,106.7813 301.7156,106.3438 Q301.9813,106.0781 302.1297,106 Q302.2781,105.9219 302.4813,105.9219 Q302.8094,105.9219 303.0672,106.1797 Q303.325,106.4375 303.325,106.7813 Q303.325,107.125 302.9813,107.5313 Q302.4813,108.1094 301.6844,108.4375 Q300.6063,108.8906 299.3094,108.8906 Q297.7938,108.8906 296.5906,108.2656 Q295.6063,107.7656 294.9188,106.6953 Q294.2313,105.625 294.2313,104.3438 L294.2313,103.1875 Q294.2313,101.8594 294.8484,100.7109 Q295.4656,99.5625 296.5594,98.9453 Q297.6531,98.3281 298.8875,98.3281 Q299.6219,98.3281 300.2703,98.4922 Q300.9188,98.6563 301.4656,99.0156 Z " fill="#000000"/><text fill="#000000" font-family="sans-serif" font-size="12" lengthAdjust="spacing" textLength="69" x="313.3" y="108.0508">Organização</text><line style="stroke:#A80036;stroke-width:1.5;" x1="282" x2="387" y1="119.1406" y2="119.1406"/><rect fill="none" height="6" style="stroke:#C82930;stroke-width:1.0;" width="6" x="289" y="127.1406"/><text fill="#000000" font-family="sans-serif" font-size="11" lengthAdjust="spacing" textLength="57" x="301" y="134.5596">String nome</text><rect fill="none" height="6" style="stroke:#C82930;stroke-width:1.0;" width="6" x="289" y="140.9766"/><text fill="#000000" font-family="sans-serif" font-size="11" lengthAdjust="spacing" textLength="46" x="301" y="148.3955">String NIF</text><rect fill="none" height="6" style="stroke:#C82930;stroke-width:1.0;" width="6" x="289" y="154.8125"/><text fill="#000000" font-family="sans-serif" font-size="11" lengthAdjust="spacing" textLength="81" x="301" y="162.2314">Website website</text><rect fill="none" height="6" style="stroke:#C82930;stroke-width:1.0;" width="6" x="289" y="168.6484"/><text fill="#000000" font-family="sans-serif" font-size="11" lengthAdjust="spacing" textLength="70" x="301" y="176.0674">String telefone</text><rect fill="none" height="6" style="stroke:#C82930;stroke-width:1.0;" width="6" x="289" y="182.4844"/><text fill="#000000" font-family="sans-serif" font-size="11" lengthAdjust="spacing" textLength="51" x="301" y="189.9033">Email Email</text><line style="stroke:#A80036;stroke-width:1.5;" x1="282" x2="387" y1="196.3203" y2="196.3203"/><!--MD5=[ac8682ea5466d223e49472789fb200d2]
class Colaborador--><rect codeLine="18" fill="#FEFECE" filter="url(#fe0aus8ycf3ep)" height="75.6719" id="Colaborador" style="stroke:#A80036;stroke-width:1.5;" width="101" x="653.5" y="29.6406"/><ellipse cx="668.5" cy="45.6406" fill="#ADD1B2" rx="11" ry="11" style="stroke:#A80036;stroke-width:1.0;"/><path d="M671.2656,41.5156 Q671.4219,41.2969 671.6094,41.1875 Q671.7969,41.0781 672.0156,41.0781 Q672.3906,41.0781 672.625,41.3359 Q672.8594,41.5938 672.8594,42.2031 L672.8594,43.6563 Q672.8594,44.2656 672.625,44.5313 Q672.3906,44.7969 672.0156,44.7969 Q671.6719,44.7969 671.4688,44.5938 Q671.2656,44.4063 671.1563,43.8906 Q671.1094,43.5313 670.9219,43.3438 Q670.5938,42.9688 669.9844,42.75 Q669.375,42.5313 668.75,42.5313 Q667.9844,42.5313 667.3516,42.8594 Q666.7188,43.1875 666.2266,43.9375 Q665.7344,44.6875 665.7344,45.7188 L665.7344,46.8125 Q665.7344,48.0469 666.625,48.8672 Q667.5156,49.6875 669.1094,49.6875 Q670.0469,49.6875 670.7031,49.4375 Q671.0938,49.2813 671.5156,48.8438 Q671.7813,48.5781 671.9297,48.5 Q672.0781,48.4219 672.2813,48.4219 Q672.6094,48.4219 672.8672,48.6797 Q673.125,48.9375 673.125,49.2813 Q673.125,49.625 672.7813,50.0313 Q672.2813,50.6094 671.4844,50.9375 Q670.4063,51.3906 669.1094,51.3906 Q667.5938,51.3906 666.3906,50.7656 Q665.4063,50.2656 664.7188,49.1953 Q664.0313,48.125 664.0313,46.8438 L664.0313,45.6875 Q664.0313,44.3594 664.6484,43.2109 Q665.2656,42.0625 666.3594,41.4453 Q667.4531,40.8281 668.6875,40.8281 Q669.4219,40.8281 670.0703,40.9922 Q670.7188,41.1563 671.2656,41.5156 Z " fill="#000000"/><text fill="#000000" font-family="sans-serif" font-size="12" lengthAdjust="spacing" textLength="69" x="682.5" y="50.5508">Colaborador</text><line style="stroke:#A80036;stroke-width:1.5;" x1="654.5" x2="753.5" y1="61.6406" y2="61.6406"/><rect fill="none" height="6" style="stroke:#C82930;stroke-width:1.0;" width="6" x="661.5" y="69.6406"/><text fill="#000000" font-family="sans-serif" font-size="11" lengthAdjust="spacing" textLength="65" x="673.5" y="77.0596">String funcao</text><rect fill="none" height="6" style="stroke:#C82930;stroke-width:1.0;" width="6" x="661.5" y="83.4766"/><text fill="#000000" font-family="sans-serif" font-size="11" lengthAdjust="spacing" textLength="70" x="673.5" y="90.8955">String telefone</text><line style="stroke:#A80036;stroke-width:1.5;" x1="654.5" x2="753.5" y1="97.3125" y2="97.3125"/><!--MD5=[dcda844062f930f807532403427d3023]
class EnderecoPostal--><rect codeLine="23" fill="#FEFECE" filter="url(#fe0aus8ycf3ep)" height="103.3438" id="EnderecoPostal" style="stroke:#A80036;stroke-width:1.5;" width="120" x="644" y="141.1406"/><ellipse cx="659" cy="157.1406" fill="#ADD1B2" rx="11" ry="11" style="stroke:#A80036;stroke-width:1.0;"/><path d="M661.7656,153.0156 Q661.9219,152.7969 662.1094,152.6875 Q662.2969,152.5781 662.5156,152.5781 Q662.8906,152.5781 663.125,152.8359 Q663.3594,153.0938 663.3594,153.7031 L663.3594,155.1563 Q663.3594,155.7656 663.125,156.0313 Q662.8906,156.2969 662.5156,156.2969 Q662.1719,156.2969 661.9688,156.0938 Q661.7656,155.9063 661.6563,155.3906 Q661.6094,155.0313 661.4219,154.8438 Q661.0938,154.4688 660.4844,154.25 Q659.875,154.0313 659.25,154.0313 Q658.4844,154.0313 657.8516,154.3594 Q657.2188,154.6875 656.7266,155.4375 Q656.2344,156.1875 656.2344,157.2188 L656.2344,158.3125 Q656.2344,159.5469 657.125,160.3672 Q658.0156,161.1875 659.6094,161.1875 Q660.5469,161.1875 661.2031,160.9375 Q661.5938,160.7813 662.0156,160.3438 Q662.2813,160.0781 662.4297,160 Q662.5781,159.9219 662.7813,159.9219 Q663.1094,159.9219 663.3672,160.1797 Q663.625,160.4375 663.625,160.7813 Q663.625,161.125 663.2813,161.5313 Q662.7813,162.1094 661.9844,162.4375 Q660.9063,162.8906 659.6094,162.8906 Q658.0938,162.8906 656.8906,162.2656 Q655.9063,161.7656 655.2188,160.6953 Q654.5313,159.625 654.5313,158.3438 L654.5313,157.1875 Q654.5313,155.8594 655.1484,154.7109 Q655.7656,153.5625 656.8594,152.9453 Q657.9531,152.3281 659.1875,152.3281 Q659.9219,152.3281 660.5703,152.4922 Q661.2188,152.6563 661.7656,153.0156 Z " fill="#000000"/><text fill="#000000" font-family="sans-serif" font-size="12" lengthAdjust="spacing" textLength="88" x="673" y="162.0508">EnderecoPostal</text><line style="stroke:#A80036;stroke-width:1.5;" x1="645" x2="763" y1="173.1406" y2="173.1406"/><rect fill="none" height="6" style="stroke:#C82930;stroke-width:1.0;" width="6" x="652" y="181.1406"/><text fill="#000000" font-family="sans-serif" font-size="11" lengthAdjust="spacing" textLength="86" x="664" y="188.5596">String arruamento</text><rect fill="none" height="6" style="stroke:#C82930;stroke-width:1.0;" width="6" x="652" y="194.9766"/><text fill="#000000" font-family="sans-serif" font-size="11" lengthAdjust="spacing" textLength="92" x="664" y="202.3955">String numeroPorta</text><rect fill="none" height="6" style="stroke:#C82930;stroke-width:1.0;" width="6" x="652" y="208.8125"/><text fill="#000000" font-family="sans-serif" font-size="11" lengthAdjust="spacing" textLength="79" x="664" y="216.2314">String localidade</text><rect fill="none" height="6" style="stroke:#C82930;stroke-width:1.0;" width="6" x="652" y="222.6484"/><text fill="#000000" font-family="sans-serif" font-size="11" lengthAdjust="spacing" textLength="92" x="664" y="230.0674">String codigoPostal</text><line style="stroke:#A80036;stroke-width:1.5;" x1="645" x2="763" y1="236.4844" y2="236.4844"/><!--MD5=[5dd1d6732c071e710b9290b531f2fa3b]
class Utilizador--><rect codeLine="30" fill="#FEFECE" filter="url(#fe0aus8ycf3ep)" height="89.5078" id="Utilizador" style="stroke:#A80036;stroke-width:1.5;" width="129" x="900" y="223.6406"/><ellipse cx="935.7" cy="239.6406" fill="#ADD1B2" rx="11" ry="11" style="stroke:#A80036;stroke-width:1.0;"/><path d="M938.4656,235.5156 Q938.6219,235.2969 938.8094,235.1875 Q938.9969,235.0781 939.2156,235.0781 Q939.5906,235.0781 939.825,235.3359 Q940.0594,235.5938 940.0594,236.2031 L940.0594,237.6563 Q940.0594,238.2656 939.825,238.5313 Q939.5906,238.7969 939.2156,238.7969 Q938.8719,238.7969 938.6688,238.5938 Q938.4656,238.4063 938.3563,237.8906 Q938.3094,237.5313 938.1219,237.3438 Q937.7938,236.9688 937.1844,236.75 Q936.575,236.5313 935.95,236.5313 Q935.1844,236.5313 934.5516,236.8594 Q933.9188,237.1875 933.4266,237.9375 Q932.9344,238.6875 932.9344,239.7188 L932.9344,240.8125 Q932.9344,242.0469 933.825,242.8672 Q934.7156,243.6875 936.3094,243.6875 Q937.2469,243.6875 937.9031,243.4375 Q938.2938,243.2813 938.7156,242.8438 Q938.9813,242.5781 939.1297,242.5 Q939.2781,242.4219 939.4813,242.4219 Q939.8094,242.4219 940.0672,242.6797 Q940.325,242.9375 940.325,243.2813 Q940.325,243.625 939.9813,244.0313 Q939.4813,244.6094 938.6844,244.9375 Q937.6063,245.3906 936.3094,245.3906 Q934.7938,245.3906 933.5906,244.7656 Q932.6063,244.2656 931.9188,243.1953 Q931.2313,242.125 931.2313,240.8438 L931.2313,239.6875 Q931.2313,238.3594 931.8484,237.2109 Q932.4656,236.0625 933.5594,235.4453 Q934.6531,234.8281 935.8875,234.8281 Q936.6219,234.8281 937.2703,234.9922 Q937.9188,235.1563 938.4656,235.5156 Z " fill="#000000"/><text fill="#000000" font-family="sans-serif" font-size="12" lengthAdjust="spacing" textLength="51" x="954.3" y="244.5508">Utilizador</text><line style="stroke:#A80036;stroke-width:1.5;" x1="901" x2="1028" y1="255.6406" y2="255.6406"/><rect fill="none" height="6" style="stroke:#C82930;stroke-width:1.0;" width="6" x="908" y="263.6406"/><text fill="#000000" font-family="sans-serif" font-size="11" lengthAdjust="spacing" textLength="57" x="920" y="271.0596">String nome</text><rect fill="none" height="6" style="stroke:#C82930;stroke-width:1.0;" width="6" x="908" y="277.4766"/><text fill="#000000" font-family="sans-serif" font-size="11" lengthAdjust="spacing" textLength="51" x="920" y="284.8955">Email email</text><rect fill="none" height="6" style="stroke:#C82930;stroke-width:1.0;" width="6" x="908" y="291.3125"/><text fill="#000000" font-family="sans-serif" font-size="11" lengthAdjust="spacing" textLength="103" x="920" y="298.7314">Password password</text><line style="stroke:#A80036;stroke-width:1.5;" x1="901" x2="1028" y1="305.1484" y2="305.1484"/><!--MD5=[903d5889f30e0ecbfd34509022c6ca12]
class AlgoritmoExternoGeracaoPwd--><rect codeLine="36" fill="#FEFECE" filter="url(#fe0aus8ycf3ep)" height="48" id="AlgoritmoExternoGeracaoPwd" style="stroke:#A80036;stroke-width:1.5;" width="196" x="418" y="252.6406"/><ellipse cx="433" cy="268.6406" fill="#ADD1B2" rx="11" ry="11" style="stroke:#A80036;stroke-width:1.0;"/><path d="M435.7656,264.5156 Q435.9219,264.2969 436.1094,264.1875 Q436.2969,264.0781 436.5156,264.0781 Q436.8906,264.0781 437.125,264.3359 Q437.3594,264.5938 437.3594,265.2031 L437.3594,266.6563 Q437.3594,267.2656 437.125,267.5313 Q436.8906,267.7969 436.5156,267.7969 Q436.1719,267.7969 435.9688,267.5938 Q435.7656,267.4063 435.6563,266.8906 Q435.6094,266.5313 435.4219,266.3438 Q435.0938,265.9688 434.4844,265.75 Q433.875,265.5313 433.25,265.5313 Q432.4844,265.5313 431.8516,265.8594 Q431.2188,266.1875 430.7266,266.9375 Q430.2344,267.6875 430.2344,268.7188 L430.2344,269.8125 Q430.2344,271.0469 431.125,271.8672 Q432.0156,272.6875 433.6094,272.6875 Q434.5469,272.6875 435.2031,272.4375 Q435.5938,272.2813 436.0156,271.8438 Q436.2813,271.5781 436.4297,271.5 Q436.5781,271.4219 436.7813,271.4219 Q437.1094,271.4219 437.3672,271.6797 Q437.625,271.9375 437.625,272.2813 Q437.625,272.625 437.2813,273.0313 Q436.7813,273.6094 435.9844,273.9375 Q434.9063,274.3906 433.6094,274.3906 Q432.0938,274.3906 430.8906,273.7656 Q429.9063,273.2656 429.2188,272.1953 Q428.5313,271.125 428.5313,269.8438 L428.5313,268.6875 Q428.5313,267.3594 429.1484,266.2109 Q429.7656,265.0625 430.8594,264.4453 Q431.9531,263.8281 433.1875,263.8281 Q433.9219,263.8281 434.5703,263.9922 Q435.2188,264.1563 435.7656,264.5156 Z " fill="#000000"/><text fill="#000000" font-family="sans-serif" font-size="12" lengthAdjust="spacing" textLength="164" x="447" y="273.5508">AlgoritmoExternoGeracaoPwd</text><line style="stroke:#A80036;stroke-width:1.5;" x1="419" x2="613" y1="284.6406" y2="284.6406"/><line style="stroke:#A80036;stroke-width:1.5;" x1="419" x2="613" y1="292.6406" y2="292.6406"/><!--MD5=[bfccd8e890448f4cee1f17ba82daa446]
link Plataforma to Organização--><path codeLine="39" d="M120.24,222.5406 C167.33,205.5606 234.31,181.4106 280.58,164.7206 " fill="none" id="Plataforma-Organização" style="stroke:#A80036;stroke-width:1.0;"/><polygon fill="#000000" points="159.7035,166.1203,150.1978,166.4239,152.1917,171.9533,159.7035,166.1203" style="stroke:#000000;stroke-width:1.0;"/><text fill="#000000" font-family="sans-serif" font-size="13" lengthAdjust="spacing" textLength="86" x="164" y="173.1357">tem registadas</text><text fill="#000000" font-family="sans-serif" font-size="13" lengthAdjust="spacing" textLength="7" x="127.9582" y="234.5065">1</text><text fill="#000000" font-family="sans-serif" font-size="13" lengthAdjust="spacing" textLength="5" x="267.9986" y="181.8662">*</text><!--MD5=[efc446191a09ada4a3c0b8b4c7fafebe]
link Plataforma to AlgoritmoExternoGeracaoPwd--><path codeLine="40" d="M120.19,246.8406 C194.46,252.4506 327.12,262.4606 418,269.3206 " fill="none" id="Plataforma-AlgoritmoExternoGeracaoPwd" style="stroke:#A80036;stroke-width:1.0;"/><polygon fill="#000000" points="177.4858,240.1928,168.6876,236.5813,168.2452,242.4425,177.4858,240.1928" style="stroke:#000000;stroke-width:1.0;"/><text fill="#000000" font-family="sans-serif" font-size="13" lengthAdjust="spacing" textLength="51" x="181.5" y="245.1357">recorre a</text><text fill="#000000" font-family="sans-serif" font-size="13" lengthAdjust="spacing" textLength="7" x="127.9018" y="261.9199">1</text><text fill="#000000" font-family="sans-serif" font-size="13" lengthAdjust="spacing" textLength="7" x="402.9117" y="282.8839">1</text><!--MD5=[647426b90ecdde9ada25b13bffe67ced]
link AlgoritmoExternoGeracaoPwd to Utilizador--><path codeLine="41" d="M614.07,279.1706 C624.18,279.3606 634.3,279.5306 644,279.6406 C697.33,280.2706 710.69,281.1106 764,279.6406 C809.42,278.3906 860.6,275.5406 899.75,273.0506 " fill="none" id="AlgoritmoExternoGeracaoPwd-Utilizador" style="stroke:#A80036;stroke-width:1.0;"/><polygon fill="#000000" points="664.4989,270.7093,655.3929,267.9648,655.5188,273.8413,664.4989,270.7093" style="stroke:#000000;stroke-width:1.0;"/><text fill="#000000" font-family="sans-serif" font-size="13" lengthAdjust="spacing" textLength="84" x="668.5" y="276.1357">gera password</text><text fill="#000000" font-family="sans-serif" font-size="13" lengthAdjust="spacing" textLength="7" x="621.8465" y="293.4854">1</text><text fill="#000000" font-family="sans-serif" font-size="13" lengthAdjust="spacing" textLength="5" x="886.9742" y="288.0294">*</text><!--MD5=[a1920769314186b331e19badf2cc4935]
link Organização to Colaborador--><path codeLine="42" d="M388.44,120.0906 C398.11,116.1306 408.23,112.4406 418,109.6406 C498.54,86.5806 595.69,75.7106 653.24,70.9606 " fill="none" id="Organização-Colaborador" style="stroke:#A80036;stroke-width:1.0;"/><polygon fill="#000000" points="507.4161,65.9043,497.9867,64.6647,499.0589,70.4439,507.4161,65.9043" style="stroke:#000000;stroke-width:1.0;"/><text fill="#000000" font-family="sans-serif" font-size="13" lengthAdjust="spacing" textLength="22" x="511.5" y="72.1357">tem</text><text fill="#000000" font-family="sans-serif" font-size="13" lengthAdjust="spacing" textLength="7" x="396.1585" y="131.239">1</text><text fill="#000000" font-family="sans-serif" font-size="13" lengthAdjust="spacing" textLength="20" x="625.4551" y="85.9497">1..*</text><!--MD5=[a1920769314186b331e19badf2cc4935]
link Organização to Colaborador--><path codeLine="43" d="M388.09,153.0106 C445.45,158.9706 539.08,162.4906 614,135.6406 C632.12,129.1406 649.54,117.5006 664.08,105.6706 " fill="none" id="Organização-Colaborador-1" style="stroke:#A80036;stroke-width:1.0;"/><polygon fill="#000000" points="487.428,125.9711,478.0163,124.6036,479.01,130.3969,487.428,125.9711" style="stroke:#000000;stroke-width:1.0;"/><text fill="#000000" font-family="sans-serif" font-size="13" lengthAdjust="spacing" textLength="62" x="491.5" y="132.1357">tem gestor</text><text fill="#000000" font-family="sans-serif" font-size="13" lengthAdjust="spacing" textLength="7" x="396.1183" y="168.6792">1</text><text fill="#000000" font-family="sans-serif" font-size="13" lengthAdjust="spacing" textLength="7" x="649.8886" y="126.8457">1</text><!--MD5=[78f7e103fe48bd426744f000632fc42d]
link Organização to EnderecoPostal--><path codeLine="44" d="M388.43,180.1906 C397.93,184.9106 408.01,189.0206 418,191.6406 C493.99,211.5406 585.33,207.1406 643.76,200.9306 " fill="none" id="Organização-EnderecoPostal" style="stroke:#A80036;stroke-width:1.0;"/><polygon fill="#000000" points="478.4836,183.2212,469.7061,179.5596,469.2303,185.4182,478.4836,183.2212" style="stroke:#000000;stroke-width:1.0;"/><text fill="#000000" font-family="sans-serif" font-size="13" lengthAdjust="spacing" textLength="80" x="482.5" y="188.1357">localizada em</text><text fill="#000000" font-family="sans-serif" font-size="13" lengthAdjust="spacing" textLength="22" x="395.9375" y="198.6155">0..1</text><text fill="#000000" font-family="sans-serif" font-size="13" lengthAdjust="spacing" textLength="7" x="628.9917" y="216.4116">1</text><!--MD5=[bcb5794e8184ce78d304f04a5beabbc0]
link Colaborador to Utilizador--><path codeLine="45" d="M753.93,105.6806 C796.96,139.1406 859.67,187.9106 905.28,223.3706 " fill="none" id="Colaborador-Utilizador" style="stroke:#A80036;stroke-width:1.0;"/><polygon fill="#000000" points="795.0529,125.7471,800.3892,133.6195,803.9973,128.9795,795.0529,125.7471" style="stroke:#000000;stroke-width:1.0;"/><text fill="#000000" font-family="sans-serif" font-size="13" lengthAdjust="spacing" textLength="61" x="808" y="134.1357">atua como</text><text fill="#000000" font-family="sans-serif" font-size="13" lengthAdjust="spacing" textLength="22" x="738.3778" y="126.8574">0..1</text><text fill="#000000" font-family="sans-serif" font-size="13" lengthAdjust="spacing" textLength="7" x="888.676" y="212.7734">1</text><!--MD5=[333fe1ba76995a3081d56d253be2ba2d]
@startuml

title UC01 - Registar Organização - Excerto do Modelo de Domínio

left to right direction

class Plataforma <<Singleton>> {
    -String designacao
}

class Organização {
    -String nome
    -String NIF
    -Website website
    -String telefone
    -Email Email
}

class Colaborador {
    -String funcao
    -String telefone
}

class EnderecoPostal {
    -String arruamento
    -String numeroPorta
    -String localidade
    -String codigoPostal
}

class Utilizador {
    -String nome
    -Email email
    -Password password
}

class AlgoritmoExternoGeracaoPwd {
}

Plataforma "1"- -"*" Organização : tem registadas >
Plataforma "1"- -"1" AlgoritmoExternoGeracaoPwd : recorre a >
AlgoritmoExternoGeracaoPwd "1"- -"*" Utilizador : gera password >
Organização "1"- -"1..*" Colaborador : tem >
Organização "1"- -"1" Colaborador : tem gestor >
Organização "0..1"- -"1" EnderecoPostal : localizada em >
Colaborador "0..1"- -"1" Utilizador : atua como <

@enduml

PlantUML version 1.2021.00(Sun Jan 10 10:25:05 GMT 2021)
(GPL source distribution)
Java Runtime: Java(TM) SE Runtime Environment
JVM: Java HotSpot(TM) 64-Bit Server VM
Default Encoding: Cp1252
Language: pt
Country: PT
--></g></svg>