<?xml version="1.0" encoding="UTF-8" standalone="no"?><svg xmlns="http://www.w3.org/2000/svg" xmlns:xlink="http://www.w3.org/1999/xlink" contentScriptType="application/ecmascript" contentStyleType="text/css" height="866px" preserveAspectRatio="none" style="width:1352px;height:866px;" version="1.1" viewBox="0 0 1352 866" width="1352px" zoomAndPan="magnify"><defs><filter height="300%" id="f16" width="300%" x="-1" y="-1"><feGaussianBlur result="blurOut" stdDeviation="2.0"/><feColorMatrix in="blurOut" result="blurOut2" type="matrix" values="0 0 0 0 0 0 0 0 0 0 0 0 0 0 0 0 0 0 .4 0"/><feOffset dx="4.0" dy="4.0" in="blurOut2" result="blurOut3"/><feBlend in="SourceGraphic" in2="blurOut3" mode="normal"/></filter></defs><g><text fill="#000000" font-family="sans-serif" font-size="18" lengthAdjust="spacingAndGlyphs" textLength="422" x="458.75" y="18.6855">UC01 - Registar Organização - Diagrama de Classes</text><!--MD5=[26c5f3be5170126d62449270b7dc8f97]
class RegistarOrganizacaoUI--><rect codeLine="4" fill="#FEFECE" filter="url(#f16)" height="48" id="RegistarOrganizacaoUI" style="stroke:#A80036;stroke-width:1.5;" width="160" x="602.5" y="29.6406"/><ellipse cx="617.5" cy="45.6406" fill="#ADD1B2" rx="11" ry="11" style="stroke:#A80036;stroke-width:1.0;"/><path d="M620.2656,41.5156 Q620.4219,41.2969 620.6094,41.1875 Q620.7969,41.0781 621.0156,41.0781 Q621.3906,41.0781 621.625,41.3359 Q621.8594,41.5938 621.8594,42.2031 L621.8594,43.6563 Q621.8594,44.2656 621.625,44.5313 Q621.3906,44.7969 621.0156,44.7969 Q620.6719,44.7969 620.4688,44.5938 Q620.2656,44.4063 620.1563,43.8906 Q620.1094,43.5313 619.9219,43.3438 Q619.5938,42.9688 618.9844,42.75 Q618.375,42.5313 617.75,42.5313 Q616.9844,42.5313 616.3516,42.8594 Q615.7188,43.1875 615.2266,43.9375 Q614.7344,44.6875 614.7344,45.7188 L614.7344,46.8125 Q614.7344,48.0469 615.625,48.8672 Q616.5156,49.6875 618.1094,49.6875 Q619.0469,49.6875 619.7031,49.4375 Q620.0938,49.2813 620.5156,48.8438 Q620.7813,48.5781 620.9297,48.5 Q621.0781,48.4219 621.2813,48.4219 Q621.6094,48.4219 621.8672,48.6797 Q622.125,48.9375 622.125,49.2813 Q622.125,49.625 621.7813,50.0313 Q621.2813,50.6094 620.4844,50.9375 Q619.4063,51.3906 618.1094,51.3906 Q616.5938,51.3906 615.3906,50.7656 Q614.4063,50.2656 613.7188,49.1953 Q613.0313,48.125 613.0313,46.8438 L613.0313,45.6875 Q613.0313,44.3594 613.6484,43.2109 Q614.2656,42.0625 615.3594,41.4453 Q616.4531,40.8281 617.6875,40.8281 Q618.4219,40.8281 619.0703,40.9922 Q619.7188,41.1563 620.2656,41.5156 Z " fill="#000000"/><text fill="#000000" font-family="sans-serif" font-size="12" lengthAdjust="spacingAndGlyphs" textLength="128" x="631.5" y="50.5508">RegistarOrganizacaoUI</text><line style="stroke:#A80036;stroke-width:1.5;" x1="603.5" x2="761.5" y1="61.6406" y2="61.6406"/><line style="stroke:#A80036;stroke-width:1.5;" x1="603.5" x2="761.5" y1="69.6406" y2="69.6406"/><!--MD5=[dd5ad71b12dabe0adbc098c60a8c9669]
class RegistarOrganizacaoController--><rect codeLine="7" fill="#FEFECE" filter="url(#f16)" height="75.6719" id="RegistarOrganizacaoController" style="stroke:#A80036;stroke-width:1.5;" width="604" x="380.5" y="138.6406"/><ellipse cx="593.25" cy="154.6406" fill="#ADD1B2" rx="11" ry="11" style="stroke:#A80036;stroke-width:1.0;"/><path d="M596.0156,150.5156 Q596.1719,150.2969 596.3594,150.1875 Q596.5469,150.0781 596.7656,150.0781 Q597.1406,150.0781 597.375,150.3359 Q597.6094,150.5938 597.6094,151.2031 L597.6094,152.6563 Q597.6094,153.2656 597.375,153.5313 Q597.1406,153.7969 596.7656,153.7969 Q596.4219,153.7969 596.2188,153.5938 Q596.0156,153.4063 595.9063,152.8906 Q595.8594,152.5313 595.6719,152.3438 Q595.3438,151.9688 594.7344,151.75 Q594.125,151.5313 593.5,151.5313 Q592.7344,151.5313 592.1016,151.8594 Q591.4688,152.1875 590.9766,152.9375 Q590.4844,153.6875 590.4844,154.7188 L590.4844,155.8125 Q590.4844,157.0469 591.375,157.8672 Q592.2656,158.6875 593.8594,158.6875 Q594.7969,158.6875 595.4531,158.4375 Q595.8438,158.2813 596.2656,157.8438 Q596.5313,157.5781 596.6797,157.5 Q596.8281,157.4219 597.0313,157.4219 Q597.3594,157.4219 597.6172,157.6797 Q597.875,157.9375 597.875,158.2813 Q597.875,158.625 597.5313,159.0313 Q597.0313,159.6094 596.2344,159.9375 Q595.1563,160.3906 593.8594,160.3906 Q592.3438,160.3906 591.1406,159.7656 Q590.1563,159.2656 589.4688,158.1953 Q588.7813,157.125 588.7813,155.8438 L588.7813,154.6875 Q588.7813,153.3594 589.3984,152.2109 Q590.0156,151.0625 591.1094,150.4453 Q592.2031,149.8281 593.4375,149.8281 Q594.1719,149.8281 594.8203,149.9922 Q595.4688,150.1563 596.0156,150.5156 Z " fill="#000000"/><text fill="#000000" font-family="sans-serif" font-size="12" lengthAdjust="spacingAndGlyphs" textLength="170" x="613.75" y="159.5508">RegistarOrganizacaoController</text><line style="stroke:#A80036;stroke-width:1.5;" x1="381.5" x2="983.5" y1="170.6406" y2="170.6406"/><line style="stroke:#A80036;stroke-width:1.0;" x1="381.5" x2="983.5" y1="178.6406" y2="178.6406"/><ellipse cx="391.5" cy="189.6406" fill="#84BE84" rx="3" ry="3" style="stroke:#038048;stroke-width:1.0;"/><text fill="#000000" font-family="sans-serif" font-size="11" lengthAdjust="spacingAndGlyphs" textLength="578" x="400.5" y="194.0596">novaOrganizacao(nome, NIF, endLocal, endCodPOstal, endLocalidade, tlf, site, email, nomeG, funcao, tlfG, emailG, pwd)</text><ellipse cx="391.5" cy="203.4766" fill="#84BE84" rx="3" ry="3" style="stroke:#038048;stroke-width:1.0;"/><text fill="#000000" font-family="sans-serif" font-size="11" lengthAdjust="spacingAndGlyphs" textLength="103" x="400.5" y="207.8955">registaOrganizacao()</text><!--MD5=[807977ceb130c090ed5febfb6de2bdea]
class Organizacao--><rect codeLine="13" fill="#FEFECE" filter="url(#f16)" height="158.6875" id="Organizacao" style="stroke:#A80036;stroke-width:1.5;" width="411" x="7" y="484.6406"/><ellipse cx="173.75" cy="500.6406" fill="#ADD1B2" rx="11" ry="11" style="stroke:#A80036;stroke-width:1.0;"/><path d="M176.5156,496.5156 Q176.6719,496.2969 176.8594,496.1875 Q177.0469,496.0781 177.2656,496.0781 Q177.6406,496.0781 177.875,496.3359 Q178.1094,496.5938 178.1094,497.2031 L178.1094,498.6563 Q178.1094,499.2656 177.875,499.5313 Q177.6406,499.7969 177.2656,499.7969 Q176.9219,499.7969 176.7188,499.5938 Q176.5156,499.4063 176.4063,498.8906 Q176.3594,498.5313 176.1719,498.3438 Q175.8438,497.9688 175.2344,497.75 Q174.625,497.5313 174,497.5313 Q173.2344,497.5313 172.6016,497.8594 Q171.9688,498.1875 171.4766,498.9375 Q170.9844,499.6875 170.9844,500.7188 L170.9844,501.8125 Q170.9844,503.0469 171.875,503.8672 Q172.7656,504.6875 174.3594,504.6875 Q175.2969,504.6875 175.9531,504.4375 Q176.3438,504.2813 176.7656,503.8438 Q177.0313,503.5781 177.1797,503.5 Q177.3281,503.4219 177.5313,503.4219 Q177.8594,503.4219 178.1172,503.6797 Q178.375,503.9375 178.375,504.2813 Q178.375,504.625 178.0313,505.0313 Q177.5313,505.6094 176.7344,505.9375 Q175.6563,506.3906 174.3594,506.3906 Q172.8438,506.3906 171.6406,505.7656 Q170.6563,505.2656 169.9688,504.1953 Q169.2813,503.125 169.2813,501.8438 L169.2813,500.6875 Q169.2813,499.3594 169.8984,498.2109 Q170.5156,497.0625 171.6094,496.4453 Q172.7031,495.8281 173.9375,495.8281 Q174.6719,495.8281 175.3203,495.9922 Q175.9688,496.1563 176.5156,496.5156 Z " fill="#000000"/><text fill="#000000" font-family="sans-serif" font-size="12" lengthAdjust="spacingAndGlyphs" textLength="69" x="194.25" y="505.5508">Organizacao</text><line style="stroke:#A80036;stroke-width:1.5;" x1="8" x2="417" y1="516.6406" y2="516.6406"/><rect fill="none" height="6" style="stroke:#C82930;stroke-width:1.0;" width="6" x="15" y="524.6406"/><text fill="#000000" font-family="sans-serif" font-size="11" lengthAdjust="spacingAndGlyphs" textLength="57" x="27" y="532.0596">String nome</text><rect fill="none" height="6" style="stroke:#C82930;stroke-width:1.0;" width="6" x="15" y="538.4766"/><text fill="#000000" font-family="sans-serif" font-size="11" lengthAdjust="spacingAndGlyphs" textLength="46" x="27" y="545.8955">String NIF</text><rect fill="none" height="6" style="stroke:#C82930;stroke-width:1.0;" width="6" x="15" y="552.3125"/><text fill="#000000" font-family="sans-serif" font-size="11" lengthAdjust="spacingAndGlyphs" textLength="70" x="27" y="559.7314">String website</text><rect fill="none" height="6" style="stroke:#C82930;stroke-width:1.0;" width="6" x="15" y="566.1484"/><text fill="#000000" font-family="sans-serif" font-size="11" lengthAdjust="spacingAndGlyphs" textLength="70" x="27" y="573.5674">String telefone</text><rect fill="none" height="6" style="stroke:#C82930;stroke-width:1.0;" width="6" x="15" y="579.9844"/><text fill="#000000" font-family="sans-serif" font-size="11" lengthAdjust="spacingAndGlyphs" textLength="55" x="27" y="587.4033">String email</text><line style="stroke:#A80036;stroke-width:1.0;" x1="8" x2="417" y1="593.8203" y2="593.8203"/><ellipse cx="18" cy="604.8203" fill="#84BE84" rx="3" ry="3" style="stroke:#038048;stroke-width:1.0;"/><text fill="#000000" font-family="sans-serif" font-size="11" lengthAdjust="spacingAndGlyphs" textLength="385" x="27" y="609.2393">Organizacao(nome, NIF, website, telefone, email, endereco, gestorColaborador)</text><ellipse cx="18" cy="618.6563" fill="#84BE84" rx="3" ry="3" style="stroke:#038048;stroke-width:1.0;"/><text fill="#000000" font-family="sans-serif" font-size="11" lengthAdjust="spacingAndGlyphs" textLength="285" x="27" y="623.0752">EnderecoPostal novoEndereco(local, codPostal, localidade)</text><ellipse cx="18" cy="632.4922" fill="#84BE84" rx="3" ry="3" style="stroke:#038048;stroke-width:1.0;"/><text fill="#000000" font-family="sans-serif" font-size="11" lengthAdjust="spacingAndGlyphs" textLength="264" x="27" y="636.9111">Colaborador novoColaborador(nome, funcao, tlf, email)</text><!--MD5=[ac8682ea5466d223e49472789fb200d2]
class Colaborador--><rect codeLine="25" fill="#FEFECE" filter="url(#f16)" height="131.0156" id="Colaborador" style="stroke:#A80036;stroke-width:1.5;" width="195" x="179" y="721.6406"/><ellipse cx="237.75" cy="737.6406" fill="#ADD1B2" rx="11" ry="11" style="stroke:#A80036;stroke-width:1.0;"/><path d="M240.5156,733.5156 Q240.6719,733.2969 240.8594,733.1875 Q241.0469,733.0781 241.2656,733.0781 Q241.6406,733.0781 241.875,733.3359 Q242.1094,733.5938 242.1094,734.2031 L242.1094,735.6563 Q242.1094,736.2656 241.875,736.5313 Q241.6406,736.7969 241.2656,736.7969 Q240.9219,736.7969 240.7188,736.5938 Q240.5156,736.4063 240.4063,735.8906 Q240.3594,735.5313 240.1719,735.3438 Q239.8438,734.9688 239.2344,734.75 Q238.625,734.5313 238,734.5313 Q237.2344,734.5313 236.6016,734.8594 Q235.9688,735.1875 235.4766,735.9375 Q234.9844,736.6875 234.9844,737.7188 L234.9844,738.8125 Q234.9844,740.0469 235.875,740.8672 Q236.7656,741.6875 238.3594,741.6875 Q239.2969,741.6875 239.9531,741.4375 Q240.3438,741.2813 240.7656,740.8438 Q241.0313,740.5781 241.1797,740.5 Q241.3281,740.4219 241.5313,740.4219 Q241.8594,740.4219 242.1172,740.6797 Q242.375,740.9375 242.375,741.2813 Q242.375,741.625 242.0313,742.0313 Q241.5313,742.6094 240.7344,742.9375 Q239.6563,743.3906 238.3594,743.3906 Q236.8438,743.3906 235.6406,742.7656 Q234.6563,742.2656 233.9688,741.1953 Q233.2813,740.125 233.2813,738.8438 L233.2813,737.6875 Q233.2813,736.3594 233.8984,735.2109 Q234.5156,734.0625 235.6094,733.4453 Q236.7031,732.8281 237.9375,732.8281 Q238.6719,732.8281 239.3203,732.9922 Q239.9688,733.1563 240.5156,733.5156 Z " fill="#000000"/><text fill="#000000" font-family="sans-serif" font-size="12" lengthAdjust="spacingAndGlyphs" textLength="69" x="258.25" y="742.5508">Colaborador</text><line style="stroke:#A80036;stroke-width:1.5;" x1="180" x2="373" y1="753.6406" y2="753.6406"/><rect fill="none" height="6" style="stroke:#C82930;stroke-width:1.0;" width="6" x="187" y="761.6406"/><text fill="#000000" font-family="sans-serif" font-size="11" lengthAdjust="spacingAndGlyphs" textLength="65" x="199" y="769.0596">String funcao</text><rect fill="none" height="6" style="stroke:#C82930;stroke-width:1.0;" width="6" x="187" y="775.4766"/><text fill="#000000" font-family="sans-serif" font-size="11" lengthAdjust="spacingAndGlyphs" textLength="70" x="199" y="782.8955">String telefone</text><rect fill="none" height="6" style="stroke:#C82930;stroke-width:1.0;" width="6" x="187" y="789.3125"/><text fill="#000000" font-family="sans-serif" font-size="11" lengthAdjust="spacingAndGlyphs" textLength="125" x="199" y="796.7314">Organizacao organizacao</text><line style="stroke:#A80036;stroke-width:1.0;" x1="180" x2="373" y1="803.1484" y2="803.1484"/><ellipse cx="190" cy="814.1484" fill="#84BE84" rx="3" ry="3" style="stroke:#038048;stroke-width:1.0;"/><text fill="#000000" font-family="sans-serif" font-size="11" lengthAdjust="spacingAndGlyphs" textLength="169" x="199" y="818.5674">Colaborador(nome,funcao,tlf,email)</text><ellipse cx="190" cy="827.9844" fill="#84BE84" rx="3" ry="3" style="stroke:#038048;stroke-width:1.0;"/><text fill="#000000" font-family="sans-serif" font-size="11" lengthAdjust="spacingAndGlyphs" textLength="81" x="199" y="832.4033">String getNome()</text><ellipse cx="190" cy="841.8203" fill="#84BE84" rx="3" ry="3" style="stroke:#038048;stroke-width:1.0;"/><text fill="#000000" font-family="sans-serif" font-size="11" lengthAdjust="spacingAndGlyphs" textLength="78" x="199" y="846.2393">String getEmail()</text><!--MD5=[dcda844062f930f807532403427d3023]
class EnderecoPostal--><rect codeLine="35" fill="#FEFECE" filter="url(#f16)" height="103.3438" id="EnderecoPostal" style="stroke:#A80036;stroke-width:1.5;" width="238" x="655.5" y="735.6406"/><ellipse cx="726.25" cy="751.6406" fill="#ADD1B2" rx="11" ry="11" style="stroke:#A80036;stroke-width:1.0;"/><path d="M729.0156,747.5156 Q729.1719,747.2969 729.3594,747.1875 Q729.5469,747.0781 729.7656,747.0781 Q730.1406,747.0781 730.375,747.3359 Q730.6094,747.5938 730.6094,748.2031 L730.6094,749.6563 Q730.6094,750.2656 730.375,750.5313 Q730.1406,750.7969 729.7656,750.7969 Q729.4219,750.7969 729.2188,750.5938 Q729.0156,750.4063 728.9063,749.8906 Q728.8594,749.5313 728.6719,749.3438 Q728.3438,748.9688 727.7344,748.75 Q727.125,748.5313 726.5,748.5313 Q725.7344,748.5313 725.1016,748.8594 Q724.4688,749.1875 723.9766,749.9375 Q723.4844,750.6875 723.4844,751.7188 L723.4844,752.8125 Q723.4844,754.0469 724.375,754.8672 Q725.2656,755.6875 726.8594,755.6875 Q727.7969,755.6875 728.4531,755.4375 Q728.8438,755.2813 729.2656,754.8438 Q729.5313,754.5781 729.6797,754.5 Q729.8281,754.4219 730.0313,754.4219 Q730.3594,754.4219 730.6172,754.6797 Q730.875,754.9375 730.875,755.2813 Q730.875,755.625 730.5313,756.0313 Q730.0313,756.6094 729.2344,756.9375 Q728.1563,757.3906 726.8594,757.3906 Q725.3438,757.3906 724.1406,756.7656 Q723.1563,756.2656 722.4688,755.1953 Q721.7813,754.125 721.7813,752.8438 L721.7813,751.6875 Q721.7813,750.3594 722.3984,749.2109 Q723.0156,748.0625 724.1094,747.4453 Q725.2031,746.8281 726.4375,746.8281 Q727.1719,746.8281 727.8203,746.9922 Q728.4688,747.1563 729.0156,747.5156 Z " fill="#000000"/><text fill="#000000" font-family="sans-serif" font-size="12" lengthAdjust="spacingAndGlyphs" textLength="88" x="746.75" y="756.5508">EnderecoPostal</text><line style="stroke:#A80036;stroke-width:1.5;" x1="656.5" x2="892.5" y1="767.6406" y2="767.6406"/><rect fill="none" height="6" style="stroke:#C82930;stroke-width:1.0;" width="6" x="663.5" y="775.6406"/><text fill="#000000" font-family="sans-serif" font-size="11" lengthAdjust="spacingAndGlyphs" textLength="53" x="675.5" y="783.0596">String local</text><rect fill="none" height="6" style="stroke:#C82930;stroke-width:1.0;" width="6" x="663.5" y="789.4766"/><text fill="#000000" font-family="sans-serif" font-size="11" lengthAdjust="spacingAndGlyphs" textLength="78" x="675.5" y="796.8955">String codPostal</text><rect fill="none" height="6" style="stroke:#C82930;stroke-width:1.0;" width="6" x="663.5" y="803.3125"/><text fill="#000000" font-family="sans-serif" font-size="11" lengthAdjust="spacingAndGlyphs" textLength="79" x="675.5" y="810.7314">String localidade</text><line style="stroke:#A80036;stroke-width:1.0;" x1="656.5" x2="892.5" y1="817.1484" y2="817.1484"/><ellipse cx="666.5" cy="828.1484" fill="#84BE84" rx="3" ry="3" style="stroke:#038048;stroke-width:1.0;"/><text fill="#000000" font-family="sans-serif" font-size="11" lengthAdjust="spacingAndGlyphs" textLength="212" x="675.5" y="832.5674">EnderecoPostal(local, codPostal, localidade)</text><!--MD5=[548bd8e9f0dc9261535ca7b7174ac939]
class RegistoOrganizacoes--><rect codeLine="43" fill="#FEFECE" filter="url(#f16)" height="131.0156" id="RegistoOrganizacoes" style="stroke:#A80036;stroke-width:1.5;" width="641" x="362" y="275.6406"/><ellipse cx="618.75" cy="291.6406" fill="#ADD1B2" rx="11" ry="11" style="stroke:#A80036;stroke-width:1.0;"/><path d="M621.5156,287.5156 Q621.6719,287.2969 621.8594,287.1875 Q622.0469,287.0781 622.2656,287.0781 Q622.6406,287.0781 622.875,287.3359 Q623.1094,287.5938 623.1094,288.2031 L623.1094,289.6563 Q623.1094,290.2656 622.875,290.5313 Q622.6406,290.7969 622.2656,290.7969 Q621.9219,290.7969 621.7188,290.5938 Q621.5156,290.4063 621.4063,289.8906 Q621.3594,289.5313 621.1719,289.3438 Q620.8438,288.9688 620.2344,288.75 Q619.625,288.5313 619,288.5313 Q618.2344,288.5313 617.6016,288.8594 Q616.9688,289.1875 616.4766,289.9375 Q615.9844,290.6875 615.9844,291.7188 L615.9844,292.8125 Q615.9844,294.0469 616.875,294.8672 Q617.7656,295.6875 619.3594,295.6875 Q620.2969,295.6875 620.9531,295.4375 Q621.3438,295.2813 621.7656,294.8438 Q622.0313,294.5781 622.1797,294.5 Q622.3281,294.4219 622.5313,294.4219 Q622.8594,294.4219 623.1172,294.6797 Q623.375,294.9375 623.375,295.2813 Q623.375,295.625 623.0313,296.0313 Q622.5313,296.6094 621.7344,296.9375 Q620.6563,297.3906 619.3594,297.3906 Q617.8438,297.3906 616.6406,296.7656 Q615.6563,296.2656 614.9688,295.1953 Q614.2813,294.125 614.2813,292.8438 L614.2813,291.6875 Q614.2813,290.3594 614.8984,289.2109 Q615.5156,288.0625 616.6094,287.4453 Q617.7031,286.8281 618.9375,286.8281 Q619.6719,286.8281 620.3203,286.9922 Q620.9688,287.1563 621.5156,287.5156 Z " fill="#000000"/><text fill="#000000" font-family="sans-serif" font-size="12" lengthAdjust="spacingAndGlyphs" textLength="119" x="639.25" y="296.5508">RegistoOrganizacoes</text><line style="stroke:#A80036;stroke-width:1.5;" x1="363" x2="1002" y1="307.6406" y2="307.6406"/><line style="stroke:#A80036;stroke-width:1.0;" x1="363" x2="1002" y1="315.6406" y2="315.6406"/><ellipse cx="373" cy="326.6406" fill="#84BE84" rx="3" ry="3" style="stroke:#038048;stroke-width:1.0;"/><text fill="#000000" font-family="sans-serif" font-size="11" lengthAdjust="spacingAndGlyphs" textLength="615" x="382" y="331.0596">Organizacao novaOrganizacao(nome, NIF, endLocal, endCodPOstal, endLocalidade, tlf, site, email, nomeG, funcao, tlfG, emailG)</text><ellipse cx="373" cy="340.4766" fill="#84BE84" rx="3" ry="3" style="stroke:#038048;stroke-width:1.0;"/><text fill="#000000" font-family="sans-serif" font-size="11" lengthAdjust="spacingAndGlyphs" textLength="185" x="382" y="344.8955">validaOrganizacao(Organizaocao org)</text><ellipse cx="373" cy="354.3125" fill="#84BE84" rx="3" ry="3" style="stroke:#038048;stroke-width:1.0;"/><text fill="#000000" font-family="sans-serif" font-size="11" lengthAdjust="spacingAndGlyphs" textLength="184" x="382" y="358.7314">registaOrganizacao(Organizacao org)</text><rect fill="#F24D5C" height="6" style="stroke:#C82930;stroke-width:1.0;" width="6" x="370" y="365.1484"/><text fill="#000000" font-family="sans-serif" font-size="11" lengthAdjust="spacingAndGlyphs" textLength="169" x="382" y="372.5674">addOrganizacao(Organizacao org)</text><rect fill="#F24D5C" height="6" style="stroke:#C82930;stroke-width:1.0;" width="6" x="370" y="378.9844"/><text fill="#000000" font-family="sans-serif" font-size="11" lengthAdjust="spacingAndGlyphs" textLength="233" x="382" y="386.4033">registaGestorComoUtilizador(Colaborador colab)</text><rect fill="#F24D5C" height="6" style="stroke:#C82930;stroke-width:1.0;" width="6" x="370" y="392.8203"/><text fill="#000000" font-family="sans-serif" font-size="11" lengthAdjust="spacingAndGlyphs" textLength="196" x="382" y="400.2393">enviaPwd(Email emailG, Password pwd)</text><!--MD5=[ed5c6b4e01c9b1c9efc043b411d08420]
class AutorizacaoFacade--><rect codeLine="53" fill="#FEFECE" filter="url(#f16)" height="61.8359" id="AutorizacaoFacade" style="stroke:#A80036;stroke-width:1.5;" width="306" x="453.5" y="533.1406"/><ellipse cx="550.25" cy="549.1406" fill="#ADD1B2" rx="11" ry="11" style="stroke:#A80036;stroke-width:1.0;"/><path d="M553.0156,545.0156 Q553.1719,544.7969 553.3594,544.6875 Q553.5469,544.5781 553.7656,544.5781 Q554.1406,544.5781 554.375,544.8359 Q554.6094,545.0938 554.6094,545.7031 L554.6094,547.1563 Q554.6094,547.7656 554.375,548.0313 Q554.1406,548.2969 553.7656,548.2969 Q553.4219,548.2969 553.2188,548.0938 Q553.0156,547.9063 552.9063,547.3906 Q552.8594,547.0313 552.6719,546.8438 Q552.3438,546.4688 551.7344,546.25 Q551.125,546.0313 550.5,546.0313 Q549.7344,546.0313 549.1016,546.3594 Q548.4688,546.6875 547.9766,547.4375 Q547.4844,548.1875 547.4844,549.2188 L547.4844,550.3125 Q547.4844,551.5469 548.375,552.3672 Q549.2656,553.1875 550.8594,553.1875 Q551.7969,553.1875 552.4531,552.9375 Q552.8438,552.7813 553.2656,552.3438 Q553.5313,552.0781 553.6797,552 Q553.8281,551.9219 554.0313,551.9219 Q554.3594,551.9219 554.6172,552.1797 Q554.875,552.4375 554.875,552.7813 Q554.875,553.125 554.5313,553.5313 Q554.0313,554.1094 553.2344,554.4375 Q552.1563,554.8906 550.8594,554.8906 Q549.3438,554.8906 548.1406,554.2656 Q547.1563,553.7656 546.4688,552.6953 Q545.7813,551.625 545.7813,550.3438 L545.7813,549.1875 Q545.7813,547.8594 546.3984,546.7109 Q547.0156,545.5625 548.1094,544.9453 Q549.2031,544.3281 550.4375,544.3281 Q551.1719,544.3281 551.8203,544.4922 Q552.4688,544.6563 553.0156,545.0156 Z " fill="#000000"/><text fill="#000000" font-family="sans-serif" font-size="12" lengthAdjust="spacingAndGlyphs" textLength="104" x="570.75" y="554.0508">AutorizacaoFacade</text><line style="stroke:#A80036;stroke-width:1.5;" x1="454.5" x2="758.5" y1="565.1406" y2="565.1406"/><line style="stroke:#A80036;stroke-width:1.0;" x1="454.5" x2="758.5" y1="573.1406" y2="573.1406"/><ellipse cx="464.5" cy="584.1406" fill="#84BE84" rx="3" ry="3" style="stroke:#038048;stroke-width:1.0;"/><text fill="#000000" font-family="sans-serif" font-size="11" lengthAdjust="spacingAndGlyphs" textLength="280" x="473.5" y="588.5596">registaUtilizadorComPapeis(nomeG,emailG,pwd,listaPapel)</text><!--MD5=[37bf6c08f758502d5d1a5531d651ab43]
class AlgoritmoGeradorPasswords--><rect codeLine="58" fill="#FEFECE" filter="url(#f16)" height="61.8359" id="AlgoritmoGeradorPasswords" style="stroke:#A80036;stroke-width:1.5;" width="189" x="795" y="533.1406"/><ellipse cx="810" cy="549.1406" fill="#B4A7E5" rx="11" ry="11" style="stroke:#A80036;stroke-width:1.0;"/><path d="M810.9531,545.7813 L810.9531,552.4375 L812.6719,552.4375 Q813.2813,552.4375 813.5469,552.6719 Q813.8125,552.9063 813.8125,553.2969 Q813.8125,553.6719 813.5469,553.9063 Q813.2813,554.1406 812.6719,554.1406 L807.5313,554.1406 Q806.9219,554.1406 806.6563,553.9063 Q806.3906,553.6719 806.3906,553.2813 Q806.3906,552.9063 806.6563,552.6719 Q806.9219,552.4375 807.5313,552.4375 L809.25,552.4375 L809.25,545.7813 L807.5313,545.7813 Q806.9219,545.7813 806.6563,545.5469 Q806.3906,545.3125 806.3906,544.9219 Q806.3906,544.5469 806.6563,544.3125 Q806.9219,544.0781 807.5313,544.0781 L812.6719,544.0781 Q813.2813,544.0781 813.5469,544.3125 Q813.8125,544.5469 813.8125,544.9219 Q813.8125,545.3125 813.5469,545.5469 Q813.2813,545.7813 812.6719,545.7813 L810.9531,545.7813 Z " fill="#000000"/><text fill="#000000" font-family="sans-serif" font-size="12" font-style="italic" lengthAdjust="spacingAndGlyphs" textLength="157" x="824" y="554.0508">AlgoritmoGeradorPasswords</text><line style="stroke:#A80036;stroke-width:1.5;" x1="796" x2="983" y1="565.1406" y2="565.1406"/><line style="stroke:#A80036;stroke-width:1.0;" x1="796" x2="983" y1="573.1406" y2="573.1406"/><ellipse cx="806" cy="584.1406" fill="#84BE84" rx="3" ry="3" style="stroke:#038048;stroke-width:1.0;"/><text fill="#000000" font-family="sans-serif" font-size="11" lengthAdjust="spacingAndGlyphs" textLength="152" x="815" y="588.5596">geraPassword(nomeG, emailG)</text><!--MD5=[ecaed46f78f8cfe1e9ce18477649be18]
class Plataforma--><rect codeLine="63" fill="#FEFECE" filter="url(#f16)" height="103.3438" id="Plataforma" style="stroke:#A80036;stroke-width:1.5;" width="300" x="1038.5" y="289.6406"/><ellipse cx="1154.25" cy="305.6406" fill="#ADD1B2" rx="11" ry="11" style="stroke:#A80036;stroke-width:1.0;"/><path d="M1157.0156,301.5156 Q1157.1719,301.2969 1157.3594,301.1875 Q1157.5469,301.0781 1157.7656,301.0781 Q1158.1406,301.0781 1158.375,301.3359 Q1158.6094,301.5938 1158.6094,302.2031 L1158.6094,303.6563 Q1158.6094,304.2656 1158.375,304.5313 Q1158.1406,304.7969 1157.7656,304.7969 Q1157.4219,304.7969 1157.2188,304.5938 Q1157.0156,304.4063 1156.9063,303.8906 Q1156.8594,303.5313 1156.6719,303.3438 Q1156.3438,302.9688 1155.7344,302.75 Q1155.125,302.5313 1154.5,302.5313 Q1153.7344,302.5313 1153.1016,302.8594 Q1152.4688,303.1875 1151.9766,303.9375 Q1151.4844,304.6875 1151.4844,305.7188 L1151.4844,306.8125 Q1151.4844,308.0469 1152.375,308.8672 Q1153.2656,309.6875 1154.8594,309.6875 Q1155.7969,309.6875 1156.4531,309.4375 Q1156.8438,309.2813 1157.2656,308.8438 Q1157.5313,308.5781 1157.6797,308.5 Q1157.8281,308.4219 1158.0313,308.4219 Q1158.3594,308.4219 1158.6172,308.6797 Q1158.875,308.9375 1158.875,309.2813 Q1158.875,309.625 1158.5313,310.0313 Q1158.0313,310.6094 1157.2344,310.9375 Q1156.1563,311.3906 1154.8594,311.3906 Q1153.3438,311.3906 1152.1406,310.7656 Q1151.1563,310.2656 1150.4688,309.1953 Q1149.7813,308.125 1149.7813,306.8438 L1149.7813,305.6875 Q1149.7813,304.3594 1150.3984,303.2109 Q1151.0156,302.0625 1152.1094,301.4453 Q1153.2031,300.8281 1154.4375,300.8281 Q1155.1719,300.8281 1155.8203,300.9922 Q1156.4688,301.1563 1157.0156,301.5156 Z " fill="#000000"/><text fill="#000000" font-family="sans-serif" font-size="12" lengthAdjust="spacingAndGlyphs" textLength="60" x="1174.75" y="310.5508">Plataforma</text><line style="stroke:#A80036;stroke-width:1.5;" x1="1039.5" x2="1337.5" y1="321.6406" y2="321.6406"/><rect fill="none" height="6" style="stroke:#C82930;stroke-width:1.0;" width="6" x="1046.5" y="329.6406"/><text fill="#000000" font-family="sans-serif" font-size="11" lengthAdjust="spacingAndGlyphs" textLength="87" x="1058.5" y="337.0596">String designacao</text><line style="stroke:#A80036;stroke-width:1.0;" x1="1039.5" x2="1337.5" y1="343.4766" y2="343.4766"/><ellipse cx="1049.5" cy="354.4766" fill="#84BE84" rx="3" ry="3" style="stroke:#038048;stroke-width:1.0;"/><text fill="#000000" font-family="sans-serif" font-size="11" lengthAdjust="spacingAndGlyphs" textLength="211" x="1058.5" y="358.8955">RepositorioOrganizacoes allOrganizacoes()</text><ellipse cx="1049.5" cy="368.3125" fill="#84BE84" rx="3" ry="3" style="stroke:#038048;stroke-width:1.0;"/><text fill="#000000" font-family="sans-serif" font-size="11" lengthAdjust="spacingAndGlyphs" textLength="216" x="1058.5" y="372.7314">AutorizacaoFacade getAutorizacaoFacade()</text><ellipse cx="1049.5" cy="382.1484" fill="#84BE84" rx="3" ry="3" style="stroke:#038048;stroke-width:1.0;"/><text fill="#000000" font-family="sans-serif" font-size="11" lengthAdjust="spacingAndGlyphs" textLength="274" x="1058.5" y="386.5674">AlgoritmoGeradorPasswords getAlgoritmoGeradorPwd()</text><!--MD5=[5968e6aa320025ed2619ac26e0f01233]
link RegistarOrganizacaoUI to RegistarOrganizacaoController--><path codeLine="71" d="M682.5,77.6806 C682.5,93.3506 682.5,114.5506 682.5,133.2206 " fill="none" id="RegistarOrganizacaoUI-to-RegistarOrganizacaoController" style="stroke:#A80036;stroke-width:1.0;stroke-dasharray:7.0,7.0;"/><polygon fill="#A80036" points="682.5,138.4106,686.5,129.4106,682.5,133.4106,678.5,129.4106,682.5,138.4106" style="stroke:#A80036;stroke-width:1.0;"/><!--MD5=[35b989c5d7ca8b09d8ca855f18139f3a]
link RegistarOrganizacaoController to RegistoOrganizacoes--><path codeLine="72" d="M682.5,214.9206 C682.5,231.3706 682.5,251.2506 682.5,270.2806 " fill="none" id="RegistarOrganizacaoController-to-RegistoOrganizacoes" style="stroke:#A80036;stroke-width:1.0;stroke-dasharray:7.0,7.0;"/><polygon fill="#A80036" points="682.5,275.6206,686.5,266.6206,682.5,270.6206,678.5,266.6206,682.5,275.6206" style="stroke:#A80036;stroke-width:1.0;"/><!--MD5=[989fd8e1df01efc14a26ec70914d6dfa]
link RegistarOrganizacaoController to Organizacao--><path codeLine="73" d="M454.29,214.6906 C414.57,228.8906 375.97,248.5206 344.5,275.6406 C283.47,328.2306 249.05,414.9406 230.77,479.4006 " fill="none" id="RegistarOrganizacaoController-to-Organizacao" style="stroke:#A80036;stroke-width:1.0;stroke-dasharray:7.0,7.0;"/><polygon fill="#A80036" points="229.37,484.4006,235.641,476.8063,230.7134,479.5845,227.9352,474.6568,229.37,484.4006" style="stroke:#A80036;stroke-width:1.0;"/><!--MD5=[070ebfe6f744f37053d6e1e171d02a8b]
link RegistarOrganizacaoController to Plataforma--><path codeLine="74" d="M820.22,214.7306 C881.86,232.0606 955.21,253.6806 1020.5,275.6406 C1031.77,279.4306 1043.41,283.5206 1055.04,287.7306 " fill="none" id="RegistarOrganizacaoController-to-Plataforma" style="stroke:#A80036;stroke-width:1.0;stroke-dasharray:7.0,7.0;"/><polygon fill="#A80036" points="1060.03,289.5506,1052.9455,282.7088,1055.3327,287.8373,1050.2042,290.2245,1060.03,289.5506" style="stroke:#A80036;stroke-width:1.0;"/><!--MD5=[567db691f9836c63f305bad1024cbc66]
link Organizacao to Colaborador--><path codeLine="75" d="M202.64,643.8906 C202.84,659.9706 204.7,676.5706 209.5,691.6406 C212.26,700.2906 216.12,708.8306 220.62,717.0206 " fill="none" id="Organizacao-to-Colaborador" style="stroke:#A80036;stroke-width:1.0;"/><polygon fill="#A80036" points="223.19,721.5406,222.2151,711.7401,220.717,717.195,215.2621,715.6969,223.19,721.5406" style="stroke:#A80036;stroke-width:1.0;"/><text fill="#000000" font-family="sans-serif" font-size="13" lengthAdjust="spacingAndGlyphs" textLength="22" x="210.5" y="688.1357">tem</text><text fill="#000000" font-family="sans-serif" font-size="13" lengthAdjust="spacingAndGlyphs" textLength="7" x="194.4919" y="664.9553">1</text><text fill="#000000" font-family="sans-serif" font-size="13" lengthAdjust="spacingAndGlyphs" textLength="20" x="196.2655" y="711.0041">1..*</text><!--MD5=[567db691f9836c63f305bad1024cbc66]
link Organizacao to Colaborador--><path codeLine="76" d="M235.24,643.6806 C242.12,667.4206 249.62,693.3206 256.32,716.4506 " fill="none" id="Organizacao-to-Colaborador-1" style="stroke:#A80036;stroke-width:1.0;"/><polygon fill="#A80036" points="257.73,721.3406,259.0768,711.5843,256.3432,716.5368,251.3907,713.8032,257.73,721.3406" style="stroke:#A80036;stroke-width:1.0;"/><text fill="#000000" font-family="sans-serif" font-size="13" lengthAdjust="spacingAndGlyphs" textLength="62" x="249.5" y="688.1357">tem gestor</text><text fill="#000000" font-family="sans-serif" font-size="13" lengthAdjust="spacingAndGlyphs" textLength="7" x="229.8934" y="664.7272">1</text><text fill="#000000" font-family="sans-serif" font-size="13" lengthAdjust="spacingAndGlyphs" textLength="7" x="248.2942" y="710.7822">1</text><!--MD5=[ca49ec1e86bb5e8c049c02c54bfc3088]
link Organizacao to EnderecoPostal--><path codeLine="77" d="M412.22,643.6806 C491.56,674.8806 580.35,709.7906 650.18,737.2506 " fill="none" id="Organizacao-to-EnderecoPostal" style="stroke:#A80036;stroke-width:1.0;"/><polygon fill="#A80036" points="655.17,739.2206,648.2619,732.2008,650.5178,737.3884,645.3303,739.6443,655.17,739.2206" style="stroke:#A80036;stroke-width:1.0;"/><text fill="#000000" font-family="sans-serif" font-size="13" lengthAdjust="spacingAndGlyphs" textLength="80" x="528.5" y="688.1357">localizada em</text><text fill="#000000" font-family="sans-serif" font-size="13" lengthAdjust="spacingAndGlyphs" textLength="7" x="422.0827" y="664.7272">1</text><text fill="#000000" font-family="sans-serif" font-size="13" lengthAdjust="spacingAndGlyphs" textLength="7" x="640.685" y="733.3084">1</text><!--MD5=[7846c904d139ffad2e5d1ca294d8e188]
link RegistoOrganizacoes to Organizacao--><path codeLine="78" d="M545.29,406.6606 C494.93,430.3406 437.26,457.4506 384.24,482.3806 " fill="none" id="RegistoOrganizacoes-to-Organizacao" style="stroke:#A80036;stroke-width:1.0;"/><polygon fill="#A80036" points="379.46,484.6306,389.3067,484.4222,383.9851,482.5037,385.9036,477.1821,379.46,484.6306" style="stroke:#A80036;stroke-width:1.0;"/><text fill="#000000" font-family="sans-serif" font-size="13" lengthAdjust="spacingAndGlyphs" textLength="86" x="477.5" y="451.1357">tem registadas</text><text fill="#000000" font-family="sans-serif" font-size="13" lengthAdjust="spacingAndGlyphs" textLength="7" x="522.8998" y="428.2154">1</text><text fill="#000000" font-family="sans-serif" font-size="13" lengthAdjust="spacingAndGlyphs" textLength="5" x="390.1351" y="473.8166">*</text><!--MD5=[f214507cc45b523183507945f122534d]
link RegistoOrganizacoes to AutorizacaoFacade--><path codeLine="79" d="M660.31,406.6606 C646.71,446.2006 629.83,495.3106 618.63,527.8506 " fill="none" id="RegistoOrganizacoes-to-AutorizacaoFacade" style="stroke:#A80036;stroke-width:1.0;stroke-dasharray:7.0,7.0;"/><polygon fill="#A80036" points="616.89,532.9306,623.6027,525.7237,618.5182,528.2032,616.0388,523.1186,616.89,532.9306" style="stroke:#A80036;stroke-width:1.0;"/><!--MD5=[af5da22baa9471e875a121efafac6d26]
link RegistoOrganizacoes to AlgoritmoGeradorPasswords--><path codeLine="80" d="M742.93,406.6606 C780.43,446.6906 827.11,496.5306 857.57,529.0506 " fill="none" id="RegistoOrganizacoes-to-AlgoritmoGeradorPasswords" style="stroke:#A80036;stroke-width:1.0;stroke-dasharray:7.0,7.0;"/><polygon fill="#A80036" points="861.2,532.9306,857.9639,523.6286,857.7808,529.2825,852.1269,529.0994,861.2,532.9306" style="stroke:#A80036;stroke-width:1.0;"/><!--MD5=[6813f6b6d5984798ad897268579cad27]
link RegistoOrganizacoes to Colaborador--><path codeLine="81" d="M914.82,406.7306 C949.16,426.2906 980.13,451.6906 1001.5,484.6406 C1039.95,543.9306 1046.39,589.0606 1001.5,643.6406 C991.58,655.7006 577.08,731.9006 379.37,767.6506 " fill="none" id="RegistoOrganizacoes-to-Colaborador" style="stroke:#A80036;stroke-width:1.0;stroke-dasharray:7.0,7.0;"/><polygon fill="#A80036" points="374.17,768.6006,383.7421,770.9188,379.0887,767.7024,382.305,763.049,374.17,768.6006" style="stroke:#A80036;stroke-width:1.0;"/><!--MD5=[97d4ebd15be5005f1f0f3804d7c2b6a2]
link RegistoOrganizacoes to EnderecoPostal--><path codeLine="82" d="M1003.16,400.4006 C1031.02,410.8506 1052.74,422.8906 1063.5,436.6406 C1133.33,525.9106 1130.03,599.8906 1063.5,691.6406 C1025.82,743.6006 958.75,767.5206 898.7,778.3106 " fill="none" id="RegistoOrganizacoes-to-EnderecoPostal" style="stroke:#A80036;stroke-width:1.0;stroke-dasharray:7.0,7.0;"/><polygon fill="#A80036" points="893.65,779.1906,903.2023,781.5894,898.5761,778.3339,901.8315,773.7077,893.65,779.1906" style="stroke:#A80036;stroke-width:1.0;"/><!--MD5=[8c6904594d459f8ce3ed104d2d0c51af]
PlantUML version 1.2020.22(Sun Dec 06 09:36:27 GMT 2020)
(GPL source distribution)
Java Runtime: Java(TM) SE Runtime Environment
JVM: Java HotSpot(TM) 64-Bit Server VM
Default Encoding: Cp1252
Language: en
Country: US
--></g></svg>