<?xml version="1.0" encoding="UTF-8" standalone="no"?><svg xmlns="http://www.w3.org/2000/svg" xmlns:xlink="http://www.w3.org/1999/xlink" contentScriptType="application/ecmascript" contentStyleType="text/css" height="852px" preserveAspectRatio="none" style="width:1505px;height:852px;" version="1.1" viewBox="0 0 1505 852" width="1505px" zoomAndPan="magnify"><defs><filter height="300%" id="ftekotmmzumfy" width="300%" x="-1" y="-1"><feGaussianBlur result="blurOut" stdDeviation="2.0"/><feColorMatrix in="blurOut" result="blurOut2" type="matrix" values="0 0 0 0 0 0 0 0 0 0 0 0 0 0 0 0 0 0 .4 0"/><feOffset dx="4.0" dy="4.0" in="blurOut2" result="blurOut3"/><feBlend in="SourceGraphic" in2="blurOut3" mode="normal"/></filter></defs><g><text fill="#000000" font-family="sans-serif" font-size="18" lengthAdjust="spacing" textLength="479" x="506.75" y="16.708">UC01 - Registar Organização - Diagrama de Classes</text><!--MD5=[26c5f3be5170126d62449270b7dc8f97]
class RegistarOrganizacaoUI--><rect codeLine="5" fill="#FEFECE" filter="url(#ftekotmmzumfy)" height="48" id="RegistarOrganizacaoUI" style="stroke:#A80036;stroke-width:1.5;" width="169" x="658.5" y="27.9531"/><ellipse cx="673.5" cy="43.9531" fill="#ADD1B2" rx="11" ry="11" style="stroke:#A80036;stroke-width:1.0;"/><path d="M675.8438,39.625 C674.9063,39.1875 674.3125,39.0469 673.4375,39.0469 C670.8125,39.0469 668.8125,41.125 668.8125,43.8438 L668.8125,44.9688 C668.8125,47.5469 670.9219,49.4375 673.8125,49.4375 C675.0313,49.4375 676.1875,49.1406 676.9375,48.5938 C677.5156,48.1875 677.8438,47.7344 677.8438,47.3438 C677.8438,46.8906 677.4531,46.5 676.9844,46.5 C676.7656,46.5 676.5625,46.5781 676.375,46.7656 C675.9219,47.25 675.9219,47.25 675.7344,47.3438 C675.3125,47.6094 674.625,47.7344 673.8594,47.7344 C671.8125,47.7344 670.5156,46.6406 670.5156,44.9375 L670.5156,43.8438 C670.5156,42.0625 671.7656,40.75 673.5,40.75 C674.0781,40.75 674.6875,40.9063 675.1563,41.1563 C675.6406,41.4375 675.8125,41.6563 675.9063,42.0625 C675.9688,42.4688 676,42.5938 676.1406,42.7188 C676.2813,42.8594 676.5156,42.9688 676.7344,42.9688 C677,42.9688 677.2656,42.8281 677.4375,42.6094 C677.5469,42.4531 677.5781,42.2656 677.5781,41.8438 L677.5781,40.4219 C677.5781,39.9844 677.5625,39.8594 677.4688,39.7031 C677.3125,39.4375 677.0313,39.2969 676.7344,39.2969 C676.4375,39.2969 676.2344,39.3906 676.0156,39.7031 L675.8438,39.625 Z " fill="#000000"/><text fill="#000000" font-family="sans-serif" font-size="12" lengthAdjust="spacing" textLength="137" x="687.5" y="48.1074">RegistarOrganizacaoUI</text><line style="stroke:#A80036;stroke-width:1.5;" x1="659.5" x2="826.5" y1="59.9531" y2="59.9531"/><line style="stroke:#A80036;stroke-width:1.5;" x1="659.5" x2="826.5" y1="67.9531" y2="67.9531"/><!--MD5=[dd5ad71b12dabe0adbc098c60a8c9669]
class RegistarOrganizacaoController--><rect codeLine="8" fill="#FEFECE" filter="url(#ftekotmmzumfy)" height="73.6094" id="RegistarOrganizacaoController" style="stroke:#A80036;stroke-width:1.5;" width="708" x="389" y="136.9531"/><ellipse cx="646.75" cy="152.9531" fill="#ADD1B2" rx="11" ry="11" style="stroke:#A80036;stroke-width:1.0;"/><path d="M649.0938,148.625 C648.1563,148.1875 647.5625,148.0469 646.6875,148.0469 C644.0625,148.0469 642.0625,150.125 642.0625,152.8438 L642.0625,153.9688 C642.0625,156.5469 644.1719,158.4375 647.0625,158.4375 C648.2813,158.4375 649.4375,158.1406 650.1875,157.5938 C650.7656,157.1875 651.0938,156.7344 651.0938,156.3438 C651.0938,155.8906 650.7031,155.5 650.2344,155.5 C650.0156,155.5 649.8125,155.5781 649.625,155.7656 C649.1719,156.25 649.1719,156.25 648.9844,156.3438 C648.5625,156.6094 647.875,156.7344 647.1094,156.7344 C645.0625,156.7344 643.7656,155.6406 643.7656,153.9375 L643.7656,152.8438 C643.7656,151.0625 645.0156,149.75 646.75,149.75 C647.3281,149.75 647.9375,149.9063 648.4063,150.1563 C648.8906,150.4375 649.0625,150.6563 649.1563,151.0625 C649.2188,151.4688 649.25,151.5938 649.3906,151.7188 C649.5313,151.8594 649.7656,151.9688 649.9844,151.9688 C650.25,151.9688 650.5156,151.8281 650.6875,151.6094 C650.7969,151.4531 650.8281,151.2656 650.8281,150.8438 L650.8281,149.4219 C650.8281,148.9844 650.8125,148.8594 650.7188,148.7031 C650.5625,148.4375 650.2813,148.2969 649.9844,148.2969 C649.6875,148.2969 649.4844,148.3906 649.2656,148.7031 L649.0938,148.625 Z " fill="#000000"/><text fill="#000000" font-family="sans-serif" font-size="12" lengthAdjust="spacing" textLength="184" x="667.25" y="157.1074">RegistarOrganizacaoController</text><line style="stroke:#A80036;stroke-width:1.5;" x1="390" x2="1096" y1="168.9531" y2="168.9531"/><line style="stroke:#A80036;stroke-width:1.5;" x1="390" x2="1096" y1="176.9531" y2="176.9531"/><ellipse cx="400" cy="187.9531" fill="#84BE84" rx="3" ry="3" style="stroke:#038048;stroke-width:1.0;"/><text fill="#000000" font-family="sans-serif" font-size="11" lengthAdjust="spacing" textLength="682" x="409" y="191.1636">novaOrganizacao(nome, NIF, endLocal, endCodPOstal, endLocalidade, tlf, site, email, nomeG, funcao, tlfG, emailG, pwd)</text><ellipse cx="400" cy="200.7578" fill="#84BE84" rx="3" ry="3" style="stroke:#038048;stroke-width:1.0;"/><text fill="#000000" font-family="sans-serif" font-size="11" lengthAdjust="spacing" textLength="118" x="409" y="203.9683">registaOrganizacao()</text><!--MD5=[807977ceb130c090ed5febfb6de2bdea]
class Organizacao--><rect codeLine="13" fill="#FEFECE" filter="url(#ftekotmmzumfy)" height="150.4375" id="Organizacao" style="stroke:#A80036;stroke-width:1.5;" width="458" x="7" y="473.9531"/><ellipse cx="193.75" cy="489.9531" fill="#ADD1B2" rx="11" ry="11" style="stroke:#A80036;stroke-width:1.0;"/><path d="M196.0938,485.625 C195.1563,485.1875 194.5625,485.0469 193.6875,485.0469 C191.0625,485.0469 189.0625,487.125 189.0625,489.8438 L189.0625,490.9688 C189.0625,493.5469 191.1719,495.4375 194.0625,495.4375 C195.2813,495.4375 196.4375,495.1406 197.1875,494.5938 C197.7656,494.1875 198.0938,493.7344 198.0938,493.3438 C198.0938,492.8906 197.7031,492.5 197.2344,492.5 C197.0156,492.5 196.8125,492.5781 196.625,492.7656 C196.1719,493.25 196.1719,493.25 195.9844,493.3438 C195.5625,493.6094 194.875,493.7344 194.1094,493.7344 C192.0625,493.7344 190.7656,492.6406 190.7656,490.9375 L190.7656,489.8438 C190.7656,488.0625 192.0156,486.75 193.75,486.75 C194.3281,486.75 194.9375,486.9063 195.4063,487.1563 C195.8906,487.4375 196.0625,487.6563 196.1563,488.0625 C196.2188,488.4688 196.25,488.5938 196.3906,488.7188 C196.5313,488.8594 196.7656,488.9688 196.9844,488.9688 C197.25,488.9688 197.5156,488.8281 197.6875,488.6094 C197.7969,488.4531 197.8281,488.2656 197.8281,487.8438 L197.8281,486.4219 C197.8281,485.9844 197.8125,485.8594 197.7188,485.7031 C197.5625,485.4375 197.2813,485.2969 196.9844,485.2969 C196.6875,485.2969 196.4844,485.3906 196.2656,485.7031 L196.0938,485.625 Z " fill="#000000"/><text fill="#000000" font-family="sans-serif" font-size="12" lengthAdjust="spacing" textLength="76" x="214.25" y="494.1074">Organizacao</text><line style="stroke:#A80036;stroke-width:1.5;" x1="8" x2="464" y1="505.9531" y2="505.9531"/><rect fill="none" height="6" style="stroke:#C82930;stroke-width:1.0;" width="6" x="15" y="513.9531"/><text fill="#000000" font-family="sans-serif" font-size="11" lengthAdjust="spacing" textLength="70" x="27" y="520.1636">String nome</text><rect fill="none" height="6" style="stroke:#C82930;stroke-width:1.0;" width="6" x="15" y="526.7578"/><text fill="#000000" font-family="sans-serif" font-size="11" lengthAdjust="spacing" textLength="54" x="27" y="532.9683">String NIF</text><rect fill="none" height="6" style="stroke:#C82930;stroke-width:1.0;" width="6" x="15" y="539.5625"/><text fill="#000000" font-family="sans-serif" font-size="11" lengthAdjust="spacing" textLength="82" x="27" y="545.7729">String website</text><rect fill="none" height="6" style="stroke:#C82930;stroke-width:1.0;" width="6" x="15" y="552.3672"/><text fill="#000000" font-family="sans-serif" font-size="11" lengthAdjust="spacing" textLength="86" x="27" y="558.5776">String telefone</text><rect fill="none" height="6" style="stroke:#C82930;stroke-width:1.0;" width="6" x="15" y="565.1719"/><text fill="#000000" font-family="sans-serif" font-size="11" lengthAdjust="spacing" textLength="69" x="27" y="571.3823">String email</text><line style="stroke:#A80036;stroke-width:1.5;" x1="8" x2="464" y1="577.9766" y2="577.9766"/><ellipse cx="18" cy="588.9766" fill="#84BE84" rx="3" ry="3" style="stroke:#038048;stroke-width:1.0;"/><text fill="#000000" font-family="sans-serif" font-size="11" lengthAdjust="spacing" textLength="432" x="27" y="592.187">Organizacao(nome,NIF,website,telefone,email,endereco,gestorColaborador)</text><ellipse cx="18" cy="601.7813" fill="#84BE84" rx="3" ry="3" style="stroke:#038048;stroke-width:1.0;"/><text fill="#000000" font-family="sans-serif" font-size="11" lengthAdjust="spacing" textLength="326" x="27" y="604.9917">EnderecoPOstal novoEndereco(local,codPostal,localidade)</text><ellipse cx="18" cy="614.5859" fill="#84BE84" rx="3" ry="3" style="stroke:#038048;stroke-width:1.0;"/><text fill="#000000" font-family="sans-serif" font-size="11" lengthAdjust="spacing" textLength="299" x="27" y="617.7964">Colaborador novoColaborador(nome,funcao,tlf,email)</text><!--MD5=[ac8682ea5466d223e49472789fb200d2]
class Colaborador--><rect codeLine="24" fill="#FEFECE" filter="url(#ftekotmmzumfy)" height="137.6328" id="Colaborador" style="stroke:#A80036;stroke-width:1.5;" width="225" x="191.5" y="700.9531"/><ellipse cx="262.25" cy="716.9531" fill="#ADD1B2" rx="11" ry="11" style="stroke:#A80036;stroke-width:1.0;"/><path d="M264.5938,712.625 C263.6563,712.1875 263.0625,712.0469 262.1875,712.0469 C259.5625,712.0469 257.5625,714.125 257.5625,716.8438 L257.5625,717.9688 C257.5625,720.5469 259.6719,722.4375 262.5625,722.4375 C263.7813,722.4375 264.9375,722.1406 265.6875,721.5938 C266.2656,721.1875 266.5938,720.7344 266.5938,720.3438 C266.5938,719.8906 266.2031,719.5 265.7344,719.5 C265.5156,719.5 265.3125,719.5781 265.125,719.7656 C264.6719,720.25 264.6719,720.25 264.4844,720.3438 C264.0625,720.6094 263.375,720.7344 262.6094,720.7344 C260.5625,720.7344 259.2656,719.6406 259.2656,717.9375 L259.2656,716.8438 C259.2656,715.0625 260.5156,713.75 262.25,713.75 C262.8281,713.75 263.4375,713.9063 263.9063,714.1563 C264.3906,714.4375 264.5625,714.6563 264.6563,715.0625 C264.7188,715.4688 264.75,715.5938 264.8906,715.7188 C265.0313,715.8594 265.2656,715.9688 265.4844,715.9688 C265.75,715.9688 266.0156,715.8281 266.1875,715.6094 C266.2969,715.4531 266.3281,715.2656 266.3281,714.8438 L266.3281,713.4219 C266.3281,712.9844 266.3125,712.8594 266.2188,712.7031 C266.0625,712.4375 265.7813,712.2969 265.4844,712.2969 C265.1875,712.2969 264.9844,712.3906 264.7656,712.7031 L264.5938,712.625 Z " fill="#000000"/><text fill="#000000" font-family="sans-serif" font-size="12" lengthAdjust="spacing" textLength="75" x="282.75" y="721.1074">Colaborador</text><line style="stroke:#A80036;stroke-width:1.5;" x1="192.5" x2="415.5" y1="732.9531" y2="732.9531"/><rect fill="none" height="6" style="stroke:#C82930;stroke-width:1.0;" width="6" x="199.5" y="740.9531"/><text fill="#000000" font-family="sans-serif" font-size="11" lengthAdjust="spacing" textLength="70" x="211.5" y="747.1636">String nome</text><rect fill="none" height="6" style="stroke:#C82930;stroke-width:1.0;" width="6" x="199.5" y="753.7578"/><text fill="#000000" font-family="sans-serif" font-size="11" lengthAdjust="spacing" textLength="75" x="211.5" y="759.9683">String funcao</text><rect fill="none" height="6" style="stroke:#C82930;stroke-width:1.0;" width="6" x="199.5" y="766.5625"/><text fill="#000000" font-family="sans-serif" font-size="11" lengthAdjust="spacing" textLength="86" x="211.5" y="772.7729">String telefone</text><rect fill="none" height="6" style="stroke:#C82930;stroke-width:1.0;" width="6" x="199.5" y="779.3672"/><text fill="#000000" font-family="sans-serif" font-size="11" lengthAdjust="spacing" textLength="69" x="211.5" y="785.5776">String email</text><line style="stroke:#A80036;stroke-width:1.5;" x1="192.5" x2="415.5" y1="792.1719" y2="792.1719"/><ellipse cx="202.5" cy="803.1719" fill="#84BE84" rx="3" ry="3" style="stroke:#038048;stroke-width:1.0;"/><text fill="#000000" font-family="sans-serif" font-size="11" lengthAdjust="spacing" textLength="199" x="211.5" y="806.3823">Colaborador(nome,funcao,tlf,email)</text><ellipse cx="202.5" cy="815.9766" fill="#84BE84" rx="3" ry="3" style="stroke:#038048;stroke-width:1.0;"/><text fill="#000000" font-family="sans-serif" font-size="11" lengthAdjust="spacing" textLength="98" x="211.5" y="819.187">String getNome()</text><ellipse cx="202.5" cy="828.7813" fill="#84BE84" rx="3" ry="3" style="stroke:#038048;stroke-width:1.0;"/><text fill="#000000" font-family="sans-serif" font-size="11" lengthAdjust="spacing" textLength="95" x="211.5" y="831.9917">String getEmail()</text><!--MD5=[dcda844062f930f807532403427d3023]
class EnderecoPostal--><rect codeLine="34" fill="#FEFECE" filter="url(#ftekotmmzumfy)" height="99.2188" id="EnderecoPostal" style="stroke:#A80036;stroke-width:1.5;" width="264" x="775" y="720.4531"/><ellipse cx="856.25" cy="736.4531" fill="#ADD1B2" rx="11" ry="11" style="stroke:#A80036;stroke-width:1.0;"/><path d="M858.5938,732.125 C857.6563,731.6875 857.0625,731.5469 856.1875,731.5469 C853.5625,731.5469 851.5625,733.625 851.5625,736.3438 L851.5625,737.4688 C851.5625,740.0469 853.6719,741.9375 856.5625,741.9375 C857.7813,741.9375 858.9375,741.6406 859.6875,741.0938 C860.2656,740.6875 860.5938,740.2344 860.5938,739.8438 C860.5938,739.3906 860.2031,739 859.7344,739 C859.5156,739 859.3125,739.0781 859.125,739.2656 C858.6719,739.75 858.6719,739.75 858.4844,739.8438 C858.0625,740.1094 857.375,740.2344 856.6094,740.2344 C854.5625,740.2344 853.2656,739.1406 853.2656,737.4375 L853.2656,736.3438 C853.2656,734.5625 854.5156,733.25 856.25,733.25 C856.8281,733.25 857.4375,733.4063 857.9063,733.6563 C858.3906,733.9375 858.5625,734.1563 858.6563,734.5625 C858.7188,734.9688 858.75,735.0938 858.8906,735.2188 C859.0313,735.3594 859.2656,735.4688 859.4844,735.4688 C859.75,735.4688 860.0156,735.3281 860.1875,735.1094 C860.2969,734.9531 860.3281,734.7656 860.3281,734.3438 L860.3281,732.9219 C860.3281,732.4844 860.3125,732.3594 860.2188,732.2031 C860.0625,731.9375 859.7813,731.7969 859.4844,731.7969 C859.1875,731.7969 858.9844,731.8906 858.7656,732.2031 L858.5938,732.125 Z " fill="#000000"/><text fill="#000000" font-family="sans-serif" font-size="12" lengthAdjust="spacing" textLength="93" x="876.75" y="740.6074">EnderecoPostal</text><line style="stroke:#A80036;stroke-width:1.5;" x1="776" x2="1038" y1="752.4531" y2="752.4531"/><rect fill="none" height="6" style="stroke:#C82930;stroke-width:1.0;" width="6" x="783" y="760.4531"/><text fill="#000000" font-family="sans-serif" font-size="11" lengthAdjust="spacing" textLength="63" x="795" y="766.6636">String local</text><rect fill="none" height="6" style="stroke:#C82930;stroke-width:1.0;" width="6" x="783" y="773.2578"/><text fill="#000000" font-family="sans-serif" font-size="11" lengthAdjust="spacing" textLength="90" x="795" y="779.4683">String codPostal</text><rect fill="none" height="6" style="stroke:#C82930;stroke-width:1.0;" width="6" x="783" y="786.0625"/><text fill="#000000" font-family="sans-serif" font-size="11" lengthAdjust="spacing" textLength="95" x="795" y="792.2729">String localidade</text><line style="stroke:#A80036;stroke-width:1.5;" x1="776" x2="1038" y1="798.8672" y2="798.8672"/><ellipse cx="786" cy="809.8672" fill="#84BE84" rx="3" ry="3" style="stroke:#038048;stroke-width:1.0;"/><text fill="#000000" font-family="sans-serif" font-size="11" lengthAdjust="spacing" textLength="238" x="795" y="813.0776">EnderecoPostal(local,codPostal,localidade)</text><!--MD5=[548bd8e9f0dc9261535ca7b7174ac939]
class RegistoOrganizacoes--><rect codeLine="41" fill="#FEFECE" filter="url(#ftekotmmzumfy)" height="124.8281" id="RegistoOrganizacoes" style="stroke:#A80036;stroke-width:1.5;" width="753" x="366.5" y="271.9531"/><ellipse cx="674.25" cy="287.9531" fill="#ADD1B2" rx="11" ry="11" style="stroke:#A80036;stroke-width:1.0;"/><path d="M676.5938,283.625 C675.6563,283.1875 675.0625,283.0469 674.1875,283.0469 C671.5625,283.0469 669.5625,285.125 669.5625,287.8438 L669.5625,288.9688 C669.5625,291.5469 671.6719,293.4375 674.5625,293.4375 C675.7813,293.4375 676.9375,293.1406 677.6875,292.5938 C678.2656,292.1875 678.5938,291.7344 678.5938,291.3438 C678.5938,290.8906 678.2031,290.5 677.7344,290.5 C677.5156,290.5 677.3125,290.5781 677.125,290.7656 C676.6719,291.25 676.6719,291.25 676.4844,291.3438 C676.0625,291.6094 675.375,291.7344 674.6094,291.7344 C672.5625,291.7344 671.2656,290.6406 671.2656,288.9375 L671.2656,287.8438 C671.2656,286.0625 672.5156,284.75 674.25,284.75 C674.8281,284.75 675.4375,284.9063 675.9063,285.1563 C676.3906,285.4375 676.5625,285.6563 676.6563,286.0625 C676.7188,286.4688 676.75,286.5938 676.8906,286.7188 C677.0313,286.8594 677.2656,286.9688 677.4844,286.9688 C677.75,286.9688 678.0156,286.8281 678.1875,286.6094 C678.2969,286.4531 678.3281,286.2656 678.3281,285.8438 L678.3281,284.4219 C678.3281,283.9844 678.3125,283.8594 678.2188,283.7031 C678.0625,283.4375 677.7813,283.2969 677.4844,283.2969 C677.1875,283.2969 676.9844,283.3906 676.7656,283.7031 L676.5938,283.625 Z " fill="#000000"/><text fill="#000000" font-family="sans-serif" font-size="12" lengthAdjust="spacing" textLength="129" x="694.75" y="292.1074">RegistoOrganizacoes</text><line style="stroke:#A80036;stroke-width:1.5;" x1="367.5" x2="1118.5" y1="303.9531" y2="303.9531"/><line style="stroke:#A80036;stroke-width:1.5;" x1="367.5" x2="1118.5" y1="311.9531" y2="311.9531"/><ellipse cx="377.5" cy="322.9531" fill="#84BE84" rx="3" ry="3" style="stroke:#038048;stroke-width:1.0;"/><text fill="#000000" font-family="sans-serif" font-size="11" lengthAdjust="spacing" textLength="727" x="386.5" y="326.1636">Organizacao novaOrganizacao(nome, NIF, endLocal, endCodPOstal, endLocalidade, tlf, site, email, nomeG, funcao, tlfG, emailG)</text><ellipse cx="377.5" cy="335.7578" fill="#84BE84" rx="3" ry="3" style="stroke:#038048;stroke-width:1.0;"/><text fill="#000000" font-family="sans-serif" font-size="11" lengthAdjust="spacing" textLength="206" x="386.5" y="338.9683">validaOrganizacao(Organizacao org)</text><ellipse cx="377.5" cy="348.5625" fill="#84BE84" rx="3" ry="3" style="stroke:#038048;stroke-width:1.0;"/><text fill="#000000" font-family="sans-serif" font-size="11" lengthAdjust="spacing" textLength="211" x="386.5" y="351.7729">registaOrganizacao(Organizacao org)</text><rect fill="#F24D5C" height="6" style="stroke:#C82930;stroke-width:1.0;" width="6" x="374.5" y="358.3672"/><text fill="#000000" font-family="sans-serif" font-size="11" lengthAdjust="spacing" textLength="197" x="386.5" y="364.5776">addOrganizacao (Organizacao org)</text><rect fill="#F24D5C" height="6" style="stroke:#C82930;stroke-width:1.0;" width="6" x="374.5" y="371.1719"/><text fill="#000000" font-family="sans-serif" font-size="11" lengthAdjust="spacing" textLength="273" x="386.5" y="377.3823">registaGestorComoUtilizador(Colaborador colab)</text><rect fill="#F24D5C" height="6" style="stroke:#C82930;stroke-width:1.0;" width="6" x="374.5" y="383.9766"/><text fill="#000000" font-family="sans-serif" font-size="11" lengthAdjust="spacing" textLength="207" x="386.5" y="390.187">enviaPwd(String emailG, String pwd)</text><!--MD5=[ed5c6b4e01c9b1c9efc043b411d08420]
class AutorizacaoFacade--><rect codeLine="50" fill="#FEFECE" filter="url(#ftekotmmzumfy)" height="60.8047" id="AutorizacaoFacade" style="stroke:#A80036;stroke-width:1.5;" width="358" x="500" y="518.4531"/><ellipse cx="617.25" cy="534.4531" fill="#ADD1B2" rx="11" ry="11" style="stroke:#A80036;stroke-width:1.0;"/><path d="M619.5938,530.125 C618.6563,529.6875 618.0625,529.5469 617.1875,529.5469 C614.5625,529.5469 612.5625,531.625 612.5625,534.3438 L612.5625,535.4688 C612.5625,538.0469 614.6719,539.9375 617.5625,539.9375 C618.7813,539.9375 619.9375,539.6406 620.6875,539.0938 C621.2656,538.6875 621.5938,538.2344 621.5938,537.8438 C621.5938,537.3906 621.2031,537 620.7344,537 C620.5156,537 620.3125,537.0781 620.125,537.2656 C619.6719,537.75 619.6719,537.75 619.4844,537.8438 C619.0625,538.1094 618.375,538.2344 617.6094,538.2344 C615.5625,538.2344 614.2656,537.1406 614.2656,535.4375 L614.2656,534.3438 C614.2656,532.5625 615.5156,531.25 617.25,531.25 C617.8281,531.25 618.4375,531.4063 618.9063,531.6563 C619.3906,531.9375 619.5625,532.1563 619.6563,532.5625 C619.7188,532.9688 619.75,533.0938 619.8906,533.2188 C620.0313,533.3594 620.2656,533.4688 620.4844,533.4688 C620.75,533.4688 621.0156,533.3281 621.1875,533.1094 C621.2969,532.9531 621.3281,532.7656 621.3281,532.3438 L621.3281,530.9219 C621.3281,530.4844 621.3125,530.3594 621.2188,530.2031 C621.0625,529.9375 620.7813,529.7969 620.4844,529.7969 C620.1875,529.7969 619.9844,529.8906 619.7656,530.2031 L619.5938,530.125 Z " fill="#000000"/><text fill="#000000" font-family="sans-serif" font-size="12" lengthAdjust="spacing" textLength="115" x="637.75" y="538.6074">AutorizacaoFacade</text><line style="stroke:#A80036;stroke-width:1.5;" x1="501" x2="857" y1="550.4531" y2="550.4531"/><line style="stroke:#A80036;stroke-width:1.5;" x1="501" x2="857" y1="558.4531" y2="558.4531"/><ellipse cx="511" cy="569.4531" fill="#84BE84" rx="3" ry="3" style="stroke:#038048;stroke-width:1.0;"/><text fill="#000000" font-family="sans-serif" font-size="11" lengthAdjust="spacing" textLength="332" x="520" y="572.6636">registaUtilizadorComPapeis(nomeG,emailG,pwd,listaPapel)</text><!--MD5=[37bf6c08f758502d5d1a5531d651ab43]
class AlgoritmoGeradorPasswords--><rect codeLine="54" fill="#FEFECE" filter="url(#ftekotmmzumfy)" height="60.8047" id="AlgoritmoGeradorPasswords" style="stroke:#A80036;stroke-width:1.5;" width="313" x="893.5" y="518.4531"/><ellipse cx="961.75" cy="534.4531" fill="#B4A7E5" rx="11" ry="11" style="stroke:#A80036;stroke-width:1.0;"/><path d="M962.7031,531.2344 L964.4219,531.2344 C964.8125,531.2344 965,531.2031 965.125,531.125 C965.3906,530.9688 965.5313,530.6875 965.5313,530.3906 C965.5313,530.125 965.4219,529.8594 965.1875,529.6875 C965.0156,529.5781 964.875,529.5469 964.4219,529.5469 L959.2813,529.5469 C958.8438,529.5469 958.7188,529.5625 958.5625,529.6563 C958.3125,529.8125 958.1563,530.1094 958.1563,530.3906 C958.1563,530.6719 958.2969,530.9219 958.5156,531.0938 C958.6719,531.2031 958.8594,531.2344 959.2813,531.2344 L961,531.2344 L961,537.75 L959.2813,537.75 C958.8438,537.75 958.7188,537.7656 958.5625,537.875 C958.3125,538.0313 958.1563,538.3125 958.1563,538.6094 C958.1563,538.8594 958.2969,539.125 958.5156,539.2813 C958.6719,539.4063 958.875,539.4531 959.2813,539.4531 L964.4219,539.4531 C965.1719,539.4531 965.5313,539.1719 965.5313,538.6094 C965.5313,538.3281 965.4219,538.0781 965.1875,537.9063 C965.0156,537.7813 964.875,537.75 964.4219,537.75 L962.7031,537.75 L962.7031,531.2344 Z " fill="#000000"/><text fill="#000000" font-family="sans-serif" font-size="12" font-style="italic" lengthAdjust="spacing" textLength="168" x="982.25" y="538.6074">AlgoritmoGeradorPasswords</text><line style="stroke:#A80036;stroke-width:1.5;" x1="894.5" x2="1205.5" y1="550.4531" y2="550.4531"/><line style="stroke:#A80036;stroke-width:1.5;" x1="894.5" x2="1205.5" y1="558.4531" y2="558.4531"/><ellipse cx="904.5" cy="569.4531" fill="#84BE84" rx="3" ry="3" style="stroke:#038048;stroke-width:1.0;"/><text fill="#000000" font-family="sans-serif" font-size="11" lengthAdjust="spacing" textLength="287" x="913.5" y="572.6636">String geraPassword(String nomeG, String emailG)</text><!--MD5=[ecaed46f78f8cfe1e9ce18477649be18]
class Plataforma--><rect codeLine="58" fill="#FEFECE" filter="url(#ftekotmmzumfy)" height="99.2188" id="Plataforma" style="stroke:#A80036;stroke-width:1.5;" width="337" x="1154.5" y="284.9531"/><ellipse cx="1287.75" cy="300.9531" fill="#ADD1B2" rx="11" ry="11" style="stroke:#A80036;stroke-width:1.0;"/><path d="M1290.0938,296.625 C1289.1563,296.1875 1288.5625,296.0469 1287.6875,296.0469 C1285.0625,296.0469 1283.0625,298.125 1283.0625,300.8438 L1283.0625,301.9688 C1283.0625,304.5469 1285.1719,306.4375 1288.0625,306.4375 C1289.2813,306.4375 1290.4375,306.1406 1291.1875,305.5938 C1291.7656,305.1875 1292.0938,304.7344 1292.0938,304.3438 C1292.0938,303.8906 1291.7031,303.5 1291.2344,303.5 C1291.0156,303.5 1290.8125,303.5781 1290.625,303.7656 C1290.1719,304.25 1290.1719,304.25 1289.9844,304.3438 C1289.5625,304.6094 1288.875,304.7344 1288.1094,304.7344 C1286.0625,304.7344 1284.7656,303.6406 1284.7656,301.9375 L1284.7656,300.8438 C1284.7656,299.0625 1286.0156,297.75 1287.75,297.75 C1288.3281,297.75 1288.9375,297.9063 1289.4063,298.1563 C1289.8906,298.4375 1290.0625,298.6563 1290.1563,299.0625 C1290.2188,299.4688 1290.25,299.5938 1290.3906,299.7188 C1290.5313,299.8594 1290.7656,299.9688 1290.9844,299.9688 C1291.25,299.9688 1291.5156,299.8281 1291.6875,299.6094 C1291.7969,299.4531 1291.8281,299.2656 1291.8281,298.8438 L1291.8281,297.4219 C1291.8281,296.9844 1291.8125,296.8594 1291.7188,296.7031 C1291.5625,296.4375 1291.2813,296.2969 1290.9844,296.2969 C1290.6875,296.2969 1290.4844,296.3906 1290.2656,296.7031 L1290.0938,296.625 Z " fill="#000000"/><text fill="#000000" font-family="sans-serif" font-size="12" lengthAdjust="spacing" textLength="62" x="1308.25" y="305.1074">Plataforma</text><line style="stroke:#A80036;stroke-width:1.5;" x1="1155.5" x2="1490.5" y1="316.9531" y2="316.9531"/><rect fill="none" height="6" style="stroke:#C82930;stroke-width:1.0;" width="6" x="1162.5" y="324.9531"/><text fill="#000000" font-family="sans-serif" font-size="11" lengthAdjust="spacing" textLength="102" x="1174.5" y="331.1636">String designacao</text><line style="stroke:#A80036;stroke-width:1.5;" x1="1155.5" x2="1490.5" y1="337.7578" y2="337.7578"/><ellipse cx="1165.5" cy="348.7578" fill="#84BE84" rx="3" ry="3" style="stroke:#038048;stroke-width:1.0;"/><text fill="#000000" font-family="sans-serif" font-size="11" lengthAdjust="spacing" textLength="271" x="1174.5" y="351.9683">RegistoOrganizacoes getRegistoOrganizacoes()</text><ellipse cx="1165.5" cy="361.5625" fill="#84BE84" rx="3" ry="3" style="stroke:#038048;stroke-width:1.0;"/><text fill="#000000" font-family="sans-serif" font-size="11" lengthAdjust="spacing" textLength="247" x="1174.5" y="364.7729">AutorizacaoFacade getAutorizacaoFacade()</text><ellipse cx="1165.5" cy="374.3672" fill="#84BE84" rx="3" ry="3" style="stroke:#038048;stroke-width:1.0;"/><text fill="#000000" font-family="sans-serif" font-size="11" lengthAdjust="spacing" textLength="311" x="1174.5" y="377.5776">AlgoritmoGeradorPasswords getAlgoritmoGeradorPwd()</text><!--MD5=[5968e6aa320025ed2619ac26e0f01233]
link RegistarOrganizacaoUI to RegistarOrganizacaoController--><path codeLine="65" d="M743,76.0901 C743,91.7781 743,112.9561 743,131.5081 " fill="none" id="RegistarOrganizacaoUI-to-RegistarOrganizacaoController" style="stroke:#A80036;stroke-width:1.0;stroke-dasharray:7.0,7.0;"/><polygon fill="#A80036" points="743,136.6641,747,127.6641,743,131.6641,739,127.6641,743,136.6641" style="stroke:#A80036;stroke-width:1.0;"/><!--MD5=[35b989c5d7ca8b09d8ca855f18139f3a]
link RegistarOrganizacaoController to RegistoOrganizacoes--><path codeLine="66" d="M743,211.3161 C743,227.6901 743,247.5601 743,266.4741 " fill="none" id="RegistarOrganizacaoController-to-RegistoOrganizacoes" style="stroke:#A80036;stroke-width:1.0;stroke-dasharray:7.0,7.0;"/><polygon fill="#A80036" points="743,271.7791,747,262.7791,743,266.7791,739,262.7791,743,271.7791" style="stroke:#A80036;stroke-width:1.0;"/><!--MD5=[989fd8e1df01efc14a26ec70914d6dfa]
link RegistarOrganizacaoController to Organizacao--><path codeLine="67" d="M523.5,210.9991 C448.828,226.9891 377.104,247.7091 349,271.9531 C291.038,321.9541 262.335,406.2551 248.429,468.5621 " fill="none" id="RegistarOrganizacaoController-to-Organizacao" style="stroke:#A80036;stroke-width:1.0;stroke-dasharray:7.0,7.0;"/><polygon fill="#A80036" points="247.291,473.7631,253.1221,465.826,248.3596,468.8787,245.3069,464.1162,247.291,473.7631" style="stroke:#A80036;stroke-width:1.0;"/><!--MD5=[070ebfe6f744f37053d6e1e171d02a8b]
link RegistarOrganizacaoController to Plataforma--><path codeLine="68" d="M901.435,210.9801 C973.635,228.1611 1060,249.7801 1137,271.9531 C1149.33,275.5051 1162.07,279.3461 1174.83,283.3141 " fill="none" id="RegistarOrganizacaoController-to-Plataforma" style="stroke:#A80036;stroke-width:1.0;stroke-dasharray:7.0,7.0;"/><polygon fill="#A80036" points="1179.91,284.9001,1172.5056,278.4059,1175.136,283.414,1170.1278,286.0444,1179.91,284.9001" style="stroke:#A80036;stroke-width:1.0;"/><!--MD5=[567db691f9836c63f305bad1024cbc66]
link Organizacao to Colaborador--><path codeLine="69" d="M226.336,624.0381 C226.432,639.8101 228.205,656.1611 233,670.9531 C235.788,679.5531 239.645,688.0311 244.132,696.1851 " fill="none" id="Organizacao-to-Colaborador" style="stroke:#A80036;stroke-width:1.0;"/><polygon fill="#A80036" points="246.687,700.6801,245.7163,690.8792,244.2158,696.3335,238.7616,694.8331,246.687,700.6801" style="stroke:#A80036;stroke-width:1.0;"/><text fill="#000000" font-family="sans-serif" font-size="13" lengthAdjust="spacing" textLength="26" x="234" y="667.02">tem</text><text fill="#000000" font-family="sans-serif" font-size="13" lengthAdjust="spacing" textLength="8" x="216.9269" y="644.6059">1</text><text fill="#000000" font-family="sans-serif" font-size="13" lengthAdjust="spacing" textLength="23" x="216.5907" y="689.8556">1..*</text><!--MD5=[567db691f9836c63f305bad1024cbc66]
link Organizacao to Colaborador--><path codeLine="70" d="M259.022,624.0961 C266.216,647.2661 274.145,672.8021 281.316,695.8961 " fill="none" id="Organizacao-to-Colaborador-1" style="stroke:#A80036;stroke-width:1.0;"/><polygon fill="#A80036" points="282.834,700.7861,283.9871,691.005,281.3522,696.0107,276.3465,693.3758,282.834,700.7861" style="stroke:#A80036;stroke-width:1.0;"/><text fill="#000000" font-family="sans-serif" font-size="13" lengthAdjust="spacing" textLength="71" x="274" y="667.02">tem gestor</text><text fill="#000000" font-family="sans-serif" font-size="13" lengthAdjust="spacing" textLength="8" x="252.9836" y="644.6699">1</text><text fill="#000000" font-family="sans-serif" font-size="13" lengthAdjust="spacing" textLength="8" x="272.2388" y="689.9725">1</text><!--MD5=[ca49ec1e86bb5e8c049c02c54bfc3088]
link Organizacao to EnderecoPostal--><path codeLine="71" d="M463.17,624.0961 C564.852,657.2831 681.406,695.3241 769.551,724.0931 " fill="none" id="Organizacao-to-EnderecoPostal" style="stroke:#A80036;stroke-width:1.0;"/><polygon fill="#A80036" points="774.52,725.7141,767.2055,719.1188,769.7668,724.1626,764.723,726.7239,774.52,725.7141" style="stroke:#A80036;stroke-width:1.0;"/><text fill="#000000" font-family="sans-serif" font-size="13" lengthAdjust="spacing" textLength="88" x="593" y="667.02">localizada em</text><text fill="#000000" font-family="sans-serif" font-size="13" lengthAdjust="spacing" textLength="8" x="472.9539" y="642.7365">1</text><text fill="#000000" font-family="sans-serif" font-size="13" lengthAdjust="spacing" textLength="8" x="759.0563" y="719.9492">1</text><!--MD5=[7846c904d139ffad2e5d1ca294d8e188]
link RegistoOrganizacoes to Organizacao--><path codeLine="72" d="M596.014,397.0591 C540.269,420.4241 476.124,447.3101 417.563,471.8541 " fill="none" id="RegistoOrganizacoes-to-Organizacao" style="stroke:#A80036;stroke-width:1.0;"/><polygon fill="#A80036" points="412.637,473.9191,422.4836,474.1291,417.2483,471.9863,419.3911,466.751,412.637,473.9191" style="stroke:#A80036;stroke-width:1.0;"/><text fill="#000000" font-family="sans-serif" font-size="13" lengthAdjust="spacing" textLength="97" x="521" y="440.02">tem registadas</text><text fill="#000000" font-family="sans-serif" font-size="13" lengthAdjust="spacing" textLength="8" x="571.4999" y="416.8105">1</text><text fill="#000000" font-family="sans-serif" font-size="13" lengthAdjust="spacing" textLength="7" x="422.6802" y="462.8466">*</text><!--MD5=[f214507cc45b523183507945f122534d]
link RegistoOrganizacoes to AutorizacaoFacade--><path codeLine="73" d="M724.403,397.2021 C713.017,435.0061 698.869,481.9831 689.42,513.3541 " fill="none" id="RegistoOrganizacoes-to-AutorizacaoFacade" style="stroke:#A80036;stroke-width:1.0;stroke-dasharray:7.0,7.0;"/><polygon fill="#A80036" points="687.945,518.2521,694.372,510.7893,689.3879,513.4648,686.7124,508.4807,687.945,518.2521" style="stroke:#A80036;stroke-width:1.0;"/><!--MD5=[af5da22baa9471e875a121efafac6d26]
link RegistoOrganizacoes to AlgoritmoGeradorPasswords--><path codeLine="74" d="M832.21,397.2021 C887.948,435.7841 957.491,483.9201 1002.784,515.2711 " fill="none" id="RegistoOrganizacoes-to-AlgoritmoGeradorPasswords" style="stroke:#A80036;stroke-width:1.0;stroke-dasharray:7.0,7.0;"/><polygon fill="#A80036" points="1007.09,518.2521,1001.9662,509.841,1002.9787,515.4065,997.4132,516.4191,1007.09,518.2521" style="stroke:#A80036;stroke-width:1.0;"/><!--MD5=[6813f6b6d5984798ad897268579cad27]
link RegistoOrganizacoes to Colaborador--><path codeLine="75" d="M1064.12,396.9941 C1137.71,417.7861 1201.14,443.5771 1224,473.9531 C1264.09,527.2181 1267.32,573.2761 1224,623.9531 C1217.49,631.5731 668.58,714.4601 421.835,751.3832 " fill="none" id="RegistoOrganizacoes-to-Colaborador" style="stroke:#A80036;stroke-width:1.0;stroke-dasharray:7.0,7.0;"/><polygon fill="#A80036" points="416.783,752.1391,426.2759,754.7631,421.7279,751.3991,425.0919,746.8512,416.783,752.1391" style="stroke:#A80036;stroke-width:1.0;"/><!--MD5=[97d4ebd15be5005f1f0f3804d7c2b6a2]
link RegistoOrganizacoes to EnderecoPostal--><path codeLine="76" d="M1119.82,394.5221 C1210.35,409.5811 1282.43,422.7271 1286,426.9531 C1356.02,509.7611 1352.39,585.2081 1286,670.9531 C1256.11,709.5571 1140.39,735.6981 1044.59,751.2058 " fill="none" id="RegistoOrganizacoes-to-EnderecoPostal" style="stroke:#A80036;stroke-width:1.0;stroke-dasharray:7.0,7.0;"/><polygon fill="#A80036" points="1039.47,752.028,1048.9868,754.5637,1044.4079,751.2421,1047.7294,746.6631,1039.47,752.028" style="stroke:#A80036;stroke-width:1.0;"/><!--MD5=[8520032b21a91cd50faa5ff4b0dfe6be]
@startuml
title UC01 - Registar Organização - Diagrama de Classes

top to bottom direction

class RegistarOrganizacaoUI {
}

class RegistarOrganizacaoController {
+novaOrganizacao(nome, NIF, endLocal, endCodPOstal, endLocalidade, tlf, site, email, nomeG, funcao, tlfG, emailG, pwd)
+registaOrganizacao()
}

class Organizacao {
-String nome
-String NIF
-String website
-String telefone
-String email
+Organizacao(nome,NIF,website,telefone,email,endereco,gestorColaborador)
+EnderecoPOstal novoEndereco(local,codPostal,localidade)
+Colaborador novoColaborador(nome,funcao,tlf,email)
}

class Colaborador {
-String nome
-String funcao
-String telefone
-String email
+Colaborador(nome,funcao,tlf,email)
+String getNome()
+String getEmail()
}

class EnderecoPostal {
-String local
-String codPostal
-String localidade
+EnderecoPostal(local,codPostal,localidade)
}

class RegistoOrganizacoes {
+Organizacao novaOrganizacao(nome, NIF, endLocal, endCodPOstal, endLocalidade, tlf, site, email, nomeG, funcao, tlfG, emailG)
+validaOrganizacao(Organizacao org)
+registaOrganizacao(Organizacao org)
-addOrganizacao (Organizacao org)
-registaGestorComoUtilizador(Colaborador colab)
-enviaPwd(String emailG, String pwd)
}

class AutorizacaoFacade {
+registaUtilizadorComPapeis(nomeG,emailG,pwd,listaPapel)
}

interface AlgoritmoGeradorPasswords {
+String geraPassword(String nomeG, String emailG)
}

class Plataforma {
-String designacao
+RegistoOrganizacoes getRegistoOrganizacoes()
+AutorizacaoFacade getAutorizacaoFacade()
+AlgoritmoGeradorPasswords getAlgoritmoGeradorPwd()
}

RegistarOrganizacaoUI ..> RegistarOrganizacaoController
RegistarOrganizacaoController ..> RegistoOrganizacoes
RegistarOrganizacaoController ..> Organizacao
RegistarOrganizacaoController ..> Plataforma
Organizacao "1"- ->"1..*" Colaborador : tem
Organizacao "1"- ->"1" Colaborador : tem gestor
Organizacao "1"- ->"1" EnderecoPostal : localizada em
RegistoOrganizacoes "1"- ->"*" Organizacao : tem registadas
RegistoOrganizacoes ..> AutorizacaoFacade
RegistoOrganizacoes ..> AlgoritmoGeradorPasswords
RegistoOrganizacoes ..> Colaborador
RegistoOrganizacoes ..> EnderecoPostal
@enduml

PlantUML version 1.2021.01beta3(Unknown compile time)
(GPL source distribution)
Java Runtime: Java(TM) SE Runtime Environment
JVM: Java HotSpot(TM) 64-Bit Server VM
Default Encoding: UTF-8
Language: en
Country: US
--></g></svg>