<?xml version="1.0" encoding="UTF-8" standalone="no"?><svg xmlns="http://www.w3.org/2000/svg" xmlns:xlink="http://www.w3.org/1999/xlink" contentScriptType="application/ecmascript" contentStyleType="text/css" height="323px" preserveAspectRatio="none" style="width:1057px;height:323px;" version="1.1" viewBox="0 0 1057 323" width="1057px" zoomAndPan="magnify"><defs><filter height="300%" id="ffaywgsv7zmnw" width="300%" x="-1" y="-1"><feGaussianBlur result="blurOut" stdDeviation="2.0"/><feColorMatrix in="blurOut" result="blurOut2" type="matrix" values="0 0 0 0 0 0 0 0 0 0 0 0 0 0 0 0 0 0 .4 0"/><feOffset dx="4.0" dy="4.0" in="blurOut2" result="blurOut3"/><feBlend in="SourceGraphic" in2="blurOut3" mode="normal"/></filter></defs><g><text fill="#000000" font-family="sans-serif" font-size="18" lengthAdjust="spacing" textLength="567" x="238.5" y="16.708">UC01 - Registar Organização - Excerto do Modelo de Domínio</text><!--MD5=[ecaed46f78f8cfe1e9ce18477649be18]
class Plataforma--><rect codeLine="5" fill="#FEFECE" filter="url(#ffaywgsv7zmnw)" height="60.8047" id="Plataforma" style="stroke:#A80036;stroke-width:1.5;" width="114" x="7" y="194.9531"/><ellipse cx="31" cy="210.9531" fill="#ADD1B2" rx="11" ry="11" style="stroke:#A80036;stroke-width:1.0;"/><path d="M33.3438,206.625 C32.4063,206.1875 31.8125,206.0469 30.9375,206.0469 C28.3125,206.0469 26.3125,208.125 26.3125,210.8438 L26.3125,211.9688 C26.3125,214.5469 28.4219,216.4375 31.3125,216.4375 C32.5313,216.4375 33.6875,216.1406 34.4375,215.5938 C35.0156,215.1875 35.3438,214.7344 35.3438,214.3438 C35.3438,213.8906 34.9531,213.5 34.4844,213.5 C34.2656,213.5 34.0625,213.5781 33.875,213.7656 C33.4219,214.25 33.4219,214.25 33.2344,214.3438 C32.8125,214.6094 32.125,214.7344 31.3594,214.7344 C29.3125,214.7344 28.0156,213.6406 28.0156,211.9375 L28.0156,210.8438 C28.0156,209.0625 29.2656,207.75 31,207.75 C31.5781,207.75 32.1875,207.9063 32.6563,208.1563 C33.1406,208.4375 33.3125,208.6563 33.4063,209.0625 C33.4688,209.4688 33.5,209.5938 33.6406,209.7188 C33.7813,209.8594 34.0156,209.9688 34.2344,209.9688 C34.5,209.9688 34.7656,209.8281 34.9375,209.6094 C35.0469,209.4531 35.0781,209.2656 35.0781,208.8438 L35.0781,207.4219 C35.0781,206.9844 35.0625,206.8594 34.9688,206.7031 C34.8125,206.4375 34.5313,206.2969 34.2344,206.2969 C33.9375,206.2969 33.7344,206.3906 33.5156,206.7031 L33.3438,206.625 Z " fill="#000000"/><text fill="#000000" font-family="sans-serif" font-size="12" lengthAdjust="spacing" textLength="62" x="47" y="215.1074">Plataforma</text><line style="stroke:#A80036;stroke-width:1.5;" x1="8" x2="120" y1="226.9531" y2="226.9531"/><text fill="#000000" font-family="sans-serif" font-size="11" lengthAdjust="spacing" textLength="102" x="13" y="241.1636">String designacao</text><line style="stroke:#A80036;stroke-width:1.5;" x1="8" x2="120" y1="247.7578" y2="247.7578"/><!--MD5=[6559d866213c6b3fd003379aeba85775]
class Organização--><rect codeLine="9" fill="#FEFECE" filter="url(#ffaywgsv7zmnw)" height="112.0234" id="Organização" style="stroke:#A80036;stroke-width:1.5;" width="108" x="293" y="94.4531"/><ellipse cx="308" cy="110.4531" fill="#ADD1B2" rx="11" ry="11" style="stroke:#A80036;stroke-width:1.0;"/><path d="M310.3438,106.125 C309.4063,105.6875 308.8125,105.5469 307.9375,105.5469 C305.3125,105.5469 303.3125,107.625 303.3125,110.3438 L303.3125,111.4688 C303.3125,114.0469 305.4219,115.9375 308.3125,115.9375 C309.5313,115.9375 310.6875,115.6406 311.4375,115.0938 C312.0156,114.6875 312.3438,114.2344 312.3438,113.8438 C312.3438,113.3906 311.9531,113 311.4844,113 C311.2656,113 311.0625,113.0781 310.875,113.2656 C310.4219,113.75 310.4219,113.75 310.2344,113.8438 C309.8125,114.1094 309.125,114.2344 308.3594,114.2344 C306.3125,114.2344 305.0156,113.1406 305.0156,111.4375 L305.0156,110.3438 C305.0156,108.5625 306.2656,107.25 308,107.25 C308.5781,107.25 309.1875,107.4063 309.6563,107.6563 C310.1406,107.9375 310.3125,108.1563 310.4063,108.5625 C310.4688,108.9688 310.5,109.0938 310.6406,109.2188 C310.7813,109.3594 311.0156,109.4688 311.2344,109.4688 C311.5,109.4688 311.7656,109.3281 311.9375,109.1094 C312.0469,108.9531 312.0781,108.7656 312.0781,108.3438 L312.0781,106.9219 C312.0781,106.4844 312.0625,106.3594 311.9688,106.2031 C311.8125,105.9375 311.5313,105.7969 311.2344,105.7969 C310.9375,105.7969 310.7344,105.8906 310.5156,106.2031 L310.3438,106.125 Z " fill="#000000"/><text fill="#000000" font-family="sans-serif" font-size="12" lengthAdjust="spacing" textLength="76" x="322" y="114.6074">Organização</text><line style="stroke:#A80036;stroke-width:1.5;" x1="294" x2="400" y1="126.4531" y2="126.4531"/><text fill="#000000" font-family="sans-serif" font-size="11" lengthAdjust="spacing" textLength="70" x="299" y="140.6636">String nome</text><text fill="#000000" font-family="sans-serif" font-size="11" lengthAdjust="spacing" textLength="54" x="299" y="153.4683">String NIF</text><text fill="#000000" font-family="sans-serif" font-size="11" lengthAdjust="spacing" textLength="82" x="299" y="166.2729">String website</text><text fill="#000000" font-family="sans-serif" font-size="11" lengthAdjust="spacing" textLength="86" x="299" y="179.0776">String telefone</text><text fill="#000000" font-family="sans-serif" font-size="11" lengthAdjust="spacing" textLength="69" x="299" y="191.8823">String email</text><line style="stroke:#A80036;stroke-width:1.5;" x1="294" x2="400" y1="198.4766" y2="198.4766"/><!--MD5=[ac8682ea5466d223e49472789fb200d2]
class Colaborador--><rect codeLine="17" fill="#FEFECE" filter="url(#ffaywgsv7zmnw)" height="99.2188" id="Colaborador" style="stroke:#A80036;stroke-width:1.5;" width="107" x="681" y="27.9531"/><ellipse cx="696" cy="43.9531" fill="#ADD1B2" rx="11" ry="11" style="stroke:#A80036;stroke-width:1.0;"/><path d="M698.3438,39.625 C697.4063,39.1875 696.8125,39.0469 695.9375,39.0469 C693.3125,39.0469 691.3125,41.125 691.3125,43.8438 L691.3125,44.9688 C691.3125,47.5469 693.4219,49.4375 696.3125,49.4375 C697.5313,49.4375 698.6875,49.1406 699.4375,48.5938 C700.0156,48.1875 700.3438,47.7344 700.3438,47.3438 C700.3438,46.8906 699.9531,46.5 699.4844,46.5 C699.2656,46.5 699.0625,46.5781 698.875,46.7656 C698.4219,47.25 698.4219,47.25 698.2344,47.3438 C697.8125,47.6094 697.125,47.7344 696.3594,47.7344 C694.3125,47.7344 693.0156,46.6406 693.0156,44.9375 L693.0156,43.8438 C693.0156,42.0625 694.2656,40.75 696,40.75 C696.5781,40.75 697.1875,40.9063 697.6563,41.1563 C698.1406,41.4375 698.3125,41.6563 698.4063,42.0625 C698.4688,42.4688 698.5,42.5938 698.6406,42.7188 C698.7813,42.8594 699.0156,42.9688 699.2344,42.9688 C699.5,42.9688 699.7656,42.8281 699.9375,42.6094 C700.0469,42.4531 700.0781,42.2656 700.0781,41.8438 L700.0781,40.4219 C700.0781,39.9844 700.0625,39.8594 699.9688,39.7031 C699.8125,39.4375 699.5313,39.2969 699.2344,39.2969 C698.9375,39.2969 698.7344,39.3906 698.5156,39.7031 L698.3438,39.625 Z " fill="#000000"/><text fill="#000000" font-family="sans-serif" font-size="12" lengthAdjust="spacing" textLength="75" x="710" y="48.1074">Colaborador</text><line style="stroke:#A80036;stroke-width:1.5;" x1="682" x2="787" y1="59.9531" y2="59.9531"/><text fill="#000000" font-family="sans-serif" font-size="11" lengthAdjust="spacing" textLength="70" x="687" y="74.1636">String nome</text><text fill="#000000" font-family="sans-serif" font-size="11" lengthAdjust="spacing" textLength="75" x="687" y="86.9683">String funcao</text><text fill="#000000" font-family="sans-serif" font-size="11" lengthAdjust="spacing" textLength="86" x="687" y="99.7729">String telefone</text><text fill="#000000" font-family="sans-serif" font-size="11" lengthAdjust="spacing" textLength="69" x="687" y="112.5776">String email</text><line style="stroke:#A80036;stroke-width:1.5;" x1="682" x2="787" y1="119.1719" y2="119.1719"/><!--MD5=[dcda844062f930f807532403427d3023]
class EnderecoPostal--><rect codeLine="24" fill="#FEFECE" filter="url(#ffaywgsv7zmnw)" height="86.4141" id="EnderecoPostal" style="stroke:#A80036;stroke-width:1.5;" width="125" x="672" y="162.4531"/><ellipse cx="687" cy="178.4531" fill="#ADD1B2" rx="11" ry="11" style="stroke:#A80036;stroke-width:1.0;"/><path d="M689.3438,174.125 C688.4063,173.6875 687.8125,173.5469 686.9375,173.5469 C684.3125,173.5469 682.3125,175.625 682.3125,178.3438 L682.3125,179.4688 C682.3125,182.0469 684.4219,183.9375 687.3125,183.9375 C688.5313,183.9375 689.6875,183.6406 690.4375,183.0938 C691.0156,182.6875 691.3438,182.2344 691.3438,181.8438 C691.3438,181.3906 690.9531,181 690.4844,181 C690.2656,181 690.0625,181.0781 689.875,181.2656 C689.4219,181.75 689.4219,181.75 689.2344,181.8438 C688.8125,182.1094 688.125,182.2344 687.3594,182.2344 C685.3125,182.2344 684.0156,181.1406 684.0156,179.4375 L684.0156,178.3438 C684.0156,176.5625 685.2656,175.25 687,175.25 C687.5781,175.25 688.1875,175.4063 688.6563,175.6563 C689.1406,175.9375 689.3125,176.1563 689.4063,176.5625 C689.4688,176.9688 689.5,177.0938 689.6406,177.2188 C689.7813,177.3594 690.0156,177.4688 690.2344,177.4688 C690.5,177.4688 690.7656,177.3281 690.9375,177.1094 C691.0469,176.9531 691.0781,176.7656 691.0781,176.3438 L691.0781,174.9219 C691.0781,174.4844 691.0625,174.3594 690.9688,174.2031 C690.8125,173.9375 690.5313,173.7969 690.2344,173.7969 C689.9375,173.7969 689.7344,173.8906 689.5156,174.2031 L689.3438,174.125 Z " fill="#000000"/><text fill="#000000" font-family="sans-serif" font-size="12" lengthAdjust="spacing" textLength="93" x="701" y="182.6074">EnderecoPostal</text><line style="stroke:#A80036;stroke-width:1.5;" x1="673" x2="796" y1="194.4531" y2="194.4531"/><text fill="#000000" font-family="sans-serif" font-size="11" lengthAdjust="spacing" textLength="63" x="678" y="208.6636">String local</text><text fill="#000000" font-family="sans-serif" font-size="11" lengthAdjust="spacing" textLength="90" x="678" y="221.4683">String codPostal</text><text fill="#000000" font-family="sans-serif" font-size="11" lengthAdjust="spacing" textLength="95" x="678" y="234.2729">String localidade</text><line style="stroke:#A80036;stroke-width:1.5;" x1="673" x2="796" y1="240.8672" y2="240.8672"/><!--MD5=[5dd1d6732c071e710b9290b531f2fa3b]
class Utilizador--><rect codeLine="30" fill="#FEFECE" filter="url(#ffaywgsv7zmnw)" height="86.4141" id="Utilizador" style="stroke:#A80036;stroke-width:1.5;" width="102" x="941" y="187.4531"/><ellipse cx="961.85" cy="203.4531" fill="#ADD1B2" rx="11" ry="11" style="stroke:#A80036;stroke-width:1.0;"/><path d="M964.1938,199.125 C963.2563,198.6875 962.6625,198.5469 961.7875,198.5469 C959.1625,198.5469 957.1625,200.625 957.1625,203.3438 L957.1625,204.4688 C957.1625,207.0469 959.2719,208.9375 962.1625,208.9375 C963.3813,208.9375 964.5375,208.6406 965.2875,208.0938 C965.8656,207.6875 966.1938,207.2344 966.1938,206.8438 C966.1938,206.3906 965.8031,206 965.3344,206 C965.1156,206 964.9125,206.0781 964.725,206.2656 C964.2719,206.75 964.2719,206.75 964.0844,206.8438 C963.6625,207.1094 962.975,207.2344 962.2094,207.2344 C960.1625,207.2344 958.8656,206.1406 958.8656,204.4375 L958.8656,203.3438 C958.8656,201.5625 960.1156,200.25 961.85,200.25 C962.4281,200.25 963.0375,200.4063 963.5063,200.6563 C963.9906,200.9375 964.1625,201.1563 964.2563,201.5625 C964.3188,201.9688 964.35,202.0938 964.4906,202.2188 C964.6313,202.3594 964.8656,202.4688 965.0844,202.4688 C965.35,202.4688 965.6156,202.3281 965.7875,202.1094 C965.8969,201.9531 965.9281,201.7656 965.9281,201.3438 L965.9281,199.9219 C965.9281,199.4844 965.9125,199.3594 965.8188,199.2031 C965.6625,198.9375 965.3813,198.7969 965.0844,198.7969 C964.7875,198.7969 964.5844,198.8906 964.3656,199.2031 L964.1938,199.125 Z " fill="#000000"/><text fill="#000000" font-family="sans-serif" font-size="12" lengthAdjust="spacing" textLength="57" x="977.15" y="207.6074">Utilizador</text><line style="stroke:#A80036;stroke-width:1.5;" x1="942" x2="1042" y1="219.4531" y2="219.4531"/><text fill="#000000" font-family="sans-serif" font-size="11" lengthAdjust="spacing" textLength="70" x="947" y="233.6636">String nome</text><text fill="#000000" font-family="sans-serif" font-size="11" lengthAdjust="spacing" textLength="69" x="947" y="246.4683">String email</text><text fill="#000000" font-family="sans-serif" font-size="11" lengthAdjust="spacing" textLength="90" x="947" y="259.2729">String password</text><line style="stroke:#A80036;stroke-width:1.5;" x1="942" x2="1042" y1="265.8672" y2="265.8672"/><!--MD5=[903d5889f30e0ecbfd34509022c6ca12]
class AlgoritmoExternoGeracaoPwd--><rect codeLine="36" fill="#FEFECE" filter="url(#ffaywgsv7zmnw)" height="48" id="AlgoritmoExternoGeracaoPwd" style="stroke:#A80036;stroke-width:1.5;" width="211" x="431" y="261.4531"/><ellipse cx="446" cy="277.4531" fill="#ADD1B2" rx="11" ry="11" style="stroke:#A80036;stroke-width:1.0;"/><path d="M448.3438,273.125 C447.4063,272.6875 446.8125,272.5469 445.9375,272.5469 C443.3125,272.5469 441.3125,274.625 441.3125,277.3438 L441.3125,278.4688 C441.3125,281.0469 443.4219,282.9375 446.3125,282.9375 C447.5313,282.9375 448.6875,282.6406 449.4375,282.0938 C450.0156,281.6875 450.3438,281.2344 450.3438,280.8438 C450.3438,280.3906 449.9531,280 449.4844,280 C449.2656,280 449.0625,280.0781 448.875,280.2656 C448.4219,280.75 448.4219,280.75 448.2344,280.8438 C447.8125,281.1094 447.125,281.2344 446.3594,281.2344 C444.3125,281.2344 443.0156,280.1406 443.0156,278.4375 L443.0156,277.3438 C443.0156,275.5625 444.2656,274.25 446,274.25 C446.5781,274.25 447.1875,274.4063 447.6563,274.6563 C448.1406,274.9375 448.3125,275.1563 448.4063,275.5625 C448.4688,275.9688 448.5,276.0938 448.6406,276.2188 C448.7813,276.3594 449.0156,276.4688 449.2344,276.4688 C449.5,276.4688 449.7656,276.3281 449.9375,276.1094 C450.0469,275.9531 450.0781,275.7656 450.0781,275.3438 L450.0781,273.9219 C450.0781,273.4844 450.0625,273.3594 449.9688,273.2031 C449.8125,272.9375 449.5313,272.7969 449.2344,272.7969 C448.9375,272.7969 448.7344,272.8906 448.5156,273.2031 L448.3438,273.125 Z " fill="#000000"/><text fill="#000000" font-family="sans-serif" font-size="12" lengthAdjust="spacing" textLength="179" x="460" y="281.6074">AlgoritmoExternoGeracaoPwd</text><line style="stroke:#A80036;stroke-width:1.5;" x1="432" x2="641" y1="293.4531" y2="293.4531"/><line style="stroke:#A80036;stroke-width:1.5;" x1="432" x2="641" y1="301.4531" y2="301.4531"/><!--MD5=[bfccd8e890448f4cee1f17ba82daa446]
link Plataforma to Organização--><path codeLine="39" d="M121.189,210.456 C171.16,197.1191 243.709,177.7551 292.764,164.6621 " fill="none" id="Plataforma-Organização" style="stroke:#A80036;stroke-width:1.0;"/><polygon fill="#000000" points="160.8309,162.7302,151.3338,162.2231,152.8496,167.9022,160.8309,162.7302" style="stroke:#000000;stroke-width:1.0;"/><text fill="#000000" font-family="sans-serif" font-size="13" lengthAdjust="spacing" textLength="97" x="165" y="168.52">tem registadas</text><text fill="#000000" font-family="sans-serif" font-size="13" lengthAdjust="spacing" textLength="8" x="129.0288" y="221.5834">1</text><text fill="#000000" font-family="sans-serif" font-size="13" lengthAdjust="spacing" textLength="7" x="278.0057" y="179.6535">*</text><!--MD5=[efc446191a09ada4a3c0b8b4c7fafebe]
link Plataforma to AlgoritmoExternoGeracaoPwd--><path codeLine="40" d="M121.286,232.6309 C197.51,242.3513 334.994,259.8838 430.562,272.071 " fill="none" id="Plataforma-AlgoritmoExternoGeracaoPwd" style="stroke:#A80036;stroke-width:1.0;"/><polygon fill="#000000" points="180.4598,228.652,171.8592,224.5925,171.1156,230.4231,180.4598,228.652" style="stroke:#000000;stroke-width:1.0;"/><text fill="#000000" font-family="sans-serif" font-size="13" lengthAdjust="spacing" textLength="58" x="184.5" y="232.52">recorre a</text><text fill="#000000" font-family="sans-serif" font-size="13" lengthAdjust="spacing" textLength="8" x="129.1383" y="246.5994">1</text><text fill="#000000" font-family="sans-serif" font-size="13" lengthAdjust="spacing" textLength="8" x="414.832" y="283.729">1</text><!--MD5=[647426b90ecdde9ada25b13bffe67ced]
link AlgoritmoExternoGeracaoPwd to Utilizador--><path codeLine="41" d="M642.117,290.7849 C689.597,291.6322 746.345,290.4468 797,283.4531 C846.805,276.5768 901.962,260.6668 940.692,248.0617 " fill="none" id="AlgoritmoExternoGeracaoPwd-Utilizador" style="stroke:#A80036;stroke-width:1.0;"/><polygon fill="#000000" points="689.4496,274.3113,680.0794,272.6832,680.912,278.5018,689.4496,274.3113" style="stroke:#000000;stroke-width:1.0;"/><text fill="#000000" font-family="sans-serif" font-size="13" lengthAdjust="spacing" textLength="95" x="693.5" y="279.52">gera password</text><text fill="#000000" font-family="sans-serif" font-size="13" lengthAdjust="spacing" textLength="8" x="650.167" y="303.799">1</text><text fill="#000000" font-family="sans-serif" font-size="13" lengthAdjust="spacing" textLength="7" x="925.9846" y="263.6397">*</text><!--MD5=[a1920769314186b331e19badf2cc4935]
link Organização to Colaborador--><path codeLine="42" d="M401.078,129.4441 C410.917,126.0741 421.187,122.8961 431,120.4531 C517.219,98.9861 620.114,87.2021 680.952,81.6201 " fill="none" id="Organização-Colaborador" style="stroke:#A80036;stroke-width:1.0;"/><polygon fill="#000000" points="525.9286,77.1774,516.5177,75.8039,517.5077,81.5978,525.9286,77.1774" style="stroke:#000000;stroke-width:1.0;"/><text fill="#000000" font-family="sans-serif" font-size="13" lengthAdjust="spacing" textLength="26" x="530" y="82.52">tem</text><text fill="#000000" font-family="sans-serif" font-size="13" lengthAdjust="spacing" textLength="8" x="408.8822" y="139.7031">1</text><text fill="#000000" font-family="sans-serif" font-size="13" lengthAdjust="spacing" textLength="23" x="650.0243" y="95.1037">1..*</text><!--MD5=[a1920769314186b331e19badf2cc4935]
link Organização to Colaborador--><path codeLine="43" d="M401.173,159.0891 C461.374,166.7171 561.536,172.8401 642,145.4531 C655.49,140.8621 668.63,133.4741 680.549,125.2261 " fill="none" id="Organização-Colaborador-1" style="stroke:#A80036;stroke-width:1.0;"/><polygon fill="#000000" points="503.4637,136.4179,494.1307,134.5887,494.8379,140.4238,503.4637,136.4179" style="stroke:#000000;stroke-width:1.0;"/><text fill="#000000" font-family="sans-serif" font-size="13" lengthAdjust="spacing" textLength="71" x="507.5" y="141.52">tem gestor</text><text fill="#000000" font-family="sans-serif" font-size="13" lengthAdjust="spacing" textLength="8" x="408.99" y="173.3316">1</text><text fill="#000000" font-family="sans-serif" font-size="13" lengthAdjust="spacing" textLength="8" x="665.124" y="144.3694">1</text><!--MD5=[78f7e103fe48bd426744f000632fc42d]
link Organização to EnderecoPostal--><path codeLine="44" d="M401.402,188.8991 C410.867,194.0381 420.929,198.5341 431,201.4531 C511.713,224.8464 609.699,220.5606 671.838,214.0565 " fill="none" id="Organização-EnderecoPostal" style="stroke:#A80036;stroke-width:1.0;"/><polygon fill="#000000" points="494.9785,193.4827,486.2445,189.7186,485.7001,195.5711,494.9785,193.4827" style="stroke:#000000;stroke-width:1.0;"/><text fill="#000000" font-family="sans-serif" font-size="13" lengthAdjust="spacing" textLength="88" x="499" y="197.52">localizada em</text><text fill="#000000" font-family="sans-serif" font-size="13" lengthAdjust="spacing" textLength="24" x="409.0797" y="206.2848">0..1</text><text fill="#000000" font-family="sans-serif" font-size="13" lengthAdjust="spacing" textLength="8" x="656.1302" y="227.9691">1</text><!--MD5=[bcb5794e8184ce78d304f04a5beabbc0]
link Colaborador to Utilizador--><path codeLine="45" d="M788.13,108.9691 C832.831,135.7371 896.564,173.9021 940.613,200.2801 " fill="none" id="Colaborador-Utilizador" style="stroke:#A80036;stroke-width:1.0;"/><polygon fill="#000000" points="836.2897,129.5883,830.0395,122.4199,827.0197,127.4628,836.2897,129.5883" style="stroke:#000000;stroke-width:1.0;"/><text fill="#000000" font-family="sans-serif" font-size="13" lengthAdjust="spacing" textLength="69" x="841" y="131.52">atua como</text><text fill="#000000" font-family="sans-serif" font-size="13" lengthAdjust="spacing" textLength="24" x="796.1287" y="125.7859">0..1</text><text fill="#000000" font-family="sans-serif" font-size="13" lengthAdjust="spacing" textLength="8" x="925.1704" y="209.2814">1</text><!--MD5=[9b32ad107bf3b71b94c662afdf8dcda9]
@startuml
title UC01 - Registar Organização - Excerto do Modelo de Domínio

left to right direction

class Plataforma {
String designacao
}

class Organização {
String nome
String NIF
String website
String telefone
String email
}

class Colaborador {
String nome
String funcao
String telefone
String email
}

class EnderecoPostal {
String local
String codPostal
String localidade
}

class Utilizador {
String nome
String email
String password
}

class AlgoritmoExternoGeracaoPwd {
}

Plataforma "1"- -"*" Organização : tem registadas >
Plataforma "1"- -"1" AlgoritmoExternoGeracaoPwd : recorre a >
AlgoritmoExternoGeracaoPwd "1"- -"*" Utilizador : gera password >
Organização "1"- -"1..*" Colaborador : tem >
Organização "1"- -"1" Colaborador : tem gestor >
Organização "0..1"- -"1" EnderecoPostal : localizada em >
Colaborador "0..1"- -"1" Utilizador : atua como >
@enduml

PlantUML version 1.2021.01beta3(Unknown compile time)
(GPL source distribution)
Java Runtime: Java(TM) SE Runtime Environment
JVM: Java HotSpot(TM) 64-Bit Server VM
Default Encoding: UTF-8
Language: en
Country: US
--></g></svg>