<?xml version="1.0" encoding="UTF-8" standalone="no"?><svg xmlns="http://www.w3.org/2000/svg" xmlns:xlink="http://www.w3.org/1999/xlink" contentScriptType="application/ecmascript" contentStyleType="text/css" height="362px" preserveAspectRatio="none" style="width:1038px;height:362px;" version="1.1" viewBox="0 0 1038 362" width="1038px" zoomAndPan="magnify"><defs><filter height="300%" id="f1af77bhj22kz5" width="300%" x="-1" y="-1"><feGaussianBlur result="blurOut" stdDeviation="2.0"/><feColorMatrix in="blurOut" result="blurOut2" type="matrix" values="0 0 0 0 0 0 0 0 0 0 0 0 0 0 0 0 0 0 .4 0"/><feOffset dx="4.0" dy="4.0" in="blurOut2" result="blurOut3"/><feBlend in="SourceGraphic" in2="blurOut3" mode="normal"/></filter></defs><g><!--MD5=[37bf6c08f758502d5d1a5531d651ab43]
class AlgoritmoGeradorPasswords--><rect codeLine="1" fill="#FEFECE" filter="url(#f1af77bhj22kz5)" height="60.8047" id="AlgoritmoGeradorPasswords" style="stroke:#A80036;stroke-width:1.5;" width="313" x="464" y="7"/><ellipse cx="532.25" cy="23" fill="#B4A7E5" rx="11" ry="11" style="stroke:#A80036;stroke-width:1.0;"/><path d="M533.2031,19.7813 L534.9219,19.7813 C535.3125,19.7813 535.5,19.75 535.625,19.6719 C535.8906,19.5156 536.0313,19.2344 536.0313,18.9375 C536.0313,18.6719 535.9219,18.4063 535.6875,18.2344 C535.5156,18.125 535.375,18.0938 534.9219,18.0938 L529.7813,18.0938 C529.3438,18.0938 529.2188,18.1094 529.0625,18.2031 C528.8125,18.3594 528.6563,18.6563 528.6563,18.9375 C528.6563,19.2188 528.7969,19.4688 529.0156,19.6406 C529.1719,19.75 529.3594,19.7813 529.7813,19.7813 L531.5,19.7813 L531.5,26.2969 L529.7813,26.2969 C529.3438,26.2969 529.2188,26.3125 529.0625,26.4219 C528.8125,26.5781 528.6563,26.8594 528.6563,27.1563 C528.6563,27.4063 528.7969,27.6719 529.0156,27.8281 C529.1719,27.9531 529.375,28 529.7813,28 L534.9219,28 C535.6719,28 536.0313,27.7188 536.0313,27.1563 C536.0313,26.875 535.9219,26.625 535.6875,26.4531 C535.5156,26.3281 535.375,26.2969 534.9219,26.2969 L533.2031,26.2969 L533.2031,19.7813 Z " fill="#000000"/><text fill="#000000" font-family="sans-serif" font-size="12" font-style="italic" lengthAdjust="spacing" textLength="168" x="552.75" y="27.1543">AlgoritmoGeradorPasswords</text><line style="stroke:#A80036;stroke-width:1.5;" x1="465" x2="776" y1="39" y2="39"/><line style="stroke:#A80036;stroke-width:1.0;" x1="465" x2="776" y1="47" y2="47"/><ellipse cx="475" cy="58" fill="#84BE84" rx="3" ry="3" style="stroke:#038048;stroke-width:1.0;"/><text fill="#000000" font-family="sans-serif" font-size="11" lengthAdjust="spacing" textLength="287" x="484" y="61.2104">String geraPassword(String nomeG, String emailG)</text><path d="M6,17.5 L6,57.7656 A0,0 0 0 0 6,57.7656 L429,57.7656 A0,0 0 0 0 429,57.7656 L429,41.5 L463.974,37.5 L429,33.5 L429,27.5 L419,17.5 L6,17.5 A0,0 0 0 0 6,17.5 " fill="#FBFB77" filter="url(#f1af77bhj22kz5)" style="stroke:#A80036;stroke-width:1.0;"/><path d="M419,17.5 L419,27.5 L429,27.5 L419,17.5 " fill="#FBFB77" style="stroke:#A80036;stroke-width:1.0;"/><text fill="#000000" font-family="sans-serif" font-size="13" lengthAdjust="spacing" textLength="349" x="12" y="34.5669">Esta interface será alvo de múltiplas implementações,</text><text fill="#000000" font-family="sans-serif" font-size="13" lengthAdjust="spacing" textLength="402" x="12" y="49.6997">uma por cada algoritmo externo que tenha que ser suportado.</text><!--MD5=[6e5ff9fcfeb9f23a1698ee53d76f3e0c]
class AlgoritmoGeradorPasswordsAdapter1--><rect codeLine="11" fill="#FEFECE" filter="url(#f1af77bhj22kz5)" height="60.8047" id="AlgoritmoGeradorPasswordsAdapter1" style="stroke:#A80036;stroke-width:1.5;" width="293" x="288" y="128"/><ellipse cx="317.85" cy="144" fill="#ADD1B2" rx="11" ry="11" style="stroke:#A80036;stroke-width:1.0;"/><path d="M320.1938,139.6719 C319.2563,139.2344 318.6625,139.0938 317.7875,139.0938 C315.1625,139.0938 313.1625,141.1719 313.1625,143.8906 L313.1625,145.0156 C313.1625,147.5938 315.2719,149.4844 318.1625,149.4844 C319.3813,149.4844 320.5375,149.1875 321.2875,148.6406 C321.8656,148.2344 322.1938,147.7813 322.1938,147.3906 C322.1938,146.9375 321.8031,146.5469 321.3344,146.5469 C321.1156,146.5469 320.9125,146.625 320.725,146.8125 C320.2719,147.2969 320.2719,147.2969 320.0844,147.3906 C319.6625,147.6563 318.975,147.7813 318.2094,147.7813 C316.1625,147.7813 314.8656,146.6875 314.8656,144.9844 L314.8656,143.8906 C314.8656,142.1094 316.1156,140.7969 317.85,140.7969 C318.4281,140.7969 319.0375,140.9531 319.5063,141.2031 C319.9906,141.4844 320.1625,141.7031 320.2563,142.1094 C320.3188,142.5156 320.35,142.6406 320.4906,142.7656 C320.6313,142.9063 320.8656,143.0156 321.0844,143.0156 C321.35,143.0156 321.6156,142.875 321.7875,142.6563 C321.8969,142.5 321.9281,142.3125 321.9281,141.8906 L321.9281,140.4688 C321.9281,140.0313 321.9125,139.9063 321.8188,139.75 C321.6625,139.4844 321.3813,139.3438 321.0844,139.3438 C320.7875,139.3438 320.5844,139.4375 320.3656,139.75 L320.1938,139.6719 Z " fill="#000000"/><text fill="#000000" font-family="sans-serif" font-size="12" lengthAdjust="spacing" textLength="228" x="335.15" y="148.1543">AlgoritmoGeradorPasswordsAdapter1</text><line style="stroke:#A80036;stroke-width:1.5;" x1="289" x2="580" y1="160" y2="160"/><line style="stroke:#A80036;stroke-width:1.0;" x1="289" x2="580" y1="168" y2="168"/><ellipse cx="299" cy="179" fill="#84BE84" rx="3" ry="3" style="stroke:#038048;stroke-width:1.0;"/><text fill="#000000" font-family="sans-serif" font-size="11" lengthAdjust="spacing" textLength="267" x="308" y="182.2104">String geraPassword(String nome, Email email)</text><!--MD5=[98fff984016099dc1d2cdb7554a63110]
class AlgoritmoGeradorPasswordsAdapter2--><rect codeLine="16" fill="#FEFECE" filter="url(#f1af77bhj22kz5)" height="60.8047" id="AlgoritmoGeradorPasswordsAdapter2" style="stroke:#A80036;stroke-width:1.5;" width="293" x="660" y="128"/><ellipse cx="689.4" cy="144" fill="#ADD1B2" rx="11" ry="11" style="stroke:#A80036;stroke-width:1.0;"/><path d="M691.7438,139.6719 C690.8063,139.2344 690.2125,139.0938 689.3375,139.0938 C686.7125,139.0938 684.7125,141.1719 684.7125,143.8906 L684.7125,145.0156 C684.7125,147.5938 686.8219,149.4844 689.7125,149.4844 C690.9313,149.4844 692.0875,149.1875 692.8375,148.6406 C693.4156,148.2344 693.7438,147.7813 693.7438,147.3906 C693.7438,146.9375 693.3531,146.5469 692.8844,146.5469 C692.6656,146.5469 692.4625,146.625 692.275,146.8125 C691.8219,147.2969 691.8219,147.2969 691.6344,147.3906 C691.2125,147.6563 690.525,147.7813 689.7594,147.7813 C687.7125,147.7813 686.4156,146.6875 686.4156,144.9844 L686.4156,143.8906 C686.4156,142.1094 687.6656,140.7969 689.4,140.7969 C689.9781,140.7969 690.5875,140.9531 691.0563,141.2031 C691.5406,141.4844 691.7125,141.7031 691.8063,142.1094 C691.8688,142.5156 691.9,142.6406 692.0406,142.7656 C692.1813,142.9063 692.4156,143.0156 692.6344,143.0156 C692.9,143.0156 693.1656,142.875 693.3375,142.6563 C693.4469,142.5 693.4781,142.3125 693.4781,141.8906 L693.4781,140.4688 C693.4781,140.0313 693.4625,139.9063 693.3688,139.75 C693.2125,139.4844 692.9313,139.3438 692.6344,139.3438 C692.3375,139.3438 692.1344,139.4375 691.9156,139.75 L691.7438,139.6719 Z " fill="#000000"/><text fill="#000000" font-family="sans-serif" font-size="12" lengthAdjust="spacing" textLength="229" x="706.6" y="148.1543">AlgoritmoGeradorPasswordsAdapter2</text><line style="stroke:#A80036;stroke-width:1.5;" x1="661" x2="952" y1="160" y2="160"/><line style="stroke:#A80036;stroke-width:1.0;" x1="661" x2="952" y1="168" y2="168"/><ellipse cx="671" cy="179" fill="#84BE84" rx="3" ry="3" style="stroke:#038048;stroke-width:1.0;"/><text fill="#000000" font-family="sans-serif" font-size="11" lengthAdjust="spacing" textLength="267" x="680" y="182.2104">String geraPassword(String nome, Email email)</text><!--MD5=[9615d04c2893a05b5bb041ad0e724e2b]
class AlgoritmoExterno1API--><rect codeLine="21" fill="#FEFECE" filter="url(#f1af77bhj22kz5)" height="73.6094" id="AlgoritmoExterno1API" style="stroke:#A80036;stroke-width:1.5;" width="373" x="226" y="261.5"/><ellipse cx="344.25" cy="277.5" fill="#ADD1B2" rx="11" ry="11" style="stroke:#A80036;stroke-width:1.0;"/><path d="M346.5938,273.1719 C345.6563,272.7344 345.0625,272.5938 344.1875,272.5938 C341.5625,272.5938 339.5625,274.6719 339.5625,277.3906 L339.5625,278.5156 C339.5625,281.0938 341.6719,282.9844 344.5625,282.9844 C345.7813,282.9844 346.9375,282.6875 347.6875,282.1406 C348.2656,281.7344 348.5938,281.2813 348.5938,280.8906 C348.5938,280.4375 348.2031,280.0469 347.7344,280.0469 C347.5156,280.0469 347.3125,280.125 347.125,280.3125 C346.6719,280.7969 346.6719,280.7969 346.4844,280.8906 C346.0625,281.1563 345.375,281.2813 344.6094,281.2813 C342.5625,281.2813 341.2656,280.1875 341.2656,278.4844 L341.2656,277.3906 C341.2656,275.6094 342.5156,274.2969 344.25,274.2969 C344.8281,274.2969 345.4375,274.4531 345.9063,274.7031 C346.3906,274.9844 346.5625,275.2031 346.6563,275.6094 C346.7188,276.0156 346.75,276.1406 346.8906,276.2656 C347.0313,276.4063 347.2656,276.5156 347.4844,276.5156 C347.75,276.5156 348.0156,276.375 348.1875,276.1563 C348.2969,276 348.3281,275.8125 348.3281,275.3906 L348.3281,273.9688 C348.3281,273.5313 348.3125,273.4063 348.2188,273.25 C348.0625,272.9844 347.7813,272.8438 347.4844,272.8438 C347.1875,272.8438 346.9844,272.9375 346.7656,273.25 L346.5938,273.1719 Z " fill="#000000"/><text fill="#000000" font-family="sans-serif" font-size="12" lengthAdjust="spacing" textLength="128" x="364.75" y="281.6543">AlgoritmoExterno1API</text><line style="stroke:#A80036;stroke-width:1.5;" x1="227" x2="598" y1="293.5" y2="293.5"/><line style="stroke:#A80036;stroke-width:1.5;" x1="227" x2="598" y1="301.5" y2="301.5"/><ellipse cx="237" cy="312.5" fill="#84BE84" rx="3" ry="3" style="stroke:#038048;stroke-width:1.0;"/><text fill="#000000" font-family="sans-serif" font-size="11" lengthAdjust="spacing" textLength="140" x="246" y="315.7104">String randomPassword()</text><ellipse cx="237" cy="325.3047" fill="#84BE84" rx="3" ry="3" style="stroke:#038048;stroke-width:1.0;"/><text fill="#000000" font-family="sans-serif" font-size="11" lengthAdjust="spacing" textLength="347" x="246" y="328.5151">String randomPassword(Integer minChars, Integer maxChars)</text><!--MD5=[c78e3215a40d9e9433c5db1a316bbc7c]
class AlgoritmoExterno2API--><rect codeLine="26" fill="#FEFECE" filter="url(#f1af77bhj22kz5)" height="99.2188" id="AlgoritmoExterno2API" style="stroke:#A80036;stroke-width:1.5;" width="390" x="634.5" y="249"/><ellipse cx="760.75" cy="265" fill="#ADD1B2" rx="11" ry="11" style="stroke:#A80036;stroke-width:1.0;"/><path d="M763.0938,260.6719 C762.1563,260.2344 761.5625,260.0938 760.6875,260.0938 C758.0625,260.0938 756.0625,262.1719 756.0625,264.8906 L756.0625,266.0156 C756.0625,268.5938 758.1719,270.4844 761.0625,270.4844 C762.2813,270.4844 763.4375,270.1875 764.1875,269.6406 C764.7656,269.2344 765.0938,268.7813 765.0938,268.3906 C765.0938,267.9375 764.7031,267.5469 764.2344,267.5469 C764.0156,267.5469 763.8125,267.625 763.625,267.8125 C763.1719,268.2969 763.1719,268.2969 762.9844,268.3906 C762.5625,268.6563 761.875,268.7813 761.1094,268.7813 C759.0625,268.7813 757.7656,267.6875 757.7656,265.9844 L757.7656,264.8906 C757.7656,263.1094 759.0156,261.7969 760.75,261.7969 C761.3281,261.7969 761.9375,261.9531 762.4063,262.2031 C762.8906,262.4844 763.0625,262.7031 763.1563,263.1094 C763.2188,263.5156 763.25,263.6406 763.3906,263.7656 C763.5313,263.9063 763.7656,264.0156 763.9844,264.0156 C764.25,264.0156 764.5156,263.875 764.6875,263.6563 C764.7969,263.5 764.8281,263.3125 764.8281,262.8906 L764.8281,261.4688 C764.8281,261.0313 764.8125,260.9063 764.7188,260.75 C764.5625,260.4844 764.2813,260.3438 763.9844,260.3438 C763.6875,260.3438 763.4844,260.4375 763.2656,260.75 L763.0938,260.6719 Z " fill="#000000"/><text fill="#000000" font-family="sans-serif" font-size="12" lengthAdjust="spacing" textLength="129" x="781.25" y="269.1543">AlgoritmoExterno2API</text><line style="stroke:#A80036;stroke-width:1.5;" x1="635.5" x2="1023.5" y1="281" y2="281"/><line style="stroke:#A80036;stroke-width:1.5;" x1="635.5" x2="1023.5" y1="289" y2="289"/><ellipse cx="645.5" cy="300" fill="#84BE84" rx="3" ry="3" style="stroke:#038048;stroke-width:1.0;"/><text fill="#000000" font-family="sans-serif" font-size="11" lengthAdjust="spacing" textLength="169" x="654.5" y="303.2104">Password generatePassword()</text><ellipse cx="645.5" cy="312.8047" fill="#84BE84" rx="3" ry="3" style="stroke:#038048;stroke-width:1.0;"/><text fill="#000000" font-family="sans-serif" font-size="11" lengthAdjust="spacing" textLength="265" x="654.5" y="316.0151">Password generatePassword(String feedChars)</text><ellipse cx="645.5" cy="325.6094" fill="#84BE84" rx="3" ry="3" style="stroke:#038048;stroke-width:1.0;"/><text fill="#000000" font-family="sans-serif" font-size="11" lengthAdjust="spacing" textLength="261" x="654.5" y="328.8198">Password generatePassword(Integer strength)</text><ellipse cx="645.5" cy="338.4141" fill="#84BE84" rx="3" ry="3" style="stroke:#038048;stroke-width:1.0;"/><text fill="#000000" font-family="sans-serif" font-size="11" lengthAdjust="spacing" textLength="364" x="654.5" y="341.6245">Password generatePassword(Integer strength, String feedChars)</text><!--MD5=[3b4c874dbb4796ab835c6ebf706faa50]
reverse link AlgoritmoGeradorPasswords to AlgoritmoGeradorPasswordsAdapter1--><path codeLine="33" d="M556.917,79.18 C531.893,95.189 503.702,113.226 480.686,127.951 " fill="none" id="AlgoritmoGeradorPasswords-backto-AlgoritmoGeradorPasswordsAdapter1" style="stroke:#A80036;stroke-width:1.0;stroke-dasharray:7.0,7.0;"/><polygon fill="none" points="553.425,73.104,574.044,68.222,560.97,84.897,553.425,73.104" style="stroke:#A80036;stroke-width:1.0;"/><!--MD5=[864624d3236818d5e14622be9624e107]
link AlgoritmoGeradorPasswordsAdapter1 to AlgoritmoExterno1API--><path codeLine="34" d="M429.78,189.104 C426.66,208.681 422.524,234.619 419.082,256.2144 " fill="none" id="AlgoritmoGeradorPasswordsAdapter1-to-AlgoritmoExterno1API" style="stroke:#A80036;stroke-width:1.0;"/><polygon fill="#A80036" points="418.268,261.3189,423.6353,253.0611,419.0554,256.3813,415.7352,251.8013,418.268,261.3189" style="stroke:#A80036;stroke-width:1.0;"/><!--MD5=[aea5d5f858740067ee7f45dfccd9fbdf]
reverse link AlgoritmoGeradorPasswords to AlgoritmoGeradorPasswordsAdapter2--><path codeLine="35" d="M684.083,79.18 C709.107,95.189 737.298,113.226 760.314,127.951 " fill="none" id="AlgoritmoGeradorPasswords-backto-AlgoritmoGeradorPasswordsAdapter2" style="stroke:#A80036;stroke-width:1.0;stroke-dasharray:7.0,7.0;"/><polygon fill="none" points="680.03,84.897,666.956,68.222,687.575,73.104,680.03,84.897" style="stroke:#A80036;stroke-width:1.0;"/><!--MD5=[46349dc8cff6f25e516fc073b0e7ddd9]
link AlgoritmoGeradorPasswordsAdapter2 to AlgoritmoExterno2API--><path codeLine="36" d="M811.434,189.104 C814.088,205.031 817.445,225.168 820.542,243.751 " fill="none" id="AlgoritmoGeradorPasswordsAdapter2-to-AlgoritmoExterno2API" style="stroke:#A80036;stroke-width:1.0;"/><polygon fill="#A80036" points="821.408,248.9464,823.8753,239.4116,820.5867,244.0143,815.984,240.7257,821.408,248.9464" style="stroke:#A80036;stroke-width:1.0;"/><!--MD5=[794a9e6ad370d28c0819afba50ff80ea]
@startuml
interface AlgoritmoGeradorPasswords {
    - -
    +String geraPassword(String nomeG, String emailG)
}

note left
Esta interface será alvo de múltiplas implementações,
uma por cada algoritmo externo que tenha que ser suportado.
end note

class AlgoritmoGeradorPasswordsAdapter1 {
    - -
    +String geraPassword(String nome, Email email)
}

class AlgoritmoGeradorPasswordsAdapter2 {
    - -
    +String geraPassword(String nome, Email email)
}

class AlgoritmoExterno1API {
    +String randomPassword()
    +String randomPassword(Integer minChars, Integer maxChars)
}

class AlgoritmoExterno2API {
    +Password generatePassword()
    +Password generatePassword(String feedChars)
    +Password generatePassword(Integer strength)
    +Password generatePassword(Integer strength, String feedChars)
}

AlgoritmoGeradorPasswords <|.. AlgoritmoGeradorPasswordsAdapter1
AlgoritmoGeradorPasswordsAdapter1 - -> AlgoritmoExterno1API
AlgoritmoGeradorPasswords <|.. AlgoritmoGeradorPasswordsAdapter2
AlgoritmoGeradorPasswordsAdapter2 - -> AlgoritmoExterno2API
@enduml

PlantUML version 1.2021.01(Tue Feb 02 07:55:08 UTC 2021)
(GPL source distribution)
Java Runtime: Java(TM) SE Runtime Environment
JVM: Java HotSpot(TM) 64-Bit Server VM
Default Encoding: UTF-8
Language: en
Country: US
--></g></svg>