<?xml version="1.0" encoding="UTF-8" standalone="no"?><svg xmlns="http://www.w3.org/2000/svg" xmlns:xlink="http://www.w3.org/1999/xlink" contentScriptType="application/ecmascript" contentStyleType="text/css" height="373px" preserveAspectRatio="none" style="width:663px;height:373px;" version="1.1" viewBox="0 0 663 373" width="663px" zoomAndPan="magnify"><defs><filter height="300%" id="f7jdfd0rgdyvk" width="300%" x="-1" y="-1"><feGaussianBlur result="blurOut" stdDeviation="2.0"/><feColorMatrix in="blurOut" result="blurOut2" type="matrix" values="0 0 0 0 0 0 0 0 0 0 0 0 0 0 0 0 0 0 .4 0"/><feOffset dx="4.0" dy="4.0" in="blurOut2" result="blurOut3"/><feBlend in="SourceGraphic" in2="blurOut3" mode="normal"/></filter></defs><g><text fill="#000000" font-family="sans-serif" font-size="18" lengthAdjust="spacing" textLength="264" x="197.25" y="28.708">UC12 - Eliminar Candidatura</text><rect fill="#FFFFFF" filter="url(#f7jdfd0rgdyvk)" height="137.6641" style="stroke:#A80036;stroke-width:1.0;" width="10" x="41" y="133.25"/><rect fill="#FFFFFF" filter="url(#f7jdfd0rgdyvk)" height="116.5313" style="stroke:#A80036;stroke-width:1.0;" width="10" x="608" y="154.3828"/><line style="stroke:#A80036;stroke-width:1.0;stroke-dasharray:5.0,5.0;" x1="46" x2="46" y1="123.25" y2="288.9141"/><line style="stroke:#A80036;stroke-width:1.0;stroke-dasharray:5.0,5.0;" x1="612.5" x2="612.5" y1="123.25" y2="288.9141"/><text fill="#000000" font-family="sans-serif" font-size="14" lengthAdjust="spacing" textLength="76" x="5" y="119.9482">Freelancer</text><ellipse cx="46" cy="49.9531" fill="#FEFECE" filter="url(#f7jdfd0rgdyvk)" rx="8" ry="8" style="stroke:#A80036;stroke-width:2.0;"/><path d="M46,57.9531 L46,84.9531 M33,65.9531 L59,65.9531 M46,84.9531 L33,99.9531 M46,84.9531 L59,99.9531 " fill="none" filter="url(#f7jdfd0rgdyvk)" style="stroke:#A80036;stroke-width:2.0;"/><text fill="#000000" font-family="sans-serif" font-size="14" lengthAdjust="spacing" textLength="76" x="5" y="300.9092">Freelancer</text><ellipse cx="46" cy="314.2109" fill="#FEFECE" filter="url(#f7jdfd0rgdyvk)" rx="8" ry="8" style="stroke:#A80036;stroke-width:2.0;"/><path d="M46,322.2109 L46,349.2109 M33,330.2109 L59,330.2109 M46,349.2109 L33,364.2109 M46,349.2109 L59,364.2109 " fill="none" filter="url(#f7jdfd0rgdyvk)" style="stroke:#A80036;stroke-width:2.0;"/><rect fill="#FEFECE" filter="url(#f7jdfd0rgdyvk)" height="30.2969" style="stroke:#A80036;stroke-width:1.5;" width="77" x="572.5" y="87.9531"/><text fill="#000000" font-family="sans-serif" font-size="14" lengthAdjust="spacing" textLength="63" x="579.5" y="107.9482">:Sistema</text><rect fill="#FEFECE" filter="url(#f7jdfd0rgdyvk)" height="30.2969" style="stroke:#A80036;stroke-width:1.5;" width="77" x="572.5" y="287.9141"/><text fill="#000000" font-family="sans-serif" font-size="14" lengthAdjust="spacing" textLength="63" x="579.5" y="307.9092">:Sistema</text><rect fill="#FFFFFF" filter="url(#f7jdfd0rgdyvk)" height="137.6641" style="stroke:#A80036;stroke-width:1.0;" width="10" x="41" y="133.25"/><rect fill="#FFFFFF" filter="url(#f7jdfd0rgdyvk)" height="116.5313" style="stroke:#A80036;stroke-width:1.0;" width="10" x="608" y="154.3828"/><polygon fill="#A80036" points="596,150.3828,606,154.3828,596,158.3828,600,154.3828" style="stroke:#A80036;stroke-width:1.0;"/><line style="stroke:#A80036;stroke-width:1.0;" x1="51" x2="602" y1="154.3828" y2="154.3828"/><text fill="#000000" font-family="sans-serif" font-size="13" lengthAdjust="spacing" textLength="387" x="58" y="149.3169">1. Inicia a consulta a candidaturas em período de submissão</text><polygon fill="#A80036" points="596,179.5156,606,183.5156,596,187.5156,600,183.5156" style="stroke:#A80036;stroke-width:1.0;"/><line style="stroke:#A80036;stroke-width:1.0;" x1="51" x2="602" y1="183.5156" y2="183.5156"/><text fill="#000000" font-family="sans-serif" font-size="13" lengthAdjust="spacing" textLength="306" x="58" y="178.4497">3. Seleciona a candidatura que pretend eliminar</text><polygon fill="#A80036" points="62,208.6484,52,212.6484,62,216.6484,58,212.6484" style="stroke:#A80036;stroke-width:1.0;"/><line style="stroke:#A80036;stroke-width:1.0;stroke-dasharray:2.0,2.0;" x1="56" x2="607" y1="212.6484" y2="212.6484"/><text fill="#000000" font-family="sans-serif" font-size="13" lengthAdjust="spacing" textLength="417" x="68" y="207.5825">4. Solicita a confirmação do pedido de eliminação da candidatura</text><polygon fill="#A80036" points="596,237.7813,606,241.7813,596,245.7813,600,241.7813" style="stroke:#A80036;stroke-width:1.0;"/><line style="stroke:#A80036;stroke-width:1.0;" x1="51" x2="602" y1="241.7813" y2="241.7813"/><text fill="#000000" font-family="sans-serif" font-size="13" lengthAdjust="spacing" textLength="327" x="58" y="236.7153">5. Confirma o pedido de eliminação da candidatura</text><polygon fill="#A80036" points="57,266.9141,47,270.9141,57,274.9141,53,270.9141" style="stroke:#A80036;stroke-width:1.0;"/><line style="stroke:#A80036;stroke-width:1.0;stroke-dasharray:2.0,2.0;" x1="51" x2="612" y1="270.9141" y2="270.9141"/><text fill="#000000" font-family="sans-serif" font-size="13" lengthAdjust="spacing" textLength="533" x="63" y="265.8481">6. Informa que a operação de eliminação da candidatura foi realizada com sucesso</text><!--MD5=[d608c1782dbb75b013f4eab193b14edd]
@startuml
title UC12 - Eliminar Candidatura

actor Freelancer
participant ":Sistema" as Sistema
activate Freelancer

Freelancer -> Sistema : 1. Inicia a consulta a candidaturas em período de submissão
activate Sistema
Freelancer -> Sistema : 3. Seleciona a candidatura que pretend eliminar
Sistema - -> Freelancer : 4. Solicita a confirmação do pedido de eliminação da candidatura
Freelancer -> Sistema : 5. Confirma o pedido de eliminação da candidatura
Sistema - -> Freelancer : 6. Informa que a operação de eliminação da candidatura foi realizada com sucesso
deactivate Sistema
deactivate Freelancer
@enduml

PlantUML version 1.2021.2beta9(Unknown compile time)
(GPL source distribution)
Java Runtime: Java(TM) SE Runtime Environment
JVM: Java HotSpot(TM) 64-Bit Server VM
Default Encoding: UTF-8
Language: en
Country: US
--></g></svg>