<?xml version="1.0" encoding="UTF-8" standalone="no"?><svg xmlns="http://www.w3.org/2000/svg" xmlns:xlink="http://www.w3.org/1999/xlink" contentScriptType="application/ecmascript" contentStyleType="text/css" height="1244px" preserveAspectRatio="none" style="width:706px;height:1244px;" version="1.1" viewBox="0 0 706 1244" width="706px" zoomAndPan="magnify"><defs><filter height="300%" id="fqrvf6szeapyq" width="300%" x="-1" y="-1"><feGaussianBlur result="blurOut" stdDeviation="2.0"/><feColorMatrix in="blurOut" result="blurOut2" type="matrix" values="0 0 0 0 0 0 0 0 0 0 0 0 0 0 0 0 0 0 .4 0"/><feOffset dx="4.0" dy="4.0" in="blurOut2" result="blurOut3"/><feBlend in="SourceGraphic" in2="blurOut3" mode="normal"/></filter></defs><g><text fill="#000000" font-family="sans-serif" font-size="18" lengthAdjust="spacing" textLength="270" x="211.75" y="16.708">UC12 - Eliminar  Candidatura</text><!--MD5=[ecaed46f78f8cfe1e9ce18477649be18]
class Plataforma--><rect codeLine="3" fill="#FEFECE" filter="url(#fqrvf6szeapyq)" height="60.8047" id="Plataforma" style="stroke:#A80036;stroke-width:1.5;" width="128" x="82" y="27.9531"/><ellipse cx="112.3" cy="43.9531" fill="#ADD1B2" rx="11" ry="11" style="stroke:#A80036;stroke-width:1.0;"/><path d="M114.6438,39.625 C113.7063,39.1875 113.1125,39.0469 112.2375,39.0469 C109.6125,39.0469 107.6125,41.125 107.6125,43.8438 L107.6125,44.9688 C107.6125,47.5469 109.7219,49.4375 112.6125,49.4375 C113.8313,49.4375 114.9875,49.1406 115.7375,48.5938 C116.3156,48.1875 116.6438,47.7344 116.6438,47.3438 C116.6438,46.8906 116.2531,46.5 115.7844,46.5 C115.5656,46.5 115.3625,46.5781 115.175,46.7656 C114.7219,47.25 114.7219,47.25 114.5344,47.3438 C114.1125,47.6094 113.425,47.7344 112.6594,47.7344 C110.6125,47.7344 109.3156,46.6406 109.3156,44.9375 L109.3156,43.8438 C109.3156,42.0625 110.5656,40.75 112.3,40.75 C112.8781,40.75 113.4875,40.9063 113.9563,41.1563 C114.4406,41.4375 114.6125,41.6563 114.7063,42.0625 C114.7688,42.4688 114.8,42.5938 114.9406,42.7188 C115.0813,42.8594 115.3156,42.9688 115.5344,42.9688 C115.8,42.9688 116.0656,42.8281 116.2375,42.6094 C116.3469,42.4531 116.3781,42.2656 116.3781,41.8438 L116.3781,40.4219 C116.3781,39.9844 116.3625,39.8594 116.2688,39.7031 C116.1125,39.4375 115.8313,39.2969 115.5344,39.2969 C115.2375,39.2969 115.0344,39.3906 114.8156,39.7031 L114.6438,39.625 Z " fill="#000000"/><text fill="#000000" font-family="sans-serif" font-size="12" lengthAdjust="spacing" textLength="62" x="129.7" y="48.1074">Plataforma</text><line style="stroke:#A80036;stroke-width:1.5;" x1="83" x2="209" y1="59.9531" y2="59.9531"/><rect fill="none" height="6" style="stroke:#C82930;stroke-width:1.0;" width="6" x="90" y="67.9531"/><text fill="#000000" font-family="sans-serif" font-size="11" lengthAdjust="spacing" textLength="102" x="102" y="74.1636">String designacao</text><line style="stroke:#A80036;stroke-width:1.5;" x1="83" x2="209" y1="80.7578" y2="80.7578"/><!--MD5=[19db0db7353a4bf63eefc676e5ba9b80]
class Anuncio--><rect codeLine="7" fill="#FEFECE" filter="url(#fqrvf6szeapyq)" height="124.8281" id="Anuncio" style="stroke:#A80036;stroke-width:1.5;" width="179" x="152.5" y="165.9531"/><ellipse cx="214.25" cy="181.9531" fill="#ADD1B2" rx="11" ry="11" style="stroke:#A80036;stroke-width:1.0;"/><path d="M216.5938,177.625 C215.6563,177.1875 215.0625,177.0469 214.1875,177.0469 C211.5625,177.0469 209.5625,179.125 209.5625,181.8438 L209.5625,182.9688 C209.5625,185.5469 211.6719,187.4375 214.5625,187.4375 C215.7813,187.4375 216.9375,187.1406 217.6875,186.5938 C218.2656,186.1875 218.5938,185.7344 218.5938,185.3438 C218.5938,184.8906 218.2031,184.5 217.7344,184.5 C217.5156,184.5 217.3125,184.5781 217.125,184.7656 C216.6719,185.25 216.6719,185.25 216.4844,185.3438 C216.0625,185.6094 215.375,185.7344 214.6094,185.7344 C212.5625,185.7344 211.2656,184.6406 211.2656,182.9375 L211.2656,181.8438 C211.2656,180.0625 212.5156,178.75 214.25,178.75 C214.8281,178.75 215.4375,178.9063 215.9063,179.1563 C216.3906,179.4375 216.5625,179.6563 216.6563,180.0625 C216.7188,180.4688 216.75,180.5938 216.8906,180.7188 C217.0313,180.8594 217.2656,180.9688 217.4844,180.9688 C217.75,180.9688 218.0156,180.8281 218.1875,180.6094 C218.2969,180.4531 218.3281,180.2656 218.3281,179.8438 L218.3281,178.4219 C218.3281,177.9844 218.3125,177.8594 218.2188,177.7031 C218.0625,177.4375 217.7813,177.2969 217.4844,177.2969 C217.1875,177.2969 216.9844,177.3906 216.7656,177.7031 L216.5938,177.625 Z " fill="#000000"/><text fill="#000000" font-family="sans-serif" font-size="12" lengthAdjust="spacing" textLength="47" x="234.75" y="186.1074">Anuncio</text><line style="stroke:#A80036;stroke-width:1.5;" x1="153.5" x2="330.5" y1="197.9531" y2="197.9531"/><rect fill="none" height="6" style="stroke:#C82930;stroke-width:1.0;" width="6" x="160.5" y="205.9531"/><text fill="#000000" font-family="sans-serif" font-size="11" lengthAdjust="spacing" textLength="151" x="172.5" y="212.1636">Data dataInicioPublicitacao</text><rect fill="none" height="6" style="stroke:#C82930;stroke-width:1.0;" width="6" x="160.5" y="218.7578"/><text fill="#000000" font-family="sans-serif" font-size="11" lengthAdjust="spacing" textLength="142" x="172.5" y="224.9683">Data dataFimPublicitacao</text><rect fill="none" height="6" style="stroke:#C82930;stroke-width:1.0;" width="6" x="160.5" y="231.5625"/><text fill="#000000" font-family="sans-serif" font-size="11" lengthAdjust="spacing" textLength="153" x="172.5" y="237.7729">Data dataInicioCandidatura</text><rect fill="none" height="6" style="stroke:#C82930;stroke-width:1.0;" width="6" x="160.5" y="244.3672"/><text fill="#000000" font-family="sans-serif" font-size="11" lengthAdjust="spacing" textLength="144" x="172.5" y="250.5776">Data dataFimCandidatura</text><rect fill="none" height="6" style="stroke:#C82930;stroke-width:1.0;" width="6" x="160.5" y="257.1719"/><text fill="#000000" font-family="sans-serif" font-size="11" lengthAdjust="spacing" textLength="110" x="172.5" y="263.3823">Data inicioSeriacao</text><rect fill="none" height="6" style="stroke:#C82930;stroke-width:1.0;" width="6" x="160.5" y="269.9766"/><text fill="#000000" font-family="sans-serif" font-size="11" lengthAdjust="spacing" textLength="99" x="172.5" y="276.187">Data fimSeriacao</text><line style="stroke:#A80036;stroke-width:1.5;" x1="153.5" x2="330.5" y1="282.7813" y2="282.7813"/><!--MD5=[7e1ce8ab2bf669717f28e918f4971b9a]
class Categoria--><rect codeLine="16" fill="#FEFECE" filter="url(#fqrvf6szeapyq)" height="73.6094" id="Categoria" style="stroke:#A80036;stroke-width:1.5;" width="117" x="77.5" y="569.9531"/><ellipse cx="104.65" cy="585.9531" fill="#ADD1B2" rx="11" ry="11" style="stroke:#A80036;stroke-width:1.0;"/><path d="M106.9938,581.625 C106.0563,581.1875 105.4625,581.0469 104.5875,581.0469 C101.9625,581.0469 99.9625,583.125 99.9625,585.8438 L99.9625,586.9688 C99.9625,589.5469 102.0719,591.4375 104.9625,591.4375 C106.1813,591.4375 107.3375,591.1406 108.0875,590.5938 C108.6656,590.1875 108.9938,589.7344 108.9938,589.3438 C108.9938,588.8906 108.6031,588.5 108.1344,588.5 C107.9156,588.5 107.7125,588.5781 107.525,588.7656 C107.0719,589.25 107.0719,589.25 106.8844,589.3438 C106.4625,589.6094 105.775,589.7344 105.0094,589.7344 C102.9625,589.7344 101.6656,588.6406 101.6656,586.9375 L101.6656,585.8438 C101.6656,584.0625 102.9156,582.75 104.65,582.75 C105.2281,582.75 105.8375,582.9063 106.3063,583.1563 C106.7906,583.4375 106.9625,583.6563 107.0563,584.0625 C107.1188,584.4688 107.15,584.5938 107.2906,584.7188 C107.4313,584.8594 107.6656,584.9688 107.8844,584.9688 C108.15,584.9688 108.4156,584.8281 108.5875,584.6094 C108.6969,584.4531 108.7281,584.2656 108.7281,583.8438 L108.7281,582.4219 C108.7281,581.9844 108.7125,581.8594 108.6188,581.7031 C108.4625,581.4375 108.1813,581.2969 107.8844,581.2969 C107.5875,581.2969 107.3844,581.3906 107.1656,581.7031 L106.9938,581.625 Z " fill="#000000"/><text fill="#000000" font-family="sans-serif" font-size="12" lengthAdjust="spacing" textLength="58" x="121.35" y="590.1074">Categoria</text><line style="stroke:#A80036;stroke-width:1.5;" x1="78.5" x2="193.5" y1="601.9531" y2="601.9531"/><rect fill="none" height="6" style="stroke:#C82930;stroke-width:1.0;" width="6" x="85.5" y="609.9531"/><text fill="#000000" font-family="sans-serif" font-size="11" lengthAdjust="spacing" textLength="47" x="97.5" y="616.1636">String id</text><rect fill="none" height="6" style="stroke:#C82930;stroke-width:1.0;" width="6" x="85.5" y="622.7578"/><text fill="#000000" font-family="sans-serif" font-size="11" lengthAdjust="spacing" textLength="91" x="97.5" y="628.9683">String descricao</text><line style="stroke:#A80036;stroke-width:1.5;" x1="78.5" x2="193.5" y1="635.5625" y2="635.5625"/><!--MD5=[0d4fe674cc1d46ec0fc990086e50801a]
class GrauProficiencia--><rect codeLine="21" fill="#FEFECE" filter="url(#fqrvf6szeapyq)" height="73.6094" id="GrauProficiencia" style="stroke:#A80036;stroke-width:1.5;" width="128" x="270" y="1149.9531"/><ellipse cx="285" cy="1165.9531" fill="#ADD1B2" rx="11" ry="11" style="stroke:#A80036;stroke-width:1.0;"/><path d="M287.3438,1161.625 C286.4063,1161.1875 285.8125,1161.0469 284.9375,1161.0469 C282.3125,1161.0469 280.3125,1163.125 280.3125,1165.8438 L280.3125,1166.9688 C280.3125,1169.5469 282.4219,1171.4375 285.3125,1171.4375 C286.5313,1171.4375 287.6875,1171.1406 288.4375,1170.5938 C289.0156,1170.1875 289.3438,1169.7344 289.3438,1169.3438 C289.3438,1168.8906 288.9531,1168.5 288.4844,1168.5 C288.2656,1168.5 288.0625,1168.5781 287.875,1168.7656 C287.4219,1169.25 287.4219,1169.25 287.2344,1169.3438 C286.8125,1169.6094 286.125,1169.7344 285.3594,1169.7344 C283.3125,1169.7344 282.0156,1168.6406 282.0156,1166.9375 L282.0156,1165.8438 C282.0156,1164.0625 283.2656,1162.75 285,1162.75 C285.5781,1162.75 286.1875,1162.9063 286.6563,1163.1563 C287.1406,1163.4375 287.3125,1163.6563 287.4063,1164.0625 C287.4688,1164.4688 287.5,1164.5938 287.6406,1164.7188 C287.7813,1164.8594 288.0156,1164.9688 288.2344,1164.9688 C288.5,1164.9688 288.7656,1164.8281 288.9375,1164.6094 C289.0469,1164.4531 289.0781,1164.2656 289.0781,1163.8438 L289.0781,1162.4219 C289.0781,1161.9844 289.0625,1161.8594 288.9688,1161.7031 C288.8125,1161.4375 288.5313,1161.2969 288.2344,1161.2969 C287.9375,1161.2969 287.7344,1161.3906 287.5156,1161.7031 L287.3438,1161.625 Z " fill="#000000"/><text fill="#000000" font-family="sans-serif" font-size="12" lengthAdjust="spacing" textLength="96" x="299" y="1170.1074">GrauProficiencia</text><line style="stroke:#A80036;stroke-width:1.5;" x1="271" x2="397" y1="1181.9531" y2="1181.9531"/><rect fill="none" height="6" style="stroke:#C82930;stroke-width:1.0;" width="6" x="278" y="1189.9531"/><text fill="#000000" font-family="sans-serif" font-size="11" lengthAdjust="spacing" textLength="73" x="290" y="1196.1636">Integer valor</text><rect fill="none" height="6" style="stroke:#C82930;stroke-width:1.0;" width="6" x="278" y="1202.7578"/><text fill="#000000" font-family="sans-serif" font-size="11" lengthAdjust="spacing" textLength="102" x="290" y="1208.9683">String designacao</text><line style="stroke:#A80036;stroke-width:1.5;" x1="271" x2="397" y1="1215.5625" y2="1215.5625"/><!--MD5=[771e22998d49d0887d5d7ff5d01113c6]
class CaracterizacaoCT--><rect codeLine="26" fill="#FEFECE" filter="url(#fqrvf6szeapyq)" height="60.8047" id="CaracterizacaoCT" style="stroke:#A80036;stroke-width:1.5;" width="137" x="118.5" y="914.9531"/><ellipse cx="133.5" cy="930.9531" fill="#ADD1B2" rx="11" ry="11" style="stroke:#A80036;stroke-width:1.0;"/><path d="M135.8438,926.625 C134.9063,926.1875 134.3125,926.0469 133.4375,926.0469 C130.8125,926.0469 128.8125,928.125 128.8125,930.8438 L128.8125,931.9688 C128.8125,934.5469 130.9219,936.4375 133.8125,936.4375 C135.0313,936.4375 136.1875,936.1406 136.9375,935.5938 C137.5156,935.1875 137.8438,934.7344 137.8438,934.3438 C137.8438,933.8906 137.4531,933.5 136.9844,933.5 C136.7656,933.5 136.5625,933.5781 136.375,933.7656 C135.9219,934.25 135.9219,934.25 135.7344,934.3438 C135.3125,934.6094 134.625,934.7344 133.8594,934.7344 C131.8125,934.7344 130.5156,933.6406 130.5156,931.9375 L130.5156,930.8438 C130.5156,929.0625 131.7656,927.75 133.5,927.75 C134.0781,927.75 134.6875,927.9063 135.1563,928.1563 C135.6406,928.4375 135.8125,928.6563 135.9063,929.0625 C135.9688,929.4688 136,929.5938 136.1406,929.7188 C136.2813,929.8594 136.5156,929.9688 136.7344,929.9688 C137,929.9688 137.2656,929.8281 137.4375,929.6094 C137.5469,929.4531 137.5781,929.2656 137.5781,928.8438 L137.5781,927.4219 C137.5781,926.9844 137.5625,926.8594 137.4688,926.7031 C137.3125,926.4375 137.0313,926.2969 136.7344,926.2969 C136.4375,926.2969 136.2344,926.3906 136.0156,926.7031 L135.8438,926.625 Z " fill="#000000"/><text fill="#000000" font-family="sans-serif" font-size="12" lengthAdjust="spacing" textLength="105" x="147.5" y="935.1074">CaracterizacaoCT</text><line style="stroke:#A80036;stroke-width:1.5;" x1="119.5" x2="254.5" y1="946.9531" y2="946.9531"/><rect fill="none" height="6" style="stroke:#C82930;stroke-width:1.0;" width="6" x="126.5" y="954.9531"/><text fill="#000000" font-family="sans-serif" font-size="11" lengthAdjust="spacing" textLength="110" x="138.5" y="961.1636">boolean obrigatoria</text><line style="stroke:#A80036;stroke-width:1.5;" x1="119.5" x2="254.5" y1="967.7578" y2="967.7578"/><!--MD5=[a322db5a7ec64d2ff8f2d6cf1831dcec]
class CompetenciaTecnica--><rect codeLine="29" fill="#FEFECE" filter="url(#fqrvf6szeapyq)" height="86.4141" id="CompetenciaTecnica" style="stroke:#A80036;stroke-width:1.5;" width="176" x="7" y="1143.9531"/><ellipse cx="30.55" cy="1159.9531" fill="#ADD1B2" rx="11" ry="11" style="stroke:#A80036;stroke-width:1.0;"/><path d="M32.8938,1155.625 C31.9563,1155.1875 31.3625,1155.0469 30.4875,1155.0469 C27.8625,1155.0469 25.8625,1157.125 25.8625,1159.8438 L25.8625,1160.9688 C25.8625,1163.5469 27.9719,1165.4375 30.8625,1165.4375 C32.0813,1165.4375 33.2375,1165.1406 33.9875,1164.5938 C34.5656,1164.1875 34.8938,1163.7344 34.8938,1163.3438 C34.8938,1162.8906 34.5031,1162.5 34.0344,1162.5 C33.8156,1162.5 33.6125,1162.5781 33.425,1162.7656 C32.9719,1163.25 32.9719,1163.25 32.7844,1163.3438 C32.3625,1163.6094 31.675,1163.7344 30.9094,1163.7344 C28.8625,1163.7344 27.5656,1162.6406 27.5656,1160.9375 L27.5656,1159.8438 C27.5656,1158.0625 28.8156,1156.75 30.55,1156.75 C31.1281,1156.75 31.7375,1156.9063 32.2063,1157.1563 C32.6906,1157.4375 32.8625,1157.6563 32.9563,1158.0625 C33.0188,1158.4688 33.05,1158.5938 33.1906,1158.7188 C33.3313,1158.8594 33.5656,1158.9688 33.7844,1158.9688 C34.05,1158.9688 34.3156,1158.8281 34.4875,1158.6094 C34.5969,1158.4531 34.6281,1158.2656 34.6281,1157.8438 L34.6281,1156.4219 C34.6281,1155.9844 34.6125,1155.8594 34.5188,1155.7031 C34.3625,1155.4375 34.0813,1155.2969 33.7844,1155.2969 C33.4875,1155.2969 33.2844,1155.3906 33.0656,1155.7031 L32.8938,1155.625 Z " fill="#000000"/><text fill="#000000" font-family="sans-serif" font-size="12" lengthAdjust="spacing" textLength="125" x="46.45" y="1164.1074">CompetenciaTecnica</text><line style="stroke:#A80036;stroke-width:1.5;" x1="8" x2="182" y1="1175.9531" y2="1175.9531"/><rect fill="none" height="6" style="stroke:#C82930;stroke-width:1.0;" width="6" x="15" y="1183.9531"/><text fill="#000000" font-family="sans-serif" font-size="11" lengthAdjust="spacing" textLength="74" x="27" y="1190.1636">String codigo</text><rect fill="none" height="6" style="stroke:#C82930;stroke-width:1.0;" width="6" x="15" y="1196.7578"/><text fill="#000000" font-family="sans-serif" font-size="11" lengthAdjust="spacing" textLength="126" x="27" y="1202.9683">String descricaoBreve</text><rect fill="none" height="6" style="stroke:#C82930;stroke-width:1.0;" width="6" x="15" y="1209.5625"/><text fill="#000000" font-family="sans-serif" font-size="11" lengthAdjust="spacing" textLength="150" x="27" y="1215.7729">String descricaoDetalhada</text><line style="stroke:#A80036;stroke-width:1.5;" x1="8" x2="182" y1="1222.3672" y2="1222.3672"/><!--MD5=[27c2d4bbe9f7b9d3b0ea2797cc54308a]
class Tarefa--><rect codeLine="35" fill="#FEFECE" filter="url(#fqrvf6szeapyq)" height="124.8281" id="Tarefa" style="stroke:#A80036;stroke-width:1.5;" width="168" x="148" y="367.9531"/><ellipse cx="208.75" cy="383.9531" fill="#ADD1B2" rx="11" ry="11" style="stroke:#A80036;stroke-width:1.0;"/><path d="M211.0938,379.625 C210.1563,379.1875 209.5625,379.0469 208.6875,379.0469 C206.0625,379.0469 204.0625,381.125 204.0625,383.8438 L204.0625,384.9688 C204.0625,387.5469 206.1719,389.4375 209.0625,389.4375 C210.2813,389.4375 211.4375,389.1406 212.1875,388.5938 C212.7656,388.1875 213.0938,387.7344 213.0938,387.3438 C213.0938,386.8906 212.7031,386.5 212.2344,386.5 C212.0156,386.5 211.8125,386.5781 211.625,386.7656 C211.1719,387.25 211.1719,387.25 210.9844,387.3438 C210.5625,387.6094 209.875,387.7344 209.1094,387.7344 C207.0625,387.7344 205.7656,386.6406 205.7656,384.9375 L205.7656,383.8438 C205.7656,382.0625 207.0156,380.75 208.75,380.75 C209.3281,380.75 209.9375,380.9063 210.4063,381.1563 C210.8906,381.4375 211.0625,381.6563 211.1563,382.0625 C211.2188,382.4688 211.25,382.5938 211.3906,382.7188 C211.5313,382.8594 211.7656,382.9688 211.9844,382.9688 C212.25,382.9688 212.5156,382.8281 212.6875,382.6094 C212.7969,382.4531 212.8281,382.2656 212.8281,381.8438 L212.8281,380.4219 C212.8281,379.9844 212.8125,379.8594 212.7188,379.7031 C212.5625,379.4375 212.2813,379.2969 211.9844,379.2969 C211.6875,379.2969 211.4844,379.3906 211.2656,379.7031 L211.0938,379.625 Z " fill="#000000"/><text fill="#000000" font-family="sans-serif" font-size="12" lengthAdjust="spacing" textLength="38" x="229.25" y="388.1074">Tarefa</text><line style="stroke:#A80036;stroke-width:1.5;" x1="149" x2="315" y1="399.9531" y2="399.9531"/><rect fill="none" height="6" style="stroke:#C82930;stroke-width:1.0;" width="6" x="156" y="407.9531"/><text fill="#000000" font-family="sans-serif" font-size="11" lengthAdjust="spacing" textLength="96" x="168" y="414.1636">String referencia</text><rect fill="none" height="6" style="stroke:#C82930;stroke-width:1.0;" width="6" x="156" y="420.7578"/><text fill="#000000" font-family="sans-serif" font-size="11" lengthAdjust="spacing" textLength="102" x="168" y="426.9683">String designacao</text><rect fill="none" height="6" style="stroke:#C82930;stroke-width:1.0;" width="6" x="156" y="433.5625"/><text fill="#000000" font-family="sans-serif" font-size="11" lengthAdjust="spacing" textLength="137" x="168" y="439.7729">String descricaoInformal</text><rect fill="none" height="6" style="stroke:#C82930;stroke-width:1.0;" width="6" x="156" y="446.3672"/><text fill="#000000" font-family="sans-serif" font-size="11" lengthAdjust="spacing" textLength="135" x="168" y="452.5776">String descricaoTecnica</text><rect fill="none" height="6" style="stroke:#C82930;stroke-width:1.0;" width="6" x="156" y="459.1719"/><text fill="#000000" font-family="sans-serif" font-size="11" lengthAdjust="spacing" textLength="142" x="168" y="465.3823">Integer duracaoEstimada</text><rect fill="none" height="6" style="stroke:#C82930;stroke-width:1.0;" width="6" x="156" y="471.9766"/><text fill="#000000" font-family="sans-serif" font-size="11" lengthAdjust="spacing" textLength="125" x="168" y="478.187">double custoEstimado</text><line style="stroke:#A80036;stroke-width:1.5;" x1="149" x2="315" y1="484.7813" y2="484.7813"/><!--MD5=[1f687b5315377fe49fca59b457947463]
class Freelancer--><rect codeLine="44" fill="#FEFECE" filter="url(#fqrvf6szeapyq)" height="99.2188" id="Freelancer" style="stroke:#A80036;stroke-width:1.5;" width="112" x="405" y="380.9531"/><ellipse cx="426.75" cy="396.9531" fill="#ADD1B2" rx="11" ry="11" style="stroke:#A80036;stroke-width:1.0;"/><path d="M429.0938,392.625 C428.1563,392.1875 427.5625,392.0469 426.6875,392.0469 C424.0625,392.0469 422.0625,394.125 422.0625,396.8438 L422.0625,397.9688 C422.0625,400.5469 424.1719,402.4375 427.0625,402.4375 C428.2813,402.4375 429.4375,402.1406 430.1875,401.5938 C430.7656,401.1875 431.0938,400.7344 431.0938,400.3438 C431.0938,399.8906 430.7031,399.5 430.2344,399.5 C430.0156,399.5 429.8125,399.5781 429.625,399.7656 C429.1719,400.25 429.1719,400.25 428.9844,400.3438 C428.5625,400.6094 427.875,400.7344 427.1094,400.7344 C425.0625,400.7344 423.7656,399.6406 423.7656,397.9375 L423.7656,396.8438 C423.7656,395.0625 425.0156,393.75 426.75,393.75 C427.3281,393.75 427.9375,393.9063 428.4063,394.1563 C428.8906,394.4375 429.0625,394.6563 429.1563,395.0625 C429.2188,395.4688 429.25,395.5938 429.3906,395.7188 C429.5313,395.8594 429.7656,395.9688 429.9844,395.9688 C430.25,395.9688 430.5156,395.8281 430.6875,395.6094 C430.7969,395.4531 430.8281,395.2656 430.8281,394.8438 L430.8281,393.4219 C430.8281,392.9844 430.8125,392.8594 430.7188,392.7031 C430.5625,392.4375 430.2813,392.2969 429.9844,392.2969 C429.6875,392.2969 429.4844,392.3906 429.2656,392.7031 L429.0938,392.625 Z " fill="#000000"/><text fill="#000000" font-family="sans-serif" font-size="12" lengthAdjust="spacing" textLength="65" x="442.25" y="401.1074">Freelancer</text><line style="stroke:#A80036;stroke-width:1.5;" x1="406" x2="516" y1="412.9531" y2="412.9531"/><rect fill="none" height="6" style="stroke:#C82930;stroke-width:1.0;" width="6" x="413" y="420.9531"/><text fill="#000000" font-family="sans-serif" font-size="11" lengthAdjust="spacing" textLength="70" x="425" y="427.1636">String nome</text><rect fill="none" height="6" style="stroke:#C82930;stroke-width:1.0;" width="6" x="413" y="433.7578"/><text fill="#000000" font-family="sans-serif" font-size="11" lengthAdjust="spacing" textLength="54" x="425" y="439.9683">String NIF</text><rect fill="none" height="6" style="stroke:#C82930;stroke-width:1.0;" width="6" x="413" y="446.5625"/><text fill="#000000" font-family="sans-serif" font-size="11" lengthAdjust="spacing" textLength="86" x="425" y="452.7729">String telefone</text><rect fill="none" height="6" style="stroke:#C82930;stroke-width:1.0;" width="6" x="413" y="459.3672"/><text fill="#000000" font-family="sans-serif" font-size="11" lengthAdjust="spacing" textLength="67" x="425" y="465.5776">Email email</text><line style="stroke:#A80036;stroke-width:1.5;" x1="406" x2="516" y1="472.1719" y2="472.1719"/><!--MD5=[475c5b924ed41035684e2831311827d2]
class Candidatura--><rect codeLine="51" fill="#FEFECE" filter="url(#fqrvf6szeapyq)" height="124.8281" id="Candidatura" style="stroke:#A80036;stroke-width:1.5;" width="187" x="505.5" y="165.9531"/><ellipse cx="559.25" cy="181.9531" fill="#ADD1B2" rx="11" ry="11" style="stroke:#A80036;stroke-width:1.0;"/><path d="M561.5938,177.625 C560.6563,177.1875 560.0625,177.0469 559.1875,177.0469 C556.5625,177.0469 554.5625,179.125 554.5625,181.8438 L554.5625,182.9688 C554.5625,185.5469 556.6719,187.4375 559.5625,187.4375 C560.7813,187.4375 561.9375,187.1406 562.6875,186.5938 C563.2656,186.1875 563.5938,185.7344 563.5938,185.3438 C563.5938,184.8906 563.2031,184.5 562.7344,184.5 C562.5156,184.5 562.3125,184.5781 562.125,184.7656 C561.6719,185.25 561.6719,185.25 561.4844,185.3438 C561.0625,185.6094 560.375,185.7344 559.6094,185.7344 C557.5625,185.7344 556.2656,184.6406 556.2656,182.9375 L556.2656,181.8438 C556.2656,180.0625 557.5156,178.75 559.25,178.75 C559.8281,178.75 560.4375,178.9063 560.9063,179.1563 C561.3906,179.4375 561.5625,179.6563 561.6563,180.0625 C561.7188,180.4688 561.75,180.5938 561.8906,180.7188 C562.0313,180.8594 562.2656,180.9688 562.4844,180.9688 C562.75,180.9688 563.0156,180.8281 563.1875,180.6094 C563.2969,180.4531 563.3281,180.2656 563.3281,179.8438 L563.3281,178.4219 C563.3281,177.9844 563.3125,177.8594 563.2188,177.7031 C563.0625,177.4375 562.7813,177.2969 562.4844,177.2969 C562.1875,177.2969 561.9844,177.3906 561.7656,177.7031 L561.5938,177.625 Z " fill="#000000"/><text fill="#000000" font-family="sans-serif" font-size="12" lengthAdjust="spacing" textLength="71" x="579.75" y="186.1074">Candidatura</text><line style="stroke:#A80036;stroke-width:1.5;" x1="506.5" x2="691.5" y1="197.9531" y2="197.9531"/><rect fill="none" height="6" style="stroke:#C82930;stroke-width:1.0;" width="6" x="513.5" y="205.9531"/><text fill="#000000" font-family="sans-serif" font-size="11" lengthAdjust="spacing" textLength="124" x="525.5" y="212.1636">Data dataCandidatura</text><rect fill="none" height="6" style="stroke:#C82930;stroke-width:1.0;" width="6" x="513.5" y="218.7578"/><text fill="#000000" font-family="sans-serif" font-size="11" lengthAdjust="spacing" textLength="161" x="525.5" y="224.9683">Data dataEdicaoCandidatura</text><rect fill="none" height="6" style="stroke:#C82930;stroke-width:1.0;" width="6" x="513.5" y="231.5625"/><text fill="#000000" font-family="sans-serif" font-size="11" lengthAdjust="spacing" textLength="134" x="525.5" y="237.7729">Double valorPretendido</text><rect fill="none" height="6" style="stroke:#C82930;stroke-width:1.0;" width="6" x="513.5" y="244.3672"/><text fill="#000000" font-family="sans-serif" font-size="11" lengthAdjust="spacing" textLength="114" x="525.5" y="250.5776">Integer numeroDias</text><rect fill="none" height="6" style="stroke:#C82930;stroke-width:1.0;" width="6" x="513.5" y="257.1719"/><text fill="#000000" font-family="sans-serif" font-size="11" lengthAdjust="spacing" textLength="131" x="525.5" y="263.3823">String txtApresentacao</text><rect fill="none" height="6" style="stroke:#C82930;stroke-width:1.0;" width="6" x="513.5" y="269.9766"/><text fill="#000000" font-family="sans-serif" font-size="11" lengthAdjust="spacing" textLength="109" x="525.5" y="276.187">String txtMotivacao</text><line style="stroke:#A80036;stroke-width:1.5;" x1="506.5" x2="691.5" y1="282.7813" y2="282.7813"/><!--MD5=[87602f047bdeda361e6d6669da197818]
class HabilitacaoAcademica--><rect codeLine="60" fill="#FEFECE" filter="url(#fqrvf6szeapyq)" height="99.2188" id="HabilitacaoAcademica" style="stroke:#A80036;stroke-width:1.5;" width="164" x="228" y="720.9531"/><ellipse cx="243" cy="736.9531" fill="#ADD1B2" rx="11" ry="11" style="stroke:#A80036;stroke-width:1.0;"/><path d="M245.3438,732.625 C244.4063,732.1875 243.8125,732.0469 242.9375,732.0469 C240.3125,732.0469 238.3125,734.125 238.3125,736.8438 L238.3125,737.9688 C238.3125,740.5469 240.4219,742.4375 243.3125,742.4375 C244.5313,742.4375 245.6875,742.1406 246.4375,741.5938 C247.0156,741.1875 247.3438,740.7344 247.3438,740.3438 C247.3438,739.8906 246.9531,739.5 246.4844,739.5 C246.2656,739.5 246.0625,739.5781 245.875,739.7656 C245.4219,740.25 245.4219,740.25 245.2344,740.3438 C244.8125,740.6094 244.125,740.7344 243.3594,740.7344 C241.3125,740.7344 240.0156,739.6406 240.0156,737.9375 L240.0156,736.8438 C240.0156,735.0625 241.2656,733.75 243,733.75 C243.5781,733.75 244.1875,733.9063 244.6563,734.1563 C245.1406,734.4375 245.3125,734.6563 245.4063,735.0625 C245.4688,735.4688 245.5,735.5938 245.6406,735.7188 C245.7813,735.8594 246.0156,735.9688 246.2344,735.9688 C246.5,735.9688 246.7656,735.8281 246.9375,735.6094 C247.0469,735.4531 247.0781,735.2656 247.0781,734.8438 L247.0781,733.4219 C247.0781,732.9844 247.0625,732.8594 246.9688,732.7031 C246.8125,732.4375 246.5313,732.2969 246.2344,732.2969 C245.9375,732.2969 245.7344,732.3906 245.5156,732.7031 L245.3438,732.625 Z " fill="#000000"/><text fill="#000000" font-family="sans-serif" font-size="12" lengthAdjust="spacing" textLength="132" x="257" y="741.1074">HabilitacaoAcademica</text><line style="stroke:#A80036;stroke-width:1.5;" x1="229" x2="391" y1="752.9531" y2="752.9531"/><rect fill="none" height="6" style="stroke:#C82930;stroke-width:1.0;" width="6" x="236" y="760.9531"/><text fill="#000000" font-family="sans-serif" font-size="11" lengthAdjust="spacing" textLength="62" x="248" y="767.1636">String grau</text><rect fill="none" height="6" style="stroke:#C82930;stroke-width:1.0;" width="6" x="236" y="773.7578"/><text fill="#000000" font-family="sans-serif" font-size="11" lengthAdjust="spacing" textLength="134" x="248" y="779.9683">String designacaoCurso</text><rect fill="none" height="6" style="stroke:#C82930;stroke-width:1.0;" width="6" x="236" y="786.5625"/><text fill="#000000" font-family="sans-serif" font-size="11" lengthAdjust="spacing" textLength="127" x="248" y="792.7729">String nomeInstituicao</text><rect fill="none" height="6" style="stroke:#C82930;stroke-width:1.0;" width="6" x="236" y="799.3672"/><text fill="#000000" font-family="sans-serif" font-size="11" lengthAdjust="spacing" textLength="113" x="248" y="805.5776">Double mediaCurso</text><line style="stroke:#A80036;stroke-width:1.5;" x1="229" x2="391" y1="812.1719" y2="812.1719"/><!--MD5=[df9f144f4e207f6ab4cd6fad6014a9df]
class ReconhecimentoCT--><rect codeLine="67" fill="#FEFECE" filter="url(#fqrvf6szeapyq)" height="60.8047" id="ReconhecimentoCT" style="stroke:#A80036;stroke-width:1.5;" width="178" x="373" y="1005.9531"/><ellipse cx="401.95" cy="1021.9531" fill="#ADD1B2" rx="11" ry="11" style="stroke:#A80036;stroke-width:1.0;"/><path d="M404.2938,1017.625 C403.3563,1017.1875 402.7625,1017.0469 401.8875,1017.0469 C399.2625,1017.0469 397.2625,1019.125 397.2625,1021.8438 L397.2625,1022.9688 C397.2625,1025.5469 399.3719,1027.4375 402.2625,1027.4375 C403.4813,1027.4375 404.6375,1027.1406 405.3875,1026.5938 C405.9656,1026.1875 406.2938,1025.7344 406.2938,1025.3438 C406.2938,1024.8906 405.9031,1024.5 405.4344,1024.5 C405.2156,1024.5 405.0125,1024.5781 404.825,1024.7656 C404.3719,1025.25 404.3719,1025.25 404.1844,1025.3438 C403.7625,1025.6094 403.075,1025.7344 402.3094,1025.7344 C400.2625,1025.7344 398.9656,1024.6406 398.9656,1022.9375 L398.9656,1021.8438 C398.9656,1020.0625 400.2156,1018.75 401.95,1018.75 C402.5281,1018.75 403.1375,1018.9063 403.6063,1019.1563 C404.0906,1019.4375 404.2625,1019.6563 404.3563,1020.0625 C404.4188,1020.4688 404.45,1020.5938 404.5906,1020.7188 C404.7313,1020.8594 404.9656,1020.9688 405.1844,1020.9688 C405.45,1020.9688 405.7156,1020.8281 405.8875,1020.6094 C405.9969,1020.4531 406.0281,1020.2656 406.0281,1019.8438 L406.0281,1018.4219 C406.0281,1017.9844 406.0125,1017.8594 405.9188,1017.7031 C405.7625,1017.4375 405.4813,1017.2969 405.1844,1017.2969 C404.8875,1017.2969 404.6844,1017.3906 404.4656,1017.7031 L404.2938,1017.625 Z " fill="#000000"/><text fill="#000000" font-family="sans-serif" font-size="12" lengthAdjust="spacing" textLength="115" x="419.05" y="1026.1074">ReconhecimentoCT</text><line style="stroke:#A80036;stroke-width:1.5;" x1="374" x2="550" y1="1037.9531" y2="1037.9531"/><rect fill="none" height="6" style="stroke:#C82930;stroke-width:1.0;" width="6" x="381" y="1045.9531"/><text fill="#000000" font-family="sans-serif" font-size="11" lengthAdjust="spacing" textLength="152" x="393" y="1052.1636">Data dataReconhecimento</text><line style="stroke:#A80036;stroke-width:1.5;" x1="374" x2="550" y1="1058.7578" y2="1058.7578"/><ellipse cx="136" cy="882.9531" fill="#000000" rx="2" ry="2" style="stroke:none;stroke-width:1.0;"/><!--MD5=[cb8556493ec2c94f9603162dd119feba]
link Plataforma to Categoria--><path codeLine="72" d="M142.765,89.2731 C140.487,110.6231 137.424,140.0431 135,165.9531 C128.56,234.7831 124.891,251.8831 122,320.9531 C118.799,397.4131 125.999,416.5311 130,492.9531 C131.346,518.6541 132.885,547.6411 134.068,569.8221 " fill="none" id="Plataforma-Categoria" style="stroke:#A80036;stroke-width:1.0;"/><polygon fill="#000000" points="126.9095,334.5187,130.0116,325.5283,124.1348,325.4219,126.9095,334.5187" style="stroke:#000000;stroke-width:1.0;"/><text fill="#000000" font-family="sans-serif" font-size="13" lengthAdjust="spacing" textLength="41" x="136" y="334.02">possui</text><text fill="#000000" font-family="sans-serif" font-size="13" lengthAdjust="spacing" textLength="8" x="133.3406" y="108.9166">1</text><text fill="#000000" font-family="sans-serif" font-size="13" lengthAdjust="spacing" textLength="7" x="126.1004" y="558.9857">*</text><!--MD5=[3d9e8e0d764359bffb897b36dc4b633a]
link Plataforma to Anuncio--><path codeLine="73" d="M162.942,89.1031 C175.053,110.2931 191.787,139.5831 206.742,165.7531 " fill="none" id="Plataforma-Anuncio" style="stroke:#A80036;stroke-width:1.0;"/><polygon fill="#000000" points="196.4807,131.8607,194.5448,122.5493,189.4414,125.4655,196.4807,131.8607" style="stroke:#000000;stroke-width:1.0;"/><text fill="#000000" font-family="sans-serif" font-size="13" lengthAdjust="spacing" textLength="53" x="203" y="132.02">publicita</text><text fill="#000000" font-family="sans-serif" font-size="13" lengthAdjust="spacing" textLength="8" x="157.49" y="108.7131">1</text><text fill="#000000" font-family="sans-serif" font-size="13" lengthAdjust="spacing" textLength="7" x="195.2606" y="154.7208">*</text><!--MD5=[a77d152358ce76c19672aacd9fb0ada1]
link Plataforma to CompetenciaTecnica--><path codeLine="74" d="M106.3901,89.1331 C70.7669,119.5331 24,170.3231 24,227.4531 C24,227.4531 24,227.4531 24,1037.4531 C24,1076.0311 43.7445,1115.2181 62.4092,1143.6434 " fill="none" id="Plataforma-CompetenciaTecnica" style="stroke:#A80036;stroke-width:1.0;"/><polygon fill="#000000" points="28.7916,687.5152,32.1049,678.6004,26.2322,678.3555,28.7916,687.5152" style="stroke:#000000;stroke-width:1.0;"/><text fill="#000000" font-family="sans-serif" font-size="13" lengthAdjust="spacing" textLength="41" x="38" y="687.02">possui</text><text fill="#000000" font-family="sans-serif" font-size="13" lengthAdjust="spacing" textLength="8" x="89.8044" y="108.749">1</text><text fill="#000000" font-family="sans-serif" font-size="13" lengthAdjust="spacing" textLength="7" x="49.8828" y="1132.9082">*</text><!--MD5=[39c0de7668d8063a4eb96c23050b3de2]
link Plataforma to Freelancer--><path codeLine="75" d="M210.348,79.6931 C254.566,96.5231 311.79,124.4831 349,165.9531 C378.628,198.9731 421.391,314.0541 444.567,380.7061 " fill="none" id="Plataforma-Freelancer" style="stroke:#A80036;stroke-width:1.0;"/><polygon fill="#000000" points="419.0705,232.4657,415.8354,223.5222,411.1964,227.1318,419.0705,232.4657" style="stroke:#000000;stroke-width:1.0;"/><text fill="#000000" font-family="sans-serif" font-size="13" lengthAdjust="spacing" textLength="53" x="425" y="233.02">tem/usa</text><text fill="#000000" font-family="sans-serif" font-size="13" lengthAdjust="spacing" textLength="8" x="217.8236" y="78.2808">1</text><text fill="#000000" font-family="sans-serif" font-size="13" lengthAdjust="spacing" textLength="7" x="434.7639" y="369.7166">*</text><!--MD5=[439a6ad1de0b5aa57a973cae1bf36ce5]
link Anuncio to Tarefa--><path codeLine="77" d="M199.86,290.9781 C194.983,300.6481 190.77,310.8101 188,320.9531 C183.77,336.4441 186.341,352.7071 191.918,367.7891 " fill="none" id="Anuncio-Tarefa" style="stroke:#A80036;stroke-width:1.0;"/><polygon fill="#000000" points="192.4858,334.493,196.3394,325.7982,190.4927,325.1936,192.4858,334.493" style="stroke:#000000;stroke-width:1.0;"/><text fill="#000000" font-family="sans-serif" font-size="13" lengthAdjust="spacing" textLength="53" x="202" y="334.02">publicita</text><text fill="#000000" font-family="sans-serif" font-size="13" lengthAdjust="spacing" textLength="24" x="169.9384" y="310.7207">0..1</text><text fill="#000000" font-family="sans-serif" font-size="13" lengthAdjust="spacing" textLength="8" x="178.821" y="356.7609">1</text><!--MD5=[439a6ad1de0b5aa57a973cae1bf36ce5]
link Anuncio to Tarefa--><path codeLine="78" d="M258.986,291.0811 C261.338,306.3811 262.274,322.7511 260,337.9531 C258.55,347.6471 256.281,357.7321 253.648,367.5141 " fill="none" id="Anuncio-Tarefa-1" style="stroke:#A80036;stroke-width:1.0;"/><polygon fill="#000000" points="267.3483,324.5317,263.7864,333.35,269.65,333.7595,267.3483,324.5317" style="stroke:#000000;stroke-width:1.0;"/><text fill="#000000" font-family="sans-serif" font-size="13" lengthAdjust="spacing" textLength="65" x="276" y="334.02">dá origem</text><text fill="#000000" font-family="sans-serif" font-size="13" lengthAdjust="spacing" textLength="24" x="235.5313" y="310.8349">0..1</text><text fill="#000000" font-family="sans-serif" font-size="13" lengthAdjust="spacing" textLength="8" x="247.5783" y="356.8934">1</text><!--MD5=[27b52c98fcb5387c047ce09b42fcb62d]
link Anuncio to Candidatura--><path codeLine="79" d="M326.042,165.8531 C375.234,137.0631 438.497,113.5531 494.5,134.9531 C512.352,141.7731 529.081,153.2031 543.698,165.7731 " fill="none" id="Anuncio-Candidatura" style="stroke:#A80036;stroke-width:1.0;"/><polygon fill="#000000" points="445.5,127.5177,436.4538,124.5821,436.456,130.4599,445.5,127.5177" style="stroke:#000000;stroke-width:1.0;"/><text fill="#000000" font-family="sans-serif" font-size="13" lengthAdjust="spacing" textLength="44" x="449.5" y="132.02">recebe</text><text fill="#000000" font-family="sans-serif" font-size="13" lengthAdjust="spacing" textLength="8" x="327.2969" y="154.8323">1</text><text fill="#000000" font-family="sans-serif" font-size="13" lengthAdjust="spacing" textLength="7" x="529.899" y="154.7431">*</text><!--MD5=[cc2561a0285988b367253361d2d1973d]
link Tarefa to Categoria--><path codeLine="81" d="M181.238,493.1321 C174.567,502.7811 168.24,512.8961 163,522.9531 C155.368,537.6011 149.341,554.8221 144.935,569.7701 " fill="none" id="Tarefa-Categoria" style="stroke:#A80036;stroke-width:1.0;"/><polygon fill="#000000" points="165.8595,536.0382,172.3877,529.122,167.0757,526.6057,165.8595,536.0382" style="stroke:#000000;stroke-width:1.0;"/><text fill="#000000" font-family="sans-serif" font-size="13" lengthAdjust="spacing" textLength="106" x="177" y="536.02">enquadra-se em</text><text fill="#000000" font-family="sans-serif" font-size="13" lengthAdjust="spacing" textLength="7" x="168.3031" y="512.8915">*</text><text fill="#000000" font-family="sans-serif" font-size="13" lengthAdjust="spacing" textLength="8" x="137.814" y="558.9245">1</text><!--MD5=[a66e767a4304f5fa76db98d7839a7a61]
link Candidatura to Freelancer--><path codeLine="83" d="M556.469,291.0921 C536.592,319.9001 513.259,353.7151 494.637,380.7041 " fill="none" id="Candidatura-Freelancer" style="stroke:#A80036;stroke-width:1.0;"/><polygon fill="#000000" points="536.1604,333.6349,543.7163,327.8592,538.8783,324.521,536.1604,333.6349" style="stroke:#000000;stroke-width:1.0;"/><text fill="#000000" font-family="sans-serif" font-size="13" lengthAdjust="spacing" textLength="83" x="548" y="334.02">realizada por</text><text fill="#000000" font-family="sans-serif" font-size="13" lengthAdjust="spacing" textLength="7" x="544.4344" y="310.8471">*</text><text fill="#000000" font-family="sans-serif" font-size="13" lengthAdjust="spacing" textLength="8" x="490.8047" y="369.7143">1</text><!--MD5=[7a59ad2cb29ff6e914b8672ce881fef8]
link Freelancer to HabilitacaoAcademica--><path codeLine="85" d="M437.13,480.2551 C424.361,506.6801 408.525,539.9671 395,569.9531 C371.935,621.0881 346.925,680.2811 330.047,720.8301 " fill="none" id="Freelancer-HabilitacaoAcademica" style="stroke:#A80036;stroke-width:1.0;"/><polygon fill="#000000" points="397.9668,611.5875,404.3299,604.5191,398.96,602.1289,397.9668,611.5875" style="stroke:#000000;stroke-width:1.0;"/><text fill="#000000" font-family="sans-serif" font-size="13" lengthAdjust="spacing" textLength="26" x="409" y="611.52">tem</text><text fill="#000000" font-family="sans-serif" font-size="13" lengthAdjust="spacing" textLength="8" x="425.2108" y="500.3741">1</text><text fill="#000000" font-family="sans-serif" font-size="13" lengthAdjust="spacing" textLength="7" x="325.3739" y="709.8581">*</text><!--MD5=[d8cdfe47acc319ba7387450f2c7628f2]
link Freelancer to ReconhecimentoCT--><path codeLine="86" d="M461.427,479.9701 C461.699,514.9831 462,563.3881 462,605.9531 C462,605.9531 462,605.9531 462,883.9531 C462,926.2991 462,975.3041 462,1005.8431 " fill="none" id="Freelancer-ReconhecimentoCT" style="stroke:#A80036;stroke-width:1.0;"/><polygon fill="#000000" points="466.9946,765.5195,464.0655,774.5678,469.9433,774.5614,466.9946,765.5195" style="stroke:#000000;stroke-width:1.0;"/><text fill="#000000" font-family="sans-serif" font-size="13" lengthAdjust="spacing" textLength="62" x="476" y="775.02">recebe(u)</text><text fill="#000000" font-family="sans-serif" font-size="13" lengthAdjust="spacing" textLength="8" x="452.9022" y="500.4051">1</text><text fill="#000000" font-family="sans-serif" font-size="13" lengthAdjust="spacing" textLength="7" x="454.2781" y="995.0837">*</text><!--MD5=[f49a2ed7e599b0b3feae4bc7e03654d4]
link ReconhecimentoCT to CompetenciaTecnica--><path codeLine="88" d="M389.054,1066.9691 C329.791,1090.9491 246.002,1124.8531 183.016,1150.3388 " fill="none" id="ReconhecimentoCT-CompetenciaTecnica" style="stroke:#A80036;stroke-width:1.0;"/><polygon fill="#000000" points="312.3651,1107.395,321.8521,1106.7266,319.6474,1101.2779,312.3651,1107.395" style="stroke:#000000;stroke-width:1.0;"/><text fill="#000000" font-family="sans-serif" font-size="13" lengthAdjust="spacing" textLength="60" x="326" y="1110.02">relativo a</text><text fill="#000000" font-family="sans-serif" font-size="13" lengthAdjust="spacing" textLength="7" x="366.287" y="1086.9107">*</text><text fill="#000000" font-family="sans-serif" font-size="13" lengthAdjust="spacing" textLength="8" x="190.9236" y="1143.6026">1</text><!--MD5=[4c83f560ef7c82f9519d7b4f6acd253e]
link ReconhecimentoCT to GrauProficiencia--><path codeLine="89" d="M436.405,1067.1471 C415.904,1090.9311 387.061,1124.3941 365.207,1149.7483 " fill="none" id="ReconhecimentoCT-GrauProficiencia" style="stroke:#A80036;stroke-width:1.0;"/><polygon fill="#000000" points="411.7356,1109.3068,419.8671,1104.3743,415.4149,1100.5368,411.7356,1109.3068" style="stroke:#000000;stroke-width:1.0;"/><text fill="#000000" font-family="sans-serif" font-size="13" lengthAdjust="spacing" textLength="67" x="424" y="1110.02">reconhece</text><text fill="#000000" font-family="sans-serif" font-size="13" lengthAdjust="spacing" textLength="7" x="423.6769" y="1086.7658">*</text><text fill="#000000" font-family="sans-serif" font-size="13" lengthAdjust="spacing" textLength="8" x="362.0532" y="1138.8988">1</text><!--MD5=[0d731ff285a62a08178b23be6cceb109]
link CompetenciaTecnica to GrauProficiencia--><path codeLine="91" d="M183.316,1186.9531 C212.038,1186.9531 243.344,1186.9531 269.943,1186.9531 " fill="none" id="CompetenciaTecnica-GrauProficiencia" style="stroke:#A80036;stroke-width:1.0;"/><polygon fill="#000000" points="210.5,1175.5195,201.4549,1172.5806,201.4549,1178.4585,210.5,1175.5195" style="stroke:#000000;stroke-width:1.0;"/><text fill="#000000" font-family="sans-serif" font-size="13" lengthAdjust="spacing" textLength="37" x="214.5" y="1180.02">aplica</text><text fill="#000000" font-family="sans-serif" font-size="13" lengthAdjust="spacing" textLength="8" x="190.9609" y="1183.3873">1</text><text fill="#000000" font-family="sans-serif" font-size="13" lengthAdjust="spacing" textLength="7" x="255.1317" y="1183.1831">*</text><!--MD5=[2ecdb5664095bcbb09bc902114cafbd1]
link CaracterizacaoCT to GrauProficiencia--><path codeLine="93" d="M185.403,976.1411 C185.281,1001.6311 188.16,1038.6341 203,1066.9531 C220.47,1100.2921 251.217,1128.9731 278.534,1149.8196 " fill="none" id="CaracterizacaoCT-GrauProficiencia" style="stroke:#A80036;stroke-width:1.0;"/><polygon fill="#000000" points="210.3629,1040.926,208.6785,1031.5658,203.4984,1034.3435,210.3629,1040.926" style="stroke:#000000;stroke-width:1.0;"/><text fill="#000000" font-family="sans-serif" font-size="13" lengthAdjust="spacing" textLength="137" x="217" y="1041.02">exige (como mínimo)</text><text fill="#000000" font-family="sans-serif" font-size="13" lengthAdjust="spacing" textLength="7" x="177.3995" y="995.7586">*</text><text fill="#000000" font-family="sans-serif" font-size="13" lengthAdjust="spacing" textLength="8" x="259.9416" y="1138.9828">1</text><!--MD5=[9cd979217a325e787056d18f29c98430]
link Categoria to apoint452557--><path d="M136,644.0551 C136,714.9711 136,866.8211 136,880.9011 " fill="none" id="Categoria-apoint452557" style="stroke:#A80036;stroke-width:1.0;"/><polygon fill="#000000" points="141,775.5195,143.9389,766.4744,138.0611,766.4744,141,775.5195" style="stroke:#000000;stroke-width:1.0;"/><text fill="#000000" font-family="sans-serif" font-size="13" lengthAdjust="spacing" textLength="42" x="150" y="775.02">requer</text><text fill="#000000" font-family="sans-serif" font-size="13" lengthAdjust="spacing" textLength="7" x="128.4203" y="663.5526">*</text><!--MD5=[cca62ac80295f3b926c8d8e3028ecbe0]
link apoint452557 to CompetenciaTecnica--><path d="M135.063,885.0381 C131.848,888.8331 121.23,901.9911 117,914.9531 C91.5933,992.8101 90.5195,1089.6111 92.466,1143.9167 " fill="none" id="apoint452557-CompetenciaTecnica" style="stroke:#A80036;stroke-width:1.0;"/><text fill="#000000" font-family="sans-serif" font-size="13" lengthAdjust="spacing" textLength="7" x="84.5043" y="1132.9074">*</text><!--MD5=[512b353b816f7614a6caa706c4c3ec09]
link apoint452557 to CaracterizacaoCT--><path d="M136.885,885.0031 C140.033,888.7381 151.083,901.8461 162.009,914.8071 " fill="none" id="apoint452557-CaracterizacaoCT" style="stroke:#A80036;stroke-width:1.0;stroke-dasharray:7.0,7.0;"/><!--MD5=[a9762af4bd060b575b109f9441bcd82f]
@startuml
title UC12 - Eliminar  Candidatura

class Plataforma {
    -String designacao
}

class Anuncio {
    -Data dataInicioPublicitacao
    -Data dataFimPublicitacao
    -Data dataInicioCandidatura
    -Data dataFimCandidatura
    -Data inicioSeriacao
    -Data fimSeriacao
}

class Categoria {
    -String id 
    -String descricao
}

class GrauProficiencia {
    -Integer valor
    -String designacao
}

class CaracterizacaoCT {
    -boolean obrigatoria
}
class CompetenciaTecnica {
    -String codigo
    -String descricaoBreve
    -String descricaoDetalhada
}

class Tarefa {
    -String referencia
    -String designacao
    -String descricaoInformal
    -String descricaoTecnica
    -Integer duracaoEstimada
    -double custoEstimado
}

class Freelancer {
    -String nome 
    -String NIF
    -String telefone
    -Email email
}

class Candidatura {
    -Data dataCandidatura
    -Data dataEdicaoCandidatura
    -Double valorPretendido
    -Integer numeroDias
    -String txtApresentacao
    -String txtMotivacao
}

class HabilitacaoAcademica{
    -String grau
    -String designacaoCurso
    -String nomeInstituicao
    -Double mediaCurso
}

class ReconhecimentoCT {
    -Data dataReconhecimento
}


Plataforma "1" - - "*" Categoria : possui >
Plataforma "1" - - "*" Anuncio : publicita >
Plataforma "1" - - "*" CompetenciaTecnica : possui >
Plataforma "1" - - "*" Freelancer : tem/usa >

Anuncio "0..1" - - "1" Tarefa : publicita >
Anuncio "0..1" - - "1" Tarefa : dá origem <
Anuncio "1" - "*" Candidatura : recebe >

Tarefa "*" - - "1" Categoria : enquadra-se em >

Candidatura "*" - - "1" Freelancer : realizada por >

Freelancer "1" - - - "*" HabilitacaoAcademica : tem >
Freelancer "1" - - - "*" ReconhecimentoCT : recebe(u) <

ReconhecimentoCT "*" - "1" CompetenciaTecnica : relativo a >
ReconhecimentoCT "*" - - "1" GrauProficiencia : reconhece >

CompetenciaTecnica "1" - "*" GrauProficiencia : aplica >

CaracterizacaoCT "*" - "1" GrauProficiencia : exige (como mínimo) >

Categoria "*" - - - "*" CompetenciaTecnica : requer >

(Categoria, CompetenciaTecnica) . CaracterizacaoCT
@enduml

PlantUML version 1.2021.2beta9(Unknown compile time)
(GPL source distribution)
Java Runtime: Java(TM) SE Runtime Environment
JVM: Java HotSpot(TM) 64-Bit Server VM
Default Encoding: UTF-8
Language: en
Country: US
--></g></svg>