<?xml version="1.0" encoding="UTF-8" standalone="no"?><svg xmlns="http://www.w3.org/2000/svg" xmlns:xlink="http://www.w3.org/1999/xlink" contentScriptType="application/ecmascript" contentStyleType="text/css" height="275px" preserveAspectRatio="none" style="width:1339px;height:275px;" version="1.1" viewBox="0 0 1339 275" width="1339px" zoomAndPan="magnify"><defs><filter height="300%" id="f1vi4br0cm4pet" width="300%" x="-1" y="-1"><feGaussianBlur result="blurOut" stdDeviation="2.0"/><feColorMatrix in="blurOut" result="blurOut2" type="matrix" values="0 0 0 0 0 0 0 0 0 0 0 0 0 0 0 0 0 0 .4 0"/><feOffset dx="4.0" dy="4.0" in="blurOut2" result="blurOut3"/><feBlend in="SourceGraphic" in2="blurOut3" mode="normal"/></filter></defs><g><text fill="#000000" font-family="sans-serif" font-size="18" lengthAdjust="spacing" textLength="264" x="531" y="16.708">UC12 - Eliminar Candidatura</text><!--MD5=[1f687b5315377fe49fca59b457947463]
class Freelancer--><rect codeLine="5" fill="#FEFECE" filter="url(#f1vi4br0cm4pet)" height="99.2188" id="Freelancer" style="stroke:#A80036;stroke-width:1.5;" width="112" x="109.5" y="27.9531"/><ellipse cx="131.25" cy="43.9531" fill="#ADD1B2" rx="11" ry="11" style="stroke:#A80036;stroke-width:1.0;"/><path d="M133.5938,39.625 C132.6563,39.1875 132.0625,39.0469 131.1875,39.0469 C128.5625,39.0469 126.5625,41.125 126.5625,43.8438 L126.5625,44.9688 C126.5625,47.5469 128.6719,49.4375 131.5625,49.4375 C132.7813,49.4375 133.9375,49.1406 134.6875,48.5938 C135.2656,48.1875 135.5938,47.7344 135.5938,47.3438 C135.5938,46.8906 135.2031,46.5 134.7344,46.5 C134.5156,46.5 134.3125,46.5781 134.125,46.7656 C133.6719,47.25 133.6719,47.25 133.4844,47.3438 C133.0625,47.6094 132.375,47.7344 131.6094,47.7344 C129.5625,47.7344 128.2656,46.6406 128.2656,44.9375 L128.2656,43.8438 C128.2656,42.0625 129.5156,40.75 131.25,40.75 C131.8281,40.75 132.4375,40.9063 132.9063,41.1563 C133.3906,41.4375 133.5625,41.6563 133.6563,42.0625 C133.7188,42.4688 133.75,42.5938 133.8906,42.7188 C134.0313,42.8594 134.2656,42.9688 134.4844,42.9688 C134.75,42.9688 135.0156,42.8281 135.1875,42.6094 C135.2969,42.4531 135.3281,42.2656 135.3281,41.8438 L135.3281,40.4219 C135.3281,39.9844 135.3125,39.8594 135.2188,39.7031 C135.0625,39.4375 134.7813,39.2969 134.4844,39.2969 C134.1875,39.2969 133.9844,39.3906 133.7656,39.7031 L133.5938,39.625 Z " fill="#000000"/><text fill="#000000" font-family="sans-serif" font-size="12" lengthAdjust="spacing" textLength="65" x="146.75" y="48.1074">Freelancer</text><line style="stroke:#A80036;stroke-width:1.5;" x1="110.5" x2="220.5" y1="59.9531" y2="59.9531"/><rect fill="none" height="6" style="stroke:#C82930;stroke-width:1.0;" width="6" x="117.5" y="67.9531"/><text fill="#000000" font-family="sans-serif" font-size="11" lengthAdjust="spacing" textLength="70" x="129.5" y="74.1636">String nome</text><rect fill="none" height="6" style="stroke:#C82930;stroke-width:1.0;" width="6" x="117.5" y="80.7578"/><text fill="#000000" font-family="sans-serif" font-size="11" lengthAdjust="spacing" textLength="54" x="129.5" y="86.9683">String NIF</text><rect fill="none" height="6" style="stroke:#C82930;stroke-width:1.0;" width="6" x="117.5" y="93.5625"/><text fill="#000000" font-family="sans-serif" font-size="11" lengthAdjust="spacing" textLength="86" x="129.5" y="99.7729">String telefone</text><rect fill="none" height="6" style="stroke:#C82930;stroke-width:1.0;" width="6" x="117.5" y="106.3672"/><text fill="#000000" font-family="sans-serif" font-size="11" lengthAdjust="spacing" textLength="67" x="129.5" y="112.5776">Email email</text><line style="stroke:#A80036;stroke-width:1.5;" x1="110.5" x2="220.5" y1="119.1719" y2="119.1719"/><!--MD5=[475c5b924ed41035684e2831311827d2]
class Candidatura--><rect codeLine="12" fill="#FEFECE" filter="url(#f1vi4br0cm4pet)" height="124.8281" id="Candidatura" style="stroke:#A80036;stroke-width:1.5;" width="187" x="1138" y="72.9531"/><ellipse cx="1191.75" cy="88.9531" fill="#ADD1B2" rx="11" ry="11" style="stroke:#A80036;stroke-width:1.0;"/><path d="M1194.0938,84.625 C1193.1563,84.1875 1192.5625,84.0469 1191.6875,84.0469 C1189.0625,84.0469 1187.0625,86.125 1187.0625,88.8438 L1187.0625,89.9688 C1187.0625,92.5469 1189.1719,94.4375 1192.0625,94.4375 C1193.2813,94.4375 1194.4375,94.1406 1195.1875,93.5938 C1195.7656,93.1875 1196.0938,92.7344 1196.0938,92.3438 C1196.0938,91.8906 1195.7031,91.5 1195.2344,91.5 C1195.0156,91.5 1194.8125,91.5781 1194.625,91.7656 C1194.1719,92.25 1194.1719,92.25 1193.9844,92.3438 C1193.5625,92.6094 1192.875,92.7344 1192.1094,92.7344 C1190.0625,92.7344 1188.7656,91.6406 1188.7656,89.9375 L1188.7656,88.8438 C1188.7656,87.0625 1190.0156,85.75 1191.75,85.75 C1192.3281,85.75 1192.9375,85.9063 1193.4063,86.1563 C1193.8906,86.4375 1194.0625,86.6563 1194.1563,87.0625 C1194.2188,87.4688 1194.25,87.5938 1194.3906,87.7188 C1194.5313,87.8594 1194.7656,87.9688 1194.9844,87.9688 C1195.25,87.9688 1195.5156,87.8281 1195.6875,87.6094 C1195.7969,87.4531 1195.8281,87.2656 1195.8281,86.8438 L1195.8281,85.4219 C1195.8281,84.9844 1195.8125,84.8594 1195.7188,84.7031 C1195.5625,84.4375 1195.2813,84.2969 1194.9844,84.2969 C1194.6875,84.2969 1194.4844,84.3906 1194.2656,84.7031 L1194.0938,84.625 Z " fill="#000000"/><text fill="#000000" font-family="sans-serif" font-size="12" lengthAdjust="spacing" textLength="71" x="1212.25" y="93.1074">Candidatura</text><line style="stroke:#A80036;stroke-width:1.5;" x1="1139" x2="1324" y1="104.9531" y2="104.9531"/><rect fill="none" height="6" style="stroke:#C82930;stroke-width:1.0;" width="6" x="1146" y="112.9531"/><text fill="#000000" font-family="sans-serif" font-size="11" lengthAdjust="spacing" textLength="124" x="1158" y="119.1636">Data dataCandidatura</text><rect fill="none" height="6" style="stroke:#C82930;stroke-width:1.0;" width="6" x="1146" y="125.7578"/><text fill="#000000" font-family="sans-serif" font-size="11" lengthAdjust="spacing" textLength="161" x="1158" y="131.9683">Data dataEdicaoCandidatura</text><rect fill="none" height="6" style="stroke:#C82930;stroke-width:1.0;" width="6" x="1146" y="138.5625"/><text fill="#000000" font-family="sans-serif" font-size="11" lengthAdjust="spacing" textLength="134" x="1158" y="144.7729">Double valorPretendido</text><rect fill="none" height="6" style="stroke:#C82930;stroke-width:1.0;" width="6" x="1146" y="151.3672"/><text fill="#000000" font-family="sans-serif" font-size="11" lengthAdjust="spacing" textLength="114" x="1158" y="157.5776">Integer numeroDias</text><rect fill="none" height="6" style="stroke:#C82930;stroke-width:1.0;" width="6" x="1146" y="164.1719"/><text fill="#000000" font-family="sans-serif" font-size="11" lengthAdjust="spacing" textLength="131" x="1158" y="170.3823">String txtApresentacao</text><rect fill="none" height="6" style="stroke:#C82930;stroke-width:1.0;" width="6" x="1146" y="176.9766"/><text fill="#000000" font-family="sans-serif" font-size="11" lengthAdjust="spacing" textLength="109" x="1158" y="183.187">String txtMotivacao</text><line style="stroke:#A80036;stroke-width:1.5;" x1="1139" x2="1324" y1="189.7813" y2="189.7813"/><!--MD5=[61c8102a31b8566c92505c7d6fb96e61]
class UC12_UI--><rect codeLine="21" fill="#FEFECE" filter="url(#f1vi4br0cm4pet)" height="99.2188" id="UC12_UI" style="stroke:#A80036;stroke-width:1.5;" width="317" x="7" y="161.9531"/><ellipse cx="136.25" cy="177.9531" fill="#ADD1B2" rx="11" ry="11" style="stroke:#A80036;stroke-width:1.0;"/><path d="M138.5938,173.625 C137.6563,173.1875 137.0625,173.0469 136.1875,173.0469 C133.5625,173.0469 131.5625,175.125 131.5625,177.8438 L131.5625,178.9688 C131.5625,181.5469 133.6719,183.4375 136.5625,183.4375 C137.7813,183.4375 138.9375,183.1406 139.6875,182.5938 C140.2656,182.1875 140.5938,181.7344 140.5938,181.3438 C140.5938,180.8906 140.2031,180.5 139.7344,180.5 C139.5156,180.5 139.3125,180.5781 139.125,180.7656 C138.6719,181.25 138.6719,181.25 138.4844,181.3438 C138.0625,181.6094 137.375,181.7344 136.6094,181.7344 C134.5625,181.7344 133.2656,180.6406 133.2656,178.9375 L133.2656,177.8438 C133.2656,176.0625 134.5156,174.75 136.25,174.75 C136.8281,174.75 137.4375,174.9063 137.9063,175.1563 C138.3906,175.4375 138.5625,175.6563 138.6563,176.0625 C138.7188,176.4688 138.75,176.5938 138.8906,176.7188 C139.0313,176.8594 139.2656,176.9688 139.4844,176.9688 C139.75,176.9688 140.0156,176.8281 140.1875,176.6094 C140.2969,176.4531 140.3281,176.2656 140.3281,175.8438 L140.3281,174.4219 C140.3281,173.9844 140.3125,173.8594 140.2188,173.7031 C140.0625,173.4375 139.7813,173.2969 139.4844,173.2969 C139.1875,173.2969 138.9844,173.3906 138.7656,173.7031 L138.5938,173.625 Z " fill="#000000"/><text fill="#000000" font-family="sans-serif" font-size="12" lengthAdjust="spacing" textLength="50" x="156.75" y="182.1074">UC12_UI</text><line style="stroke:#A80036;stroke-width:1.5;" x1="8" x2="323" y1="193.9531" y2="193.9531"/><line style="stroke:#A80036;stroke-width:1.0;" x1="8" x2="323" y1="201.9531" y2="201.9531"/><rect fill="#F24D5C" height="6" style="stroke:#C82930;stroke-width:1.0;" width="6" x="15" y="209.9531"/><text fill="#000000" font-family="sans-serif" font-size="11" lengthAdjust="spacing" textLength="260" x="27" y="216.1636">getAllCandidaturasElegiveis(emailFreelancer)</text><rect fill="#F24D5C" height="6" style="stroke:#C82930;stroke-width:1.0;" width="6" x="15" y="222.7578"/><text fill="#000000" font-family="sans-serif" font-size="11" lengthAdjust="spacing" textLength="173" x="27" y="228.9683">getCandidatura(idCandidatura)</text><rect fill="#F24D5C" height="6" style="stroke:#C82930;stroke-width:1.0;" width="6" x="15" y="235.5625"/><text fill="#000000" font-family="sans-serif" font-size="11" lengthAdjust="spacing" textLength="287" x="27" y="241.7729">deleteCandidatura(idCandidatura, valorPretendido,</text><text fill="#000000" font-family="sans-serif" font-size="11" lengthAdjust="spacing" textLength="253" x="27" y="254.5776">numeroDias, txtApresentacao, txtMotivacao)</text><!--MD5=[602b8e917de8cffe6a30f284be1c3a14]
class UC12_CTRL--><rect codeLine="28" fill="#FEFECE" filter="url(#f1vi4br0cm4pet)" height="99.2188" id="UC12_CTRL" style="stroke:#A80036;stroke-width:1.5;" width="317" x="384" y="146.9531"/><ellipse cx="505.25" cy="162.9531" fill="#ADD1B2" rx="11" ry="11" style="stroke:#A80036;stroke-width:1.0;"/><path d="M507.5938,158.625 C506.6563,158.1875 506.0625,158.0469 505.1875,158.0469 C502.5625,158.0469 500.5625,160.125 500.5625,162.8438 L500.5625,163.9688 C500.5625,166.5469 502.6719,168.4375 505.5625,168.4375 C506.7813,168.4375 507.9375,168.1406 508.6875,167.5938 C509.2656,167.1875 509.5938,166.7344 509.5938,166.3438 C509.5938,165.8906 509.2031,165.5 508.7344,165.5 C508.5156,165.5 508.3125,165.5781 508.125,165.7656 C507.6719,166.25 507.6719,166.25 507.4844,166.3438 C507.0625,166.6094 506.375,166.7344 505.6094,166.7344 C503.5625,166.7344 502.2656,165.6406 502.2656,163.9375 L502.2656,162.8438 C502.2656,161.0625 503.5156,159.75 505.25,159.75 C505.8281,159.75 506.4375,159.9063 506.9063,160.1563 C507.3906,160.4375 507.5625,160.6563 507.6563,161.0625 C507.7188,161.4688 507.75,161.5938 507.8906,161.7188 C508.0313,161.8594 508.2656,161.9688 508.4844,161.9688 C508.75,161.9688 509.0156,161.8281 509.1875,161.6094 C509.2969,161.4531 509.3281,161.2656 509.3281,160.8438 L509.3281,159.4219 C509.3281,158.9844 509.3125,158.8594 509.2188,158.7031 C509.0625,158.4375 508.7813,158.2969 508.4844,158.2969 C508.1875,158.2969 507.9844,158.3906 507.7656,158.7031 L507.5938,158.625 Z " fill="#000000"/><text fill="#000000" font-family="sans-serif" font-size="12" lengthAdjust="spacing" textLength="66" x="525.75" y="167.1074">UC12_CTRL</text><line style="stroke:#A80036;stroke-width:1.5;" x1="385" x2="700" y1="178.9531" y2="178.9531"/><line style="stroke:#A80036;stroke-width:1.0;" x1="385" x2="700" y1="186.9531" y2="186.9531"/><rect fill="#F24D5C" height="6" style="stroke:#C82930;stroke-width:1.0;" width="6" x="392" y="194.9531"/><text fill="#000000" font-family="sans-serif" font-size="11" lengthAdjust="spacing" textLength="260" x="404" y="201.1636">getAllCandidaturasElegiveis(emailFreelancer)</text><rect fill="#F24D5C" height="6" style="stroke:#C82930;stroke-width:1.0;" width="6" x="392" y="207.7578"/><text fill="#000000" font-family="sans-serif" font-size="11" lengthAdjust="spacing" textLength="173" x="404" y="213.9683">getCandidatura(idCandidatura)</text><rect fill="#F24D5C" height="6" style="stroke:#C82930;stroke-width:1.0;" width="6" x="392" y="220.5625"/><text fill="#000000" font-family="sans-serif" font-size="11" lengthAdjust="spacing" textLength="287" x="404" y="226.7729">deleteCandidatura(idCandidatura, valorPretendido,</text><text fill="#000000" font-family="sans-serif" font-size="11" lengthAdjust="spacing" textLength="253" x="404" y="239.5776">numeroDias, txtApresentacao, txtMotivacao)</text><!--MD5=[352eec2840c22a3a7eee92b522546dd2]
class RepositorioCandidatura--><rect codeLine="35" fill="#FEFECE" filter="url(#f1vi4br0cm4pet)" height="73.6094" id="RepositorioCandidatura" style="stroke:#A80036;stroke-width:1.5;" width="317" x="761" y="148.4531"/><ellipse cx="845.25" cy="164.4531" fill="#ADD1B2" rx="11" ry="11" style="stroke:#A80036;stroke-width:1.0;"/><path d="M847.5938,160.125 C846.6563,159.6875 846.0625,159.5469 845.1875,159.5469 C842.5625,159.5469 840.5625,161.625 840.5625,164.3438 L840.5625,165.4688 C840.5625,168.0469 842.6719,169.9375 845.5625,169.9375 C846.7813,169.9375 847.9375,169.6406 848.6875,169.0938 C849.2656,168.6875 849.5938,168.2344 849.5938,167.8438 C849.5938,167.3906 849.2031,167 848.7344,167 C848.5156,167 848.3125,167.0781 848.125,167.2656 C847.6719,167.75 847.6719,167.75 847.4844,167.8438 C847.0625,168.1094 846.375,168.2344 845.6094,168.2344 C843.5625,168.2344 842.2656,167.1406 842.2656,165.4375 L842.2656,164.3438 C842.2656,162.5625 843.5156,161.25 845.25,161.25 C845.8281,161.25 846.4375,161.4063 846.9063,161.6563 C847.3906,161.9375 847.5625,162.1563 847.6563,162.5625 C847.7188,162.9688 847.75,163.0938 847.8906,163.2188 C848.0313,163.3594 848.2656,163.4688 848.4844,163.4688 C848.75,163.4688 849.0156,163.3281 849.1875,163.1094 C849.2969,162.9531 849.3281,162.7656 849.3281,162.3438 L849.3281,160.9219 C849.3281,160.4844 849.3125,160.3594 849.2188,160.2031 C849.0625,159.9375 848.7813,159.7969 848.4844,159.7969 C848.1875,159.7969 847.9844,159.8906 847.7656,160.2031 L847.5938,160.125 Z " fill="#000000"/><text fill="#000000" font-family="sans-serif" font-size="12" lengthAdjust="spacing" textLength="140" x="865.75" y="168.6074">RepositorioCandidatura</text><line style="stroke:#A80036;stroke-width:1.5;" x1="762" x2="1077" y1="180.4531" y2="180.4531"/><line style="stroke:#A80036;stroke-width:1.5;" x1="762" x2="1077" y1="188.4531" y2="188.4531"/><rect fill="#F24D5C" height="6" style="stroke:#C82930;stroke-width:1.0;" width="6" x="769" y="196.4531"/><text fill="#000000" font-family="sans-serif" font-size="11" lengthAdjust="spacing" textLength="287" x="781" y="202.6636">deleteCandidatura(idCandidatura, valorPretendido,</text><text fill="#000000" font-family="sans-serif" font-size="11" lengthAdjust="spacing" textLength="253" x="781" y="215.4683">numeroDias, txtApresentacao, txtMotivacao)</text><!--MD5=[2effdc0b0354e9ca0ac5869acc0d9d31]
link UC12_UI to UC12_CTRL--><path codeLine="39" d="M324.175,205.1461 C342.209,204.4247 360.621,203.6882 378.72,202.9643 " fill="none" id="UC12_UI-to-UC12_CTRL" style="stroke:#A80036;stroke-width:1.0;stroke-dasharray:7.0,7.0;"/><polygon fill="#A80036" points="383.816,202.7604,374.6632,199.1236,378.82,202.9604,374.9832,207.1172,383.816,202.7604" style="stroke:#A80036;stroke-width:1.0;"/><!--MD5=[15a284ddd39a0e850ab6824bf6b89b19]
link UC12_CTRL to RepositorioCandidatura--><path codeLine="40" d="M701.175,191.828 C719.209,191.299 737.621,190.7589 755.72,190.228 " fill="none" id="UC12_CTRL-to-RepositorioCandidatura" style="stroke:#A80036;stroke-width:1.0;stroke-dasharray:7.0,7.0;"/><polygon fill="#A80036" points="760.816,190.0785,751.7022,186.3451,755.8182,190.2257,751.9376,194.3416,760.816,190.0785" style="stroke:#A80036;stroke-width:1.0;"/><!--MD5=[27970c27ecfc020a152620dc0d6be77f]
link RepositorioCandidatura to Candidatura--><path codeLine="41" d="M1078.22,160.0141 C1098.57,156.7331 1118.85,153.4621 1137.66,150.4271 " fill="none" id="RepositorioCandidatura-Candidatura" style="stroke:#A80036;stroke-width:1.0;"/><!--MD5=[ba757508e1867fb4ddeb49b35d88d822]
link Freelancer to UC12_UI--><path codeLine="42" d="M165.5,127.1611 C165.5,138.6831 165.5,150.2051 165.5,161.7265 " fill="none" id="Freelancer-UC12_UI" style="stroke:#A80036;stroke-width:1.0;"/><!--MD5=[3e4842a9a39f581fdf016dfd12392cbc]
link Freelancer to Candidatura--><path codeLine="43" d="M221.835,80.4691 C394.169,89.8641 922.553,118.6661 1137.8,130.4001 " fill="none" id="Freelancer-Candidatura" style="stroke:#A80036;stroke-width:1.0;"/><!--MD5=[b08fbb9eac7446128c6338d80a09e4f4]
@startuml
left to right direction

title UC12 - Eliminar Candidatura

class Freelancer {
    -String nome 
    -String NIF
    -String telefone
    -Email email
}

class Candidatura {
    -Data dataCandidatura
    -Data dataEdicaoCandidatura
    -Double valorPretendido
    -Integer numeroDias
    -String txtApresentacao
    -String txtMotivacao
}

class UC12_UI{
    - -
    -getAllCandidaturasElegiveis(emailFreelancer)
    -getCandidatura(idCandidatura)
    -deleteCandidatura(idCandidatura, valorPretendido, \nnumeroDias, txtApresentacao, txtMotivacao)    
}

class UC12_CTRL{
    - -
    -getAllCandidaturasElegiveis(emailFreelancer)
    -getCandidatura(idCandidatura)
    -deleteCandidatura(idCandidatura, valorPretendido, \nnumeroDias, txtApresentacao, txtMotivacao)   
}

class RepositorioCandidatura {
    -deleteCandidatura(idCandidatura, valorPretendido, \nnumeroDias, txtApresentacao, txtMotivacao)
}

UC12_UI ..> UC12_CTRL
UC12_CTRL ..> RepositorioCandidatura
RepositorioCandidatura - - Candidatura
Freelancer - UC12_UI
Freelancer - Candidatura
@enduml

PlantUML version 1.2021.2beta9(Unknown compile time)
(GPL source distribution)
Java Runtime: Java(TM) SE Runtime Environment
JVM: Java HotSpot(TM) 64-Bit Server VM
Default Encoding: UTF-8
Language: en
Country: US
--></g></svg>