<?xml version="1.0" encoding="UTF-8" standalone="no"?><svg xmlns="http://www.w3.org/2000/svg" xmlns:xlink="http://www.w3.org/1999/xlink" contentScriptType="application/ecmascript" contentStyleType="text/css" height="383px" preserveAspectRatio="none" style="width:862px;height:383px;" version="1.1" viewBox="0 0 862 383" width="862px" zoomAndPan="magnify"><defs><filter height="300%" id="f1eu1nbmff2sef" width="300%" x="-1" y="-1"><feGaussianBlur result="blurOut" stdDeviation="2.0"/><feColorMatrix in="blurOut" result="blurOut2" type="matrix" values="0 0 0 0 0 0 0 0 0 0 0 0 0 0 0 0 0 0 .4 0"/><feOffset dx="4.0" dy="4.0" in="blurOut2" result="blurOut3"/><feBlend in="SourceGraphic" in2="blurOut3" mode="normal"/></filter></defs><g><text fill="#000000" font-family="sans-serif" font-size="18" lengthAdjust="spacing" textLength="853" x="2" y="16.708">UC01 - Registar Organização - Diagrama de Classes (Interface AlgoritmoGeradorPasswords)</text><!--MD5=[37bf6c08f758502d5d1a5531d651ab43]
class AlgoritmoGeradorPasswords--><rect codeLine="5" fill="#FEFECE" filter="url(#f1eu1nbmff2sef)" height="60.8047" id="AlgoritmoGeradorPasswords" style="stroke:#A80036;stroke-width:1.5;" width="313" x="270.25" y="27.9531"/><ellipse cx="338.5" cy="43.9531" fill="#B4A7E5" rx="11" ry="11" style="stroke:#A80036;stroke-width:1.0;"/><path d="M339.4531,40.7344 L341.1719,40.7344 C341.5625,40.7344 341.75,40.7031 341.875,40.625 C342.1406,40.4688 342.2813,40.1875 342.2813,39.8906 C342.2813,39.625 342.1719,39.3594 341.9375,39.1875 C341.7656,39.0781 341.625,39.0469 341.1719,39.0469 L336.0313,39.0469 C335.5938,39.0469 335.4688,39.0625 335.3125,39.1563 C335.0625,39.3125 334.9063,39.6094 334.9063,39.8906 C334.9063,40.1719 335.0469,40.4219 335.2656,40.5938 C335.4219,40.7031 335.6094,40.7344 336.0313,40.7344 L337.75,40.7344 L337.75,47.25 L336.0313,47.25 C335.5938,47.25 335.4688,47.2656 335.3125,47.375 C335.0625,47.5313 334.9063,47.8125 334.9063,48.1094 C334.9063,48.3594 335.0469,48.625 335.2656,48.7813 C335.4219,48.9063 335.625,48.9531 336.0313,48.9531 L341.1719,48.9531 C341.9219,48.9531 342.2813,48.6719 342.2813,48.1094 C342.2813,47.8281 342.1719,47.5781 341.9375,47.4063 C341.7656,47.2813 341.625,47.25 341.1719,47.25 L339.4531,47.25 L339.4531,40.7344 Z " fill="#000000"/><text fill="#000000" font-family="sans-serif" font-size="12" font-style="italic" lengthAdjust="spacing" textLength="168" x="359" y="48.1074">AlgoritmoGeradorPasswords</text><line style="stroke:#A80036;stroke-width:1.5;" x1="271.25" x2="582.25" y1="59.9531" y2="59.9531"/><line style="stroke:#A80036;stroke-width:1.5;" x1="271.25" x2="582.25" y1="67.9531" y2="67.9531"/><ellipse cx="281.25" cy="78.9531" fill="#84BE84" rx="3" ry="3" style="stroke:#038048;stroke-width:1.0;"/><text fill="#000000" font-family="sans-serif" font-size="11" lengthAdjust="spacing" textLength="287" x="290.25" y="82.1636">String geraPassword(String nomeG, String emailG)</text><!--MD5=[6e5ff9fcfeb9f23a1698ee53d76f3e0c]
class AlgoritmoGeradorPasswordsAdapter1--><rect codeLine="9" fill="#FEFECE" filter="url(#f1eu1nbmff2sef)" height="60.8047" id="AlgoritmoGeradorPasswordsAdapter1" style="stroke:#A80036;stroke-width:1.5;" width="295" x="93.25" y="148.9531"/><ellipse cx="124" cy="164.9531" fill="#ADD1B2" rx="11" ry="11" style="stroke:#A80036;stroke-width:1.0;"/><path d="M126.3438,160.625 C125.4063,160.1875 124.8125,160.0469 123.9375,160.0469 C121.3125,160.0469 119.3125,162.125 119.3125,164.8438 L119.3125,165.9688 C119.3125,168.5469 121.4219,170.4375 124.3125,170.4375 C125.5313,170.4375 126.6875,170.1406 127.4375,169.5938 C128.0156,169.1875 128.3438,168.7344 128.3438,168.3438 C128.3438,167.8906 127.9531,167.5 127.4844,167.5 C127.2656,167.5 127.0625,167.5781 126.875,167.7656 C126.4219,168.25 126.4219,168.25 126.2344,168.3438 C125.8125,168.6094 125.125,168.7344 124.3594,168.7344 C122.3125,168.7344 121.0156,167.6406 121.0156,165.9375 L121.0156,164.8438 C121.0156,163.0625 122.2656,161.75 124,161.75 C124.5781,161.75 125.1875,161.9063 125.6563,162.1563 C126.1406,162.4375 126.3125,162.6563 126.4063,163.0625 C126.4688,163.4688 126.5,163.5938 126.6406,163.7188 C126.7813,163.8594 127.0156,163.9688 127.2344,163.9688 C127.5,163.9688 127.7656,163.8281 127.9375,163.6094 C128.0469,163.4531 128.0781,163.2656 128.0781,162.8438 L128.0781,161.4219 C128.0781,160.9844 128.0625,160.8594 127.9688,160.7031 C127.8125,160.4375 127.5313,160.2969 127.2344,160.2969 C126.9375,160.2969 126.7344,160.3906 126.5156,160.7031 L126.3438,160.625 Z " fill="#000000"/><text fill="#000000" font-family="sans-serif" font-size="12" lengthAdjust="spacing" textLength="228" x="141.5" y="169.1074">AlgoritmoGeradorPasswordsAdapter1</text><line style="stroke:#A80036;stroke-width:1.5;" x1="94.25" x2="387.25" y1="180.9531" y2="180.9531"/><line style="stroke:#A80036;stroke-width:1.5;" x1="94.25" x2="387.25" y1="188.9531" y2="188.9531"/><ellipse cx="104.25" cy="199.9531" fill="#84BE84" rx="3" ry="3" style="stroke:#038048;stroke-width:1.0;"/><text fill="#000000" font-family="sans-serif" font-size="11" lengthAdjust="spacing" textLength="269" x="113.25" y="203.1636">String geraPassword(String nome, String email)</text><!--MD5=[98fff984016099dc1d2cdb7554a63110]
class AlgoritmoGeradorPasswordsAdapter2--><rect codeLine="13" fill="#FEFECE" filter="url(#f1eu1nbmff2sef)" height="60.8047" id="AlgoritmoGeradorPasswordsAdapter2" style="stroke:#A80036;stroke-width:1.5;" width="295" x="466.25" y="148.9531"/><ellipse cx="496.55" cy="164.9531" fill="#ADD1B2" rx="11" ry="11" style="stroke:#A80036;stroke-width:1.0;"/><path d="M498.8938,160.625 C497.9563,160.1875 497.3625,160.0469 496.4875,160.0469 C493.8625,160.0469 491.8625,162.125 491.8625,164.8438 L491.8625,165.9688 C491.8625,168.5469 493.9719,170.4375 496.8625,170.4375 C498.0813,170.4375 499.2375,170.1406 499.9875,169.5938 C500.5656,169.1875 500.8938,168.7344 500.8938,168.3438 C500.8938,167.8906 500.5031,167.5 500.0344,167.5 C499.8156,167.5 499.6125,167.5781 499.425,167.7656 C498.9719,168.25 498.9719,168.25 498.7844,168.3438 C498.3625,168.6094 497.675,168.7344 496.9094,168.7344 C494.8625,168.7344 493.5656,167.6406 493.5656,165.9375 L493.5656,164.8438 C493.5656,163.0625 494.8156,161.75 496.55,161.75 C497.1281,161.75 497.7375,161.9063 498.2063,162.1563 C498.6906,162.4375 498.8625,162.6563 498.9563,163.0625 C499.0188,163.4688 499.05,163.5938 499.1906,163.7188 C499.3313,163.8594 499.5656,163.9688 499.7844,163.9688 C500.05,163.9688 500.3156,163.8281 500.4875,163.6094 C500.5969,163.4531 500.6281,163.2656 500.6281,162.8438 L500.6281,161.4219 C500.6281,160.9844 500.6125,160.8594 500.5188,160.7031 C500.3625,160.4375 500.0813,160.2969 499.7844,160.2969 C499.4875,160.2969 499.2844,160.3906 499.0656,160.7031 L498.8938,160.625 Z " fill="#000000"/><text fill="#000000" font-family="sans-serif" font-size="12" lengthAdjust="spacing" textLength="229" x="513.95" y="169.1074">AlgoritmoGeradorPasswordsAdapter2</text><line style="stroke:#A80036;stroke-width:1.5;" x1="467.25" x2="760.25" y1="180.9531" y2="180.9531"/><line style="stroke:#A80036;stroke-width:1.5;" x1="467.25" x2="760.25" y1="188.9531" y2="188.9531"/><ellipse cx="477.25" cy="199.9531" fill="#84BE84" rx="3" ry="3" style="stroke:#038048;stroke-width:1.0;"/><text fill="#000000" font-family="sans-serif" font-size="11" lengthAdjust="spacing" textLength="269" x="486.25" y="203.1636">String geraPassword(String nome, String email)</text><!--MD5=[9615d04c2893a05b5bb041ad0e724e2b]
class AlgoritmoExterno1API--><rect codeLine="17" fill="#FEFECE" filter="url(#f1eu1nbmff2sef)" height="73.6094" id="AlgoritmoExterno1API" style="stroke:#A80036;stroke-width:1.5;" width="373" x="32.25" y="282.4531"/><ellipse cx="150.5" cy="298.4531" fill="#ADD1B2" rx="11" ry="11" style="stroke:#A80036;stroke-width:1.0;"/><path d="M152.8438,294.125 C151.9063,293.6875 151.3125,293.5469 150.4375,293.5469 C147.8125,293.5469 145.8125,295.625 145.8125,298.3438 L145.8125,299.4688 C145.8125,302.0469 147.9219,303.9375 150.8125,303.9375 C152.0313,303.9375 153.1875,303.6406 153.9375,303.0938 C154.5156,302.6875 154.8438,302.2344 154.8438,301.8438 C154.8438,301.3906 154.4531,301 153.9844,301 C153.7656,301 153.5625,301.0781 153.375,301.2656 C152.9219,301.75 152.9219,301.75 152.7344,301.8438 C152.3125,302.1094 151.625,302.2344 150.8594,302.2344 C148.8125,302.2344 147.5156,301.1406 147.5156,299.4375 L147.5156,298.3438 C147.5156,296.5625 148.7656,295.25 150.5,295.25 C151.0781,295.25 151.6875,295.4063 152.1563,295.6563 C152.6406,295.9375 152.8125,296.1563 152.9063,296.5625 C152.9688,296.9688 153,297.0938 153.1406,297.2188 C153.2813,297.3594 153.5156,297.4688 153.7344,297.4688 C154,297.4688 154.2656,297.3281 154.4375,297.1094 C154.5469,296.9531 154.5781,296.7656 154.5781,296.3438 L154.5781,294.9219 C154.5781,294.4844 154.5625,294.3594 154.4688,294.2031 C154.3125,293.9375 154.0313,293.7969 153.7344,293.7969 C153.4375,293.7969 153.2344,293.8906 153.0156,294.2031 L152.8438,294.125 Z " fill="#000000"/><text fill="#000000" font-family="sans-serif" font-size="12" lengthAdjust="spacing" textLength="128" x="171" y="302.6074">AlgoritmoExterno1API</text><line style="stroke:#A80036;stroke-width:1.5;" x1="33.25" x2="404.25" y1="314.4531" y2="314.4531"/><line style="stroke:#A80036;stroke-width:1.5;" x1="33.25" x2="404.25" y1="322.4531" y2="322.4531"/><ellipse cx="43.25" cy="333.4531" fill="#84BE84" rx="3" ry="3" style="stroke:#038048;stroke-width:1.0;"/><text fill="#000000" font-family="sans-serif" font-size="11" lengthAdjust="spacing" textLength="140" x="52.25" y="336.6636">String randomPassword()</text><ellipse cx="43.25" cy="346.2578" fill="#84BE84" rx="3" ry="3" style="stroke:#038048;stroke-width:1.0;"/><text fill="#000000" font-family="sans-serif" font-size="11" lengthAdjust="spacing" textLength="347" x="52.25" y="349.4683">String randomPassword(Integer minChars, Integer maxChars)</text><!--MD5=[c78e3215a40d9e9433c5db1a316bbc7c]
class AlgoritmoExterno2API--><rect codeLine="22" fill="#FEFECE" filter="url(#f1eu1nbmff2sef)" height="99.2188" id="AlgoritmoExterno2API" style="stroke:#A80036;stroke-width:1.5;" width="390" x="440.75" y="269.9531"/><ellipse cx="567" cy="285.9531" fill="#ADD1B2" rx="11" ry="11" style="stroke:#A80036;stroke-width:1.0;"/><path d="M569.3438,281.625 C568.4063,281.1875 567.8125,281.0469 566.9375,281.0469 C564.3125,281.0469 562.3125,283.125 562.3125,285.8438 L562.3125,286.9688 C562.3125,289.5469 564.4219,291.4375 567.3125,291.4375 C568.5313,291.4375 569.6875,291.1406 570.4375,290.5938 C571.0156,290.1875 571.3438,289.7344 571.3438,289.3438 C571.3438,288.8906 570.9531,288.5 570.4844,288.5 C570.2656,288.5 570.0625,288.5781 569.875,288.7656 C569.4219,289.25 569.4219,289.25 569.2344,289.3438 C568.8125,289.6094 568.125,289.7344 567.3594,289.7344 C565.3125,289.7344 564.0156,288.6406 564.0156,286.9375 L564.0156,285.8438 C564.0156,284.0625 565.2656,282.75 567,282.75 C567.5781,282.75 568.1875,282.9063 568.6563,283.1563 C569.1406,283.4375 569.3125,283.6563 569.4063,284.0625 C569.4688,284.4688 569.5,284.5938 569.6406,284.7188 C569.7813,284.8594 570.0156,284.9688 570.2344,284.9688 C570.5,284.9688 570.7656,284.8281 570.9375,284.6094 C571.0469,284.4531 571.0781,284.2656 571.0781,283.8438 L571.0781,282.4219 C571.0781,281.9844 571.0625,281.8594 570.9688,281.7031 C570.8125,281.4375 570.5313,281.2969 570.2344,281.2969 C569.9375,281.2969 569.7344,281.3906 569.5156,281.7031 L569.3438,281.625 Z " fill="#000000"/><text fill="#000000" font-family="sans-serif" font-size="12" lengthAdjust="spacing" textLength="129" x="587.5" y="290.1074">AlgoritmoExterno2API</text><line style="stroke:#A80036;stroke-width:1.5;" x1="441.75" x2="829.75" y1="301.9531" y2="301.9531"/><line style="stroke:#A80036;stroke-width:1.5;" x1="441.75" x2="829.75" y1="309.9531" y2="309.9531"/><ellipse cx="451.75" cy="320.9531" fill="#84BE84" rx="3" ry="3" style="stroke:#038048;stroke-width:1.0;"/><text fill="#000000" font-family="sans-serif" font-size="11" lengthAdjust="spacing" textLength="169" x="460.75" y="324.1636">Password generatePassword()</text><ellipse cx="451.75" cy="333.7578" fill="#84BE84" rx="3" ry="3" style="stroke:#038048;stroke-width:1.0;"/><text fill="#000000" font-family="sans-serif" font-size="11" lengthAdjust="spacing" textLength="265" x="460.75" y="336.9683">Password generatePassword(String feedChars)</text><ellipse cx="451.75" cy="346.5625" fill="#84BE84" rx="3" ry="3" style="stroke:#038048;stroke-width:1.0;"/><text fill="#000000" font-family="sans-serif" font-size="11" lengthAdjust="spacing" textLength="261" x="460.75" y="349.7729">Password generatePassword(Integer strength)</text><ellipse cx="451.75" cy="359.3672" fill="#84BE84" rx="3" ry="3" style="stroke:#038048;stroke-width:1.0;"/><text fill="#000000" font-family="sans-serif" font-size="11" lengthAdjust="spacing" textLength="364" x="460.75" y="362.5776">Password generatePassword(Integer strength, String feedChars)</text><!--MD5=[3b4c874dbb4796ab835c6ebf706faa50]
reverse link AlgoritmoGeradorPasswords to AlgoritmoGeradorPasswordsAdapter1--><path codeLine="29" d="M363.167,100.1331 C338.143,116.1421 309.952,134.1791 286.936,148.9041 " fill="none" id="AlgoritmoGeradorPasswords-backto-AlgoritmoGeradorPasswordsAdapter1" style="stroke:#A80036;stroke-width:1.0;stroke-dasharray:7.0,7.0;"/><polygon fill="none" points="359.675,94.0571,380.294,89.1751,367.22,105.8501,359.675,94.0571" style="stroke:#A80036;stroke-width:1.0;"/><!--MD5=[864624d3236818d5e14622be9624e107]
link AlgoritmoGeradorPasswordsAdapter1 to AlgoritmoExterno1API--><path codeLine="30" d="M236.03,210.0571 C232.91,229.6341 228.774,255.5721 225.332,277.1675 " fill="none" id="AlgoritmoGeradorPasswordsAdapter1-to-AlgoritmoExterno1API" style="stroke:#A80036;stroke-width:1.0;"/><polygon fill="#A80036" points="224.518,282.272,229.8853,274.0142,225.3054,277.3344,221.9852,272.7544,224.518,282.272" style="stroke:#A80036;stroke-width:1.0;"/><!--MD5=[aea5d5f858740067ee7f45dfccd9fbdf]
reverse link AlgoritmoGeradorPasswords to AlgoritmoGeradorPasswordsAdapter2--><path codeLine="31" d="M490.675,100.1331 C515.833,116.1421 544.176,134.1791 567.316,148.9041 " fill="none" id="AlgoritmoGeradorPasswords-backto-AlgoritmoGeradorPasswordsAdapter2" style="stroke:#A80036;stroke-width:1.0;stroke-dasharray:7.0,7.0;"/><polygon fill="none" points="486.571,105.8181,473.456,89.1751,494.087,94.0071,486.571,105.8181" style="stroke:#A80036;stroke-width:1.0;"/><!--MD5=[46349dc8cff6f25e516fc073b0e7ddd9]
link AlgoritmoGeradorPasswordsAdapter2 to AlgoritmoExterno2API--><path codeLine="32" d="M618.47,210.0571 C621.008,225.9841 624.219,246.1211 627.181,264.7041 " fill="none" id="AlgoritmoGeradorPasswordsAdapter2-to-AlgoritmoExterno2API" style="stroke:#A80036;stroke-width:1.0;"/><polygon fill="#A80036" points="628.01,269.8995,630.5435,260.3821,627.223,264.9619,622.6433,261.6413,628.01,269.8995" style="stroke:#A80036;stroke-width:1.0;"/><!--MD5=[6cd7aa30e8c5a0cfb18be0ffee164a40]
@startuml
title UC01 - Registar Organização - Diagrama de Classes (Interface AlgoritmoGeradorPasswords)

top to bottom direction

interface AlgoritmoGeradorPasswords {
+String geraPassword(String nomeG, String emailG)
}

class AlgoritmoGeradorPasswordsAdapter1 {
+String geraPassword(String nome, String email)
}

class AlgoritmoGeradorPasswordsAdapter2 {
+String geraPassword(String nome, String email)
}

class AlgoritmoExterno1API {
+String randomPassword()
+String randomPassword(Integer minChars, Integer maxChars)
}

class AlgoritmoExterno2API {
+Password generatePassword()
+Password generatePassword(String feedChars)
+Password generatePassword(Integer strength)
+Password generatePassword(Integer strength, String feedChars)
}

AlgoritmoGeradorPasswords <|.. AlgoritmoGeradorPasswordsAdapter1
AlgoritmoGeradorPasswordsAdapter1 - -> AlgoritmoExterno1API
AlgoritmoGeradorPasswords <|.. AlgoritmoGeradorPasswordsAdapter2
AlgoritmoGeradorPasswordsAdapter2 - -> AlgoritmoExterno2API
@enduml

PlantUML version 1.2021.01beta3(Unknown compile time)
(GPL source distribution)
Java Runtime: Java(TM) SE Runtime Environment
JVM: Java HotSpot(TM) 64-Bit Server VM
Default Encoding: UTF-8
Language: en
Country: US
--></g></svg>