<?xml version="1.0" encoding="UTF-8" standalone="no"?><svg xmlns="http://www.w3.org/2000/svg" xmlns:xlink="http://www.w3.org/1999/xlink" contentScriptType="application/ecmascript" contentStyleType="text/css" height="402px" preserveAspectRatio="none" style="width:1002px;height:402px;" version="1.1" viewBox="0 0 1002 402" width="1002px" zoomAndPan="magnify"><defs><filter height="300%" id="flgbbet3hlogb" width="300%" x="-1" y="-1"><feGaussianBlur result="blurOut" stdDeviation="2.0"/><feColorMatrix in="blurOut" result="blurOut2" type="matrix" values="0 0 0 0 0 0 0 0 0 0 0 0 0 0 0 0 0 0 .4 0"/><feOffset dx="4.0" dy="4.0" in="blurOut2" result="blurOut3"/><feBlend in="SourceGraphic" in2="blurOut3" mode="normal"/></filter></defs><g><text fill="#000000" font-family="sans-serif" font-size="18" lengthAdjust="spacing" textLength="612" x="192.75" y="28.708">UC01 - Registar Organização - Diagrama de Sequência de Sistema</text><rect fill="#FFFFFF" filter="url(#flgbbet3hlogb)" height="175.7969" style="stroke:#A80036;stroke-width:1.0;" width="10" x="90.5" y="133.25"/><line style="stroke:#A80036;stroke-width:1.0;stroke-dasharray:5.0,5.0;" x1="95" x2="95" y1="123.25" y2="318.0469"/><line style="stroke:#A80036;stroke-width:1.0;stroke-dasharray:5.0,5.0;" x1="954.5" x2="954.5" y1="123.25" y2="318.0469"/><text fill="#000000" font-family="sans-serif" font-size="14" lengthAdjust="spacing" textLength="175" x="5" y="119.9482">Utilizador Não Registado</text><ellipse cx="95.5" cy="49.9531" fill="#FEFECE" filter="url(#flgbbet3hlogb)" rx="8" ry="8" style="stroke:#A80036;stroke-width:2.0;"/><path d="M95.5,57.9531 L95.5,84.9531 M82.5,65.9531 L108.5,65.9531 M95.5,84.9531 L82.5,99.9531 M95.5,84.9531 L108.5,99.9531 " fill="none" filter="url(#flgbbet3hlogb)" style="stroke:#A80036;stroke-width:2.0;"/><text fill="#000000" font-family="sans-serif" font-size="14" lengthAdjust="spacing" textLength="175" x="5" y="330.042">Utilizador Não Registado</text><ellipse cx="95.5" cy="343.3438" fill="#FEFECE" filter="url(#flgbbet3hlogb)" rx="8" ry="8" style="stroke:#A80036;stroke-width:2.0;"/><path d="M95.5,351.3438 L95.5,378.3438 M82.5,359.3438 L108.5,359.3438 M95.5,378.3438 L82.5,393.3438 M95.5,378.3438 L108.5,393.3438 " fill="none" filter="url(#flgbbet3hlogb)" style="stroke:#A80036;stroke-width:2.0;"/><rect fill="#FEFECE" filter="url(#flgbbet3hlogb)" height="30.2969" style="stroke:#A80036;stroke-width:1.5;" width="72" x="916.5" y="87.9531"/><text fill="#000000" font-family="sans-serif" font-size="14" lengthAdjust="spacing" textLength="58" x="923.5" y="107.9482">Sistema</text><rect fill="#FEFECE" filter="url(#flgbbet3hlogb)" height="30.2969" style="stroke:#A80036;stroke-width:1.5;" width="72" x="916.5" y="317.0469"/><text fill="#000000" font-family="sans-serif" font-size="14" lengthAdjust="spacing" textLength="58" x="923.5" y="337.042">Sistema</text><rect fill="#FFFFFF" filter="url(#flgbbet3hlogb)" height="175.7969" style="stroke:#A80036;stroke-width:1.0;" width="10" x="90.5" y="133.25"/><polygon fill="#A80036" points="942.5,150.3828,952.5,154.3828,942.5,158.3828,946.5,154.3828" style="stroke:#A80036;stroke-width:1.0;"/><line style="stroke:#A80036;stroke-width:1.0;" x1="100.5" x2="948.5" y1="154.3828" y2="154.3828"/><text fill="#000000" font-family="sans-serif" font-size="13" lengthAdjust="spacing" textLength="153" x="107.5" y="149.3169">1. Registar Organização</text><polygon fill="#A80036" points="111.5,179.5156,101.5,183.5156,111.5,187.5156,107.5,183.5156" style="stroke:#A80036;stroke-width:1.0;"/><line style="stroke:#A80036;stroke-width:1.0;stroke-dasharray:2.0,2.0;" x1="105.5" x2="953.5" y1="183.5156" y2="183.5156"/><text fill="#000000" font-family="sans-serif" font-size="13" lengthAdjust="spacing" textLength="830" x="117.5" y="178.4497">2. Solicita dados da organização (nome, NIF, endereço, telefone, website, email) e sobre o gestor (nome, funçao, telefone, email)</text><polygon fill="#A80036" points="942.5,208.6484,952.5,212.6484,942.5,216.6484,946.5,212.6484" style="stroke:#A80036;stroke-width:1.0;"/><line style="stroke:#A80036;stroke-width:1.0;" x1="100.5" x2="948.5" y1="212.6484" y2="212.6484"/><text fill="#000000" font-family="sans-serif" font-size="13" lengthAdjust="spacing" textLength="201" x="107.5" y="207.5825">3. Introduz os dados solicitados</text><polygon fill="#A80036" points="111.5,237.7813,101.5,241.7813,111.5,245.7813,107.5,241.7813" style="stroke:#A80036;stroke-width:1.0;"/><line style="stroke:#A80036;stroke-width:1.0;stroke-dasharray:2.0,2.0;" x1="105.5" x2="953.5" y1="241.7813" y2="241.7813"/><text fill="#000000" font-family="sans-serif" font-size="13" lengthAdjust="spacing" textLength="349" x="117.5" y="236.7153">4. Apresenta os dados inseridos e solicita confirmação</text><polygon fill="#A80036" points="942.5,266.9141,952.5,270.9141,942.5,274.9141,946.5,270.9141" style="stroke:#A80036;stroke-width:1.0;"/><line style="stroke:#A80036;stroke-width:1.0;" x1="100.5" x2="948.5" y1="270.9141" y2="270.9141"/><text fill="#000000" font-family="sans-serif" font-size="13" lengthAdjust="spacing" textLength="198" x="107.5" y="265.8481">5. Confirma os dados inseridos</text><polygon fill="#A80036" points="111.5,296.0469,101.5,300.0469,111.5,304.0469,107.5,300.0469" style="stroke:#A80036;stroke-width:1.0;"/><line style="stroke:#A80036;stroke-width:1.0;stroke-dasharray:2.0,2.0;" x1="105.5" x2="953.5" y1="300.0469" y2="300.0469"/><text fill="#000000" font-family="sans-serif" font-size="13" lengthAdjust="spacing" textLength="172" x="117.5" y="294.981">6. Operação bem sucedida</text><!--MD5=[a34a2943ff5df3ab8ed8db04d06647a7]
@startuml
title UC01 - Registar Organização - Diagrama de Sequência de Sistema

actor "Utilizador Não Registado"
activate "Utilizador Não Registado"

skinparam sequenceMessageAlign left
"Utilizador Não Registado" -> Sistema: 1. Registar Organização
Sistema - -> "Utilizador Não Registado": 2. Solicita dados da organização (nome, NIF, endereço, telefone, website, email) e sobre o gestor (nome, funçao, telefone, email)

"Utilizador Não Registado" -> Sistema: 3. Introduz os dados solicitados
"Utilizador Não Registado" <- - Sistema: 4. Apresenta os dados inseridos e solicita confirmação

"Utilizador Não Registado" -> Sistema: 5. Confirma os dados inseridos
"Utilizador Não Registado" <- - Sistema: 6. Operação bem sucedida
@enduml

PlantUML version 1.2021.01beta3(Unknown compile time)
(GPL source distribution)
Java Runtime: Java(TM) SE Runtime Environment
JVM: Java HotSpot(TM) 64-Bit Server VM
Default Encoding: UTF-8
Language: en
Country: US
--></g></svg>