<?xml version="1.0" encoding="UTF-8" standalone="no"?><svg xmlns="http://www.w3.org/2000/svg" xmlns:xlink="http://www.w3.org/1999/xlink" contentScriptType="application/ecmascript" contentStyleType="text/css" height="313px" preserveAspectRatio="none" style="width:1001px;height:313px;" version="1.1" viewBox="0 0 1001 313" width="1001px" zoomAndPan="magnify"><defs><filter height="300%" id="fqi0abdq7syo4" width="300%" x="-1" y="-1"><feGaussianBlur result="blurOut" stdDeviation="2.0"/><feColorMatrix in="blurOut" result="blurOut2" type="matrix" values="0 0 0 0 0 0 0 0 0 0 0 0 0 0 0 0 0 0 .4 0"/><feOffset dx="4.0" dy="4.0" in="blurOut2" result="blurOut3"/><feBlend in="SourceGraphic" in2="blurOut3" mode="normal"/></filter></defs><g><text fill="#000000" font-family="sans-serif" font-size="18" lengthAdjust="spacingAndGlyphs" textLength="497" x="245.5" y="18.6855">UC01 - Registar Organização - Excerto do Modelo de Domínio</text><!--MD5=[ecaed46f78f8cfe1e9ce18477649be18]
class Plataforma--><rect codeLine="6" fill="#FEFECE" filter="url(#fqi0abdq7syo4)" height="70.0234" id="Plataforma" style="stroke:#A80036;stroke-width:1.5;" width="113" x="7" y="197.6406"/><ellipse cx="30.55" cy="217.7344" fill="#ADD1B2" rx="11" ry="11" style="stroke:#A80036;stroke-width:1.0;"/><path d="M33.3156,213.6094 Q33.4719,213.3906 33.6594,213.2813 Q33.8469,213.1719 34.0656,213.1719 Q34.4406,213.1719 34.675,213.4297 Q34.9094,213.6875 34.9094,214.2969 L34.9094,215.75 Q34.9094,216.3594 34.675,216.625 Q34.4406,216.8906 34.0656,216.8906 Q33.7219,216.8906 33.5188,216.6875 Q33.3156,216.5 33.2063,215.9844 Q33.1594,215.625 32.9719,215.4375 Q32.6438,215.0625 32.0344,214.8438 Q31.425,214.625 30.8,214.625 Q30.0344,214.625 29.4016,214.9531 Q28.7688,215.2813 28.2766,216.0313 Q27.7844,216.7813 27.7844,217.8125 L27.7844,218.9063 Q27.7844,220.1406 28.675,220.9609 Q29.5656,221.7813 31.1594,221.7813 Q32.0969,221.7813 32.7531,221.5313 Q33.1438,221.375 33.5656,220.9375 Q33.8313,220.6719 33.9797,220.5938 Q34.1281,220.5156 34.3313,220.5156 Q34.6594,220.5156 34.9172,220.7734 Q35.175,221.0313 35.175,221.375 Q35.175,221.7188 34.8313,222.125 Q34.3313,222.7031 33.5344,223.0313 Q32.4563,223.4844 31.1594,223.4844 Q29.6438,223.4844 28.4406,222.8594 Q27.4563,222.3594 26.7688,221.2891 Q26.0813,220.2188 26.0813,218.9375 L26.0813,217.7813 Q26.0813,216.4531 26.6984,215.3047 Q27.3156,214.1563 28.4094,213.5391 Q29.5031,212.9219 30.7375,212.9219 Q31.4719,212.9219 32.1203,213.0859 Q32.7688,213.25 33.3156,213.6094 Z " fill="#000000"/><text fill="#000000" font-family="sans-serif" font-size="12" font-style="italic" lengthAdjust="spacingAndGlyphs" textLength="66" x="44.45" y="215.0977">«Singleton»</text><text fill="#000000" font-family="sans-serif" font-size="12" lengthAdjust="spacingAndGlyphs" textLength="60" x="47.45" y="230.1914">Plataforma</text><line style="stroke:#A80036;stroke-width:1.5;" x1="8" x2="119" y1="237.8281" y2="237.8281"/><rect fill="none" height="6" style="stroke:#C82930;stroke-width:1.0;" width="6" x="15" y="245.8281"/><text fill="#000000" font-family="sans-serif" font-size="11" lengthAdjust="spacingAndGlyphs" textLength="87" x="27" y="253.2471">String designacao</text><line style="stroke:#A80036;stroke-width:1.5;" x1="8" x2="119" y1="259.6641" y2="259.6641"/><!--MD5=[6559d866213c6b3fd003379aeba85775]
class Organização--><rect codeLine="10" fill="#FEFECE" filter="url(#fqi0abdq7syo4)" height="117.1797" id="Organização" style="stroke:#A80036;stroke-width:1.5;" width="101" x="281" y="80.1406"/><ellipse cx="296" cy="96.1406" fill="#ADD1B2" rx="11" ry="11" style="stroke:#A80036;stroke-width:1.0;"/><path d="M298.7656,92.0156 Q298.9219,91.7969 299.1094,91.6875 Q299.2969,91.5781 299.5156,91.5781 Q299.8906,91.5781 300.125,91.8359 Q300.3594,92.0938 300.3594,92.7031 L300.3594,94.1563 Q300.3594,94.7656 300.125,95.0313 Q299.8906,95.2969 299.5156,95.2969 Q299.1719,95.2969 298.9688,95.0938 Q298.7656,94.9063 298.6563,94.3906 Q298.6094,94.0313 298.4219,93.8438 Q298.0938,93.4688 297.4844,93.25 Q296.875,93.0313 296.25,93.0313 Q295.4844,93.0313 294.8516,93.3594 Q294.2188,93.6875 293.7266,94.4375 Q293.2344,95.1875 293.2344,96.2188 L293.2344,97.3125 Q293.2344,98.5469 294.125,99.3672 Q295.0156,100.1875 296.6094,100.1875 Q297.5469,100.1875 298.2031,99.9375 Q298.5938,99.7813 299.0156,99.3438 Q299.2813,99.0781 299.4297,99 Q299.5781,98.9219 299.7813,98.9219 Q300.1094,98.9219 300.3672,99.1797 Q300.625,99.4375 300.625,99.7813 Q300.625,100.125 300.2813,100.5313 Q299.7813,101.1094 298.9844,101.4375 Q297.9063,101.8906 296.6094,101.8906 Q295.0938,101.8906 293.8906,101.2656 Q292.9063,100.7656 292.2188,99.6953 Q291.5313,98.625 291.5313,97.3438 L291.5313,96.1875 Q291.5313,94.8594 292.1484,93.7109 Q292.7656,92.5625 293.8594,91.9453 Q294.9531,91.3281 296.1875,91.3281 Q296.9219,91.3281 297.5703,91.4922 Q298.2188,91.6563 298.7656,92.0156 Z " fill="#000000"/><text fill="#000000" font-family="sans-serif" font-size="12" lengthAdjust="spacingAndGlyphs" textLength="69" x="310" y="101.0508">Organização</text><line style="stroke:#A80036;stroke-width:1.5;" x1="282" x2="381" y1="112.1406" y2="112.1406"/><rect fill="none" height="6" style="stroke:#C82930;stroke-width:1.0;" width="6" x="289" y="120.1406"/><text fill="#000000" font-family="sans-serif" font-size="11" lengthAdjust="spacingAndGlyphs" textLength="57" x="301" y="127.5596">String nome</text><rect fill="none" height="6" style="stroke:#C82930;stroke-width:1.0;" width="6" x="289" y="133.9766"/><text fill="#000000" font-family="sans-serif" font-size="11" lengthAdjust="spacingAndGlyphs" textLength="46" x="301" y="141.3955">String NIF</text><rect fill="none" height="6" style="stroke:#C82930;stroke-width:1.0;" width="6" x="289" y="147.8125"/><text fill="#000000" font-family="sans-serif" font-size="11" lengthAdjust="spacingAndGlyphs" textLength="70" x="301" y="155.2314">String website</text><rect fill="none" height="6" style="stroke:#C82930;stroke-width:1.0;" width="6" x="289" y="161.6484"/><text fill="#000000" font-family="sans-serif" font-size="11" lengthAdjust="spacingAndGlyphs" textLength="70" x="301" y="169.0674">String telefone</text><rect fill="none" height="6" style="stroke:#C82930;stroke-width:1.0;" width="6" x="289" y="175.4844"/><text fill="#000000" font-family="sans-serif" font-size="11" lengthAdjust="spacingAndGlyphs" textLength="55" x="301" y="182.9033">String email</text><line style="stroke:#A80036;stroke-width:1.5;" x1="282" x2="381" y1="189.3203" y2="189.3203"/><!--MD5=[ac8682ea5466d223e49472789fb200d2]
class Colaborador--><rect codeLine="18" fill="#FEFECE" filter="url(#fqi0abdq7syo4)" height="75.6719" id="Colaborador" style="stroke:#A80036;stroke-width:1.5;" width="101" x="647.5" y="29.6406"/><ellipse cx="662.5" cy="45.6406" fill="#ADD1B2" rx="11" ry="11" style="stroke:#A80036;stroke-width:1.0;"/><path d="M665.2656,41.5156 Q665.4219,41.2969 665.6094,41.1875 Q665.7969,41.0781 666.0156,41.0781 Q666.3906,41.0781 666.625,41.3359 Q666.8594,41.5938 666.8594,42.2031 L666.8594,43.6563 Q666.8594,44.2656 666.625,44.5313 Q666.3906,44.7969 666.0156,44.7969 Q665.6719,44.7969 665.4688,44.5938 Q665.2656,44.4063 665.1563,43.8906 Q665.1094,43.5313 664.9219,43.3438 Q664.5938,42.9688 663.9844,42.75 Q663.375,42.5313 662.75,42.5313 Q661.9844,42.5313 661.3516,42.8594 Q660.7188,43.1875 660.2266,43.9375 Q659.7344,44.6875 659.7344,45.7188 L659.7344,46.8125 Q659.7344,48.0469 660.625,48.8672 Q661.5156,49.6875 663.1094,49.6875 Q664.0469,49.6875 664.7031,49.4375 Q665.0938,49.2813 665.5156,48.8438 Q665.7813,48.5781 665.9297,48.5 Q666.0781,48.4219 666.2813,48.4219 Q666.6094,48.4219 666.8672,48.6797 Q667.125,48.9375 667.125,49.2813 Q667.125,49.625 666.7813,50.0313 Q666.2813,50.6094 665.4844,50.9375 Q664.4063,51.3906 663.1094,51.3906 Q661.5938,51.3906 660.3906,50.7656 Q659.4063,50.2656 658.7188,49.1953 Q658.0313,48.125 658.0313,46.8438 L658.0313,45.6875 Q658.0313,44.3594 658.6484,43.2109 Q659.2656,42.0625 660.3594,41.4453 Q661.4531,40.8281 662.6875,40.8281 Q663.4219,40.8281 664.0703,40.9922 Q664.7188,41.1563 665.2656,41.5156 Z " fill="#000000"/><text fill="#000000" font-family="sans-serif" font-size="12" lengthAdjust="spacingAndGlyphs" textLength="69" x="676.5" y="50.5508">Colaborador</text><line style="stroke:#A80036;stroke-width:1.5;" x1="648.5" x2="747.5" y1="61.6406" y2="61.6406"/><text fill="#000000" font-family="sans-serif" font-size="11" lengthAdjust="spacingAndGlyphs" textLength="65" x="653.5" y="77.0596">String funcao</text><text fill="#000000" font-family="sans-serif" font-size="11" lengthAdjust="spacingAndGlyphs" textLength="70" x="653.5" y="90.8955">String telefone</text><line style="stroke:#A80036;stroke-width:1.5;" x1="648.5" x2="747.5" y1="97.3125" y2="97.3125"/><!--MD5=[dcda844062f930f807532403427d3023]
class EnderecoPostal--><rect codeLine="23" fill="#FEFECE" filter="url(#fqi0abdq7syo4)" height="89.5078" id="EnderecoPostal" style="stroke:#A80036;stroke-width:1.5;" width="120" x="638" y="140.6406"/><ellipse cx="653" cy="156.6406" fill="#ADD1B2" rx="11" ry="11" style="stroke:#A80036;stroke-width:1.0;"/><path d="M655.7656,152.5156 Q655.9219,152.2969 656.1094,152.1875 Q656.2969,152.0781 656.5156,152.0781 Q656.8906,152.0781 657.125,152.3359 Q657.3594,152.5938 657.3594,153.2031 L657.3594,154.6563 Q657.3594,155.2656 657.125,155.5313 Q656.8906,155.7969 656.5156,155.7969 Q656.1719,155.7969 655.9688,155.5938 Q655.7656,155.4063 655.6563,154.8906 Q655.6094,154.5313 655.4219,154.3438 Q655.0938,153.9688 654.4844,153.75 Q653.875,153.5313 653.25,153.5313 Q652.4844,153.5313 651.8516,153.8594 Q651.2188,154.1875 650.7266,154.9375 Q650.2344,155.6875 650.2344,156.7188 L650.2344,157.8125 Q650.2344,159.0469 651.125,159.8672 Q652.0156,160.6875 653.6094,160.6875 Q654.5469,160.6875 655.2031,160.4375 Q655.5938,160.2813 656.0156,159.8438 Q656.2813,159.5781 656.4297,159.5 Q656.5781,159.4219 656.7813,159.4219 Q657.1094,159.4219 657.3672,159.6797 Q657.625,159.9375 657.625,160.2813 Q657.625,160.625 657.2813,161.0313 Q656.7813,161.6094 655.9844,161.9375 Q654.9063,162.3906 653.6094,162.3906 Q652.0938,162.3906 650.8906,161.7656 Q649.9063,161.2656 649.2188,160.1953 Q648.5313,159.125 648.5313,157.8438 L648.5313,156.6875 Q648.5313,155.3594 649.1484,154.2109 Q649.7656,153.0625 650.8594,152.4453 Q651.9531,151.8281 653.1875,151.8281 Q653.9219,151.8281 654.5703,151.9922 Q655.2188,152.1563 655.7656,152.5156 Z " fill="#000000"/><text fill="#000000" font-family="sans-serif" font-size="12" lengthAdjust="spacingAndGlyphs" textLength="88" x="667" y="161.5508">EnderecoPostal</text><line style="stroke:#A80036;stroke-width:1.5;" x1="639" x2="757" y1="172.6406" y2="172.6406"/><text fill="#000000" font-family="sans-serif" font-size="11" lengthAdjust="spacingAndGlyphs" textLength="53" x="644" y="188.0596">String local</text><text fill="#000000" font-family="sans-serif" font-size="11" lengthAdjust="spacingAndGlyphs" textLength="78" x="644" y="201.8955">String codPostal</text><text fill="#000000" font-family="sans-serif" font-size="11" lengthAdjust="spacingAndGlyphs" textLength="79" x="644" y="215.7314">String localidade</text><line style="stroke:#A80036;stroke-width:1.5;" x1="639" x2="757" y1="222.1484" y2="222.1484"/><!--MD5=[5dd1d6732c071e710b9290b531f2fa3b]
class Utilizador--><rect codeLine="29" fill="#FEFECE" filter="url(#fqi0abdq7syo4)" height="89.5078" id="Utilizador" style="stroke:#A80036;stroke-width:1.5;" width="93" x="894" y="209.6406"/><ellipse cx="913.5" cy="225.6406" fill="#ADD1B2" rx="11" ry="11" style="stroke:#A80036;stroke-width:1.0;"/><path d="M916.2656,221.5156 Q916.4219,221.2969 916.6094,221.1875 Q916.7969,221.0781 917.0156,221.0781 Q917.3906,221.0781 917.625,221.3359 Q917.8594,221.5938 917.8594,222.2031 L917.8594,223.6563 Q917.8594,224.2656 917.625,224.5313 Q917.3906,224.7969 917.0156,224.7969 Q916.6719,224.7969 916.4688,224.5938 Q916.2656,224.4063 916.1563,223.8906 Q916.1094,223.5313 915.9219,223.3438 Q915.5938,222.9688 914.9844,222.75 Q914.375,222.5313 913.75,222.5313 Q912.9844,222.5313 912.3516,222.8594 Q911.7188,223.1875 911.2266,223.9375 Q910.7344,224.6875 910.7344,225.7188 L910.7344,226.8125 Q910.7344,228.0469 911.625,228.8672 Q912.5156,229.6875 914.1094,229.6875 Q915.0469,229.6875 915.7031,229.4375 Q916.0938,229.2813 916.5156,228.8438 Q916.7813,228.5781 916.9297,228.5 Q917.0781,228.4219 917.2813,228.4219 Q917.6094,228.4219 917.8672,228.6797 Q918.125,228.9375 918.125,229.2813 Q918.125,229.625 917.7813,230.0313 Q917.2813,230.6094 916.4844,230.9375 Q915.4063,231.3906 914.1094,231.3906 Q912.5938,231.3906 911.3906,230.7656 Q910.4063,230.2656 909.7188,229.1953 Q909.0313,228.125 909.0313,226.8438 L909.0313,225.6875 Q909.0313,224.3594 909.6484,223.2109 Q910.2656,222.0625 911.3594,221.4453 Q912.4531,220.8281 913.6875,220.8281 Q914.4219,220.8281 915.0703,220.9922 Q915.7188,221.1563 916.2656,221.5156 Z " fill="#000000"/><text fill="#000000" font-family="sans-serif" font-size="12" lengthAdjust="spacingAndGlyphs" textLength="51" x="928.5" y="230.5508">Utilizador</text><line style="stroke:#A80036;stroke-width:1.5;" x1="895" x2="986" y1="241.6406" y2="241.6406"/><text fill="#000000" font-family="sans-serif" font-size="11" lengthAdjust="spacingAndGlyphs" textLength="57" x="900" y="257.0596">String nome</text><text fill="#000000" font-family="sans-serif" font-size="11" lengthAdjust="spacingAndGlyphs" textLength="55" x="900" y="270.8955">String email</text><text fill="#000000" font-family="sans-serif" font-size="11" lengthAdjust="spacingAndGlyphs" textLength="81" x="900" y="284.7314">String password</text><line style="stroke:#A80036;stroke-width:1.5;" x1="895" x2="986" y1="291.1484" y2="291.1484"/><!--MD5=[903d5889f30e0ecbfd34509022c6ca12]
class AlgoritmoExternoGeracaoPwd--><rect codeLine="35" fill="#FEFECE" filter="url(#fqi0abdq7syo4)" height="48" id="AlgoritmoExternoGeracaoPwd" style="stroke:#A80036;stroke-width:1.5;" width="196" x="412" y="242.6406"/><ellipse cx="427" cy="258.6406" fill="#ADD1B2" rx="11" ry="11" style="stroke:#A80036;stroke-width:1.0;"/><path d="M429.7656,254.5156 Q429.9219,254.2969 430.1094,254.1875 Q430.2969,254.0781 430.5156,254.0781 Q430.8906,254.0781 431.125,254.3359 Q431.3594,254.5938 431.3594,255.2031 L431.3594,256.6563 Q431.3594,257.2656 431.125,257.5313 Q430.8906,257.7969 430.5156,257.7969 Q430.1719,257.7969 429.9688,257.5938 Q429.7656,257.4063 429.6563,256.8906 Q429.6094,256.5313 429.4219,256.3438 Q429.0938,255.9688 428.4844,255.75 Q427.875,255.5313 427.25,255.5313 Q426.4844,255.5313 425.8516,255.8594 Q425.2188,256.1875 424.7266,256.9375 Q424.2344,257.6875 424.2344,258.7188 L424.2344,259.8125 Q424.2344,261.0469 425.125,261.8672 Q426.0156,262.6875 427.6094,262.6875 Q428.5469,262.6875 429.2031,262.4375 Q429.5938,262.2813 430.0156,261.8438 Q430.2813,261.5781 430.4297,261.5 Q430.5781,261.4219 430.7813,261.4219 Q431.1094,261.4219 431.3672,261.6797 Q431.625,261.9375 431.625,262.2813 Q431.625,262.625 431.2813,263.0313 Q430.7813,263.6094 429.9844,263.9375 Q428.9063,264.3906 427.6094,264.3906 Q426.0938,264.3906 424.8906,263.7656 Q423.9063,263.2656 423.2188,262.1953 Q422.5313,261.125 422.5313,259.8438 L422.5313,258.6875 Q422.5313,257.3594 423.1484,256.2109 Q423.7656,255.0625 424.8594,254.4453 Q425.9531,253.8281 427.1875,253.8281 Q427.9219,253.8281 428.5703,253.9922 Q429.2188,254.1563 429.7656,254.5156 Z " fill="#000000"/><text fill="#000000" font-family="sans-serif" font-size="12" lengthAdjust="spacingAndGlyphs" textLength="164" x="441" y="263.5508">AlgoritmoExternoGeracaoPwd</text><line style="stroke:#A80036;stroke-width:1.5;" x1="413" x2="607" y1="274.6406" y2="274.6406"/><line style="stroke:#A80036;stroke-width:1.5;" x1="413" x2="607" y1="282.6406" y2="282.6406"/><!--MD5=[bfccd8e890448f4cee1f17ba82daa446]
link Plataforma to Organização--><path codeLine="38" d="M120.26,212.9306 C167.64,196.1906 235.03,172.3806 280.64,156.2606 " fill="none" id="Plataforma-Organização" style="stroke:#A80036;stroke-width:1.0;"/><polygon fill="#000000" points="159.7143,158.1506,150.2069,158.393,152.1651,163.9351,159.7143,158.1506" style="stroke:#000000;stroke-width:1.0;"/><text fill="#000000" font-family="sans-serif" font-size="13" lengthAdjust="spacingAndGlyphs" textLength="86" x="164" y="165.1357">tem registadas</text><text fill="#000000" font-family="sans-serif" font-size="13" lengthAdjust="spacingAndGlyphs" textLength="7" x="127.9808" y="224.9464">1</text><text fill="#000000" font-family="sans-serif" font-size="13" lengthAdjust="spacingAndGlyphs" textLength="5" x="268.1362" y="173.3706">*</text><!--MD5=[efc446191a09ada4a3c0b8b4c7fafebe]
link Plataforma to AlgoritmoExternoGeracaoPwd--><path codeLine="39" d="M120.35,236.9106 C193.33,242.4906 322.33,252.3606 411.58,259.1906 " fill="none" id="Plataforma-AlgoritmoExternoGeracaoPwd" style="stroke:#A80036;stroke-width:1.0;"/><polygon fill="#000000" points="177.4854,230.1978,168.6909,226.5775,168.2425,232.4382,177.4854,230.1978" style="stroke:#000000;stroke-width:1.0;"/><text fill="#000000" font-family="sans-serif" font-size="13" lengthAdjust="spacingAndGlyphs" textLength="51" x="181.5" y="235.1357">recorre a</text><text fill="#000000" font-family="sans-serif" font-size="13" lengthAdjust="spacingAndGlyphs" textLength="7" x="128.0823" y="251.9989">1</text><text fill="#000000" font-family="sans-serif" font-size="13" lengthAdjust="spacingAndGlyphs" textLength="7" x="397.0952" y="272.739">1</text><!--MD5=[647426b90ecdde9ada25b13bffe67ced]
link AlgoritmoExternoGeracaoPwd to Utilizador--><path codeLine="40" d="M608.1,268.1206 C653.62,268.4306 708.61,268.2706 758,266.6406 C804.24,265.1106 856.99,261.4006 893.67,258.5106 " fill="none" id="AlgoritmoExternoGeracaoPwd-Utilizador" style="stroke:#A80036;stroke-width:1.0;"/><polygon fill="#000000" points="658.4972,257.6482,649.3584,255.0152,649.556,260.8897,658.4972,257.6482" style="stroke:#000000;stroke-width:1.0;"/><text fill="#000000" font-family="sans-serif" font-size="13" lengthAdjust="spacingAndGlyphs" textLength="84" x="662.5" y="263.1357">gera password</text><text fill="#000000" font-family="sans-serif" font-size="13" lengthAdjust="spacingAndGlyphs" textLength="7" x="615.8788" y="282.355">1</text><text fill="#000000" font-family="sans-serif" font-size="13" lengthAdjust="spacingAndGlyphs" textLength="5" x="881.1163" y="273.8879">*</text><!--MD5=[a1920769314186b331e19badf2cc4935]
link Organização to Colaborador--><path codeLine="41" d="M382.38,117.1606 C392.08,113.5706 402.25,110.1906 412,107.6406 C492.97,86.4806 589.99,75.8906 647.4,71.0906 " fill="none" id="Organização-Colaborador" style="stroke:#A80036;stroke-width:1.0;"/><polygon fill="#000000" points="501.4261,65.9601,492.0113,64.6137,493.018,70.4047,501.4261,65.9601" style="stroke:#000000;stroke-width:1.0;"/><text fill="#000000" font-family="sans-serif" font-size="13" lengthAdjust="spacingAndGlyphs" textLength="22" x="505.5" y="72.1357">tem</text><text fill="#000000" font-family="sans-serif" font-size="13" lengthAdjust="spacingAndGlyphs" textLength="7" x="390.0272" y="128.7722">1</text><text fill="#000000" font-family="sans-serif" font-size="13" lengthAdjust="spacingAndGlyphs" textLength="20" x="619.6356" y="86.0963">1..*</text><!--MD5=[a1920769314186b331e19badf2cc4935]
link Organização to Colaborador--><path codeLine="42" d="M382.07,146.6106 C438.46,153.6906 532.49,159.3506 608,133.6406 C625.48,127.6906 642.37,116.9206 656.65,105.7806 " fill="none" id="Organização-Colaborador-1" style="stroke:#A80036;stroke-width:1.0;"/><polygon fill="#000000" points="481.4456,124.081,472.0666,122.5044,472.9312,128.3183,481.4456,124.081" style="stroke:#000000;stroke-width:1.0;"/><text fill="#000000" font-family="sans-serif" font-size="13" lengthAdjust="spacingAndGlyphs" textLength="62" x="485.5" y="130.1357">tem gestor</text><text fill="#000000" font-family="sans-serif" font-size="13" lengthAdjust="spacingAndGlyphs" textLength="7" x="390.0115" y="162.464">1</text><text fill="#000000" font-family="sans-serif" font-size="13" lengthAdjust="spacingAndGlyphs" textLength="7" x="642.502" y="126.6835">1</text><!--MD5=[78f7e103fe48bd426744f000632fc42d]
link Organização to EnderecoPostal--><path codeLine="43" d="M382.29,174.9706 C391.75,180.1906 401.86,184.7706 412,187.6406 C487.69,209.0906 579.3,203.1306 637.86,195.5206 " fill="none" id="Organização-EnderecoPostal" style="stroke:#A80036;stroke-width:1.0;"/><polygon fill="#000000" points="472.4839,179.2172,463.7035,175.5627,463.2324,181.4217,472.4839,179.2172" style="stroke:#000000;stroke-width:1.0;"/><text fill="#000000" font-family="sans-serif" font-size="13" lengthAdjust="spacingAndGlyphs" textLength="80" x="476.5" y="184.1357">localizada em</text><text fill="#000000" font-family="sans-serif" font-size="13" lengthAdjust="spacingAndGlyphs" textLength="22" x="389.8207" y="193.8789">0..1</text><text fill="#000000" font-family="sans-serif" font-size="13" lengthAdjust="spacingAndGlyphs" textLength="7" x="623.1039" y="211.2463">1</text><!--MD5=[bcb5794e8184ce78d304f04a5beabbc0]
link Colaborador to Utilizador--><path codeLine="44" d="M747.96,105.7106 C790.67,138.9206 852.17,186.7306 893.87,219.1606 " fill="none" id="Colaborador-Utilizador" style="stroke:#A80036;stroke-width:1.0;"/><polygon fill="#000000" points="789.0528,126.7473,794.3894,134.6195,797.9973,129.9792,789.0528,126.7473" style="stroke:#000000;stroke-width:1.0;"/><text fill="#000000" font-family="sans-serif" font-size="13" lengthAdjust="spacingAndGlyphs" textLength="61" x="802" y="135.1357">atua como</text><text fill="#000000" font-family="sans-serif" font-size="13" lengthAdjust="spacingAndGlyphs" textLength="22" x="732.4128" y="126.8924">0..1</text><text fill="#000000" font-family="sans-serif" font-size="13" lengthAdjust="spacingAndGlyphs" textLength="7" x="878.8805" y="228.3434">1</text><!--MD5=[2418f880d1bdb08cd6fb412869a0cf00]
@startuml

title UC01 - Registar Organização - Excerto do Modelo de Domínio

left to right direction

class Plataforma <<Singleton>> {
    -String designacao
}

class Organização {
    -String nome
    -String NIF
    -String website
    -String telefone
    -String email
}

class Colaborador {
    String funcao
    String telefone
}

class EnderecoPostal {
    String local
    String codPostal
    String localidade
}

class Utilizador {
    String nome
    String email
    String password
}

class AlgoritmoExternoGeracaoPwd {
}

Plataforma "1"- -"*" Organização : tem registadas >
Plataforma "1"- -"1" AlgoritmoExternoGeracaoPwd : recorre a >
AlgoritmoExternoGeracaoPwd "1"- -"*" Utilizador : gera password >
Organização "1"- -"1..*" Colaborador : tem >
Organização "1"- -"1" Colaborador : tem gestor >
Organização "0..1"- -"1" EnderecoPostal : localizada em >
Colaborador "0..1"- -"1" Utilizador : atua como <

@enduml

PlantUML version 1.2020.22(Sun Dec 06 09:36:27 GMT 2020)
(GPL source distribution)
Java Runtime: Java(TM) SE Runtime Environment
JVM: Java HotSpot(TM) 64-Bit Server VM
Default Encoding: Cp1252
Language: en
Country: US
--></g></svg>