<?xml version="1.0" encoding="UTF-8" standalone="no"?><svg xmlns="http://www.w3.org/2000/svg" xmlns:xlink="http://www.w3.org/1999/xlink" contentScriptType="application/ecmascript" contentStyleType="text/css" height="839px" preserveAspectRatio="none" style="width:1593px;height:839px;" version="1.1" viewBox="0 0 1593 839" width="1593px" zoomAndPan="magnify"><defs><filter height="300%" id="f1cq944tudxbhm" width="300%" x="-1" y="-1"><feGaussianBlur result="blurOut" stdDeviation="2.0"/><feColorMatrix in="blurOut" result="blurOut2" type="matrix" values="0 0 0 0 0 0 0 0 0 0 0 0 0 0 0 0 0 0 .4 0"/><feOffset dx="4.0" dy="4.0" in="blurOut2" result="blurOut3"/><feBlend in="SourceGraphic" in2="blurOut3" mode="normal"/></filter></defs><g><text fill="#000000" font-family="sans-serif" font-size="18" lengthAdjust="spacing" textLength="479" x="550.75" y="16.708">UC01 - Registar Organização - Diagrama de Classes</text><!--MD5=[26c5f3be5170126d62449270b7dc8f97]
class RegistarOrganizacaoUI--><rect codeLine="3" fill="#FEFECE" filter="url(#f1cq944tudxbhm)" height="48" id="RegistarOrganizacaoUI" style="stroke:#A80036;stroke-width:1.5;" width="169" x="747.5" y="27.9531"/><ellipse cx="762.5" cy="43.9531" fill="#ADD1B2" rx="11" ry="11" style="stroke:#A80036;stroke-width:1.0;"/><path d="M764.8438,39.625 C763.9063,39.1875 763.3125,39.0469 762.4375,39.0469 C759.8125,39.0469 757.8125,41.125 757.8125,43.8438 L757.8125,44.9688 C757.8125,47.5469 759.9219,49.4375 762.8125,49.4375 C764.0313,49.4375 765.1875,49.1406 765.9375,48.5938 C766.5156,48.1875 766.8438,47.7344 766.8438,47.3438 C766.8438,46.8906 766.4531,46.5 765.9844,46.5 C765.7656,46.5 765.5625,46.5781 765.375,46.7656 C764.9219,47.25 764.9219,47.25 764.7344,47.3438 C764.3125,47.6094 763.625,47.7344 762.8594,47.7344 C760.8125,47.7344 759.5156,46.6406 759.5156,44.9375 L759.5156,43.8438 C759.5156,42.0625 760.7656,40.75 762.5,40.75 C763.0781,40.75 763.6875,40.9063 764.1563,41.1563 C764.6406,41.4375 764.8125,41.6563 764.9063,42.0625 C764.9688,42.4688 765,42.5938 765.1406,42.7188 C765.2813,42.8594 765.5156,42.9688 765.7344,42.9688 C766,42.9688 766.2656,42.8281 766.4375,42.6094 C766.5469,42.4531 766.5781,42.2656 766.5781,41.8438 L766.5781,40.4219 C766.5781,39.9844 766.5625,39.8594 766.4688,39.7031 C766.3125,39.4375 766.0313,39.2969 765.7344,39.2969 C765.4375,39.2969 765.2344,39.3906 765.0156,39.7031 L764.8438,39.625 Z " fill="#000000"/><text fill="#000000" font-family="sans-serif" font-size="12" lengthAdjust="spacing" textLength="137" x="776.5" y="48.1074">RegistarOrganizacaoUI</text><line style="stroke:#A80036;stroke-width:1.5;" x1="748.5" x2="915.5" y1="59.9531" y2="59.9531"/><line style="stroke:#A80036;stroke-width:1.5;" x1="748.5" x2="915.5" y1="67.9531" y2="67.9531"/><!--MD5=[dd5ad71b12dabe0adbc098c60a8c9669]
class RegistarOrganizacaoController--><rect codeLine="6" fill="#FEFECE" filter="url(#f1cq944tudxbhm)" height="73.6094" id="RegistarOrganizacaoController" style="stroke:#A80036;stroke-width:1.5;" width="780" x="442" y="136.9531"/><ellipse cx="735.75" cy="152.9531" fill="#ADD1B2" rx="11" ry="11" style="stroke:#A80036;stroke-width:1.0;"/><path d="M738.0938,148.625 C737.1563,148.1875 736.5625,148.0469 735.6875,148.0469 C733.0625,148.0469 731.0625,150.125 731.0625,152.8438 L731.0625,153.9688 C731.0625,156.5469 733.1719,158.4375 736.0625,158.4375 C737.2813,158.4375 738.4375,158.1406 739.1875,157.5938 C739.7656,157.1875 740.0938,156.7344 740.0938,156.3438 C740.0938,155.8906 739.7031,155.5 739.2344,155.5 C739.0156,155.5 738.8125,155.5781 738.625,155.7656 C738.1719,156.25 738.1719,156.25 737.9844,156.3438 C737.5625,156.6094 736.875,156.7344 736.1094,156.7344 C734.0625,156.7344 732.7656,155.6406 732.7656,153.9375 L732.7656,152.8438 C732.7656,151.0625 734.0156,149.75 735.75,149.75 C736.3281,149.75 736.9375,149.9063 737.4063,150.1563 C737.8906,150.4375 738.0625,150.6563 738.1563,151.0625 C738.2188,151.4688 738.25,151.5938 738.3906,151.7188 C738.5313,151.8594 738.7656,151.9688 738.9844,151.9688 C739.25,151.9688 739.5156,151.8281 739.6875,151.6094 C739.7969,151.4531 739.8281,151.2656 739.8281,150.8438 L739.8281,149.4219 C739.8281,148.9844 739.8125,148.8594 739.7188,148.7031 C739.5625,148.4375 739.2813,148.2969 738.9844,148.2969 C738.6875,148.2969 738.4844,148.3906 738.2656,148.7031 L738.0938,148.625 Z " fill="#000000"/><text fill="#000000" font-family="sans-serif" font-size="12" lengthAdjust="spacing" textLength="184" x="756.25" y="157.1074">RegistarOrganizacaoController</text><line style="stroke:#A80036;stroke-width:1.5;" x1="443" x2="1221" y1="168.9531" y2="168.9531"/><line style="stroke:#A80036;stroke-width:1.0;" x1="443" x2="1221" y1="176.9531" y2="176.9531"/><ellipse cx="453" cy="187.9531" fill="#84BE84" rx="3" ry="3" style="stroke:#038048;stroke-width:1.0;"/><text fill="#000000" font-family="sans-serif" font-size="11" lengthAdjust="spacing" textLength="754" x="462" y="191.1636">novaOrganizacao(nome, NIF, endLocal, enderacoPostal, endLocalidade, tlf, websiteOrg, emailOrg, nomeG, funcao, tlfG, emailG, pwd)</text><ellipse cx="453" cy="200.7578" fill="#84BE84" rx="3" ry="3" style="stroke:#038048;stroke-width:1.0;"/><text fill="#000000" font-family="sans-serif" font-size="11" lengthAdjust="spacing" textLength="118" x="462" y="203.9683">registaOrganizacao()</text><!--MD5=[807977ceb130c090ed5febfb6de2bdea]
class Organizacao--><rect codeLine="12" fill="#FEFECE" filter="url(#f1cq944tudxbhm)" height="150.4375" id="Organizacao" style="stroke:#A80036;stroke-width:1.5;" width="542" x="7" y="473.9531"/><ellipse cx="235.75" cy="489.9531" fill="#ADD1B2" rx="11" ry="11" style="stroke:#A80036;stroke-width:1.0;"/><path d="M238.0938,485.625 C237.1563,485.1875 236.5625,485.0469 235.6875,485.0469 C233.0625,485.0469 231.0625,487.125 231.0625,489.8438 L231.0625,490.9688 C231.0625,493.5469 233.1719,495.4375 236.0625,495.4375 C237.2813,495.4375 238.4375,495.1406 239.1875,494.5938 C239.7656,494.1875 240.0938,493.7344 240.0938,493.3438 C240.0938,492.8906 239.7031,492.5 239.2344,492.5 C239.0156,492.5 238.8125,492.5781 238.625,492.7656 C238.1719,493.25 238.1719,493.25 237.9844,493.3438 C237.5625,493.6094 236.875,493.7344 236.1094,493.7344 C234.0625,493.7344 232.7656,492.6406 232.7656,490.9375 L232.7656,489.8438 C232.7656,488.0625 234.0156,486.75 235.75,486.75 C236.3281,486.75 236.9375,486.9063 237.4063,487.1563 C237.8906,487.4375 238.0625,487.6563 238.1563,488.0625 C238.2188,488.4688 238.25,488.5938 238.3906,488.7188 C238.5313,488.8594 238.7656,488.9688 238.9844,488.9688 C239.25,488.9688 239.5156,488.8281 239.6875,488.6094 C239.7969,488.4531 239.8281,488.2656 239.8281,487.8438 L239.8281,486.4219 C239.8281,485.9844 239.8125,485.8594 239.7188,485.7031 C239.5625,485.4375 239.2813,485.2969 238.9844,485.2969 C238.6875,485.2969 238.4844,485.3906 238.2656,485.7031 L238.0938,485.625 Z " fill="#000000"/><text fill="#000000" font-family="sans-serif" font-size="12" lengthAdjust="spacing" textLength="76" x="256.25" y="494.1074">Organizacao</text><line style="stroke:#A80036;stroke-width:1.5;" x1="8" x2="548" y1="505.9531" y2="505.9531"/><rect fill="none" height="6" style="stroke:#C82930;stroke-width:1.0;" width="6" x="15" y="513.9531"/><text fill="#000000" font-family="sans-serif" font-size="11" lengthAdjust="spacing" textLength="70" x="27" y="520.1636">String nome</text><rect fill="none" height="6" style="stroke:#C82930;stroke-width:1.0;" width="6" x="15" y="526.7578"/><text fill="#000000" font-family="sans-serif" font-size="11" lengthAdjust="spacing" textLength="54" x="27" y="532.9683">String NIF</text><rect fill="none" height="6" style="stroke:#C82930;stroke-width:1.0;" width="6" x="15" y="539.5625"/><text fill="#000000" font-family="sans-serif" font-size="11" lengthAdjust="spacing" textLength="116" x="27" y="545.7729">Website websiteOrg</text><rect fill="none" height="6" style="stroke:#C82930;stroke-width:1.0;" width="6" x="15" y="552.3672"/><text fill="#000000" font-family="sans-serif" font-size="11" lengthAdjust="spacing" textLength="86" x="27" y="558.5776">String telefone</text><rect fill="none" height="6" style="stroke:#C82930;stroke-width:1.0;" width="6" x="15" y="565.1719"/><text fill="#000000" font-family="sans-serif" font-size="11" lengthAdjust="spacing" textLength="87" x="27" y="571.3823">Email emailOrg</text><line style="stroke:#A80036;stroke-width:1.0;" x1="8" x2="548" y1="577.9766" y2="577.9766"/><ellipse cx="18" cy="588.9766" fill="#84BE84" rx="3" ry="3" style="stroke:#038048;stroke-width:1.0;"/><text fill="#000000" font-family="sans-serif" font-size="11" lengthAdjust="spacing" textLength="516" x="27" y="592.187">Organizacao(nome, NIF, websiteOrg, telefone, emailOrg, enderecoOrg, gestorColaborador)</text><ellipse cx="18" cy="601.7813" fill="#84BE84" rx="3" ry="3" style="stroke:#038048;stroke-width:1.0;"/><text fill="#000000" font-family="sans-serif" font-size="11" lengthAdjust="spacing" textLength="332" x="27" y="604.9917">EnderecoPostal novoEndereco(local, codPostal, localidade)</text><ellipse cx="18" cy="614.5859" fill="#84BE84" rx="3" ry="3" style="stroke:#038048;stroke-width:1.0;"/><text fill="#000000" font-family="sans-serif" font-size="11" lengthAdjust="spacing" textLength="311" x="27" y="617.7964">Colaborador novoColaborador(nome, funcao, tlf, email)</text><!--MD5=[ac8682ea5466d223e49472789fb200d2]
class Colaborador--><rect codeLine="24" fill="#FEFECE" filter="url(#f1cq944tudxbhm)" height="124.8281" id="Colaborador" style="stroke:#A80036;stroke-width:1.5;" width="225" x="233.5" y="700.9531"/><ellipse cx="304.25" cy="716.9531" fill="#ADD1B2" rx="11" ry="11" style="stroke:#A80036;stroke-width:1.0;"/><path d="M306.5938,712.625 C305.6563,712.1875 305.0625,712.0469 304.1875,712.0469 C301.5625,712.0469 299.5625,714.125 299.5625,716.8438 L299.5625,717.9688 C299.5625,720.5469 301.6719,722.4375 304.5625,722.4375 C305.7813,722.4375 306.9375,722.1406 307.6875,721.5938 C308.2656,721.1875 308.5938,720.7344 308.5938,720.3438 C308.5938,719.8906 308.2031,719.5 307.7344,719.5 C307.5156,719.5 307.3125,719.5781 307.125,719.7656 C306.6719,720.25 306.6719,720.25 306.4844,720.3438 C306.0625,720.6094 305.375,720.7344 304.6094,720.7344 C302.5625,720.7344 301.2656,719.6406 301.2656,717.9375 L301.2656,716.8438 C301.2656,715.0625 302.5156,713.75 304.25,713.75 C304.8281,713.75 305.4375,713.9063 305.9063,714.1563 C306.3906,714.4375 306.5625,714.6563 306.6563,715.0625 C306.7188,715.4688 306.75,715.5938 306.8906,715.7188 C307.0313,715.8594 307.2656,715.9688 307.4844,715.9688 C307.75,715.9688 308.0156,715.8281 308.1875,715.6094 C308.2969,715.4531 308.3281,715.2656 308.3281,714.8438 L308.3281,713.4219 C308.3281,712.9844 308.3125,712.8594 308.2188,712.7031 C308.0625,712.4375 307.7813,712.2969 307.4844,712.2969 C307.1875,712.2969 306.9844,712.3906 306.7656,712.7031 L306.5938,712.625 Z " fill="#000000"/><text fill="#000000" font-family="sans-serif" font-size="12" lengthAdjust="spacing" textLength="75" x="324.75" y="721.1074">Colaborador</text><line style="stroke:#A80036;stroke-width:1.5;" x1="234.5" x2="457.5" y1="732.9531" y2="732.9531"/><rect fill="none" height="6" style="stroke:#C82930;stroke-width:1.0;" width="6" x="241.5" y="740.9531"/><text fill="#000000" font-family="sans-serif" font-size="11" lengthAdjust="spacing" textLength="75" x="253.5" y="747.1636">String funcao</text><rect fill="none" height="6" style="stroke:#C82930;stroke-width:1.0;" width="6" x="241.5" y="753.7578"/><text fill="#000000" font-family="sans-serif" font-size="11" lengthAdjust="spacing" textLength="86" x="253.5" y="759.9683">String telefone</text><rect fill="none" height="6" style="stroke:#C82930;stroke-width:1.0;" width="6" x="241.5" y="766.5625"/><text fill="#000000" font-family="sans-serif" font-size="11" lengthAdjust="spacing" textLength="144" x="253.5" y="772.7729">Organizacao organizacao</text><line style="stroke:#A80036;stroke-width:1.0;" x1="234.5" x2="457.5" y1="779.3672" y2="779.3672"/><ellipse cx="244.5" cy="790.3672" fill="#84BE84" rx="3" ry="3" style="stroke:#038048;stroke-width:1.0;"/><text fill="#000000" font-family="sans-serif" font-size="11" lengthAdjust="spacing" textLength="199" x="253.5" y="793.5776">Colaborador(nome,funcao,tlf,email)</text><ellipse cx="244.5" cy="803.1719" fill="#84BE84" rx="3" ry="3" style="stroke:#038048;stroke-width:1.0;"/><text fill="#000000" font-family="sans-serif" font-size="11" lengthAdjust="spacing" textLength="98" x="253.5" y="806.3823">String getNome()</text><ellipse cx="244.5" cy="815.9766" fill="#84BE84" rx="3" ry="3" style="stroke:#038048;stroke-width:1.0;"/><text fill="#000000" font-family="sans-serif" font-size="11" lengthAdjust="spacing" textLength="95" x="253.5" y="819.187">String getEmail()</text><!--MD5=[dcda844062f930f807532403427d3023]
class EnderecoPostal--><rect codeLine="34" fill="#FEFECE" filter="url(#f1cq944tudxbhm)" height="99.2188" id="EnderecoPostal" style="stroke:#A80036;stroke-width:1.5;" width="272" x="781" y="713.9531"/><ellipse cx="866.25" cy="729.9531" fill="#ADD1B2" rx="11" ry="11" style="stroke:#A80036;stroke-width:1.0;"/><path d="M868.5938,725.625 C867.6563,725.1875 867.0625,725.0469 866.1875,725.0469 C863.5625,725.0469 861.5625,727.125 861.5625,729.8438 L861.5625,730.9688 C861.5625,733.5469 863.6719,735.4375 866.5625,735.4375 C867.7813,735.4375 868.9375,735.1406 869.6875,734.5938 C870.2656,734.1875 870.5938,733.7344 870.5938,733.3438 C870.5938,732.8906 870.2031,732.5 869.7344,732.5 C869.5156,732.5 869.3125,732.5781 869.125,732.7656 C868.6719,733.25 868.6719,733.25 868.4844,733.3438 C868.0625,733.6094 867.375,733.7344 866.6094,733.7344 C864.5625,733.7344 863.2656,732.6406 863.2656,730.9375 L863.2656,729.8438 C863.2656,728.0625 864.5156,726.75 866.25,726.75 C866.8281,726.75 867.4375,726.9063 867.9063,727.1563 C868.3906,727.4375 868.5625,727.6563 868.6563,728.0625 C868.7188,728.4688 868.75,728.5938 868.8906,728.7188 C869.0313,728.8594 869.2656,728.9688 869.4844,728.9688 C869.75,728.9688 870.0156,728.8281 870.1875,728.6094 C870.2969,728.4531 870.3281,728.2656 870.3281,727.8438 L870.3281,726.4219 C870.3281,725.9844 870.3125,725.8594 870.2188,725.7031 C870.0625,725.4375 869.7813,725.2969 869.4844,725.2969 C869.1875,725.2969 868.9844,725.3906 868.7656,725.7031 L868.5938,725.625 Z " fill="#000000"/><text fill="#000000" font-family="sans-serif" font-size="12" lengthAdjust="spacing" textLength="93" x="886.75" y="734.1074">EnderecoPostal</text><line style="stroke:#A80036;stroke-width:1.5;" x1="782" x2="1052" y1="745.9531" y2="745.9531"/><rect fill="none" height="6" style="stroke:#C82930;stroke-width:1.0;" width="6" x="789" y="753.9531"/><text fill="#000000" font-family="sans-serif" font-size="11" lengthAdjust="spacing" textLength="63" x="801" y="760.1636">String local</text><rect fill="none" height="6" style="stroke:#C82930;stroke-width:1.0;" width="6" x="789" y="766.7578"/><text fill="#000000" font-family="sans-serif" font-size="11" lengthAdjust="spacing" textLength="90" x="801" y="772.9683">String codPostal</text><rect fill="none" height="6" style="stroke:#C82930;stroke-width:1.0;" width="6" x="789" y="779.5625"/><text fill="#000000" font-family="sans-serif" font-size="11" lengthAdjust="spacing" textLength="95" x="801" y="785.7729">String localidade</text><line style="stroke:#A80036;stroke-width:1.0;" x1="782" x2="1052" y1="792.3672" y2="792.3672"/><ellipse cx="792" cy="803.3672" fill="#84BE84" rx="3" ry="3" style="stroke:#038048;stroke-width:1.0;"/><text fill="#000000" font-family="sans-serif" font-size="11" lengthAdjust="spacing" textLength="246" x="801" y="806.5776">EnderecoPostal(local, codPostal, localidade)</text><!--MD5=[548bd8e9f0dc9261535ca7b7174ac939]
class RegistoOrganizacoes--><rect codeLine="42" fill="#FEFECE" filter="url(#f1cq944tudxbhm)" height="124.8281" id="RegistoOrganizacoes" style="stroke:#A80036;stroke-width:1.5;" width="751" x="456.5" y="271.9531"/><ellipse cx="763.25" cy="287.9531" fill="#ADD1B2" rx="11" ry="11" style="stroke:#A80036;stroke-width:1.0;"/><path d="M765.5938,283.625 C764.6563,283.1875 764.0625,283.0469 763.1875,283.0469 C760.5625,283.0469 758.5625,285.125 758.5625,287.8438 L758.5625,288.9688 C758.5625,291.5469 760.6719,293.4375 763.5625,293.4375 C764.7813,293.4375 765.9375,293.1406 766.6875,292.5938 C767.2656,292.1875 767.5938,291.7344 767.5938,291.3438 C767.5938,290.8906 767.2031,290.5 766.7344,290.5 C766.5156,290.5 766.3125,290.5781 766.125,290.7656 C765.6719,291.25 765.6719,291.25 765.4844,291.3438 C765.0625,291.6094 764.375,291.7344 763.6094,291.7344 C761.5625,291.7344 760.2656,290.6406 760.2656,288.9375 L760.2656,287.8438 C760.2656,286.0625 761.5156,284.75 763.25,284.75 C763.8281,284.75 764.4375,284.9063 764.9063,285.1563 C765.3906,285.4375 765.5625,285.6563 765.6563,286.0625 C765.7188,286.4688 765.75,286.5938 765.8906,286.7188 C766.0313,286.8594 766.2656,286.9688 766.4844,286.9688 C766.75,286.9688 767.0156,286.8281 767.1875,286.6094 C767.2969,286.4531 767.3281,286.2656 767.3281,285.8438 L767.3281,284.4219 C767.3281,283.9844 767.3125,283.8594 767.2188,283.7031 C767.0625,283.4375 766.7813,283.2969 766.4844,283.2969 C766.1875,283.2969 765.9844,283.3906 765.7656,283.7031 L765.5938,283.625 Z " fill="#000000"/><text fill="#000000" font-family="sans-serif" font-size="12" lengthAdjust="spacing" textLength="129" x="783.75" y="292.1074">RegistoOrganizacoes</text><line style="stroke:#A80036;stroke-width:1.5;" x1="457.5" x2="1206.5" y1="303.9531" y2="303.9531"/><line style="stroke:#A80036;stroke-width:1.0;" x1="457.5" x2="1206.5" y1="311.9531" y2="311.9531"/><ellipse cx="467.5" cy="322.9531" fill="#84BE84" rx="3" ry="3" style="stroke:#038048;stroke-width:1.0;"/><text fill="#000000" font-family="sans-serif" font-size="11" lengthAdjust="spacing" textLength="725" x="476.5" y="326.1636">Organizacao novaOrganizacao(nome, NIF, endLocal, endCodPostal, endLocalidade, tlf, site, email, nomeG, funcao, tlfG, emailG)</text><ellipse cx="467.5" cy="335.7578" fill="#84BE84" rx="3" ry="3" style="stroke:#038048;stroke-width:1.0;"/><text fill="#000000" font-family="sans-serif" font-size="11" lengthAdjust="spacing" textLength="206" x="476.5" y="338.9683">validaOrganizacao(Organizacao org)</text><ellipse cx="467.5" cy="348.5625" fill="#84BE84" rx="3" ry="3" style="stroke:#038048;stroke-width:1.0;"/><text fill="#000000" font-family="sans-serif" font-size="11" lengthAdjust="spacing" textLength="211" x="476.5" y="351.7729">registaOrganizacao(Organizacao org)</text><rect fill="#F24D5C" height="6" style="stroke:#C82930;stroke-width:1.0;" width="6" x="464.5" y="358.3672"/><text fill="#000000" font-family="sans-serif" font-size="11" lengthAdjust="spacing" textLength="193" x="476.5" y="364.5776">addOrganizacao(Organizacao org)</text><rect fill="#F24D5C" height="6" style="stroke:#C82930;stroke-width:1.0;" width="6" x="464.5" y="371.1719"/><text fill="#000000" font-family="sans-serif" font-size="11" lengthAdjust="spacing" textLength="311" x="476.5" y="377.3823">registaGestorComoUtilizador(Colaborador colabGestor)</text><rect fill="#F24D5C" height="6" style="stroke:#C82930;stroke-width:1.0;" width="6" x="464.5" y="383.9766"/><text fill="#000000" font-family="sans-serif" font-size="11" lengthAdjust="spacing" textLength="224" x="476.5" y="390.187">enviaPwd(Email emailG, Password pwd)</text><!--MD5=[ed5c6b4e01c9b1c9efc043b411d08420]
class AutorizacaoFacade--><rect codeLine="52" fill="#FEFECE" filter="url(#f1cq944tudxbhm)" height="60.8047" id="AutorizacaoFacade" style="stroke:#A80036;stroke-width:1.5;" width="358" x="584" y="518.4531"/><ellipse cx="701.25" cy="534.4531" fill="#ADD1B2" rx="11" ry="11" style="stroke:#A80036;stroke-width:1.0;"/><path d="M703.5938,530.125 C702.6563,529.6875 702.0625,529.5469 701.1875,529.5469 C698.5625,529.5469 696.5625,531.625 696.5625,534.3438 L696.5625,535.4688 C696.5625,538.0469 698.6719,539.9375 701.5625,539.9375 C702.7813,539.9375 703.9375,539.6406 704.6875,539.0938 C705.2656,538.6875 705.5938,538.2344 705.5938,537.8438 C705.5938,537.3906 705.2031,537 704.7344,537 C704.5156,537 704.3125,537.0781 704.125,537.2656 C703.6719,537.75 703.6719,537.75 703.4844,537.8438 C703.0625,538.1094 702.375,538.2344 701.6094,538.2344 C699.5625,538.2344 698.2656,537.1406 698.2656,535.4375 L698.2656,534.3438 C698.2656,532.5625 699.5156,531.25 701.25,531.25 C701.8281,531.25 702.4375,531.4063 702.9063,531.6563 C703.3906,531.9375 703.5625,532.1563 703.6563,532.5625 C703.7188,532.9688 703.75,533.0938 703.8906,533.2188 C704.0313,533.3594 704.2656,533.4688 704.4844,533.4688 C704.75,533.4688 705.0156,533.3281 705.1875,533.1094 C705.2969,532.9531 705.3281,532.7656 705.3281,532.3438 L705.3281,530.9219 C705.3281,530.4844 705.3125,530.3594 705.2188,530.2031 C705.0625,529.9375 704.7813,529.7969 704.4844,529.7969 C704.1875,529.7969 703.9844,529.8906 703.7656,530.2031 L703.5938,530.125 Z " fill="#000000"/><text fill="#000000" font-family="sans-serif" font-size="12" lengthAdjust="spacing" textLength="115" x="721.75" y="538.6074">AutorizacaoFacade</text><line style="stroke:#A80036;stroke-width:1.5;" x1="585" x2="941" y1="550.4531" y2="550.4531"/><line style="stroke:#A80036;stroke-width:1.0;" x1="585" x2="941" y1="558.4531" y2="558.4531"/><ellipse cx="595" cy="569.4531" fill="#84BE84" rx="3" ry="3" style="stroke:#038048;stroke-width:1.0;"/><text fill="#000000" font-family="sans-serif" font-size="11" lengthAdjust="spacing" textLength="332" x="604" y="572.6636">registaUtilizadorComPapeis(nomeG,emailG,pwd,listaPapel)</text><!--MD5=[37bf6c08f758502d5d1a5531d651ab43]
class AlgoritmoGeradorPasswords--><rect codeLine="57" fill="#FEFECE" filter="url(#f1cq944tudxbhm)" height="60.8047" id="AlgoritmoGeradorPasswords" style="stroke:#A80036;stroke-width:1.5;" width="202" x="977" y="518.4531"/><ellipse cx="992.9" cy="534.4531" fill="#B4A7E5" rx="11" ry="11" style="stroke:#A80036;stroke-width:1.0;"/><path d="M993.8531,531.2344 L995.5719,531.2344 C995.9625,531.2344 996.15,531.2031 996.275,531.125 C996.5406,530.9688 996.6813,530.6875 996.6813,530.3906 C996.6813,530.125 996.5719,529.8594 996.3375,529.6875 C996.1656,529.5781 996.025,529.5469 995.5719,529.5469 L990.4313,529.5469 C989.9938,529.5469 989.8688,529.5625 989.7125,529.6563 C989.4625,529.8125 989.3063,530.1094 989.3063,530.3906 C989.3063,530.6719 989.4469,530.9219 989.6656,531.0938 C989.8219,531.2031 990.0094,531.2344 990.4313,531.2344 L992.15,531.2344 L992.15,537.75 L990.4313,537.75 C989.9938,537.75 989.8688,537.7656 989.7125,537.875 C989.4625,538.0313 989.3063,538.3125 989.3063,538.6094 C989.3063,538.8594 989.4469,539.125 989.6656,539.2813 C989.8219,539.4063 990.025,539.4531 990.4313,539.4531 L995.5719,539.4531 C996.3219,539.4531 996.6813,539.1719 996.6813,538.6094 C996.6813,538.3281 996.5719,538.0781 996.3375,537.9063 C996.1656,537.7813 996.025,537.75 995.5719,537.75 L993.8531,537.75 L993.8531,531.2344 Z " fill="#000000"/><text fill="#000000" font-family="sans-serif" font-size="12" font-style="italic" lengthAdjust="spacing" textLength="168" x="1007.1" y="538.6074">AlgoritmoGeradorPasswords</text><line style="stroke:#A80036;stroke-width:1.5;" x1="978" x2="1178" y1="550.4531" y2="550.4531"/><line style="stroke:#A80036;stroke-width:1.0;" x1="978" x2="1178" y1="558.4531" y2="558.4531"/><ellipse cx="988" cy="569.4531" fill="#84BE84" rx="3" ry="3" style="stroke:#038048;stroke-width:1.0;"/><text fill="#000000" font-family="sans-serif" font-size="11" lengthAdjust="spacing" textLength="176" x="997" y="572.6636">geraPassword(nomeG, emailG)</text><!--MD5=[ecaed46f78f8cfe1e9ce18477649be18]
class Plataforma--><rect codeLine="62" fill="#FEFECE" filter="url(#f1cq944tudxbhm)" height="99.2188" id="Plataforma" style="stroke:#A80036;stroke-width:1.5;" width="337" x="1242.5" y="284.9531"/><ellipse cx="1375.75" cy="300.9531" fill="#ADD1B2" rx="11" ry="11" style="stroke:#A80036;stroke-width:1.0;"/><path d="M1378.0938,296.625 C1377.1563,296.1875 1376.5625,296.0469 1375.6875,296.0469 C1373.0625,296.0469 1371.0625,298.125 1371.0625,300.8438 L1371.0625,301.9688 C1371.0625,304.5469 1373.1719,306.4375 1376.0625,306.4375 C1377.2813,306.4375 1378.4375,306.1406 1379.1875,305.5938 C1379.7656,305.1875 1380.0938,304.7344 1380.0938,304.3438 C1380.0938,303.8906 1379.7031,303.5 1379.2344,303.5 C1379.0156,303.5 1378.8125,303.5781 1378.625,303.7656 C1378.1719,304.25 1378.1719,304.25 1377.9844,304.3438 C1377.5625,304.6094 1376.875,304.7344 1376.1094,304.7344 C1374.0625,304.7344 1372.7656,303.6406 1372.7656,301.9375 L1372.7656,300.8438 C1372.7656,299.0625 1374.0156,297.75 1375.75,297.75 C1376.3281,297.75 1376.9375,297.9063 1377.4063,298.1563 C1377.8906,298.4375 1378.0625,298.6563 1378.1563,299.0625 C1378.2188,299.4688 1378.25,299.5938 1378.3906,299.7188 C1378.5313,299.8594 1378.7656,299.9688 1378.9844,299.9688 C1379.25,299.9688 1379.5156,299.8281 1379.6875,299.6094 C1379.7969,299.4531 1379.8281,299.2656 1379.8281,298.8438 L1379.8281,297.4219 C1379.8281,296.9844 1379.8125,296.8594 1379.7188,296.7031 C1379.5625,296.4375 1379.2813,296.2969 1378.9844,296.2969 C1378.6875,296.2969 1378.4844,296.3906 1378.2656,296.7031 L1378.0938,296.625 Z " fill="#000000"/><text fill="#000000" font-family="sans-serif" font-size="12" lengthAdjust="spacing" textLength="62" x="1396.25" y="305.1074">Plataforma</text><line style="stroke:#A80036;stroke-width:1.5;" x1="1243.5" x2="1578.5" y1="316.9531" y2="316.9531"/><rect fill="none" height="6" style="stroke:#C82930;stroke-width:1.0;" width="6" x="1250.5" y="324.9531"/><text fill="#000000" font-family="sans-serif" font-size="11" lengthAdjust="spacing" textLength="102" x="1262.5" y="331.1636">String designacao</text><line style="stroke:#A80036;stroke-width:1.0;" x1="1243.5" x2="1578.5" y1="337.7578" y2="337.7578"/><ellipse cx="1253.5" cy="348.7578" fill="#84BE84" rx="3" ry="3" style="stroke:#038048;stroke-width:1.0;"/><text fill="#000000" font-family="sans-serif" font-size="11" lengthAdjust="spacing" textLength="244" x="1262.5" y="351.9683">RepositorioOrganizacoes allOrganizacoes()</text><ellipse cx="1253.5" cy="361.5625" fill="#84BE84" rx="3" ry="3" style="stroke:#038048;stroke-width:1.0;"/><text fill="#000000" font-family="sans-serif" font-size="11" lengthAdjust="spacing" textLength="247" x="1262.5" y="364.7729">AutorizacaoFacade getAutorizacaoFacade()</text><ellipse cx="1253.5" cy="374.3672" fill="#84BE84" rx="3" ry="3" style="stroke:#038048;stroke-width:1.0;"/><text fill="#000000" font-family="sans-serif" font-size="11" lengthAdjust="spacing" textLength="311" x="1262.5" y="377.5776">AlgoritmoGeradorPasswords getAlgoritmoGeradorPwd()</text><!--MD5=[5968e6aa320025ed2619ac26e0f01233]
link RegistarOrganizacaoUI to RegistarOrganizacaoController--><path codeLine="70" d="M832,76.0901 C832,91.7781 832,112.9561 832,131.5081 " fill="none" id="RegistarOrganizacaoUI-to-RegistarOrganizacaoController" style="stroke:#A80036;stroke-width:1.0;stroke-dasharray:7.0,7.0;"/><polygon fill="#A80036" points="832,136.6641,836,127.6641,832,131.6641,828,127.6641,832,136.6641" style="stroke:#A80036;stroke-width:1.0;"/><!--MD5=[35b989c5d7ca8b09d8ca855f18139f3a]
link RegistarOrganizacaoController to RegistoOrganizacoes--><path codeLine="71" d="M832,211.3161 C832,227.6901 832,247.5601 832,266.4741 " fill="none" id="RegistarOrganizacaoController-to-RegistoOrganizacoes" style="stroke:#A80036;stroke-width:1.0;stroke-dasharray:7.0,7.0;"/><polygon fill="#A80036" points="832,271.7791,836,262.7791,832,266.7791,828,262.7791,832,271.7791" style="stroke:#A80036;stroke-width:1.0;"/><!--MD5=[989fd8e1df01efc14a26ec70914d6dfa]
link RegistarOrganizacaoController to Organizacao--><path codeLine="72" d="M562.2,210.9971 C518.247,225.1681 475.294,244.7981 439,271.9531 C372.984,321.3461 329.355,406.4181 304.369,469.0911 " fill="none" id="RegistarOrganizacaoController-to-Organizacao" style="stroke:#A80036;stroke-width:1.0;stroke-dasharray:7.0,7.0;"/><polygon fill="#A80036" points="302.455,473.9421,309.4796,467.0389,304.2905,469.2912,302.0382,464.1021,302.455,473.9421" style="stroke:#A80036;stroke-width:1.0;"/><!--MD5=[070ebfe6f744f37053d6e1e171d02a8b]
link RegistarOrganizacaoController to Plataforma--><path codeLine="73" d="M990.028,211.0091 C1062.04,228.1951 1148.19,249.8111 1225,271.9531 C1237.33,275.5081 1250.07,279.3521 1262.83,283.3221 " fill="none" id="RegistarOrganizacaoController-to-Plataforma" style="stroke:#A80036;stroke-width:1.0;stroke-dasharray:7.0,7.0;"/><polygon fill="#A80036" points="1267.91,284.9091,1260.5061,278.4143,1263.1361,283.4226,1258.1277,286.0526,1267.91,284.9091" style="stroke:#A80036;stroke-width:1.0;"/><!--MD5=[567db691f9836c63f305bad1024cbc66]
link Organizacao to Colaborador--><path codeLine="74" d="M267.968,624.1601 C268.087,639.9251 269.962,656.2421 275,670.9531 C277.996,679.7001 282.206,688.2571 287.098,696.4101 " fill="none" id="Organizacao-to-Colaborador" style="stroke:#A80036;stroke-width:1.0;"/><polygon fill="#A80036" points="289.883,700.8971,288.5375,691.1406,287.2471,696.6483,281.7394,695.358,289.883,700.8971" style="stroke:#A80036;stroke-width:1.0;"/><text fill="#000000" font-family="sans-serif" font-size="13" lengthAdjust="spacing" textLength="26" x="276" y="667.02">tem</text><text fill="#000000" font-family="sans-serif" font-size="13" lengthAdjust="spacing" textLength="8" x="258.5867" y="644.3535">1</text><text fill="#000000" font-family="sans-serif" font-size="13" lengthAdjust="spacing" textLength="23" x="259.0648" y="689.8814">1..*</text><!--MD5=[567db691f9836c63f305bad1024cbc66]
link Organizacao to Colaborador--><path codeLine="75" d="M301.688,623.9771 C309.167,647.3481 317.381,673.0181 324.684,695.8391 " fill="none" id="Organizacao-to-Colaborador-1" style="stroke:#A80036;stroke-width:1.0;"/><polygon fill="#A80036" points="326.228,700.6641,327.2962,690.8734,324.7048,695.9018,319.6764,693.3104,326.228,700.6641" style="stroke:#A80036;stroke-width:1.0;"/><text fill="#000000" font-family="sans-serif" font-size="13" lengthAdjust="spacing" textLength="71" x="318" y="667.02">tem gestor</text><text fill="#000000" font-family="sans-serif" font-size="13" lengthAdjust="spacing" textLength="8" x="295.7183" y="644.5386">1</text><text fill="#000000" font-family="sans-serif" font-size="13" lengthAdjust="spacing" textLength="8" x="315.6279" y="690.0598">1</text><!--MD5=[ca49ec1e86bb5e8c049c02c54bfc3088]
link Organizacao to EnderecoPostal--><path codeLine="76" d="M500.594,623.9771 C592.06,654.3941 695.23,688.7031 775.993,715.5611 " fill="none" id="Organizacao-to-EnderecoPostal" style="stroke:#A80036;stroke-width:1.0;"/><polygon fill="#A80036" points="780.792,717.1571,773.5134,710.5223,776.0473,715.5798,770.9897,718.1138,780.792,717.1571" style="stroke:#A80036;stroke-width:1.0;"/><text fill="#000000" font-family="sans-serif" font-size="13" lengthAdjust="spacing" textLength="88" x="637" y="667.02">localizada em</text><text fill="#000000" font-family="sans-serif" font-size="13" lengthAdjust="spacing" textLength="8" x="515.1365" y="644.5386">1</text><text fill="#000000" font-family="sans-serif" font-size="13" lengthAdjust="spacing" textLength="8" x="765.1244" y="711.2797">1</text><!--MD5=[7846c904d139ffad2e5d1ca294d8e188]
link RegistoOrganizacoes to Organizacao--><path codeLine="77" d="M671.388,397.0591 C610.353,420.4711 540.102,447.4181 476.008,472.0021 " fill="none" id="RegistoOrganizacoes-to-Organizacao" style="stroke:#A80036;stroke-width:1.0;"/><polygon fill="#A80036" points="471.012,473.9191,480.8475,474.432,475.6806,472.1291,477.9835,466.9622,471.012,473.9191" style="stroke:#A80036;stroke-width:1.0;"/><text fill="#000000" font-family="sans-serif" font-size="13" lengthAdjust="spacing" textLength="97" x="590" y="440.02">tem registadas</text><text fill="#000000" font-family="sans-serif" font-size="13" lengthAdjust="spacing" textLength="8" x="645.3836" y="416.8105">1</text><text fill="#000000" font-family="sans-serif" font-size="13" lengthAdjust="spacing" textLength="7" x="482.6671" y="462.8466">*</text><!--MD5=[f214507cc45b523183507945f122534d]
link RegistoOrganizacoes to AutorizacaoFacade--><path codeLine="78" d="M811.95,397.2021 C799.675,435.0061 784.421,481.9831 774.234,513.3541 " fill="none" id="RegistoOrganizacoes-to-AutorizacaoFacade" style="stroke:#A80036;stroke-width:1.0;stroke-dasharray:7.0,7.0;"/><polygon fill="#A80036" points="772.644,518.2521,779.2261,510.9257,774.1869,513.4961,771.6165,508.457,772.644,518.2521" style="stroke:#A80036;stroke-width:1.0;"/><!--MD5=[af5da22baa9471e875a121efafac6d26]
link RegistoOrganizacoes to AlgoritmoGeradorPasswords--><path codeLine="79" d="M903.484,397.2021 C947.967,435.6281 1003.423,483.5321 1039.73,514.8911 " fill="none" id="RegistoOrganizacoes-to-AlgoritmoGeradorPasswords" style="stroke:#A80036;stroke-width:1.0;stroke-dasharray:7.0,7.0;"/><polygon fill="#A80036" points="1043.62,518.2521,1039.429,509.3395,1039.8381,514.9815,1034.196,515.3905,1043.62,518.2521" style="stroke:#A80036;stroke-width:1.0;"/><!--MD5=[6813f6b6d5984798ad897268579cad27]
link RegistoOrganizacoes to Colaborador--><path codeLine="80" d="M1107.13,397.1711 C1142.08,416.2611 1173.45,441.2491 1196,473.9531 C1233.84,528.8391 1239.18,573.1631 1196,623.9531 C1184.16,637.8751 694.405,711.3471 463.796,745.2649 " fill="none" id="RegistoOrganizacoes-to-Colaborador" style="stroke:#A80036;stroke-width:1.0;stroke-dasharray:7.0,7.0;"/><polygon fill="#A80036" points="458.735,746.0092,468.221,748.6578,463.6818,745.2821,467.0576,740.7429,458.735,746.0092" style="stroke:#A80036;stroke-width:1.0;"/><!--MD5=[97d4ebd15be5005f1f0f3804d7c2b6a2]
link RegistoOrganizacoes to EnderecoPostal--><path codeLine="81" d="M1207.68,394.9731 C1230.49,404.2171 1248.19,414.8181 1258,426.9531 C1326.16,511.3031 1324,584.9071 1258,670.9531 C1233.04,703.4931 1141.01,727.0153 1058.84,742.0561 " fill="none" id="RegistoOrganizacoes-to-EnderecoPostal" style="stroke:#A80036;stroke-width:1.0;stroke-dasharray:7.0,7.0;"/><polygon fill="#A80036" points="1053.44,743.0346,1063.0063,745.3767,1058.3609,742.1487,1061.5889,737.5032,1053.44,743.0346" style="stroke:#A80036;stroke-width:1.0;"/><!--MD5=[44be8aca2fc9ff6c70f47dec6219942d]
@startuml
title UC01 - Registar Organização - Diagrama de Classes

class RegistarOrganizacaoUI {
}

class RegistarOrganizacaoController {
    - -
    +novaOrganizacao(nome, NIF, endLocal, enderacoPostal, endLocalidade, tlf, websiteOrg, emailOrg, nomeG, funcao, tlfG, emailG, pwd)
    +registaOrganizacao()
}

class Organizacao {
    -String nome
    -String NIF
    -Website websiteOrg
    -String telefone
    -Email emailOrg
    - -
    +Organizacao(nome, NIF, websiteOrg, telefone, emailOrg, enderecoOrg, gestorColaborador)
    +EnderecoPostal novoEndereco(local, codPostal, localidade)
    +Colaborador novoColaborador(nome, funcao, tlf, email)
}

class Colaborador {
    -String funcao
    -String telefone
    -Organizacao organizacao
    - -
    +Colaborador(nome,funcao,tlf,email)
    +String getNome()
    +String getEmail()
}

class EnderecoPostal {
    -String local
    -String codPostal
    -String localidade
    - -
    +EnderecoPostal(local, codPostal, localidade)
}

class RegistoOrganizacoes {
    - -
    +Organizacao novaOrganizacao(nome, NIF, endLocal, endCodPostal, endLocalidade, tlf, site, email, nomeG, funcao, tlfG, emailG)
    +validaOrganizacao(Organizacao org)
    +registaOrganizacao(Organizacao org)
    -addOrganizacao(Organizacao org)
    -registaGestorComoUtilizador(Colaborador colabGestor)
    -enviaPwd(Email emailG, Password pwd)
}

class AutorizacaoFacade {
    - -
    +registaUtilizadorComPapeis(nomeG,emailG,pwd,listaPapel)
}

interface AlgoritmoGeradorPasswords {
    - -
    +geraPassword(nomeG, emailG)
}

class Plataforma {
    -String designacao
    - -
    +RepositorioOrganizacoes allOrganizacoes()
    +AutorizacaoFacade getAutorizacaoFacade()
    +AlgoritmoGeradorPasswords getAlgoritmoGeradorPwd()
}

RegistarOrganizacaoUI ..> RegistarOrganizacaoController
RegistarOrganizacaoController ..> RegistoOrganizacoes
RegistarOrganizacaoController ..> Organizacao
RegistarOrganizacaoController ..> Plataforma
Organizacao "1"- ->"1..*" Colaborador : tem
Organizacao "1"- ->"1" Colaborador : tem gestor
Organizacao "1"- ->"1" EnderecoPostal : localizada em
RegistoOrganizacoes "1"- ->"*" Organizacao : tem registadas
RegistoOrganizacoes ..> AutorizacaoFacade
RegistoOrganizacoes ..> AlgoritmoGeradorPasswords
RegistoOrganizacoes ..> Colaborador
RegistoOrganizacoes ..> EnderecoPostal
@enduml

PlantUML version 1.2021.01(Tue Feb 02 07:55:08 UTC 2021)
(GPL source distribution)
Java Runtime: Java(TM) SE Runtime Environment
JVM: Java HotSpot(TM) 64-Bit Server VM
Default Encoding: UTF-8
Language: en
Country: US
--></g></svg>