<?xml version="1.0" encoding="UTF-8" standalone="no"?><svg xmlns="http://www.w3.org/2000/svg" xmlns:xlink="http://www.w3.org/1999/xlink" contentScriptType="application/ecmascript" contentStyleType="text/css" height="413px" preserveAspectRatio="none" style="width:904px;height:413px;" version="1.1" viewBox="0 0 904 413" width="904px" zoomAndPan="magnify"><defs><filter height="300%" id="f1461fh3jx2ieg" width="300%" x="-1" y="-1"><feGaussianBlur result="blurOut" stdDeviation="2.0"/><feColorMatrix in="blurOut" result="blurOut2" type="matrix" values="0 0 0 0 0 0 0 0 0 0 0 0 0 0 0 0 0 0 .4 0"/><feOffset dx="4.0" dy="4.0" in="blurOut2" result="blurOut3"/><feBlend in="SourceGraphic" in2="blurOut3" mode="normal"/></filter></defs><g><text fill="#000000" font-family="sans-serif" font-size="18" lengthAdjust="spacingAndGlyphs" textLength="537" x="181" y="30.6855">UC01 - Registar Organização - Diagrama de Sequência de Sistema</text><rect fill="#FFFFFF" filter="url(#f1461fh3jx2ieg)" height="183.1094" style="stroke:#A80036;stroke-width:1.0;" width="10" x="80" y="136.25"/><line style="stroke:#A80036;stroke-width:1.0;stroke-dasharray:5.0,5.0;" x1="85" x2="85" y1="126.25" y2="328.3594"/><line style="stroke:#A80036;stroke-width:1.0;stroke-dasharray:5.0,5.0;" x1="860" x2="860" y1="126.25" y2="328.3594"/><text fill="#000000" font-family="sans-serif" font-size="14" lengthAdjust="spacingAndGlyphs" textLength="154" x="5" y="123.1738">Utilizador Não Registado</text><ellipse cx="85" cy="51.6406" fill="#FEFECE" filter="url(#f1461fh3jx2ieg)" rx="8" ry="8" style="stroke:#A80036;stroke-width:2.0;"/><path d="M85,59.6406 L85,86.6406 M72,67.6406 L98,67.6406 M85,86.6406 L72,101.6406 M85,86.6406 L98,101.6406 " fill="none" filter="url(#f1461fh3jx2ieg)" style="stroke:#A80036;stroke-width:2.0;"/><text fill="#000000" font-family="sans-serif" font-size="14" lengthAdjust="spacingAndGlyphs" textLength="154" x="5" y="341.8926">Utilizador Não Registado</text><ellipse cx="85" cy="354.9688" fill="#FEFECE" filter="url(#f1461fh3jx2ieg)" rx="8" ry="8" style="stroke:#A80036;stroke-width:2.0;"/><path d="M85,362.9688 L85,389.9688 M72,370.9688 L98,370.9688 M85,389.9688 L72,404.9688 M85,389.9688 L98,404.9688 " fill="none" filter="url(#f1461fh3jx2ieg)" style="stroke:#A80036;stroke-width:2.0;"/><rect fill="#FEFECE" filter="url(#f1461fh3jx2ieg)" height="31.6094" style="stroke:#A80036;stroke-width:1.5;" width="64" x="826" y="89.6406"/><text fill="#000000" font-family="sans-serif" font-size="14" lengthAdjust="spacingAndGlyphs" textLength="50" x="833" y="111.1738">Sistema</text><rect fill="#FEFECE" filter="url(#f1461fh3jx2ieg)" height="31.6094" style="stroke:#A80036;stroke-width:1.5;" width="64" x="826" y="327.3594"/><text fill="#000000" font-family="sans-serif" font-size="14" lengthAdjust="spacingAndGlyphs" textLength="50" x="833" y="348.8926">Sistema</text><rect fill="#FFFFFF" filter="url(#f1461fh3jx2ieg)" height="183.1094" style="stroke:#A80036;stroke-width:1.0;" width="10" x="80" y="136.25"/><polygon fill="#A80036" points="848,154.6016,858,158.6016,848,162.6016,852,158.6016" style="stroke:#A80036;stroke-width:1.0;"/><line style="stroke:#A80036;stroke-width:1.0;" x1="90" x2="854" y1="158.6016" y2="158.6016"/><text fill="#000000" font-family="sans-serif" font-size="13" lengthAdjust="spacingAndGlyphs" textLength="140" x="97" y="153.7451">1. Registar Organização</text><polygon fill="#A80036" points="101,184.9531,91,188.9531,101,192.9531,97,188.9531" style="stroke:#A80036;stroke-width:1.0;"/><line style="stroke:#A80036;stroke-width:1.0;stroke-dasharray:2.0,2.0;" x1="95" x2="859" y1="188.9531" y2="188.9531"/><text fill="#000000" font-family="sans-serif" font-size="13" lengthAdjust="spacingAndGlyphs" textLength="746" x="107" y="184.0967">2. Solicita dados da organização (nome, NIF, endereço, telefone, website, email) e sobre o gestor (nome, funçao, telefone, email)</text><polygon fill="#A80036" points="848,215.3047,858,219.3047,848,223.3047,852,219.3047" style="stroke:#A80036;stroke-width:1.0;"/><line style="stroke:#A80036;stroke-width:1.0;" x1="90" x2="854" y1="219.3047" y2="219.3047"/><text fill="#000000" font-family="sans-serif" font-size="13" lengthAdjust="spacingAndGlyphs" textLength="184" x="97" y="214.4482">3. Introduz os dados solicitados</text><polygon fill="#A80036" points="101,245.6563,91,249.6563,101,253.6563,97,249.6563" style="stroke:#A80036;stroke-width:1.0;"/><line style="stroke:#A80036;stroke-width:1.0;stroke-dasharray:2.0,2.0;" x1="95" x2="859" y1="249.6563" y2="249.6563"/><text fill="#000000" font-family="sans-serif" font-size="13" lengthAdjust="spacingAndGlyphs" textLength="317" x="107" y="244.7998">4. Apresenta os dados inseridos e solicita confirmação</text><polygon fill="#A80036" points="848,276.0078,858,280.0078,848,284.0078,852,280.0078" style="stroke:#A80036;stroke-width:1.0;"/><line style="stroke:#A80036;stroke-width:1.0;" x1="90" x2="854" y1="280.0078" y2="280.0078"/><text fill="#000000" font-family="sans-serif" font-size="13" lengthAdjust="spacingAndGlyphs" textLength="179" x="97" y="275.1514">5. Confirma os dados inseridos</text><polygon fill="#A80036" points="101,306.3594,91,310.3594,101,314.3594,97,310.3594" style="stroke:#A80036;stroke-width:1.0;"/><line style="stroke:#A80036;stroke-width:1.0;stroke-dasharray:2.0,2.0;" x1="95" x2="859" y1="310.3594" y2="310.3594"/><text fill="#000000" font-family="sans-serif" font-size="13" lengthAdjust="spacingAndGlyphs" textLength="156" x="107" y="305.5029">6. Operação bem sucedida</text><!--MD5=[4b740dc45b68716fed6fd1433d0b9a64]
@startuml

title UC01 - Registar Organização - Diagrama de Sequência de Sistema

actor "Utilizador Não Registado" as UtilizadorNaoRegistado
activate UtilizadorNaoRegistado

skinparam sequenceMessageAlign left
UtilizadorNaoRegistado -> Sistema: 1. Registar Organização
Sistema - -> UtilizadorNaoRegistado: 2. Solicita dados da organização (nome, NIF, endereço, telefone, website, email) e sobre o gestor (nome, funçao, telefone, email)

UtilizadorNaoRegistado -> Sistema: 3. Introduz os dados solicitados
UtilizadorNaoRegistado <- - Sistema: 4. Apresenta os dados inseridos e solicita confirmação

UtilizadorNaoRegistado -> Sistema: 5. Confirma os dados inseridos
UtilizadorNaoRegistado <- - Sistema: 6. Operação bem sucedida

@enduml

PlantUML version 1.2020.22(Sun Dec 06 09:36:27 GMT 2020)
(GPL source distribution)
Java Runtime: Java(TM) SE Runtime Environment
JVM: Java HotSpot(TM) 64-Bit Server VM
Default Encoding: Cp1252
Language: en
Country: US
--></g></svg>