<?xml version="1.0" encoding="UTF-8" standalone="no"?><svg xmlns="http://www.w3.org/2000/svg" xmlns:xlink="http://www.w3.org/1999/xlink" contentScriptType="application/ecmascript" contentStyleType="text/css" height="744px" preserveAspectRatio="none" style="width:500px;height:744px;" version="1.1" viewBox="0 0 500 744" width="500px" zoomAndPan="magnify"><defs><filter height="300%" id="f8aaal6rkfitt" width="300%" x="-1" y="-1"><feGaussianBlur result="blurOut" stdDeviation="2.0"/><feColorMatrix in="blurOut" result="blurOut2" type="matrix" values="0 0 0 0 0 0 0 0 0 0 0 0 0 0 0 0 0 0 .4 0"/><feOffset dx="4.0" dy="4.0" in="blurOut2" result="blurOut3"/><feBlend in="SourceGraphic" in2="blurOut3" mode="normal"/></filter></defs><g><text fill="#000000" font-family="sans-serif" font-size="18" lengthAdjust="spacingAndGlyphs" textLength="446" x="20.5" y="18.6855">UC02 - Definir Área de Atividade - Diagrama de Classes</text><!--MD5=[a73238f1d13e652ec4ebc941dc1ac63d]
class DefinirAreaUI--><rect codeLine="3" fill="#FEFECE" filter="url(#f8aaal6rkfitt)" height="48" id="DefinirAreaUI" style="stroke:#A80036;stroke-width:1.5;" width="105" x="194" y="29.6406"/><ellipse cx="209" cy="45.6406" fill="#ADD1B2" rx="11" ry="11" style="stroke:#A80036;stroke-width:1.0;"/><path d="M211.7656,41.5156 Q211.9219,41.2969 212.1094,41.1875 Q212.2969,41.0781 212.5156,41.0781 Q212.8906,41.0781 213.125,41.3359 Q213.3594,41.5938 213.3594,42.2031 L213.3594,43.6563 Q213.3594,44.2656 213.125,44.5313 Q212.8906,44.7969 212.5156,44.7969 Q212.1719,44.7969 211.9688,44.5938 Q211.7656,44.4063 211.6563,43.8906 Q211.6094,43.5313 211.4219,43.3438 Q211.0938,42.9688 210.4844,42.75 Q209.875,42.5313 209.25,42.5313 Q208.4844,42.5313 207.8516,42.8594 Q207.2188,43.1875 206.7266,43.9375 Q206.2344,44.6875 206.2344,45.7188 L206.2344,46.8125 Q206.2344,48.0469 207.125,48.8672 Q208.0156,49.6875 209.6094,49.6875 Q210.5469,49.6875 211.2031,49.4375 Q211.5938,49.2813 212.0156,48.8438 Q212.2813,48.5781 212.4297,48.5 Q212.5781,48.4219 212.7813,48.4219 Q213.1094,48.4219 213.3672,48.6797 Q213.625,48.9375 213.625,49.2813 Q213.625,49.625 213.2813,50.0313 Q212.7813,50.6094 211.9844,50.9375 Q210.9063,51.3906 209.6094,51.3906 Q208.0938,51.3906 206.8906,50.7656 Q205.9063,50.2656 205.2188,49.1953 Q204.5313,48.125 204.5313,46.8438 L204.5313,45.6875 Q204.5313,44.3594 205.1484,43.2109 Q205.7656,42.0625 206.8594,41.4453 Q207.9531,40.8281 209.1875,40.8281 Q209.9219,40.8281 210.5703,40.9922 Q211.2188,41.1563 211.7656,41.5156 Z " fill="#000000"/><text fill="#000000" font-family="sans-serif" font-size="12" lengthAdjust="spacingAndGlyphs" textLength="73" x="223" y="50.5508">DefinirAreaUI</text><line style="stroke:#A80036;stroke-width:1.5;" x1="195" x2="298" y1="61.6406" y2="61.6406"/><line style="stroke:#A80036;stroke-width:1.5;" x1="195" x2="298" y1="69.6406" y2="69.6406"/><!--MD5=[52e4e871a42a73946b148d098b3e0767]
class DefinirAreaController--><rect codeLine="6" fill="#FEFECE" filter="url(#f8aaal6rkfitt)" height="75.6719" id="DefinirAreaController" style="stroke:#A80036;stroke-width:1.5;" width="319" x="87" y="138.6406"/><ellipse cx="184.75" cy="154.6406" fill="#ADD1B2" rx="11" ry="11" style="stroke:#A80036;stroke-width:1.0;"/><path d="M187.5156,150.5156 Q187.6719,150.2969 187.8594,150.1875 Q188.0469,150.0781 188.2656,150.0781 Q188.6406,150.0781 188.875,150.3359 Q189.1094,150.5938 189.1094,151.2031 L189.1094,152.6563 Q189.1094,153.2656 188.875,153.5313 Q188.6406,153.7969 188.2656,153.7969 Q187.9219,153.7969 187.7188,153.5938 Q187.5156,153.4063 187.4063,152.8906 Q187.3594,152.5313 187.1719,152.3438 Q186.8438,151.9688 186.2344,151.75 Q185.625,151.5313 185,151.5313 Q184.2344,151.5313 183.6016,151.8594 Q182.9688,152.1875 182.4766,152.9375 Q181.9844,153.6875 181.9844,154.7188 L181.9844,155.8125 Q181.9844,157.0469 182.875,157.8672 Q183.7656,158.6875 185.3594,158.6875 Q186.2969,158.6875 186.9531,158.4375 Q187.3438,158.2813 187.7656,157.8438 Q188.0313,157.5781 188.1797,157.5 Q188.3281,157.4219 188.5313,157.4219 Q188.8594,157.4219 189.1172,157.6797 Q189.375,157.9375 189.375,158.2813 Q189.375,158.625 189.0313,159.0313 Q188.5313,159.6094 187.7344,159.9375 Q186.6563,160.3906 185.3594,160.3906 Q183.8438,160.3906 182.6406,159.7656 Q181.6563,159.2656 180.9688,158.1953 Q180.2813,157.125 180.2813,155.8438 L180.2813,154.6875 Q180.2813,153.3594 180.8984,152.2109 Q181.5156,151.0625 182.6094,150.4453 Q183.7031,149.8281 184.9375,149.8281 Q185.6719,149.8281 186.3203,149.9922 Q186.9688,150.1563 187.5156,150.5156 Z " fill="#000000"/><text fill="#000000" font-family="sans-serif" font-size="12" lengthAdjust="spacingAndGlyphs" textLength="115" x="205.25" y="159.5508">DefinirAreaController</text><line style="stroke:#A80036;stroke-width:1.5;" x1="88" x2="405" y1="170.6406" y2="170.6406"/><line style="stroke:#A80036;stroke-width:1.0;" x1="88" x2="405" y1="178.6406" y2="178.6406"/><ellipse cx="98" cy="189.6406" fill="#84BE84" rx="3" ry="3" style="stroke:#038048;stroke-width:1.0;"/><text fill="#000000" font-family="sans-serif" font-size="11" lengthAdjust="spacingAndGlyphs" textLength="293" x="107" y="194.0596">novaAreaAtividade(String cod, String dsBreve, String dsDet)</text><ellipse cx="98" cy="203.4766" fill="#84BE84" rx="3" ry="3" style="stroke:#038048;stroke-width:1.0;"/><text fill="#000000" font-family="sans-serif" font-size="11" lengthAdjust="spacingAndGlyphs" textLength="110" x="107" y="207.8955">registaAreaAtividade()</text><!--MD5=[b461128b644a6ef6c7e633b063168ee5]
class RepositorioAreaAtividade--><rect codeLine="12" fill="#FEFECE" filter="url(#f8aaal6rkfitt)" height="111.5313" id="RepositorioAreaAtividade" style="stroke:#A80036;stroke-width:1.5;" width="391" x="7" y="437.6406"/><ellipse cx="129.25" cy="457.7344" fill="#ADD1B2" rx="11" ry="11" style="stroke:#A80036;stroke-width:1.0;"/><path d="M132.0156,453.6094 Q132.1719,453.3906 132.3594,453.2813 Q132.5469,453.1719 132.7656,453.1719 Q133.1406,453.1719 133.375,453.4297 Q133.6094,453.6875 133.6094,454.2969 L133.6094,455.75 Q133.6094,456.3594 133.375,456.625 Q133.1406,456.8906 132.7656,456.8906 Q132.4219,456.8906 132.2188,456.6875 Q132.0156,456.5 131.9063,455.9844 Q131.8594,455.625 131.6719,455.4375 Q131.3438,455.0625 130.7344,454.8438 Q130.125,454.625 129.5,454.625 Q128.7344,454.625 128.1016,454.9531 Q127.4688,455.2813 126.9766,456.0313 Q126.4844,456.7813 126.4844,457.8125 L126.4844,458.9063 Q126.4844,460.1406 127.375,460.9609 Q128.2656,461.7813 129.8594,461.7813 Q130.7969,461.7813 131.4531,461.5313 Q131.8438,461.375 132.2656,460.9375 Q132.5313,460.6719 132.6797,460.5938 Q132.8281,460.5156 133.0313,460.5156 Q133.3594,460.5156 133.6172,460.7734 Q133.875,461.0313 133.875,461.375 Q133.875,461.7188 133.5313,462.125 Q133.0313,462.7031 132.2344,463.0313 Q131.1563,463.4844 129.8594,463.4844 Q128.3438,463.4844 127.1406,462.8594 Q126.1563,462.3594 125.4688,461.2891 Q124.7813,460.2188 124.7813,458.9375 L124.7813,457.7813 Q124.7813,456.4531 125.3984,455.3047 Q126.0156,454.1563 127.1094,453.5391 Q128.2031,452.9219 129.4375,452.9219 Q130.1719,452.9219 130.8203,453.0859 Q131.4688,453.25 132.0156,453.6094 Z " fill="#000000"/><text fill="#000000" font-family="sans-serif" font-size="12" font-style="italic" lengthAdjust="spacingAndGlyphs" textLength="66" x="185.75" y="455.0977">«Singleton»</text><text fill="#000000" font-family="sans-serif" font-size="12" lengthAdjust="spacingAndGlyphs" textLength="138" x="149.75" y="470.1914">RepositorioAreaAtividade</text><line style="stroke:#A80036;stroke-width:1.5;" x1="8" x2="397" y1="477.8281" y2="477.8281"/><line style="stroke:#A80036;stroke-width:1.0;" x1="8" x2="397" y1="485.8281" y2="485.8281"/><ellipse cx="18" cy="496.8281" fill="#84BE84" rx="3" ry="3" style="stroke:#038048;stroke-width:1.0;"/><text fill="#000000" font-family="sans-serif" font-size="11" lengthAdjust="spacingAndGlyphs" textLength="365" x="27" y="501.2471">AreaAtividade novaAreaAtividade(String cod, String dsBreve, String dsDet)</text><ellipse cx="18" cy="510.6641" fill="#84BE84" rx="3" ry="3" style="stroke:#038048;stroke-width:1.0;"/><text fill="#000000" font-family="sans-serif" font-size="11" lengthAdjust="spacingAndGlyphs" textLength="199" x="27" y="515.083">validaAreaAtividade(AreaAtividade area)</text><ellipse cx="18" cy="524.5" fill="#84BE84" rx="3" ry="3" style="stroke:#038048;stroke-width:1.0;"/><text fill="#000000" font-family="sans-serif" font-size="11" lengthAdjust="spacingAndGlyphs" textLength="204" x="27" y="528.9189">registaAreaAtividade(AreaAtividade area)</text><rect fill="#F24D5C" height="6" style="stroke:#C82930;stroke-width:1.0;" width="6" x="15" y="535.3359"/><text fill="#000000" font-family="sans-serif" font-size="11" lengthAdjust="spacingAndGlyphs" textLength="189" x="27" y="542.7549">addAreaAtividade(AreaAtividade area)</text><!--MD5=[ecaed46f78f8cfe1e9ce18477649be18]
class Plataforma--><rect codeLine="20" fill="#FEFECE" filter="url(#f8aaal6rkfitt)" height="83.8594" id="Plataforma" style="stroke:#A80036;stroke-width:1.5;" width="304" x="94.5" y="275.6406"/><ellipse cx="211.25" cy="295.7344" fill="#ADD1B2" rx="11" ry="11" style="stroke:#A80036;stroke-width:1.0;"/><path d="M214.0156,291.6094 Q214.1719,291.3906 214.3594,291.2813 Q214.5469,291.1719 214.7656,291.1719 Q215.1406,291.1719 215.375,291.4297 Q215.6094,291.6875 215.6094,292.2969 L215.6094,293.75 Q215.6094,294.3594 215.375,294.625 Q215.1406,294.8906 214.7656,294.8906 Q214.4219,294.8906 214.2188,294.6875 Q214.0156,294.5 213.9063,293.9844 Q213.8594,293.625 213.6719,293.4375 Q213.3438,293.0625 212.7344,292.8438 Q212.125,292.625 211.5,292.625 Q210.7344,292.625 210.1016,292.9531 Q209.4688,293.2813 208.9766,294.0313 Q208.4844,294.7813 208.4844,295.8125 L208.4844,296.9063 Q208.4844,298.1406 209.375,298.9609 Q210.2656,299.7813 211.8594,299.7813 Q212.7969,299.7813 213.4531,299.5313 Q213.8438,299.375 214.2656,298.9375 Q214.5313,298.6719 214.6797,298.5938 Q214.8281,298.5156 215.0313,298.5156 Q215.3594,298.5156 215.6172,298.7734 Q215.875,299.0313 215.875,299.375 Q215.875,299.7188 215.5313,300.125 Q215.0313,300.7031 214.2344,301.0313 Q213.1563,301.4844 211.8594,301.4844 Q210.3438,301.4844 209.1406,300.8594 Q208.1563,300.3594 207.4688,299.2891 Q206.7813,298.2188 206.7813,296.9375 L206.7813,295.7813 Q206.7813,294.4531 207.3984,293.3047 Q208.0156,292.1563 209.1094,291.5391 Q210.2031,290.9219 211.4375,290.9219 Q212.1719,290.9219 212.8203,291.0859 Q213.4688,291.25 214.0156,291.6094 Z " fill="#000000"/><text fill="#000000" font-family="sans-serif" font-size="12" font-style="italic" lengthAdjust="spacingAndGlyphs" textLength="66" x="229.75" y="293.0977">«Singleton»</text><text fill="#000000" font-family="sans-serif" font-size="12" lengthAdjust="spacingAndGlyphs" textLength="60" x="232.75" y="308.1914">Plataforma</text><line style="stroke:#A80036;stroke-width:1.5;" x1="95.5" x2="397.5" y1="315.8281" y2="315.8281"/><rect fill="none" height="6" style="stroke:#C82930;stroke-width:1.0;" width="6" x="102.5" y="323.8281"/><text fill="#000000" font-family="sans-serif" font-size="11" lengthAdjust="spacingAndGlyphs" textLength="87" x="114.5" y="331.2471">String designacao</text><line style="stroke:#A80036;stroke-width:1.0;" x1="95.5" x2="397.5" y1="337.6641" y2="337.6641"/><ellipse cx="105.5" cy="348.6641" fill="#84BE84" rx="3" ry="3" style="stroke:#038048;stroke-width:1.0;"/><text fill="#000000" font-family="sans-serif" font-size="11" lengthAdjust="spacingAndGlyphs" textLength="278" x="114.5" y="353.083">RepositorioAreasAtividade getRepositorioAreaAtividade()</text><!--MD5=[02456e6632d968d6f68141e5893c6991]
class AreaAtividade--><rect codeLine="26" fill="#FEFECE" filter="url(#f8aaal6rkfitt)" height="103.3438" id="AreaAtividade" style="stroke:#A80036;stroke-width:1.5;" width="319" x="167" y="627.6406"/><ellipse cx="285.25" cy="643.6406" fill="#ADD1B2" rx="11" ry="11" style="stroke:#A80036;stroke-width:1.0;"/><path d="M288.0156,639.5156 Q288.1719,639.2969 288.3594,639.1875 Q288.5469,639.0781 288.7656,639.0781 Q289.1406,639.0781 289.375,639.3359 Q289.6094,639.5938 289.6094,640.2031 L289.6094,641.6563 Q289.6094,642.2656 289.375,642.5313 Q289.1406,642.7969 288.7656,642.7969 Q288.4219,642.7969 288.2188,642.5938 Q288.0156,642.4063 287.9063,641.8906 Q287.8594,641.5313 287.6719,641.3438 Q287.3438,640.9688 286.7344,640.75 Q286.125,640.5313 285.5,640.5313 Q284.7344,640.5313 284.1016,640.8594 Q283.4688,641.1875 282.9766,641.9375 Q282.4844,642.6875 282.4844,643.7188 L282.4844,644.8125 Q282.4844,646.0469 283.375,646.8672 Q284.2656,647.6875 285.8594,647.6875 Q286.7969,647.6875 287.4531,647.4375 Q287.8438,647.2813 288.2656,646.8438 Q288.5313,646.5781 288.6797,646.5 Q288.8281,646.4219 289.0313,646.4219 Q289.3594,646.4219 289.6172,646.6797 Q289.875,646.9375 289.875,647.2813 Q289.875,647.625 289.5313,648.0313 Q289.0313,648.6094 288.2344,648.9375 Q287.1563,649.3906 285.8594,649.3906 Q284.3438,649.3906 283.1406,648.7656 Q282.1563,648.2656 281.4688,647.1953 Q280.7813,646.125 280.7813,644.8438 L280.7813,643.6875 Q280.7813,642.3594 281.3984,641.2109 Q282.0156,640.0625 283.1094,639.4453 Q284.2031,638.8281 285.4375,638.8281 Q286.1719,638.8281 286.8203,638.9922 Q287.4688,639.1563 288.0156,639.5156 Z " fill="#000000"/><text fill="#000000" font-family="sans-serif" font-size="12" lengthAdjust="spacingAndGlyphs" textLength="74" x="305.75" y="648.5508">AreaAtividade</text><line style="stroke:#A80036;stroke-width:1.5;" x1="168" x2="485" y1="659.6406" y2="659.6406"/><rect fill="none" height="6" style="stroke:#C82930;stroke-width:1.0;" width="6" x="175" y="667.6406"/><text fill="#000000" font-family="sans-serif" font-size="11" lengthAdjust="spacingAndGlyphs" textLength="63" x="187" y="675.0596">String codigo</text><rect fill="none" height="6" style="stroke:#C82930;stroke-width:1.0;" width="6" x="175" y="681.4766"/><text fill="#000000" font-family="sans-serif" font-size="11" lengthAdjust="spacingAndGlyphs" textLength="84" x="187" y="688.8955">String descBreve</text><rect fill="none" height="6" style="stroke:#C82930;stroke-width:1.0;" width="6" x="175" y="695.3125"/><text fill="#000000" font-family="sans-serif" font-size="11" lengthAdjust="spacingAndGlyphs" textLength="103" x="187" y="702.7314">String descDetalhada</text><line style="stroke:#A80036;stroke-width:1.0;" x1="168" x2="485" y1="709.1484" y2="709.1484"/><ellipse cx="178" cy="720.1484" fill="#84BE84" rx="3" ry="3" style="stroke:#038048;stroke-width:1.0;"/><text fill="#000000" font-family="sans-serif" font-size="11" lengthAdjust="spacingAndGlyphs" textLength="293" x="187" y="724.5674">AreaAtividade(String cod, String descBreve, String descDet)</text><!--MD5=[6b612a1e5e59cc8b145cfd6c9f06b931]
link DefinirAreaUI to DefinirAreaController--><path codeLine="34" d="M246.5,77.6806 C246.5,93.3506 246.5,114.5506 246.5,133.2206 " fill="none" id="DefinirAreaUI-to-DefinirAreaController" style="stroke:#A80036;stroke-width:1.0;stroke-dasharray:7.0,7.0;"/><polygon fill="#A80036" points="246.5,138.4106,250.5,129.4106,246.5,133.4106,242.5,129.4106,246.5,138.4106" style="stroke:#A80036;stroke-width:1.0;"/><!--MD5=[8cc80a894aa07068b56dc5450933edc8]
link DefinirAreaController to AreaAtividade--><path codeLine="35" d="M349.78,214.8306 C376.16,229.5406 401.33,249.3906 416.5,275.6406 C430.8,300.3906 446.31,451.9406 415.5,549.6406 C407.16,576.0906 391.3,601.8906 375.25,623.3606 " fill="none" id="DefinirAreaController-to-AreaAtividade" style="stroke:#A80036;stroke-width:1.0;stroke-dasharray:7.0,7.0;"/><polygon fill="#A80036" points="372.03,627.5906,380.66,622.8447,375.0551,623.6095,374.2902,618.0046,372.03,627.5906" style="stroke:#A80036;stroke-width:1.0;"/><!--MD5=[d44f1c5ec820c81f12ff3f79e1965be9]
link DefinirAreaController to Plataforma--><path codeLine="36" d="M246.5,214.8906 C246.5,231.9406 246.5,252.3206 246.5,270.3506 " fill="none" id="DefinirAreaController-to-Plataforma" style="stroke:#A80036;stroke-width:1.0;stroke-dasharray:7.0,7.0;"/><polygon fill="#A80036" points="246.5,275.3706,250.5,266.3706,246.5,270.3706,242.5,266.3706,246.5,275.3706" style="stroke:#A80036;stroke-width:1.0;"/><!--MD5=[d676402dae04481080d9c2f27d4c61be]
link DefinirAreaController to RepositorioAreaAtividade--><path codeLine="37" d="M143.22,214.8306 C116.84,229.5406 91.67,249.3906 76.5,275.6406 C45.55,329.2106 87.71,390.1206 131.39,433.7406 " fill="none" id="DefinirAreaController-to-RepositorioAreaAtividade" style="stroke:#A80036;stroke-width:1.0;stroke-dasharray:7.0,7.0;"/><polygon fill="#A80036" points="135.08,437.3806,131.4888,428.2098,131.5231,433.8666,125.8664,433.9009,135.08,437.3806" style="stroke:#A80036;stroke-width:1.0;"/><!--MD5=[468123eceea2f45ff1556c57619e5999]
link Plataforma to RepositorioAreaAtividade--><path codeLine="38" d="M236.07,359.8806 C230.59,381.5506 223.77,408.5206 217.71,432.4806 " fill="none" id="Plataforma-to-RepositorioAreaAtividade" style="stroke:#A80036;stroke-width:1.0;"/><polygon fill="#A80036" points="216.43,437.5406,222.4934,429.7795,217.6427,432.6899,214.7323,427.8392,216.43,437.5406" style="stroke:#A80036;stroke-width:1.0;"/><text fill="#000000" font-family="sans-serif" font-size="13" lengthAdjust="spacingAndGlyphs" textLength="22" x="229.5" y="404.1357">tem</text><text fill="#000000" font-family="sans-serif" font-size="13" lengthAdjust="spacingAndGlyphs" textLength="7" x="226.937" y="381.1064">1</text><text fill="#000000" font-family="sans-serif" font-size="13" lengthAdjust="spacingAndGlyphs" textLength="7" x="210.7663" y="426.8755">1</text><!--MD5=[19eeb1dfbd9c5d48a787160b7258c100]
link RepositorioAreaAtividade to AreaAtividade--><path codeLine="39" d="M239.7,549.7006 C255.42,572.9506 273.68,599.9706 289.38,623.2106 " fill="none" id="RepositorioAreaAtividade-to-AreaAtividade" style="stroke:#A80036;stroke-width:1.0;"/><polygon fill="#A80036" points="292.29,627.5106,290.5644,617.8141,289.4902,623.368,283.9363,622.2938,292.29,627.5106" style="stroke:#A80036;stroke-width:1.0;"/><text fill="#000000" font-family="sans-serif" font-size="13" lengthAdjust="spacingAndGlyphs" textLength="38" x="272.5" y="594.1357">possui</text><text fill="#000000" font-family="sans-serif" font-size="13" lengthAdjust="spacingAndGlyphs" textLength="7" x="236.5966" y="570.6501">1</text><text fill="#000000" font-family="sans-serif" font-size="13" lengthAdjust="spacingAndGlyphs" textLength="5" x="282.1277" y="616.6208">*</text><!--MD5=[1f86d54e128735e9419a20fb3adcb1d4]
@startuml
title UC02 - Definir Área de Atividade - Diagrama de Classes

class DefinirAreaUI {
}

class DefinirAreaController {
    - -
    +novaAreaAtividade(String cod, String dsBreve, String dsDet)
    +registaAreaAtividade()
}

class RepositorioAreaAtividade <<Singleton>>{
    - -
    +AreaAtividade novaAreaAtividade(String cod, String dsBreve, String dsDet)
    +validaAreaAtividade(AreaAtividade area)
    +registaAreaAtividade(AreaAtividade area)
    -addAreaAtividade(AreaAtividade area)
    }

class Plataforma <<Singleton>>{
    -String designacao
    - -
    +RepositorioAreasAtividade getRepositorioAreaAtividade()
}

class AreaAtividade {
    -String codigo
    -String descBreve
    -String descDetalhada
    - -
    +AreaAtividade(String cod, String descBreve, String descDet)
}

DefinirAreaUI ..> DefinirAreaController
DefinirAreaController ..> AreaAtividade
DefinirAreaController ..> Plataforma
DefinirAreaController ..> RepositorioAreaAtividade
Plataforma "1"- ->"1" RepositorioAreaAtividade : tem
RepositorioAreaAtividade "1"- ->"*" AreaAtividade : possui

@enduml

PlantUML version 1.2020.22(Sun Dec 06 09:36:27 GMT 2020)
(GPL source distribution)
Java Runtime: Java(TM) SE Runtime Environment
JVM: Java HotSpot(TM) 64-Bit Server VM
Default Encoding: Cp1252
Language: en
Country: US
--></g></svg>